%TF.GenerationSoftware,KiCad,Pcbnew,7.0.9*%
%TF.CreationDate,2023-12-29T21:55:34-05:00*%
%TF.ProjectId,Esp Controller,45737020-436f-46e7-9472-6f6c6c65722e,rev?*%
%TF.SameCoordinates,Original*%
%TF.FileFunction,Copper,L1,Top*%
%TF.FilePolarity,Positive*%
%FSLAX46Y46*%
G04 Gerber Fmt 4.6, Leading zero omitted, Abs format (unit mm)*
G04 Created by KiCad (PCBNEW 7.0.9) date 2023-12-29 21:55:34*
%MOMM*%
%LPD*%
G01*
G04 APERTURE LIST*
%TA.AperFunction,ComponentPad*%
%ADD10R,1.500000X1.500000*%
%TD*%
%TA.AperFunction,ComponentPad*%
%ADD11C,1.500000*%
%TD*%
%TA.AperFunction,ComponentPad*%
%ADD12R,1.200000X2.000000*%
%TD*%
%TA.AperFunction,ComponentPad*%
%ADD13O,1.200000X2.000000*%
%TD*%
%TA.AperFunction,ViaPad*%
%ADD14C,0.800000*%
%TD*%
%TA.AperFunction,Conductor*%
%ADD15C,0.500000*%
%TD*%
%TA.AperFunction,Conductor*%
%ADD16C,0.250000*%
%TD*%
G04 APERTURE END LIST*
D10*
%TO.P,J2,1*%
%TO.N,/Red2*%
X142240000Y-91440000D03*
D11*
%TO.P,J2,2*%
%TO.N,/Yel2*%
X143510000Y-88900000D03*
%TO.P,J2,3*%
%TO.N,/USBV*%
X144780000Y-91440000D03*
%TO.P,J2,4*%
%TO.N,/Blu2*%
X146050000Y-88900000D03*
%TO.P,J2,5*%
%TO.N,/Wht2*%
X147320000Y-91440000D03*
%TO.P,J2,6*%
%TO.N,/Grn2*%
X148590000Y-88900000D03*
%TO.P,J2,7*%
%TO.N,GND*%
X149860000Y-91440000D03*
%TO.P,J2,8*%
X151130000Y-88900000D03*
%TD*%
D10*
%TO.P,J3,1*%
%TO.N,/Red3*%
X120177500Y-91420000D03*
D11*
%TO.P,J3,2*%
%TO.N,/Yel1*%
X121447500Y-88880000D03*
%TO.P,J3,3*%
%TO.N,/USBV*%
X122717500Y-91420000D03*
%TO.P,J3,4*%
%TO.N,/Blu3*%
X123987500Y-88880000D03*
%TO.P,J3,5*%
%TO.N,/Wht3*%
X125257500Y-91420000D03*
%TO.P,J3,6*%
%TO.N,/Grn3*%
X126527500Y-88880000D03*
%TO.P,J3,7*%
%TO.N,GND*%
X127797500Y-91420000D03*
%TO.P,J3,8*%
X129067500Y-88880000D03*
%TD*%
D10*
%TO.P,J1,1*%
%TO.N,/Red1*%
X98587500Y-91420000D03*
D11*
%TO.P,J1,2*%
%TO.N,/Yel1*%
X99857500Y-88880000D03*
%TO.P,J1,3*%
%TO.N,/USBV*%
X101127500Y-91420000D03*
%TO.P,J1,4*%
%TO.N,/Blu1*%
X102397500Y-88880000D03*
%TO.P,J1,5*%
%TO.N,/Wht1*%
X103667500Y-91420000D03*
%TO.P,J1,6*%
%TO.N,/Grn1*%
X104937500Y-88880000D03*
%TO.P,J1,7*%
%TO.N,GND*%
X106207500Y-91420000D03*
%TO.P,J1,8*%
X107477500Y-88880000D03*
%TD*%
D10*
%TO.P,J4,1*%
%TO.N,/Red4*%
X164627500Y-91420000D03*
D11*
%TO.P,J4,2*%
%TO.N,/Yel2*%
X165897500Y-88880000D03*
%TO.P,J4,3*%
%TO.N,/USBV*%
X167167500Y-91420000D03*
%TO.P,J4,4*%
%TO.N,/Blu4*%
X168437500Y-88880000D03*
%TO.P,J4,5*%
%TO.N,/Wht4*%
X169707500Y-91420000D03*
%TO.P,J4,6*%
%TO.N,/Grn4*%
X170977500Y-88880000D03*
%TO.P,J4,7*%
%TO.N,GND*%
X172247500Y-91420000D03*
%TO.P,J4,8*%
X173517500Y-88880000D03*
%TD*%
D12*
%TO.P,U2,1,3V3*%
%TO.N,unconnected-(U2-3V3-Pad1)*%
X141823440Y-53340000D03*
D13*
%TO.P,U2,2,CHIP_PU*%
%TO.N,unconnected-(U2-CHIP_PU-Pad2)*%
X139283440Y-53340000D03*
%TO.P,U2,3,SENSOR_VP/GPIO36/ADC1_CH0*%
%TO.N,unconnected-(U2-SENSOR_VP{slash}GPIO36{slash}ADC1_CH0-Pad3)*%
X136743440Y-53340000D03*
%TO.P,U2,4,SENSOR_VN/GPIO39/ADC1_CH3*%
%TO.N,unconnected-(U2-SENSOR_VN{slash}GPIO39{slash}ADC1_CH3-Pad4)*%
X134203440Y-53340000D03*
%TO.P,U2,5,VDET_1/GPIO34/ADC1_CH6*%
%TO.N,unconnected-(U2-VDET_1{slash}GPIO34{slash}ADC1_CH6-Pad5)*%
X131663440Y-53340000D03*
%TO.P,U2,6,VDET_2/GPIO35/ADC1_CH7*%
%TO.N,unconnected-(U2-VDET_2{slash}GPIO35{slash}ADC1_CH7-Pad6)*%
X129123440Y-53340000D03*
%TO.P,U2,7,32K_XP/GPIO32/ADC1_CH4*%
%TO.N,/Red2*%
X126583440Y-53340000D03*
%TO.P,U2,8,32K_XN/GPIO33/ADC1_CH5*%
%TO.N,/Wht1*%
X124043440Y-53340000D03*
%TO.P,U2,9,DAC_1/ADC2_CH8/GPIO25*%
%TO.N,/Grn4*%
X121503440Y-53340000D03*
%TO.P,U2,10,DAC_2/ADC2_CH9/GPIO26*%
%TO.N,/Grn1*%
X118963440Y-53340000D03*
%TO.P,U2,11,ADC2_CH7/GPIO27*%
%TO.N,/Blu1*%
X116423440Y-53340000D03*
%TO.P,U2,12,MTMS/GPIO14/ADC2_CH6*%
%TO.N,/Yel1*%
X113883440Y-53340000D03*
%TO.P,U2,13,MTDI/GPIO12/ADC2_CH5*%
%TO.N,/Red1*%
X111343440Y-53340000D03*
%TO.P,U2,14,GND*%
%TO.N,GND*%
X108803440Y-53340000D03*
%TO.P,U2,15,MTCK/GPIO13/ADC2_CH4*%
%TO.N,/Red3*%
X106263440Y-53340000D03*
%TO.P,U2,16,SD_DATA2/GPIO9*%
%TO.N,unconnected-(U2-SD_DATA2{slash}GPIO9-Pad16)*%
X103723440Y-53340000D03*
%TO.P,U2,17,SD_DATA3/GPIO10*%
%TO.N,unconnected-(U2-SD_DATA3{slash}GPIO10-Pad17)*%
X101183440Y-53340000D03*
%TO.P,U2,18,CMD*%
%TO.N,unconnected-(U2-CMD-Pad18)*%
X98643440Y-53340000D03*
%TO.P,U2,19,5V*%
%TO.N,/USBV*%
X96103440Y-53340000D03*
%TO.P,U2,20,SD_CLK/GPIO6*%
%TO.N,unconnected-(U2-SD_CLK{slash}GPIO6-Pad20)*%
X96106160Y-78736320D03*
%TO.P,U2,21,SD_DATA0/GPIO7*%
%TO.N,unconnected-(U2-SD_DATA0{slash}GPIO7-Pad21)*%
X98646160Y-78736320D03*
%TO.P,U2,22,SD_DATA1/GPIO8*%
%TO.N,unconnected-(U2-SD_DATA1{slash}GPIO8-Pad22)*%
X101183440Y-78740000D03*
%TO.P,U2,23,MTDO/GPIO15/ADC2_CH3*%
%TO.N,/Grn3*%
X103723440Y-78740000D03*
%TO.P,U2,24,ADC2_CH2/GPIO2*%
%TO.N,unconnected-(U2-ADC2_CH2{slash}GPIO2-Pad24)*%
X106263440Y-78740000D03*
%TO.P,U2,25,GPIO0/BOOT/ADC2_CH1*%
%TO.N,unconnected-(U2-GPIO0{slash}BOOT{slash}ADC2_CH1-Pad25)*%
X108803440Y-78740000D03*
%TO.P,U2,26,ADC2_CH0/GPIO4*%
%TO.N,/Yel2*%
X111343440Y-78740000D03*
%TO.P,U2,27,GPIO16*%
%TO.N,/Blu3*%
X113883440Y-78740000D03*
%TO.P,U2,28,GPIO17*%
%TO.N,/Wht3*%
X116423440Y-78740000D03*
%TO.P,U2,29,GPIO5*%
%TO.N,/Blu2*%
X118963440Y-78740000D03*
%TO.P,U2,30,GPIO18*%
%TO.N,/Grn2*%
X121503440Y-78740000D03*
%TO.P,U2,31,GPIO19*%
%TO.N,/Wht2*%
X124043440Y-78740000D03*
%TO.P,U2,32,GND*%
%TO.N,GND*%
X126583440Y-78740000D03*
%TO.P,U2,33,GPIO21*%
%TO.N,/Red4*%
X129123440Y-78740000D03*
%TO.P,U2,34,U0RXD/GPIO3*%
%TO.N,unconnected-(U2-U0RXD{slash}GPIO3-Pad34)*%
X131663440Y-78740000D03*
%TO.P,U2,35,U0TXD/GPIO1*%
%TO.N,unconnected-(U2-U0TXD{slash}GPIO1-Pad35)*%
X134203440Y-78740000D03*
%TO.P,U2,36,GPIO22*%
%TO.N,/Blu4*%
X136743440Y-78740000D03*
%TO.P,U2,37,GPIO23*%
%TO.N,/Wht4*%
X139283440Y-78740000D03*
%TO.P,U2,38,GND*%
%TO.N,GND*%
X141823440Y-78740000D03*
%TD*%
D14*
%TO.N,/Yel1*%
X114300000Y-91440000D03*
%TO.N,/Blu3*%
X114000000Y-86500000D03*
%TO.N,/Red2*%
X134750000Y-91500000D03*
%TO.N,/Grn3*%
X124750000Y-86750000D03*
%TD*%
D15*
%TO.N,/USBV*%
X102787500Y-93080000D02*
X97280000Y-93080000D01*
X121057500Y-93080000D02*
X143600000Y-93080000D01*
X102787500Y-93080000D02*
X121057500Y-93080000D01*
X94200000Y-55243440D02*
X96103440Y-53340000D01*
X121057500Y-93080000D02*
X122717500Y-91420000D01*
X97280000Y-93080000D02*
X94200000Y-90000000D01*
X94200000Y-90000000D02*
X94200000Y-55243440D01*
X165507500Y-93080000D02*
X167167500Y-91420000D01*
X143600000Y-92620000D02*
X144780000Y-91440000D01*
X143600000Y-93080000D02*
X143600000Y-92620000D01*
X101127500Y-91420000D02*
X102787500Y-93080000D01*
X143600000Y-93080000D02*
X165507500Y-93080000D01*
D16*
%TO.N,/Yel1*%
X113245000Y-92495000D02*
X114300000Y-91440000D01*
X104315000Y-90345000D02*
X105132500Y-91162500D01*
X105762220Y-92495000D02*
X113245000Y-92495000D01*
X105132500Y-91865280D02*
X105762220Y-92495000D01*
X101322500Y-90345000D02*
X104315000Y-90345000D01*
X105132500Y-91162500D02*
X105132500Y-91865280D01*
X99857500Y-88880000D02*
X101322500Y-90345000D01*
D15*
%TO.N,GND*%
X108803440Y-60960000D02*
X126583440Y-78740000D01*
X108803440Y-53340000D02*
X108803440Y-60960000D01*
D16*
%TO.N,/Red4*%
X156230000Y-91420000D02*
X164627500Y-91420000D01*
X156210000Y-91440000D02*
X156230000Y-91420000D01*
X134140000Y-83756560D02*
X148526560Y-83756560D01*
X148526560Y-83756560D02*
X156210000Y-91440000D01*
X129123440Y-78740000D02*
X134140000Y-83756560D01*
%TO.N,/Yel2*%
X130360000Y-85910000D02*
X134620000Y-90170000D01*
X111343440Y-78740000D02*
X118513440Y-85910000D01*
X142240000Y-90170000D02*
X143510000Y-88900000D01*
X134620000Y-90170000D02*
X142240000Y-90170000D01*
X118513440Y-85910000D02*
X130360000Y-85910000D01*
%TO.N,/Blu4*%
X156210000Y-90170000D02*
X167147500Y-90170000D01*
X149346560Y-83306560D02*
X156210000Y-90170000D01*
X136743440Y-78740000D02*
X136743440Y-80350000D01*
X167147500Y-90170000D02*
X168437500Y-88880000D01*
X139700000Y-83306560D02*
X149346560Y-83306560D01*
X136743440Y-80350000D02*
X139700000Y-83306560D01*
%TO.N,/Wht4*%
X150166560Y-82856560D02*
X156210000Y-88900000D01*
X162560000Y-88900000D02*
X163830000Y-87630000D01*
X168707780Y-87630000D02*
X169707500Y-88629720D01*
X143400000Y-82856560D02*
X150166560Y-82856560D01*
X169707500Y-88629720D02*
X169707500Y-91420000D01*
X156210000Y-88900000D02*
X162560000Y-88900000D01*
X139283440Y-78740000D02*
X143400000Y-82856560D01*
X163830000Y-87630000D02*
X168707780Y-87630000D01*
%TO.N,/Grn2*%
X121503440Y-78740000D02*
X127420000Y-84656560D01*
X127420000Y-84656560D02*
X132916560Y-84656560D01*
X132916560Y-84656560D02*
X134620000Y-86360000D01*
X146050000Y-86360000D02*
X148590000Y-88900000D01*
X134620000Y-86360000D02*
X146050000Y-86360000D01*
%TO.N,/Red3*%
X116860000Y-91420000D02*
X116840000Y-91440000D01*
X102798440Y-60701560D02*
X106263440Y-57236560D01*
X106263440Y-57236560D02*
X106263440Y-53340000D01*
X105500000Y-85250000D02*
X102798440Y-82548440D01*
X116840000Y-91440000D02*
X115570000Y-91440000D01*
X115570000Y-91440000D02*
X110490000Y-86360000D01*
X108525292Y-85250000D02*
X105500000Y-85250000D01*
X110490000Y-86360000D02*
X109635292Y-86360000D01*
X102798440Y-82548440D02*
X102798440Y-60701560D01*
X109635292Y-86360000D02*
X108525292Y-85250000D01*
X120177500Y-91420000D02*
X116860000Y-91420000D01*
%TO.N,/Blu3*%
X114750000Y-89350000D02*
X114750000Y-89250000D01*
X115570000Y-90170000D02*
X122697500Y-90170000D01*
X114750000Y-89250000D02*
X114000000Y-88500000D01*
X115570000Y-90170000D02*
X114750000Y-89350000D01*
X114000000Y-88500000D02*
X114000000Y-86500000D01*
X122697500Y-90170000D02*
X123987500Y-88880000D01*
%TO.N,/Red2*%
X134690000Y-91440000D02*
X134750000Y-91500000D01*
X135000000Y-91500000D02*
X135060000Y-91440000D01*
X134620000Y-91440000D02*
X134690000Y-91440000D01*
X134750000Y-91500000D02*
X134810000Y-91440000D01*
X134940000Y-91440000D02*
X135000000Y-91500000D01*
X135060000Y-91440000D02*
X142240000Y-91440000D01*
X134810000Y-91440000D02*
X134940000Y-91440000D01*
%TO.N,/Blu2*%
X134620000Y-87630000D02*
X144780000Y-87630000D01*
X132096560Y-85106560D02*
X134620000Y-87630000D01*
X125330000Y-85106560D02*
X132096560Y-85106560D01*
X118963440Y-78740000D02*
X125330000Y-85106560D01*
X144780000Y-87630000D02*
X146050000Y-88900000D01*
%TO.N,/Wht2*%
X124043440Y-78740000D02*
X129510000Y-84206560D01*
X147570280Y-91440000D02*
X147320000Y-91440000D01*
X147320000Y-85090000D02*
X149860000Y-87630000D01*
X149860000Y-87630000D02*
X149860000Y-89150280D01*
X135006560Y-84206560D02*
X135890000Y-85090000D01*
X129510000Y-84206560D02*
X135006560Y-84206560D01*
X135890000Y-85090000D02*
X147320000Y-85090000D01*
X149860000Y-89150280D02*
X147570280Y-91440000D01*
%TO.N,/Grn3*%
X104123440Y-78740000D02*
X103723440Y-78740000D01*
X108250000Y-84750000D02*
X114000000Y-84750000D01*
X115000000Y-84750000D02*
X117000000Y-86750000D01*
X103723440Y-78740000D02*
X103723440Y-80223440D01*
X114000000Y-84750000D02*
X115000000Y-84750000D01*
X103723440Y-80223440D02*
X107250000Y-83750000D01*
X117000000Y-86750000D02*
X124750000Y-86750000D01*
X107250000Y-83750000D02*
X108250000Y-84750000D01*
%TO.N,/Grn4*%
X168847500Y-86750000D02*
X155250000Y-86750000D01*
X150750000Y-82250000D02*
X143625292Y-82250000D01*
X121503440Y-58753440D02*
X121503440Y-53340000D01*
X155250000Y-86750000D02*
X150750000Y-82250000D01*
X140500000Y-79124708D02*
X140500000Y-77750000D01*
X140500000Y-77750000D02*
X121503440Y-58753440D01*
X170977500Y-88880000D02*
X168847500Y-86750000D01*
X143625292Y-82250000D02*
X140500000Y-79124708D01*
%TD*%
M02*
