%TF.GenerationSoftware,KiCad,Pcbnew,7.0.8*%
%TF.CreationDate,2023-11-19T21:35:35-05:00*%
%TF.ProjectId,Light Pcb,4c696768-7420-4506-9362-2e6b69636164,rev?*%
%TF.SameCoordinates,Original*%
%TF.FileFunction,Legend,Top*%
%TF.FilePolarity,Positive*%
%FSLAX46Y46*%
G04 Gerber Fmt 4.6, Leading zero omitted, Abs format (unit mm)*
G04 Created by KiCad (PCBNEW 7.0.8) date 2023-11-19 21:35:35*
%MOMM*%
%LPD*%
G01*
G04 APERTURE LIST*
%ADD10C,0.150000*%
%ADD11C,0.120000*%
G04 APERTURE END LIST*
D10*
X103974819Y-58586666D02*
X103498628Y-58919999D01*
X103974819Y-59158094D02*
X102974819Y-59158094D01*
X102974819Y-59158094D02*
X102974819Y-58777142D01*
X102974819Y-58777142D02*
X103022438Y-58681904D01*
X103022438Y-58681904D02*
X103070057Y-58634285D01*
X103070057Y-58634285D02*
X103165295Y-58586666D01*
X103165295Y-58586666D02*
X103308152Y-58586666D01*
X103308152Y-58586666D02*
X103403390Y-58634285D01*
X103403390Y-58634285D02*
X103451009Y-58681904D01*
X103451009Y-58681904D02*
X103498628Y-58777142D01*
X103498628Y-58777142D02*
X103498628Y-59158094D01*
X103974819Y-57634285D02*
X103974819Y-58205713D01*
X103974819Y-57919999D02*
X102974819Y-57919999D01*
X102974819Y-57919999D02*
X103117676Y-58015237D01*
X103117676Y-58015237D02*
X103212914Y-58110475D01*
X103212914Y-58110475D02*
X103260533Y-58205713D01*
X95083333Y-69654819D02*
X94750000Y-69178628D01*
X94511905Y-69654819D02*
X94511905Y-68654819D01*
X94511905Y-68654819D02*
X94892857Y-68654819D01*
X94892857Y-68654819D02*
X94988095Y-68702438D01*
X94988095Y-68702438D02*
X95035714Y-68750057D01*
X95035714Y-68750057D02*
X95083333Y-68845295D01*
X95083333Y-68845295D02*
X95083333Y-68988152D01*
X95083333Y-68988152D02*
X95035714Y-69083390D01*
X95035714Y-69083390D02*
X94988095Y-69131009D01*
X94988095Y-69131009D02*
X94892857Y-69178628D01*
X94892857Y-69178628D02*
X94511905Y-69178628D01*
X95416667Y-68654819D02*
X96035714Y-68654819D01*
X96035714Y-68654819D02*
X95702381Y-69035771D01*
X95702381Y-69035771D02*
X95845238Y-69035771D01*
X95845238Y-69035771D02*
X95940476Y-69083390D01*
X95940476Y-69083390D02*
X95988095Y-69131009D01*
X95988095Y-69131009D02*
X96035714Y-69226247D01*
X96035714Y-69226247D02*
X96035714Y-69464342D01*
X96035714Y-69464342D02*
X95988095Y-69559580D01*
X95988095Y-69559580D02*
X95940476Y-69607200D01*
X95940476Y-69607200D02*
X95845238Y-69654819D01*
X95845238Y-69654819D02*
X95559524Y-69654819D01*
X95559524Y-69654819D02*
X95464286Y-69607200D01*
X95464286Y-69607200D02*
X95416667Y-69559580D01*
X95083333Y-56954819D02*
X94750000Y-56478628D01*
X94511905Y-56954819D02*
X94511905Y-55954819D01*
X94511905Y-55954819D02*
X94892857Y-55954819D01*
X94892857Y-55954819D02*
X94988095Y-56002438D01*
X94988095Y-56002438D02*
X95035714Y-56050057D01*
X95035714Y-56050057D02*
X95083333Y-56145295D01*
X95083333Y-56145295D02*
X95083333Y-56288152D01*
X95083333Y-56288152D02*
X95035714Y-56383390D01*
X95035714Y-56383390D02*
X94988095Y-56431009D01*
X94988095Y-56431009D02*
X94892857Y-56478628D01*
X94892857Y-56478628D02*
X94511905Y-56478628D01*
X95464286Y-56050057D02*
X95511905Y-56002438D01*
X95511905Y-56002438D02*
X95607143Y-55954819D01*
X95607143Y-55954819D02*
X95845238Y-55954819D01*
X95845238Y-55954819D02*
X95940476Y-56002438D01*
X95940476Y-56002438D02*
X95988095Y-56050057D01*
X95988095Y-56050057D02*
X96035714Y-56145295D01*
X96035714Y-56145295D02*
X96035714Y-56240533D01*
X96035714Y-56240533D02*
X95988095Y-56383390D01*
X95988095Y-56383390D02*
X95416667Y-56954819D01*
X95416667Y-56954819D02*
X96035714Y-56954819D01*
X106014819Y-51538094D02*
X105014819Y-51538094D01*
X105014819Y-51538094D02*
X105014819Y-51299999D01*
X105014819Y-51299999D02*
X105062438Y-51157142D01*
X105062438Y-51157142D02*
X105157676Y-51061904D01*
X105157676Y-51061904D02*
X105252914Y-51014285D01*
X105252914Y-51014285D02*
X105443390Y-50966666D01*
X105443390Y-50966666D02*
X105586247Y-50966666D01*
X105586247Y-50966666D02*
X105776723Y-51014285D01*
X105776723Y-51014285D02*
X105871961Y-51061904D01*
X105871961Y-51061904D02*
X105967200Y-51157142D01*
X105967200Y-51157142D02*
X106014819Y-51299999D01*
X106014819Y-51299999D02*
X106014819Y-51538094D01*
X106014819Y-50014285D02*
X106014819Y-50585713D01*
X106014819Y-50299999D02*
X105014819Y-50299999D01*
X105014819Y-50299999D02*
X105157676Y-50395237D01*
X105157676Y-50395237D02*
X105252914Y-50490475D01*
X105252914Y-50490475D02*
X105300533Y-50585713D01*
X101266666Y-79444819D02*
X101266666Y-80159104D01*
X101266666Y-80159104D02*
X101219047Y-80301961D01*
X101219047Y-80301961D02*
X101123809Y-80397200D01*
X101123809Y-80397200D02*
X100980952Y-80444819D01*
X100980952Y-80444819D02*
X100885714Y-80444819D01*
X102266666Y-80444819D02*
X101695238Y-80444819D01*
X101980952Y-80444819D02*
X101980952Y-79444819D01*
X101980952Y-79444819D02*
X101885714Y-79587676D01*
X101885714Y-79587676D02*
X101790476Y-79682914D01*
X101790476Y-79682914D02*
X101695238Y-79730533D01*
X107783333Y-73494819D02*
X107450000Y-73018628D01*
X107211905Y-73494819D02*
X107211905Y-72494819D01*
X107211905Y-72494819D02*
X107592857Y-72494819D01*
X107592857Y-72494819D02*
X107688095Y-72542438D01*
X107688095Y-72542438D02*
X107735714Y-72590057D01*
X107735714Y-72590057D02*
X107783333Y-72685295D01*
X107783333Y-72685295D02*
X107783333Y-72828152D01*
X107783333Y-72828152D02*
X107735714Y-72923390D01*
X107735714Y-72923390D02*
X107688095Y-72971009D01*
X107688095Y-72971009D02*
X107592857Y-73018628D01*
X107592857Y-73018628D02*
X107211905Y-73018628D01*
X108640476Y-72828152D02*
X108640476Y-73494819D01*
X108402381Y-72447200D02*
X108164286Y-73161485D01*
X108164286Y-73161485D02*
X108783333Y-73161485D01*
X91971905Y-59994819D02*
X91971905Y-58994819D01*
X91971905Y-58994819D02*
X92210000Y-58994819D01*
X92210000Y-58994819D02*
X92352857Y-59042438D01*
X92352857Y-59042438D02*
X92448095Y-59137676D01*
X92448095Y-59137676D02*
X92495714Y-59232914D01*
X92495714Y-59232914D02*
X92543333Y-59423390D01*
X92543333Y-59423390D02*
X92543333Y-59566247D01*
X92543333Y-59566247D02*
X92495714Y-59756723D01*
X92495714Y-59756723D02*
X92448095Y-59851961D01*
X92448095Y-59851961D02*
X92352857Y-59947200D01*
X92352857Y-59947200D02*
X92210000Y-59994819D01*
X92210000Y-59994819D02*
X91971905Y-59994819D01*
X92924286Y-59090057D02*
X92971905Y-59042438D01*
X92971905Y-59042438D02*
X93067143Y-58994819D01*
X93067143Y-58994819D02*
X93305238Y-58994819D01*
X93305238Y-58994819D02*
X93400476Y-59042438D01*
X93400476Y-59042438D02*
X93448095Y-59090057D01*
X93448095Y-59090057D02*
X93495714Y-59185295D01*
X93495714Y-59185295D02*
X93495714Y-59280533D01*
X93495714Y-59280533D02*
X93448095Y-59423390D01*
X93448095Y-59423390D02*
X92876667Y-59994819D01*
X92876667Y-59994819D02*
X93495714Y-59994819D01*
X112291905Y-72844819D02*
X112291905Y-71844819D01*
X112291905Y-71844819D02*
X112530000Y-71844819D01*
X112530000Y-71844819D02*
X112672857Y-71892438D01*
X112672857Y-71892438D02*
X112768095Y-71987676D01*
X112768095Y-71987676D02*
X112815714Y-72082914D01*
X112815714Y-72082914D02*
X112863333Y-72273390D01*
X112863333Y-72273390D02*
X112863333Y-72416247D01*
X112863333Y-72416247D02*
X112815714Y-72606723D01*
X112815714Y-72606723D02*
X112768095Y-72701961D01*
X112768095Y-72701961D02*
X112672857Y-72797200D01*
X112672857Y-72797200D02*
X112530000Y-72844819D01*
X112530000Y-72844819D02*
X112291905Y-72844819D01*
X113720476Y-72178152D02*
X113720476Y-72844819D01*
X113482381Y-71797200D02*
X113244286Y-72511485D01*
X113244286Y-72511485D02*
X113863333Y-72511485D01*
X107783333Y-60794819D02*
X107450000Y-60318628D01*
X107211905Y-60794819D02*
X107211905Y-59794819D01*
X107211905Y-59794819D02*
X107592857Y-59794819D01*
X107592857Y-59794819D02*
X107688095Y-59842438D01*
X107688095Y-59842438D02*
X107735714Y-59890057D01*
X107735714Y-59890057D02*
X107783333Y-59985295D01*
X107783333Y-59985295D02*
X107783333Y-60128152D01*
X107783333Y-60128152D02*
X107735714Y-60223390D01*
X107735714Y-60223390D02*
X107688095Y-60271009D01*
X107688095Y-60271009D02*
X107592857Y-60318628D01*
X107592857Y-60318628D02*
X107211905Y-60318628D01*
X108688095Y-59794819D02*
X108211905Y-59794819D01*
X108211905Y-59794819D02*
X108164286Y-60271009D01*
X108164286Y-60271009D02*
X108211905Y-60223390D01*
X108211905Y-60223390D02*
X108307143Y-60175771D01*
X108307143Y-60175771D02*
X108545238Y-60175771D01*
X108545238Y-60175771D02*
X108640476Y-60223390D01*
X108640476Y-60223390D02*
X108688095Y-60271009D01*
X108688095Y-60271009D02*
X108735714Y-60366247D01*
X108735714Y-60366247D02*
X108735714Y-60604342D01*
X108735714Y-60604342D02*
X108688095Y-60699580D01*
X108688095Y-60699580D02*
X108640476Y-60747200D01*
X108640476Y-60747200D02*
X108545238Y-60794819D01*
X108545238Y-60794819D02*
X108307143Y-60794819D01*
X108307143Y-60794819D02*
X108211905Y-60747200D01*
X108211905Y-60747200D02*
X108164286Y-60699580D01*
X91971905Y-72694819D02*
X91971905Y-71694819D01*
X91971905Y-71694819D02*
X92210000Y-71694819D01*
X92210000Y-71694819D02*
X92352857Y-71742438D01*
X92352857Y-71742438D02*
X92448095Y-71837676D01*
X92448095Y-71837676D02*
X92495714Y-71932914D01*
X92495714Y-71932914D02*
X92543333Y-72123390D01*
X92543333Y-72123390D02*
X92543333Y-72266247D01*
X92543333Y-72266247D02*
X92495714Y-72456723D01*
X92495714Y-72456723D02*
X92448095Y-72551961D01*
X92448095Y-72551961D02*
X92352857Y-72647200D01*
X92352857Y-72647200D02*
X92210000Y-72694819D01*
X92210000Y-72694819D02*
X91971905Y-72694819D01*
X92876667Y-71694819D02*
X93495714Y-71694819D01*
X93495714Y-71694819D02*
X93162381Y-72075771D01*
X93162381Y-72075771D02*
X93305238Y-72075771D01*
X93305238Y-72075771D02*
X93400476Y-72123390D01*
X93400476Y-72123390D02*
X93448095Y-72171009D01*
X93448095Y-72171009D02*
X93495714Y-72266247D01*
X93495714Y-72266247D02*
X93495714Y-72504342D01*
X93495714Y-72504342D02*
X93448095Y-72599580D01*
X93448095Y-72599580D02*
X93400476Y-72647200D01*
X93400476Y-72647200D02*
X93305238Y-72694819D01*
X93305238Y-72694819D02*
X93019524Y-72694819D01*
X93019524Y-72694819D02*
X92924286Y-72647200D01*
X92924286Y-72647200D02*
X92876667Y-72599580D01*
D11*
%TO.C,R1*%
X102520000Y-56500000D02*
X102520000Y-60340000D01*
X100680000Y-56500000D02*
X100680000Y-60340000D01*
%TO.C,R3*%
X93330000Y-70200000D02*
X97170000Y-70200000D01*
X93330000Y-72040000D02*
X97170000Y-72040000D01*
%TO.C,R2*%
X93330000Y-57500000D02*
X97170000Y-57500000D01*
X93330000Y-59340000D02*
X97170000Y-59340000D01*
%TO.C,D1*%
X103145000Y-48240000D02*
X100055000Y-48240000D01*
X101599538Y-53789999D02*
G75*
G03*
X103144830Y-48240001I462J2989999D01*
G01*
X100055170Y-48240000D02*
G75*
G03*
X101600462Y-53790000I1544830J-2560000D01*
G01*
X104100000Y-50800000D02*
G75*
G03*
X104100000Y-50800000I-2500000J0D01*
G01*
%TO.C,J1*%
X102930000Y-78990000D02*
X101600000Y-78990000D01*
X102930000Y-77660000D02*
X102930000Y-78990000D01*
X102930000Y-76390000D02*
X102930000Y-63630000D01*
X102930000Y-76390000D02*
X100270000Y-76390000D01*
X102930000Y-63630000D02*
X100270000Y-63630000D01*
X100270000Y-76390000D02*
X100270000Y-63630000D01*
%TO.C,R4*%
X109870000Y-72040000D02*
X106030000Y-72040000D01*
X109870000Y-70200000D02*
X106030000Y-70200000D01*
%TO.C,D2*%
X90150000Y-61955000D02*
X90150000Y-65045000D01*
X95699999Y-63500462D02*
G75*
G03*
X90150001Y-61955170I-2989999J462D01*
G01*
X90150000Y-65044830D02*
G75*
G03*
X95700000Y-63499538I2560000J1544830D01*
G01*
X95210000Y-63500000D02*
G75*
G03*
X95210000Y-63500000I-2500000J0D01*
G01*
%TO.C,D5*%
X113050000Y-65045000D02*
X113050000Y-61955000D01*
X107500001Y-63499538D02*
G75*
G03*
X113049999Y-65044830I2989999J-462D01*
G01*
X113050000Y-61955170D02*
G75*
G03*
X107500000Y-63500462I-2560000J-1544830D01*
G01*
X112990000Y-63500000D02*
G75*
G03*
X112990000Y-63500000I-2500000J0D01*
G01*
%TO.C,D4*%
X113050000Y-77745000D02*
X113050000Y-74655000D01*
X107500001Y-76199538D02*
G75*
G03*
X113049999Y-77744830I2989999J-462D01*
G01*
X113050000Y-74655170D02*
G75*
G03*
X107500000Y-76200462I-2560000J-1544830D01*
G01*
X112990000Y-76200000D02*
G75*
G03*
X112990000Y-76200000I-2500000J0D01*
G01*
%TO.C,R5*%
X109870000Y-59340000D02*
X106030000Y-59340000D01*
X109870000Y-57500000D02*
X106030000Y-57500000D01*
%TO.C,D3*%
X90150000Y-74655000D02*
X90150000Y-77745000D01*
X95699999Y-76200462D02*
G75*
G03*
X90150001Y-74655170I-2989999J462D01*
G01*
X90150000Y-77744830D02*
G75*
G03*
X95700000Y-76199538I2560000J1544830D01*
G01*
X95210000Y-76200000D02*
G75*
G03*
X95210000Y-76200000I-2500000J0D01*
G01*
%TD*%
M02*
