M48
; DRILL file {KiCad 7.0.8} date Sun Nov 19 21:35:32 2023
; FORMAT={-:-/ absolute / inch / decimal}
; #@! TF.CreationDate,2023-11-19T21:35:32-05:00
; #@! TF.GenerationSoftware,Kicad,Pcbnew,7.0.8
; #@! TF.FileFunction,Plated,1,2,PTH
FMAT,2
INCH
; #@! TA.AperFunction,Plated,PTH,ComponentDrill
T1C0.0276
; #@! TA.AperFunction,Plated,PTH,ComponentDrill
T2C0.0354
; #@! TA.AperFunction,Plated,PTH,ComponentDrill
T3C0.0394
%
G90
G05
T1
X3.65Y-2.3
X3.65Y-2.8
X3.85Y-2.3
X3.85Y-2.8
X4.0Y-2.2
X4.0Y-2.4
X4.15Y-2.3
X4.15Y-2.8
X4.35Y-2.3
X4.35Y-2.8
T2
X3.6Y-2.5
X3.6Y-3.0
X3.7Y-2.5
X3.7Y-3.0
X4.0Y-1.95
X4.0Y-2.05
X4.3Y-2.5
X4.3Y-3.0
X4.4Y-2.5
X4.4Y-3.0
T3
X4.0Y-2.5575
X4.0Y-2.6575
X4.0Y-2.7575
X4.0Y-2.8575
X4.0Y-2.9575
X4.0Y-3.0575
T0
M30
