M48
; DRILL file {KiCad 7.0.9} date Wed Dec 13 16:36:27 2023
; FORMAT={-:-/ absolute / inch / decimal}
; #@! TF.CreationDate,2023-12-13T16:36:27-05:00
; #@! TF.GenerationSoftware,Kicad,Pcbnew,7.0.9
; #@! TF.FileFunction,Plated,1,2,PTH
FMAT,2
INCH
; #@! TA.AperFunction,Plated,PTH,ViaDrill
T1C0.0157
; #@! TA.AperFunction,Plated,PTH,ComponentDrill
T2C0.0299
; #@! TA.AperFunction,Plated,PTH,ComponentDrill
T3C0.0315
%
G90
G05
T1
X4.4Y-3.6
X4.5Y-3.6
T2
X3.8814Y-3.5992
X3.9314Y-3.4992
X3.9814Y-3.5992
X4.0314Y-3.4992
X4.0814Y-3.5992
X4.1314Y-3.4992
X4.1814Y-3.5992
X4.2314Y-3.4992
X4.7314Y-3.5992
X4.7814Y-3.4992
X4.8314Y-3.5992
X4.8814Y-3.4992
X4.9314Y-3.5992
X4.9814Y-3.4992
X5.0314Y-3.5992
X5.0814Y-3.4992
X5.6Y-3.6
X5.65Y-3.5
X5.7Y-3.6
X5.75Y-3.5
X5.8Y-3.6
X5.85Y-3.5
X5.9Y-3.6
X5.95Y-3.5
X6.4814Y-3.5992
X6.5314Y-3.4992
X6.5814Y-3.5992
X6.6314Y-3.4992
X6.6814Y-3.5992
X6.7314Y-3.4992
X6.7814Y-3.5992
X6.8314Y-3.4992
T3
X3.7836Y-2.1
X3.7837Y-3.0999
X3.8836Y-2.1
X3.8837Y-3.0999
X3.9836Y-2.1
X3.9836Y-3.1
X4.0836Y-2.1
X4.0836Y-3.1
X4.1836Y-2.1
X4.1836Y-3.1
X4.2836Y-2.1
X4.2836Y-3.1
X4.3836Y-2.1
X4.3836Y-3.1
X4.4836Y-2.1
X4.4836Y-3.1
X4.5836Y-2.1
X4.5836Y-3.1
X4.6836Y-2.1
X4.6836Y-3.1
X4.7836Y-2.1
X4.7836Y-3.1
X4.8836Y-2.1
X4.8836Y-3.1
X4.9836Y-2.1
X4.9836Y-3.1
X5.0836Y-2.1
X5.0836Y-3.1
X5.1836Y-2.1
X5.1836Y-3.1
X5.2836Y-2.1
X5.2836Y-3.1
X5.3836Y-2.1
X5.3836Y-3.1
X5.4836Y-2.1
X5.4836Y-3.1
X5.5836Y-2.1
X5.5836Y-3.1
T0
M30
