%TF.GenerationSoftware,KiCad,Pcbnew,7.0.9*%
%TF.CreationDate,2023-12-13T17:42:54-05:00*%
%TF.ProjectId,Servo_Adapt,53657276-6f5f-4416-9461-70742e6b6963,rev?*%
%TF.SameCoordinates,Original*%
%TF.FileFunction,Legend,Top*%
%TF.FilePolarity,Positive*%
%FSLAX46Y46*%
G04 Gerber Fmt 4.6, Leading zero omitted, Abs format (unit mm)*
G04 Created by KiCad (PCBNEW 7.0.9) date 2023-12-13 17:42:54*
%MOMM*%
%LPD*%
G01*
G04 APERTURE LIST*
%ADD10C,0.150000*%
%ADD11C,0.120000*%
G04 APERTURE END LIST*
D10*
X153824819Y-83166666D02*
X153348628Y-83499999D01*
X153824819Y-83738094D02*
X152824819Y-83738094D01*
X152824819Y-83738094D02*
X152824819Y-83357142D01*
X152824819Y-83357142D02*
X152872438Y-83261904D01*
X152872438Y-83261904D02*
X152920057Y-83214285D01*
X152920057Y-83214285D02*
X153015295Y-83166666D01*
X153015295Y-83166666D02*
X153158152Y-83166666D01*
X153158152Y-83166666D02*
X153253390Y-83214285D01*
X153253390Y-83214285D02*
X153301009Y-83261904D01*
X153301009Y-83261904D02*
X153348628Y-83357142D01*
X153348628Y-83357142D02*
X153348628Y-83738094D01*
X153158152Y-82309523D02*
X153824819Y-82309523D01*
X152777200Y-82547618D02*
X153491485Y-82785713D01*
X153491485Y-82785713D02*
X153491485Y-82166666D01*
X152584819Y-83086666D02*
X152108628Y-83419999D01*
X152584819Y-83658094D02*
X151584819Y-83658094D01*
X151584819Y-83658094D02*
X151584819Y-83277142D01*
X151584819Y-83277142D02*
X151632438Y-83181904D01*
X151632438Y-83181904D02*
X151680057Y-83134285D01*
X151680057Y-83134285D02*
X151775295Y-83086666D01*
X151775295Y-83086666D02*
X151918152Y-83086666D01*
X151918152Y-83086666D02*
X152013390Y-83134285D01*
X152013390Y-83134285D02*
X152061009Y-83181904D01*
X152061009Y-83181904D02*
X152108628Y-83277142D01*
X152108628Y-83277142D02*
X152108628Y-83658094D01*
X151584819Y-82753332D02*
X151584819Y-82134285D01*
X151584819Y-82134285D02*
X151965771Y-82467618D01*
X151965771Y-82467618D02*
X151965771Y-82324761D01*
X151965771Y-82324761D02*
X152013390Y-82229523D01*
X152013390Y-82229523D02*
X152061009Y-82181904D01*
X152061009Y-82181904D02*
X152156247Y-82134285D01*
X152156247Y-82134285D02*
X152394342Y-82134285D01*
X152394342Y-82134285D02*
X152489580Y-82181904D01*
X152489580Y-82181904D02*
X152537200Y-82229523D01*
X152537200Y-82229523D02*
X152584819Y-82324761D01*
X152584819Y-82324761D02*
X152584819Y-82610475D01*
X152584819Y-82610475D02*
X152537200Y-82705713D01*
X152537200Y-82705713D02*
X152489580Y-82753332D01*
X149494819Y-93743094D02*
X148494819Y-93743094D01*
X148494819Y-93743094D02*
X148494819Y-93504999D01*
X148494819Y-93504999D02*
X148542438Y-93362142D01*
X148542438Y-93362142D02*
X148637676Y-93266904D01*
X148637676Y-93266904D02*
X148732914Y-93219285D01*
X148732914Y-93219285D02*
X148923390Y-93171666D01*
X148923390Y-93171666D02*
X149066247Y-93171666D01*
X149066247Y-93171666D02*
X149256723Y-93219285D01*
X149256723Y-93219285D02*
X149351961Y-93266904D01*
X149351961Y-93266904D02*
X149447200Y-93362142D01*
X149447200Y-93362142D02*
X149494819Y-93504999D01*
X149494819Y-93504999D02*
X149494819Y-93743094D01*
X148494819Y-92838332D02*
X148494819Y-92219285D01*
X148494819Y-92219285D02*
X148875771Y-92552618D01*
X148875771Y-92552618D02*
X148875771Y-92409761D01*
X148875771Y-92409761D02*
X148923390Y-92314523D01*
X148923390Y-92314523D02*
X148971009Y-92266904D01*
X148971009Y-92266904D02*
X149066247Y-92219285D01*
X149066247Y-92219285D02*
X149304342Y-92219285D01*
X149304342Y-92219285D02*
X149399580Y-92266904D01*
X149399580Y-92266904D02*
X149447200Y-92314523D01*
X149447200Y-92314523D02*
X149494819Y-92409761D01*
X149494819Y-92409761D02*
X149494819Y-92695475D01*
X149494819Y-92695475D02*
X149447200Y-92790713D01*
X149447200Y-92790713D02*
X149399580Y-92838332D01*
X133824819Y-84166666D02*
X133348628Y-84499999D01*
X133824819Y-84738094D02*
X132824819Y-84738094D01*
X132824819Y-84738094D02*
X132824819Y-84357142D01*
X132824819Y-84357142D02*
X132872438Y-84261904D01*
X132872438Y-84261904D02*
X132920057Y-84214285D01*
X132920057Y-84214285D02*
X133015295Y-84166666D01*
X133015295Y-84166666D02*
X133158152Y-84166666D01*
X133158152Y-84166666D02*
X133253390Y-84214285D01*
X133253390Y-84214285D02*
X133301009Y-84261904D01*
X133301009Y-84261904D02*
X133348628Y-84357142D01*
X133348628Y-84357142D02*
X133348628Y-84738094D01*
X132920057Y-83785713D02*
X132872438Y-83738094D01*
X132872438Y-83738094D02*
X132824819Y-83642856D01*
X132824819Y-83642856D02*
X132824819Y-83404761D01*
X132824819Y-83404761D02*
X132872438Y-83309523D01*
X132872438Y-83309523D02*
X132920057Y-83261904D01*
X132920057Y-83261904D02*
X133015295Y-83214285D01*
X133015295Y-83214285D02*
X133110533Y-83214285D01*
X133110533Y-83214285D02*
X133253390Y-83261904D01*
X133253390Y-83261904D02*
X133824819Y-83833332D01*
X133824819Y-83833332D02*
X133824819Y-83214285D01*
X137666666Y-84624819D02*
X137666666Y-85339104D01*
X137666666Y-85339104D02*
X137619047Y-85481961D01*
X137619047Y-85481961D02*
X137523809Y-85577200D01*
X137523809Y-85577200D02*
X137380952Y-85624819D01*
X137380952Y-85624819D02*
X137285714Y-85624819D01*
X138047619Y-84624819D02*
X138666666Y-84624819D01*
X138666666Y-84624819D02*
X138333333Y-85005771D01*
X138333333Y-85005771D02*
X138476190Y-85005771D01*
X138476190Y-85005771D02*
X138571428Y-85053390D01*
X138571428Y-85053390D02*
X138619047Y-85101009D01*
X138619047Y-85101009D02*
X138666666Y-85196247D01*
X138666666Y-85196247D02*
X138666666Y-85434342D01*
X138666666Y-85434342D02*
X138619047Y-85529580D01*
X138619047Y-85529580D02*
X138571428Y-85577200D01*
X138571428Y-85577200D02*
X138476190Y-85624819D01*
X138476190Y-85624819D02*
X138190476Y-85624819D01*
X138190476Y-85624819D02*
X138095238Y-85577200D01*
X138095238Y-85577200D02*
X138047619Y-85529580D01*
X144666666Y-84584819D02*
X144666666Y-85299104D01*
X144666666Y-85299104D02*
X144619047Y-85441961D01*
X144619047Y-85441961D02*
X144523809Y-85537200D01*
X144523809Y-85537200D02*
X144380952Y-85584819D01*
X144380952Y-85584819D02*
X144285714Y-85584819D01*
X145095238Y-84680057D02*
X145142857Y-84632438D01*
X145142857Y-84632438D02*
X145238095Y-84584819D01*
X145238095Y-84584819D02*
X145476190Y-84584819D01*
X145476190Y-84584819D02*
X145571428Y-84632438D01*
X145571428Y-84632438D02*
X145619047Y-84680057D01*
X145619047Y-84680057D02*
X145666666Y-84775295D01*
X145666666Y-84775295D02*
X145666666Y-84870533D01*
X145666666Y-84870533D02*
X145619047Y-85013390D01*
X145619047Y-85013390D02*
X145047619Y-85584819D01*
X145047619Y-85584819D02*
X145666666Y-85584819D01*
X140504166Y-83054819D02*
X140504166Y-83769104D01*
X140504166Y-83769104D02*
X140456547Y-83911961D01*
X140456547Y-83911961D02*
X140361309Y-84007200D01*
X140361309Y-84007200D02*
X140218452Y-84054819D01*
X140218452Y-84054819D02*
X140123214Y-84054819D01*
X141504166Y-84054819D02*
X140932738Y-84054819D01*
X141218452Y-84054819D02*
X141218452Y-83054819D01*
X141218452Y-83054819D02*
X141123214Y-83197676D01*
X141123214Y-83197676D02*
X141027976Y-83292914D01*
X141027976Y-83292914D02*
X140932738Y-83340533D01*
X133414819Y-74233094D02*
X132414819Y-74233094D01*
X132414819Y-74233094D02*
X132414819Y-73994999D01*
X132414819Y-73994999D02*
X132462438Y-73852142D01*
X132462438Y-73852142D02*
X132557676Y-73756904D01*
X132557676Y-73756904D02*
X132652914Y-73709285D01*
X132652914Y-73709285D02*
X132843390Y-73661666D01*
X132843390Y-73661666D02*
X132986247Y-73661666D01*
X132986247Y-73661666D02*
X133176723Y-73709285D01*
X133176723Y-73709285D02*
X133271961Y-73756904D01*
X133271961Y-73756904D02*
X133367200Y-73852142D01*
X133367200Y-73852142D02*
X133414819Y-73994999D01*
X133414819Y-73994999D02*
X133414819Y-74233094D01*
X133414819Y-72709285D02*
X133414819Y-73280713D01*
X133414819Y-72994999D02*
X132414819Y-72994999D01*
X132414819Y-72994999D02*
X132557676Y-73090237D01*
X132557676Y-73090237D02*
X132652914Y-73185475D01*
X132652914Y-73185475D02*
X132700533Y-73280713D01*
D11*
%TO.C,R4*%
X151000000Y-87040000D02*
X151000000Y-86270000D01*
X151000000Y-78960000D02*
X151000000Y-79730000D01*
X152370000Y-79730000D02*
X149630000Y-79730000D01*
X149630000Y-86270000D02*
X152370000Y-86270000D01*
X149630000Y-79730000D02*
X149630000Y-86270000D01*
X152370000Y-86270000D02*
X152370000Y-79730000D01*
%TO.C,R3*%
X154500000Y-78880000D02*
X154500000Y-79650000D01*
X154500000Y-86960000D02*
X154500000Y-86190000D01*
X153130000Y-86190000D02*
X155870000Y-86190000D01*
X155870000Y-79650000D02*
X153130000Y-79650000D01*
X155870000Y-86190000D02*
X155870000Y-79650000D01*
X153130000Y-79650000D02*
X153130000Y-86190000D01*
%TO.C,D4*%
X154545000Y-70710000D02*
X151455000Y-70710000D01*
X151455170Y-70710000D02*
G75*
G03*
X153000462Y-76260000I1544830J-2560000D01*
G01*
X152999538Y-76259999D02*
G75*
G03*
X154544830Y-70710001I462J2989999D01*
G01*
X155500000Y-73270000D02*
G75*
G03*
X155500000Y-73270000I-2500000J0D01*
G01*
%TO.C,D3*%
X151455000Y-95565000D02*
X154545000Y-95565000D01*
X154544830Y-95565000D02*
G75*
G03*
X152999538Y-90015000I-1544830J2560000D01*
G01*
X153000462Y-90015001D02*
G75*
G03*
X151455170Y-95564999I-462J-2989999D01*
G01*
X155500000Y-93005000D02*
G75*
G03*
X155500000Y-93005000I-2500000J0D01*
G01*
%TO.C,R2*%
X131000000Y-88040000D02*
X131000000Y-87270000D01*
X131000000Y-79960000D02*
X131000000Y-80730000D01*
X132370000Y-80730000D02*
X129630000Y-80730000D01*
X129630000Y-87270000D02*
X132370000Y-87270000D01*
X129630000Y-80730000D02*
X129630000Y-87270000D01*
X132370000Y-87270000D02*
X132370000Y-80730000D01*
%TO.C,R1*%
X127500000Y-79960000D02*
X127500000Y-80730000D01*
X127500000Y-88040000D02*
X127500000Y-87270000D01*
X126130000Y-87270000D02*
X128870000Y-87270000D01*
X128870000Y-80730000D02*
X126130000Y-80730000D01*
X128870000Y-87270000D02*
X128870000Y-80730000D01*
X126130000Y-80730000D02*
X126130000Y-87270000D01*
%TO.C,J3*%
X136670000Y-93910000D02*
X139330000Y-93910000D01*
X136670000Y-88770000D02*
X136670000Y-93910000D01*
X136670000Y-87500000D02*
X136670000Y-86170000D01*
X139330000Y-88770000D02*
X139330000Y-93910000D01*
X136670000Y-86170000D02*
X138000000Y-86170000D01*
X136670000Y-88770000D02*
X139330000Y-88770000D01*
%TO.C,J2*%
X143670000Y-93870000D02*
X146330000Y-93870000D01*
X143670000Y-88730000D02*
X143670000Y-93870000D01*
X143670000Y-87460000D02*
X143670000Y-86130000D01*
X146330000Y-88730000D02*
X146330000Y-93870000D01*
X143670000Y-86130000D02*
X145000000Y-86130000D01*
X143670000Y-88730000D02*
X146330000Y-88730000D01*
%TO.C,J1*%
X133077500Y-82480000D02*
X148597500Y-82480000D01*
X149282500Y-78100000D02*
X148782500Y-78600000D01*
X148597500Y-82480000D02*
X148597500Y-64520000D01*
X149282500Y-79100000D02*
X149282500Y-78100000D01*
X148597500Y-64520000D02*
X133077500Y-64520000D01*
X133077500Y-82480000D02*
X133077500Y-64520000D01*
X148782500Y-78600000D02*
X149282500Y-79100000D01*
%TO.C,D2*%
X127455000Y-96065000D02*
X130545000Y-96065000D01*
X130544830Y-96065000D02*
G75*
G03*
X128999538Y-90515000I-1544830J2560000D01*
G01*
X129000462Y-90515001D02*
G75*
G03*
X127455170Y-96064999I-462J-2989999D01*
G01*
X131500000Y-93505000D02*
G75*
G03*
X131500000Y-93505000I-2500000J0D01*
G01*
%TO.C,D1*%
X130545000Y-70935000D02*
X127455000Y-70935000D01*
X127455170Y-70935000D02*
G75*
G03*
X129000462Y-76485000I1544830J-2560000D01*
G01*
X128999538Y-76484999D02*
G75*
G03*
X130544830Y-70935001I462J2989999D01*
G01*
X131500000Y-73495000D02*
G75*
G03*
X131500000Y-73495000I-2500000J0D01*
G01*
%TD*%
M02*
