M48
; DRILL file {KiCad 7.0.9} date Wed Dec 13 17:43:09 2023
; FORMAT={-:-/ absolute / inch / decimal}
; #@! TF.CreationDate,2023-12-13T17:43:09-05:00
; #@! TF.GenerationSoftware,Kicad,Pcbnew,7.0.9
; #@! TF.FileFunction,Plated,1,2,PTH
FMAT,2
INCH
; #@! TA.AperFunction,Plated,PTH,ComponentDrill
T1C0.0299
; #@! TA.AperFunction,Plated,PTH,ComponentDrill
T2C0.0315
; #@! TA.AperFunction,Plated,PTH,ComponentDrill
T3C0.0354
; #@! TA.AperFunction,Plated,PTH,ComponentDrill
T4C0.0394
%
G90
G05
T1
X5.3698Y-3.1945
X5.4198Y-3.0945
X5.4698Y-3.1945
X5.5198Y-3.0945
X5.5698Y-3.1945
X5.6198Y-3.0945
X5.6698Y-3.1945
X5.7198Y-3.0945
T2
X5.0197Y-3.1071
X5.0197Y-3.5071
X5.1575Y-3.1071
X5.1575Y-3.5071
X5.9449Y-3.0677
X5.9449Y-3.4677
X6.0827Y-3.0646
X6.0827Y-3.4646
T3
X5.0787Y-2.8435
X5.0787Y-2.9435
X5.0787Y-3.6313
X5.0787Y-3.7313
X6.0236Y-2.8346
X6.0236Y-2.9346
X6.0236Y-3.6116
X6.0236Y-3.7116
T4
X5.4331Y-3.4449
X5.4331Y-3.5449
X5.4331Y-3.6449
X5.7087Y-3.4433
X5.7087Y-3.5433
X5.7087Y-3.6433
T0
M30
