%TF.GenerationSoftware,KiCad,Pcbnew,7.0.9*%
%TF.CreationDate,2023-12-13T17:43:09-05:00*%
%TF.ProjectId,Servo_Adapt,53657276-6f5f-4416-9461-70742e6b6963,rev?*%
%TF.SameCoordinates,Original*%
%TF.FileFunction,Drillmap*%
%TF.FilePolarity,Positive*%
%FSLAX45Y45*%
G04 Gerber Fmt 4.5, Leading zero omitted, Abs format (unit mm)*
G04 Created by KiCad (PCBNEW 7.0.9) date 2023-12-13 17:43:09*
%MOMM*%
%LPD*%
G01*
G04 APERTURE LIST*
%ADD10C,0.100000*%
%ADD11C,0.200000*%
%ADD12C,0.320000*%
G04 APERTURE END LIST*
D10*
X12550000Y-7000000D02*
X15650000Y-7000000D01*
X15650000Y-9700000D01*
X12550000Y-9700000D01*
X12550000Y-7000000D01*
D11*
D12*
X13352250Y-7065000D02*
X13672250Y-7385000D01*
X13672250Y-7065000D02*
X13352250Y-7385000D01*
X14495250Y-7065000D02*
X14815250Y-7385000D01*
X14815250Y-7065000D02*
X14495250Y-7385000D01*
D11*
X12805777Y-10016484D02*
X12805777Y-9816484D01*
X12805777Y-9816484D02*
X12853396Y-9816484D01*
X12853396Y-9816484D02*
X12881967Y-9826008D01*
X12881967Y-9826008D02*
X12901015Y-9845055D01*
X12901015Y-9845055D02*
X12910539Y-9864103D01*
X12910539Y-9864103D02*
X12920062Y-9902198D01*
X12920062Y-9902198D02*
X12920062Y-9930770D01*
X12920062Y-9930770D02*
X12910539Y-9968865D01*
X12910539Y-9968865D02*
X12901015Y-9987912D01*
X12901015Y-9987912D02*
X12881967Y-10006960D01*
X12881967Y-10006960D02*
X12853396Y-10016484D01*
X12853396Y-10016484D02*
X12805777Y-10016484D01*
X13005777Y-10016484D02*
X13005777Y-9883150D01*
X13005777Y-9921246D02*
X13015301Y-9902198D01*
X13015301Y-9902198D02*
X13024824Y-9892674D01*
X13024824Y-9892674D02*
X13043872Y-9883150D01*
X13043872Y-9883150D02*
X13062920Y-9883150D01*
X13129586Y-10016484D02*
X13129586Y-9883150D01*
X13129586Y-9816484D02*
X13120062Y-9826008D01*
X13120062Y-9826008D02*
X13129586Y-9835531D01*
X13129586Y-9835531D02*
X13139110Y-9826008D01*
X13139110Y-9826008D02*
X13129586Y-9816484D01*
X13129586Y-9816484D02*
X13129586Y-9835531D01*
X13253396Y-10016484D02*
X13234348Y-10006960D01*
X13234348Y-10006960D02*
X13224824Y-9987912D01*
X13224824Y-9987912D02*
X13224824Y-9816484D01*
X13358158Y-10016484D02*
X13339110Y-10006960D01*
X13339110Y-10006960D02*
X13329586Y-9987912D01*
X13329586Y-9987912D02*
X13329586Y-9816484D01*
X13586729Y-10016484D02*
X13586729Y-9816484D01*
X13586729Y-9816484D02*
X13653396Y-9959341D01*
X13653396Y-9959341D02*
X13720062Y-9816484D01*
X13720062Y-9816484D02*
X13720062Y-10016484D01*
X13901015Y-10016484D02*
X13901015Y-9911722D01*
X13901015Y-9911722D02*
X13891491Y-9892674D01*
X13891491Y-9892674D02*
X13872443Y-9883150D01*
X13872443Y-9883150D02*
X13834348Y-9883150D01*
X13834348Y-9883150D02*
X13815301Y-9892674D01*
X13901015Y-10006960D02*
X13881967Y-10016484D01*
X13881967Y-10016484D02*
X13834348Y-10016484D01*
X13834348Y-10016484D02*
X13815301Y-10006960D01*
X13815301Y-10006960D02*
X13805777Y-9987912D01*
X13805777Y-9987912D02*
X13805777Y-9968865D01*
X13805777Y-9968865D02*
X13815301Y-9949817D01*
X13815301Y-9949817D02*
X13834348Y-9940293D01*
X13834348Y-9940293D02*
X13881967Y-9940293D01*
X13881967Y-9940293D02*
X13901015Y-9930770D01*
X13996253Y-9883150D02*
X13996253Y-10083150D01*
X13996253Y-9892674D02*
X14015301Y-9883150D01*
X14015301Y-9883150D02*
X14053396Y-9883150D01*
X14053396Y-9883150D02*
X14072443Y-9892674D01*
X14072443Y-9892674D02*
X14081967Y-9902198D01*
X14081967Y-9902198D02*
X14091491Y-9921246D01*
X14091491Y-9921246D02*
X14091491Y-9978389D01*
X14091491Y-9978389D02*
X14081967Y-9997436D01*
X14081967Y-9997436D02*
X14072443Y-10006960D01*
X14072443Y-10006960D02*
X14053396Y-10016484D01*
X14053396Y-10016484D02*
X14015301Y-10016484D01*
X14015301Y-10016484D02*
X13996253Y-10006960D01*
X14177205Y-9997436D02*
X14186729Y-10006960D01*
X14186729Y-10006960D02*
X14177205Y-10016484D01*
X14177205Y-10016484D02*
X14167682Y-10006960D01*
X14167682Y-10006960D02*
X14177205Y-9997436D01*
X14177205Y-9997436D02*
X14177205Y-10016484D01*
X14177205Y-9892674D02*
X14186729Y-9902198D01*
X14186729Y-9902198D02*
X14177205Y-9911722D01*
X14177205Y-9911722D02*
X14167682Y-9902198D01*
X14167682Y-9902198D02*
X14177205Y-9892674D01*
X14177205Y-9892674D02*
X14177205Y-9911722D01*
X12345000Y-10245000D02*
X12545000Y-10445000D01*
X12545000Y-10245000D02*
X12345000Y-10445000D01*
X12786729Y-10236484D02*
X12910539Y-10236484D01*
X12910539Y-10236484D02*
X12843872Y-10312674D01*
X12843872Y-10312674D02*
X12872443Y-10312674D01*
X12872443Y-10312674D02*
X12891491Y-10322198D01*
X12891491Y-10322198D02*
X12901015Y-10331722D01*
X12901015Y-10331722D02*
X12910539Y-10350770D01*
X12910539Y-10350770D02*
X12910539Y-10398389D01*
X12910539Y-10398389D02*
X12901015Y-10417436D01*
X12901015Y-10417436D02*
X12891491Y-10426960D01*
X12891491Y-10426960D02*
X12872443Y-10436484D01*
X12872443Y-10436484D02*
X12815301Y-10436484D01*
X12815301Y-10436484D02*
X12796253Y-10426960D01*
X12796253Y-10426960D02*
X12786729Y-10417436D01*
X12996253Y-10417436D02*
X13005777Y-10426960D01*
X13005777Y-10426960D02*
X12996253Y-10436484D01*
X12996253Y-10436484D02*
X12986729Y-10426960D01*
X12986729Y-10426960D02*
X12996253Y-10417436D01*
X12996253Y-10417436D02*
X12996253Y-10436484D01*
X13081967Y-10255531D02*
X13091491Y-10246008D01*
X13091491Y-10246008D02*
X13110539Y-10236484D01*
X13110539Y-10236484D02*
X13158158Y-10236484D01*
X13158158Y-10236484D02*
X13177205Y-10246008D01*
X13177205Y-10246008D02*
X13186729Y-10255531D01*
X13186729Y-10255531D02*
X13196253Y-10274579D01*
X13196253Y-10274579D02*
X13196253Y-10293627D01*
X13196253Y-10293627D02*
X13186729Y-10322198D01*
X13186729Y-10322198D02*
X13072443Y-10436484D01*
X13072443Y-10436484D02*
X13196253Y-10436484D01*
X13320062Y-10236484D02*
X13339110Y-10236484D01*
X13339110Y-10236484D02*
X13358158Y-10246008D01*
X13358158Y-10246008D02*
X13367682Y-10255531D01*
X13367682Y-10255531D02*
X13377205Y-10274579D01*
X13377205Y-10274579D02*
X13386729Y-10312674D01*
X13386729Y-10312674D02*
X13386729Y-10360293D01*
X13386729Y-10360293D02*
X13377205Y-10398389D01*
X13377205Y-10398389D02*
X13367682Y-10417436D01*
X13367682Y-10417436D02*
X13358158Y-10426960D01*
X13358158Y-10426960D02*
X13339110Y-10436484D01*
X13339110Y-10436484D02*
X13320062Y-10436484D01*
X13320062Y-10436484D02*
X13301015Y-10426960D01*
X13301015Y-10426960D02*
X13291491Y-10417436D01*
X13291491Y-10417436D02*
X13281967Y-10398389D01*
X13281967Y-10398389D02*
X13272443Y-10360293D01*
X13272443Y-10360293D02*
X13272443Y-10312674D01*
X13272443Y-10312674D02*
X13281967Y-10274579D01*
X13281967Y-10274579D02*
X13291491Y-10255531D01*
X13291491Y-10255531D02*
X13301015Y-10246008D01*
X13301015Y-10246008D02*
X13320062Y-10236484D01*
X13510539Y-10236484D02*
X13529586Y-10236484D01*
X13529586Y-10236484D02*
X13548634Y-10246008D01*
X13548634Y-10246008D02*
X13558158Y-10255531D01*
X13558158Y-10255531D02*
X13567682Y-10274579D01*
X13567682Y-10274579D02*
X13577205Y-10312674D01*
X13577205Y-10312674D02*
X13577205Y-10360293D01*
X13577205Y-10360293D02*
X13567682Y-10398389D01*
X13567682Y-10398389D02*
X13558158Y-10417436D01*
X13558158Y-10417436D02*
X13548634Y-10426960D01*
X13548634Y-10426960D02*
X13529586Y-10436484D01*
X13529586Y-10436484D02*
X13510539Y-10436484D01*
X13510539Y-10436484D02*
X13491491Y-10426960D01*
X13491491Y-10426960D02*
X13481967Y-10417436D01*
X13481967Y-10417436D02*
X13472443Y-10398389D01*
X13472443Y-10398389D02*
X13462920Y-10360293D01*
X13462920Y-10360293D02*
X13462920Y-10312674D01*
X13462920Y-10312674D02*
X13472443Y-10274579D01*
X13472443Y-10274579D02*
X13481967Y-10255531D01*
X13481967Y-10255531D02*
X13491491Y-10246008D01*
X13491491Y-10246008D02*
X13510539Y-10236484D01*
X13662920Y-10436484D02*
X13662920Y-10303150D01*
X13662920Y-10322198D02*
X13672443Y-10312674D01*
X13672443Y-10312674D02*
X13691491Y-10303150D01*
X13691491Y-10303150D02*
X13720063Y-10303150D01*
X13720063Y-10303150D02*
X13739110Y-10312674D01*
X13739110Y-10312674D02*
X13748634Y-10331722D01*
X13748634Y-10331722D02*
X13748634Y-10436484D01*
X13748634Y-10331722D02*
X13758158Y-10312674D01*
X13758158Y-10312674D02*
X13777205Y-10303150D01*
X13777205Y-10303150D02*
X13805777Y-10303150D01*
X13805777Y-10303150D02*
X13824824Y-10312674D01*
X13824824Y-10312674D02*
X13834348Y-10331722D01*
X13834348Y-10331722D02*
X13834348Y-10436484D01*
X13929586Y-10436484D02*
X13929586Y-10303150D01*
X13929586Y-10322198D02*
X13939110Y-10312674D01*
X13939110Y-10312674D02*
X13958158Y-10303150D01*
X13958158Y-10303150D02*
X13986729Y-10303150D01*
X13986729Y-10303150D02*
X14005777Y-10312674D01*
X14005777Y-10312674D02*
X14015301Y-10331722D01*
X14015301Y-10331722D02*
X14015301Y-10436484D01*
X14015301Y-10331722D02*
X14024824Y-10312674D01*
X14024824Y-10312674D02*
X14043872Y-10303150D01*
X14043872Y-10303150D02*
X14072443Y-10303150D01*
X14072443Y-10303150D02*
X14091491Y-10312674D01*
X14091491Y-10312674D02*
X14101015Y-10331722D01*
X14101015Y-10331722D02*
X14101015Y-10436484D01*
X14491491Y-10226960D02*
X14320063Y-10484103D01*
X14748634Y-10236484D02*
X14767682Y-10236484D01*
X14767682Y-10236484D02*
X14786729Y-10246008D01*
X14786729Y-10246008D02*
X14796253Y-10255531D01*
X14796253Y-10255531D02*
X14805777Y-10274579D01*
X14805777Y-10274579D02*
X14815301Y-10312674D01*
X14815301Y-10312674D02*
X14815301Y-10360293D01*
X14815301Y-10360293D02*
X14805777Y-10398389D01*
X14805777Y-10398389D02*
X14796253Y-10417436D01*
X14796253Y-10417436D02*
X14786729Y-10426960D01*
X14786729Y-10426960D02*
X14767682Y-10436484D01*
X14767682Y-10436484D02*
X14748634Y-10436484D01*
X14748634Y-10436484D02*
X14729586Y-10426960D01*
X14729586Y-10426960D02*
X14720063Y-10417436D01*
X14720063Y-10417436D02*
X14710539Y-10398389D01*
X14710539Y-10398389D02*
X14701015Y-10360293D01*
X14701015Y-10360293D02*
X14701015Y-10312674D01*
X14701015Y-10312674D02*
X14710539Y-10274579D01*
X14710539Y-10274579D02*
X14720063Y-10255531D01*
X14720063Y-10255531D02*
X14729586Y-10246008D01*
X14729586Y-10246008D02*
X14748634Y-10236484D01*
X14901015Y-10417436D02*
X14910539Y-10426960D01*
X14910539Y-10426960D02*
X14901015Y-10436484D01*
X14901015Y-10436484D02*
X14891491Y-10426960D01*
X14891491Y-10426960D02*
X14901015Y-10417436D01*
X14901015Y-10417436D02*
X14901015Y-10436484D01*
X15101015Y-10436484D02*
X14986729Y-10436484D01*
X15043872Y-10436484D02*
X15043872Y-10236484D01*
X15043872Y-10236484D02*
X15024825Y-10265055D01*
X15024825Y-10265055D02*
X15005777Y-10284103D01*
X15005777Y-10284103D02*
X14986729Y-10293627D01*
X15177206Y-10255531D02*
X15186729Y-10246008D01*
X15186729Y-10246008D02*
X15205777Y-10236484D01*
X15205777Y-10236484D02*
X15253396Y-10236484D01*
X15253396Y-10236484D02*
X15272444Y-10246008D01*
X15272444Y-10246008D02*
X15281967Y-10255531D01*
X15281967Y-10255531D02*
X15291491Y-10274579D01*
X15291491Y-10274579D02*
X15291491Y-10293627D01*
X15291491Y-10293627D02*
X15281967Y-10322198D01*
X15281967Y-10322198D02*
X15167682Y-10436484D01*
X15167682Y-10436484D02*
X15291491Y-10436484D01*
X15462920Y-10236484D02*
X15424825Y-10236484D01*
X15424825Y-10236484D02*
X15405777Y-10246008D01*
X15405777Y-10246008D02*
X15396253Y-10255531D01*
X15396253Y-10255531D02*
X15377206Y-10284103D01*
X15377206Y-10284103D02*
X15367682Y-10322198D01*
X15367682Y-10322198D02*
X15367682Y-10398389D01*
X15367682Y-10398389D02*
X15377206Y-10417436D01*
X15377206Y-10417436D02*
X15386729Y-10426960D01*
X15386729Y-10426960D02*
X15405777Y-10436484D01*
X15405777Y-10436484D02*
X15443872Y-10436484D01*
X15443872Y-10436484D02*
X15462920Y-10426960D01*
X15462920Y-10426960D02*
X15472444Y-10417436D01*
X15472444Y-10417436D02*
X15481967Y-10398389D01*
X15481967Y-10398389D02*
X15481967Y-10350770D01*
X15481967Y-10350770D02*
X15472444Y-10331722D01*
X15472444Y-10331722D02*
X15462920Y-10322198D01*
X15462920Y-10322198D02*
X15443872Y-10312674D01*
X15443872Y-10312674D02*
X15405777Y-10312674D01*
X15405777Y-10312674D02*
X15386729Y-10322198D01*
X15386729Y-10322198D02*
X15377206Y-10331722D01*
X15377206Y-10331722D02*
X15367682Y-10350770D01*
X15605777Y-10236484D02*
X15624825Y-10236484D01*
X15624825Y-10236484D02*
X15643872Y-10246008D01*
X15643872Y-10246008D02*
X15653396Y-10255531D01*
X15653396Y-10255531D02*
X15662920Y-10274579D01*
X15662920Y-10274579D02*
X15672444Y-10312674D01*
X15672444Y-10312674D02*
X15672444Y-10360293D01*
X15672444Y-10360293D02*
X15662920Y-10398389D01*
X15662920Y-10398389D02*
X15653396Y-10417436D01*
X15653396Y-10417436D02*
X15643872Y-10426960D01*
X15643872Y-10426960D02*
X15624825Y-10436484D01*
X15624825Y-10436484D02*
X15605777Y-10436484D01*
X15605777Y-10436484D02*
X15586729Y-10426960D01*
X15586729Y-10426960D02*
X15577206Y-10417436D01*
X15577206Y-10417436D02*
X15567682Y-10398389D01*
X15567682Y-10398389D02*
X15558158Y-10360293D01*
X15558158Y-10360293D02*
X15558158Y-10312674D01*
X15558158Y-10312674D02*
X15567682Y-10274579D01*
X15567682Y-10274579D02*
X15577206Y-10255531D01*
X15577206Y-10255531D02*
X15586729Y-10246008D01*
X15586729Y-10246008D02*
X15605777Y-10236484D01*
X15748634Y-10236484D02*
X15748634Y-10274579D01*
X15824825Y-10236484D02*
X15824825Y-10274579D01*
X16120063Y-10512674D02*
X16110539Y-10503150D01*
X16110539Y-10503150D02*
X16091491Y-10474579D01*
X16091491Y-10474579D02*
X16081968Y-10455531D01*
X16081968Y-10455531D02*
X16072444Y-10426960D01*
X16072444Y-10426960D02*
X16062920Y-10379341D01*
X16062920Y-10379341D02*
X16062920Y-10341246D01*
X16062920Y-10341246D02*
X16072444Y-10293627D01*
X16072444Y-10293627D02*
X16081968Y-10265055D01*
X16081968Y-10265055D02*
X16091491Y-10246008D01*
X16091491Y-10246008D02*
X16110539Y-10217436D01*
X16110539Y-10217436D02*
X16120063Y-10207912D01*
X16186729Y-10255531D02*
X16196253Y-10246008D01*
X16196253Y-10246008D02*
X16215301Y-10236484D01*
X16215301Y-10236484D02*
X16262920Y-10236484D01*
X16262920Y-10236484D02*
X16281968Y-10246008D01*
X16281968Y-10246008D02*
X16291491Y-10255531D01*
X16291491Y-10255531D02*
X16301015Y-10274579D01*
X16301015Y-10274579D02*
X16301015Y-10293627D01*
X16301015Y-10293627D02*
X16291491Y-10322198D01*
X16291491Y-10322198D02*
X16177206Y-10436484D01*
X16177206Y-10436484D02*
X16301015Y-10436484D01*
X16539110Y-10436484D02*
X16539110Y-10236484D01*
X16624825Y-10436484D02*
X16624825Y-10331722D01*
X16624825Y-10331722D02*
X16615301Y-10312674D01*
X16615301Y-10312674D02*
X16596253Y-10303150D01*
X16596253Y-10303150D02*
X16567682Y-10303150D01*
X16567682Y-10303150D02*
X16548634Y-10312674D01*
X16548634Y-10312674D02*
X16539110Y-10322198D01*
X16748634Y-10436484D02*
X16729587Y-10426960D01*
X16729587Y-10426960D02*
X16720063Y-10417436D01*
X16720063Y-10417436D02*
X16710539Y-10398389D01*
X16710539Y-10398389D02*
X16710539Y-10341246D01*
X16710539Y-10341246D02*
X16720063Y-10322198D01*
X16720063Y-10322198D02*
X16729587Y-10312674D01*
X16729587Y-10312674D02*
X16748634Y-10303150D01*
X16748634Y-10303150D02*
X16777206Y-10303150D01*
X16777206Y-10303150D02*
X16796253Y-10312674D01*
X16796253Y-10312674D02*
X16805777Y-10322198D01*
X16805777Y-10322198D02*
X16815301Y-10341246D01*
X16815301Y-10341246D02*
X16815301Y-10398389D01*
X16815301Y-10398389D02*
X16805777Y-10417436D01*
X16805777Y-10417436D02*
X16796253Y-10426960D01*
X16796253Y-10426960D02*
X16777206Y-10436484D01*
X16777206Y-10436484D02*
X16748634Y-10436484D01*
X16929587Y-10436484D02*
X16910539Y-10426960D01*
X16910539Y-10426960D02*
X16901015Y-10407912D01*
X16901015Y-10407912D02*
X16901015Y-10236484D01*
X17081968Y-10426960D02*
X17062920Y-10436484D01*
X17062920Y-10436484D02*
X17024825Y-10436484D01*
X17024825Y-10436484D02*
X17005777Y-10426960D01*
X17005777Y-10426960D02*
X16996253Y-10407912D01*
X16996253Y-10407912D02*
X16996253Y-10331722D01*
X16996253Y-10331722D02*
X17005777Y-10312674D01*
X17005777Y-10312674D02*
X17024825Y-10303150D01*
X17024825Y-10303150D02*
X17062920Y-10303150D01*
X17062920Y-10303150D02*
X17081968Y-10312674D01*
X17081968Y-10312674D02*
X17091492Y-10331722D01*
X17091492Y-10331722D02*
X17091492Y-10350770D01*
X17091492Y-10350770D02*
X16996253Y-10369817D01*
X17167682Y-10426960D02*
X17186730Y-10436484D01*
X17186730Y-10436484D02*
X17224825Y-10436484D01*
X17224825Y-10436484D02*
X17243873Y-10426960D01*
X17243873Y-10426960D02*
X17253396Y-10407912D01*
X17253396Y-10407912D02*
X17253396Y-10398389D01*
X17253396Y-10398389D02*
X17243873Y-10379341D01*
X17243873Y-10379341D02*
X17224825Y-10369817D01*
X17224825Y-10369817D02*
X17196253Y-10369817D01*
X17196253Y-10369817D02*
X17177206Y-10360293D01*
X17177206Y-10360293D02*
X17167682Y-10341246D01*
X17167682Y-10341246D02*
X17167682Y-10331722D01*
X17167682Y-10331722D02*
X17177206Y-10312674D01*
X17177206Y-10312674D02*
X17196253Y-10303150D01*
X17196253Y-10303150D02*
X17224825Y-10303150D01*
X17224825Y-10303150D02*
X17243873Y-10312674D01*
X17320063Y-10512674D02*
X17329587Y-10503150D01*
X17329587Y-10503150D02*
X17348634Y-10474579D01*
X17348634Y-10474579D02*
X17358158Y-10455531D01*
X17358158Y-10455531D02*
X17367682Y-10426960D01*
X17367682Y-10426960D02*
X17377206Y-10379341D01*
X17377206Y-10379341D02*
X17377206Y-10341246D01*
X17377206Y-10341246D02*
X17367682Y-10293627D01*
X17367682Y-10293627D02*
X17358158Y-10265055D01*
X17358158Y-10265055D02*
X17348634Y-10246008D01*
X17348634Y-10246008D02*
X17329587Y-10217436D01*
X17329587Y-10217436D02*
X17320063Y-10207912D01*
X17681968Y-10512674D02*
X17672444Y-10503150D01*
X17672444Y-10503150D02*
X17653396Y-10474579D01*
X17653396Y-10474579D02*
X17643873Y-10455531D01*
X17643873Y-10455531D02*
X17634349Y-10426960D01*
X17634349Y-10426960D02*
X17624825Y-10379341D01*
X17624825Y-10379341D02*
X17624825Y-10341246D01*
X17624825Y-10341246D02*
X17634349Y-10293627D01*
X17634349Y-10293627D02*
X17643873Y-10265055D01*
X17643873Y-10265055D02*
X17653396Y-10246008D01*
X17653396Y-10246008D02*
X17672444Y-10217436D01*
X17672444Y-10217436D02*
X17681968Y-10207912D01*
X17758158Y-10303150D02*
X17758158Y-10436484D01*
X17758158Y-10322198D02*
X17767682Y-10312674D01*
X17767682Y-10312674D02*
X17786730Y-10303150D01*
X17786730Y-10303150D02*
X17815301Y-10303150D01*
X17815301Y-10303150D02*
X17834349Y-10312674D01*
X17834349Y-10312674D02*
X17843873Y-10331722D01*
X17843873Y-10331722D02*
X17843873Y-10436484D01*
X17967682Y-10436484D02*
X17948634Y-10426960D01*
X17948634Y-10426960D02*
X17939111Y-10417436D01*
X17939111Y-10417436D02*
X17929587Y-10398389D01*
X17929587Y-10398389D02*
X17929587Y-10341246D01*
X17929587Y-10341246D02*
X17939111Y-10322198D01*
X17939111Y-10322198D02*
X17948634Y-10312674D01*
X17948634Y-10312674D02*
X17967682Y-10303150D01*
X17967682Y-10303150D02*
X17996254Y-10303150D01*
X17996254Y-10303150D02*
X18015301Y-10312674D01*
X18015301Y-10312674D02*
X18024825Y-10322198D01*
X18024825Y-10322198D02*
X18034349Y-10341246D01*
X18034349Y-10341246D02*
X18034349Y-10398389D01*
X18034349Y-10398389D02*
X18024825Y-10417436D01*
X18024825Y-10417436D02*
X18015301Y-10426960D01*
X18015301Y-10426960D02*
X17996254Y-10436484D01*
X17996254Y-10436484D02*
X17967682Y-10436484D01*
X18091492Y-10303150D02*
X18167682Y-10303150D01*
X18120063Y-10236484D02*
X18120063Y-10407912D01*
X18120063Y-10407912D02*
X18129587Y-10426960D01*
X18129587Y-10426960D02*
X18148634Y-10436484D01*
X18148634Y-10436484D02*
X18167682Y-10436484D01*
X18386730Y-10303150D02*
X18386730Y-10503150D01*
X18386730Y-10312674D02*
X18405777Y-10303150D01*
X18405777Y-10303150D02*
X18443873Y-10303150D01*
X18443873Y-10303150D02*
X18462920Y-10312674D01*
X18462920Y-10312674D02*
X18472444Y-10322198D01*
X18472444Y-10322198D02*
X18481968Y-10341246D01*
X18481968Y-10341246D02*
X18481968Y-10398389D01*
X18481968Y-10398389D02*
X18472444Y-10417436D01*
X18472444Y-10417436D02*
X18462920Y-10426960D01*
X18462920Y-10426960D02*
X18443873Y-10436484D01*
X18443873Y-10436484D02*
X18405777Y-10436484D01*
X18405777Y-10436484D02*
X18386730Y-10426960D01*
X18596254Y-10436484D02*
X18577206Y-10426960D01*
X18577206Y-10426960D02*
X18567682Y-10407912D01*
X18567682Y-10407912D02*
X18567682Y-10236484D01*
X18758158Y-10436484D02*
X18758158Y-10331722D01*
X18758158Y-10331722D02*
X18748635Y-10312674D01*
X18748635Y-10312674D02*
X18729587Y-10303150D01*
X18729587Y-10303150D02*
X18691492Y-10303150D01*
X18691492Y-10303150D02*
X18672444Y-10312674D01*
X18758158Y-10426960D02*
X18739111Y-10436484D01*
X18739111Y-10436484D02*
X18691492Y-10436484D01*
X18691492Y-10436484D02*
X18672444Y-10426960D01*
X18672444Y-10426960D02*
X18662920Y-10407912D01*
X18662920Y-10407912D02*
X18662920Y-10388865D01*
X18662920Y-10388865D02*
X18672444Y-10369817D01*
X18672444Y-10369817D02*
X18691492Y-10360293D01*
X18691492Y-10360293D02*
X18739111Y-10360293D01*
X18739111Y-10360293D02*
X18758158Y-10350770D01*
X18824825Y-10303150D02*
X18901015Y-10303150D01*
X18853396Y-10236484D02*
X18853396Y-10407912D01*
X18853396Y-10407912D02*
X18862920Y-10426960D01*
X18862920Y-10426960D02*
X18881968Y-10436484D01*
X18881968Y-10436484D02*
X18901015Y-10436484D01*
X19043873Y-10426960D02*
X19024825Y-10436484D01*
X19024825Y-10436484D02*
X18986730Y-10436484D01*
X18986730Y-10436484D02*
X18967682Y-10426960D01*
X18967682Y-10426960D02*
X18958158Y-10407912D01*
X18958158Y-10407912D02*
X18958158Y-10331722D01*
X18958158Y-10331722D02*
X18967682Y-10312674D01*
X18967682Y-10312674D02*
X18986730Y-10303150D01*
X18986730Y-10303150D02*
X19024825Y-10303150D01*
X19024825Y-10303150D02*
X19043873Y-10312674D01*
X19043873Y-10312674D02*
X19053396Y-10331722D01*
X19053396Y-10331722D02*
X19053396Y-10350770D01*
X19053396Y-10350770D02*
X18958158Y-10369817D01*
X19224825Y-10436484D02*
X19224825Y-10236484D01*
X19224825Y-10426960D02*
X19205777Y-10436484D01*
X19205777Y-10436484D02*
X19167682Y-10436484D01*
X19167682Y-10436484D02*
X19148635Y-10426960D01*
X19148635Y-10426960D02*
X19139111Y-10417436D01*
X19139111Y-10417436D02*
X19129587Y-10398389D01*
X19129587Y-10398389D02*
X19129587Y-10341246D01*
X19129587Y-10341246D02*
X19139111Y-10322198D01*
X19139111Y-10322198D02*
X19148635Y-10312674D01*
X19148635Y-10312674D02*
X19167682Y-10303150D01*
X19167682Y-10303150D02*
X19205777Y-10303150D01*
X19205777Y-10303150D02*
X19224825Y-10312674D01*
X19301016Y-10512674D02*
X19310539Y-10503150D01*
X19310539Y-10503150D02*
X19329587Y-10474579D01*
X19329587Y-10474579D02*
X19339111Y-10455531D01*
X19339111Y-10455531D02*
X19348635Y-10426960D01*
X19348635Y-10426960D02*
X19358158Y-10379341D01*
X19358158Y-10379341D02*
X19358158Y-10341246D01*
X19358158Y-10341246D02*
X19348635Y-10293627D01*
X19348635Y-10293627D02*
X19339111Y-10265055D01*
X19339111Y-10265055D02*
X19329587Y-10246008D01*
X19329587Y-10246008D02*
X19310539Y-10217436D01*
X19310539Y-10217436D02*
X19301016Y-10207912D01*
M02*
