%TF.GenerationSoftware,KiCad,Pcbnew,7.0.9*%
%TF.CreationDate,2023-12-13T16:36:40-05:00*%
%TF.ProjectId,Esp Controller,45737020-436f-46e7-9472-6f6c6c65722e,rev?*%
%TF.SameCoordinates,Original*%
%TF.FileFunction,Soldermask,Top*%
%TF.FilePolarity,Negative*%
%FSLAX46Y46*%
G04 Gerber Fmt 4.6, Leading zero omitted, Abs format (unit mm)*
G04 Created by KiCad (PCBNEW 7.0.9) date 2023-12-13 16:36:40*
%MOMM*%
%LPD*%
G01*
G04 APERTURE LIST*
%ADD10C,3.200000*%
%ADD11R,1.500000X1.500000*%
%ADD12C,1.500000*%
%ADD13R,1.200000X2.000000*%
%ADD14O,1.200000X2.000000*%
G04 APERTURE END LIST*
D10*
%TO.C,J2*%
X140970000Y-97790000D03*
X152400000Y-97790000D03*
D11*
X142240000Y-91440000D03*
D12*
X143510000Y-88900000D03*
X144780000Y-91440000D03*
X146050000Y-88900000D03*
X147320000Y-91440000D03*
X148590000Y-88900000D03*
X149860000Y-91440000D03*
X151130000Y-88900000D03*
%TD*%
D10*
%TO.C,J3*%
X118907500Y-97770000D03*
X130337500Y-97770000D03*
D11*
X120177500Y-91420000D03*
D12*
X121447500Y-88880000D03*
X122717500Y-91420000D03*
X123987500Y-88880000D03*
X125257500Y-91420000D03*
X126527500Y-88880000D03*
X127797500Y-91420000D03*
X129067500Y-88880000D03*
%TD*%
D10*
%TO.C,J1*%
X97317500Y-97770000D03*
X108747500Y-97770000D03*
D11*
X98587500Y-91420000D03*
D12*
X99857500Y-88880000D03*
X101127500Y-91420000D03*
X102397500Y-88880000D03*
X103667500Y-91420000D03*
X104937500Y-88880000D03*
X106207500Y-91420000D03*
X107477500Y-88880000D03*
%TD*%
D10*
%TO.C,J4*%
X163357500Y-97770000D03*
X174787500Y-97770000D03*
D11*
X164627500Y-91420000D03*
D12*
X165897500Y-88880000D03*
X167167500Y-91420000D03*
X168437500Y-88880000D03*
X169707500Y-91420000D03*
X170977500Y-88880000D03*
X172247500Y-91420000D03*
X173517500Y-88880000D03*
%TD*%
D13*
%TO.C,U2*%
X141823440Y-53340000D03*
D14*
X139283440Y-53340000D03*
X136743440Y-53340000D03*
X134203440Y-53340000D03*
X131663440Y-53340000D03*
X129123440Y-53340000D03*
X126583440Y-53340000D03*
X124043440Y-53340000D03*
X121503440Y-53340000D03*
X118963440Y-53340000D03*
X116423440Y-53340000D03*
X113883440Y-53340000D03*
X111343440Y-53340000D03*
X108803440Y-53340000D03*
X106263440Y-53340000D03*
X103723440Y-53340000D03*
X101183440Y-53340000D03*
X98643440Y-53340000D03*
X96103440Y-53340000D03*
X96106160Y-78736320D03*
X98646160Y-78736320D03*
X101183440Y-78740000D03*
X103723440Y-78740000D03*
X106263440Y-78740000D03*
X108803440Y-78740000D03*
X111343440Y-78740000D03*
X113883440Y-78740000D03*
X116423440Y-78740000D03*
X118963440Y-78740000D03*
X121503440Y-78740000D03*
X124043440Y-78740000D03*
X126583440Y-78740000D03*
X129123440Y-78740000D03*
X131663440Y-78740000D03*
X134203440Y-78740000D03*
X136743440Y-78740000D03*
X139283440Y-78740000D03*
X141823440Y-78740000D03*
%TD*%
M02*
