%TF.GenerationSoftware,KiCad,Pcbnew,7.0.9*%
%TF.CreationDate,2023-12-13T16:36:29-05:00*%
%TF.ProjectId,Esp Controller,45737020-436f-46e7-9472-6f6c6c65722e,rev?*%
%TF.SameCoordinates,Original*%
%TF.FileFunction,Drillmap*%
%TF.FilePolarity,Positive*%
%FSLAX45Y45*%
G04 Gerber Fmt 4.5, Leading zero omitted, Abs format (unit mm)*
G04 Created by KiCad (PCBNEW 7.0.9) date 2023-12-13 16:36:29*
%MOMM*%
%LPD*%
G01*
G04 APERTURE LIST*
%ADD10C,0.100000*%
%ADD11C,0.200000*%
G04 APERTURE END LIST*
D10*
X17653000Y-10160000D02*
X9525000Y-10160000D01*
X17907000Y-8128000D02*
G75*
G03*
X17653000Y-7874000I-254000J0D01*
G01*
X16915553Y-8297000D02*
G75*
G03*
X16915553Y-8297000I-204553J0D01*
G01*
X14284605Y-5208395D02*
X14284605Y-7621395D01*
X12210040Y-6795000D02*
G75*
G03*
X12210040Y-6795000I-202040J0D01*
G01*
X9525000Y-4953000D02*
G75*
G03*
X9271000Y-5207000I0J-254000D01*
G01*
X14284605Y-5208395D02*
G75*
G03*
X14030605Y-4954395I-253995J5D01*
G01*
X14284605Y-7621395D02*
G75*
G03*
X14538605Y-7875395I253995J-5D01*
G01*
X9525000Y-4953000D02*
X14030605Y-4954395D01*
X9271000Y-5207000D02*
X9271000Y-9906000D01*
X17907000Y-9906000D02*
X17907000Y-8128000D01*
X17653000Y-10160000D02*
G75*
G03*
X17907000Y-9906000I0J254000D01*
G01*
X14538605Y-7875395D02*
X17653000Y-7874000D01*
X9271000Y-9906000D02*
G75*
G03*
X9525000Y-10160000I254000J0D01*
G01*
D11*
D10*
X11156000Y-9124000D02*
X11196000Y-9164000D01*
X11196000Y-9124000D02*
X11156000Y-9164000D01*
X11410000Y-9124000D02*
X11450000Y-9164000D01*
X11450000Y-9124000D02*
X11410000Y-9164000D01*
X9896750Y-9142000D02*
G75*
G03*
X9896750Y-9142000I-38000J0D01*
G01*
X10023750Y-8888000D02*
G75*
G03*
X10023750Y-8888000I-38000J0D01*
G01*
X10150750Y-9142000D02*
G75*
G03*
X10150750Y-9142000I-38000J0D01*
G01*
X10277750Y-8888000D02*
G75*
G03*
X10277750Y-8888000I-38000J0D01*
G01*
X10404750Y-9142000D02*
G75*
G03*
X10404750Y-9142000I-38000J0D01*
G01*
X10531750Y-8888000D02*
G75*
G03*
X10531750Y-8888000I-38000J0D01*
G01*
X10658750Y-9142000D02*
G75*
G03*
X10658750Y-9142000I-38000J0D01*
G01*
X10785750Y-8888000D02*
G75*
G03*
X10785750Y-8888000I-38000J0D01*
G01*
X12055750Y-9142000D02*
G75*
G03*
X12055750Y-9142000I-38000J0D01*
G01*
X12182750Y-8888000D02*
G75*
G03*
X12182750Y-8888000I-38000J0D01*
G01*
X12309750Y-9142000D02*
G75*
G03*
X12309750Y-9142000I-38000J0D01*
G01*
X12436750Y-8888000D02*
G75*
G03*
X12436750Y-8888000I-38000J0D01*
G01*
X12563750Y-9142000D02*
G75*
G03*
X12563750Y-9142000I-38000J0D01*
G01*
X12690750Y-8888000D02*
G75*
G03*
X12690750Y-8888000I-38000J0D01*
G01*
X12817750Y-9142000D02*
G75*
G03*
X12817750Y-9142000I-38000J0D01*
G01*
X12944750Y-8888000D02*
G75*
G03*
X12944750Y-8888000I-38000J0D01*
G01*
X14262000Y-9144000D02*
G75*
G03*
X14262000Y-9144000I-38000J0D01*
G01*
X14389000Y-8890000D02*
G75*
G03*
X14389000Y-8890000I-38000J0D01*
G01*
X14516000Y-9144000D02*
G75*
G03*
X14516000Y-9144000I-38000J0D01*
G01*
X14643000Y-8890000D02*
G75*
G03*
X14643000Y-8890000I-38000J0D01*
G01*
X14770000Y-9144000D02*
G75*
G03*
X14770000Y-9144000I-38000J0D01*
G01*
X14897000Y-8890000D02*
G75*
G03*
X14897000Y-8890000I-38000J0D01*
G01*
X15024000Y-9144000D02*
G75*
G03*
X15024000Y-9144000I-38000J0D01*
G01*
X15151000Y-8890000D02*
G75*
G03*
X15151000Y-8890000I-38000J0D01*
G01*
X16500750Y-9142000D02*
G75*
G03*
X16500750Y-9142000I-38000J0D01*
G01*
X16627750Y-8888000D02*
G75*
G03*
X16627750Y-8888000I-38000J0D01*
G01*
X16754750Y-9142000D02*
G75*
G03*
X16754750Y-9142000I-38000J0D01*
G01*
X16881750Y-8888000D02*
G75*
G03*
X16881750Y-8888000I-38000J0D01*
G01*
X17008750Y-9142000D02*
G75*
G03*
X17008750Y-9142000I-38000J0D01*
G01*
X17135750Y-8888000D02*
G75*
G03*
X17135750Y-8888000I-38000J0D01*
G01*
X17262750Y-9142000D02*
G75*
G03*
X17262750Y-9142000I-38000J0D01*
G01*
X17389750Y-8888000D02*
G75*
G03*
X17389750Y-8888000I-38000J0D01*
G01*
X9610344Y-5294000D02*
X9610344Y-5374000D01*
X9570344Y-5334000D02*
X9650344Y-5334000D01*
X9610616Y-7833632D02*
X9610616Y-7913632D01*
X9570616Y-7873632D02*
X9650616Y-7873632D01*
X9864344Y-5294000D02*
X9864344Y-5374000D01*
X9824344Y-5334000D02*
X9904344Y-5334000D01*
X9864616Y-7833632D02*
X9864616Y-7913632D01*
X9824616Y-7873632D02*
X9904616Y-7873632D01*
X10118344Y-5294000D02*
X10118344Y-5374000D01*
X10078344Y-5334000D02*
X10158344Y-5334000D01*
X10118344Y-7834000D02*
X10118344Y-7914000D01*
X10078344Y-7874000D02*
X10158344Y-7874000D01*
X10372344Y-5294000D02*
X10372344Y-5374000D01*
X10332344Y-5334000D02*
X10412344Y-5334000D01*
X10372344Y-7834000D02*
X10372344Y-7914000D01*
X10332344Y-7874000D02*
X10412344Y-7874000D01*
X10626344Y-5294000D02*
X10626344Y-5374000D01*
X10586344Y-5334000D02*
X10666344Y-5334000D01*
X10626344Y-7834000D02*
X10626344Y-7914000D01*
X10586344Y-7874000D02*
X10666344Y-7874000D01*
X10880344Y-5294000D02*
X10880344Y-5374000D01*
X10840344Y-5334000D02*
X10920344Y-5334000D01*
X10880344Y-7834000D02*
X10880344Y-7914000D01*
X10840344Y-7874000D02*
X10920344Y-7874000D01*
X11134344Y-5294000D02*
X11134344Y-5374000D01*
X11094344Y-5334000D02*
X11174344Y-5334000D01*
X11134344Y-7834000D02*
X11134344Y-7914000D01*
X11094344Y-7874000D02*
X11174344Y-7874000D01*
X11388344Y-5294000D02*
X11388344Y-5374000D01*
X11348344Y-5334000D02*
X11428344Y-5334000D01*
X11388344Y-7834000D02*
X11388344Y-7914000D01*
X11348344Y-7874000D02*
X11428344Y-7874000D01*
X11642344Y-5294000D02*
X11642344Y-5374000D01*
X11602344Y-5334000D02*
X11682344Y-5334000D01*
X11642344Y-7834000D02*
X11642344Y-7914000D01*
X11602344Y-7874000D02*
X11682344Y-7874000D01*
X11896344Y-5294000D02*
X11896344Y-5374000D01*
X11856344Y-5334000D02*
X11936344Y-5334000D01*
X11896344Y-7834000D02*
X11896344Y-7914000D01*
X11856344Y-7874000D02*
X11936344Y-7874000D01*
X12150344Y-5294000D02*
X12150344Y-5374000D01*
X12110344Y-5334000D02*
X12190344Y-5334000D01*
X12150344Y-7834000D02*
X12150344Y-7914000D01*
X12110344Y-7874000D02*
X12190344Y-7874000D01*
X12404344Y-5294000D02*
X12404344Y-5374000D01*
X12364344Y-5334000D02*
X12444344Y-5334000D01*
X12404344Y-7834000D02*
X12404344Y-7914000D01*
X12364344Y-7874000D02*
X12444344Y-7874000D01*
X12658344Y-5294000D02*
X12658344Y-5374000D01*
X12618344Y-5334000D02*
X12698344Y-5334000D01*
X12658344Y-7834000D02*
X12658344Y-7914000D01*
X12618344Y-7874000D02*
X12698344Y-7874000D01*
X12912344Y-5294000D02*
X12912344Y-5374000D01*
X12872344Y-5334000D02*
X12952344Y-5334000D01*
X12912344Y-7834000D02*
X12912344Y-7914000D01*
X12872344Y-7874000D02*
X12952344Y-7874000D01*
X13166344Y-5294000D02*
X13166344Y-5374000D01*
X13126344Y-5334000D02*
X13206344Y-5334000D01*
X13166344Y-7834000D02*
X13166344Y-7914000D01*
X13126344Y-7874000D02*
X13206344Y-7874000D01*
X13420344Y-5294000D02*
X13420344Y-5374000D01*
X13380344Y-5334000D02*
X13460344Y-5334000D01*
X13420344Y-7834000D02*
X13420344Y-7914000D01*
X13380344Y-7874000D02*
X13460344Y-7874000D01*
X13674344Y-5294000D02*
X13674344Y-5374000D01*
X13634344Y-5334000D02*
X13714344Y-5334000D01*
X13674344Y-7834000D02*
X13674344Y-7914000D01*
X13634344Y-7874000D02*
X13714344Y-7874000D01*
X13928344Y-5294000D02*
X13928344Y-5374000D01*
X13888344Y-5334000D02*
X13968344Y-5334000D01*
X13928344Y-7834000D02*
X13928344Y-7914000D01*
X13888344Y-7874000D02*
X13968344Y-7874000D01*
X14182344Y-5294000D02*
X14182344Y-5374000D01*
X14142344Y-5334000D02*
X14222344Y-5334000D01*
X14182344Y-7834000D02*
X14182344Y-7914000D01*
X14142344Y-7874000D02*
X14222344Y-7874000D01*
D11*
X9526777Y-10476484D02*
X9526777Y-10276484D01*
X9526777Y-10276484D02*
X9574396Y-10276484D01*
X9574396Y-10276484D02*
X9602967Y-10286008D01*
X9602967Y-10286008D02*
X9622015Y-10305055D01*
X9622015Y-10305055D02*
X9631539Y-10324103D01*
X9631539Y-10324103D02*
X9641063Y-10362198D01*
X9641063Y-10362198D02*
X9641063Y-10390770D01*
X9641063Y-10390770D02*
X9631539Y-10428865D01*
X9631539Y-10428865D02*
X9622015Y-10447912D01*
X9622015Y-10447912D02*
X9602967Y-10466960D01*
X9602967Y-10466960D02*
X9574396Y-10476484D01*
X9574396Y-10476484D02*
X9526777Y-10476484D01*
X9726777Y-10476484D02*
X9726777Y-10343150D01*
X9726777Y-10381246D02*
X9736301Y-10362198D01*
X9736301Y-10362198D02*
X9745824Y-10352674D01*
X9745824Y-10352674D02*
X9764872Y-10343150D01*
X9764872Y-10343150D02*
X9783920Y-10343150D01*
X9850586Y-10476484D02*
X9850586Y-10343150D01*
X9850586Y-10276484D02*
X9841063Y-10286008D01*
X9841063Y-10286008D02*
X9850586Y-10295531D01*
X9850586Y-10295531D02*
X9860110Y-10286008D01*
X9860110Y-10286008D02*
X9850586Y-10276484D01*
X9850586Y-10276484D02*
X9850586Y-10295531D01*
X9974396Y-10476484D02*
X9955348Y-10466960D01*
X9955348Y-10466960D02*
X9945824Y-10447912D01*
X9945824Y-10447912D02*
X9945824Y-10276484D01*
X10079158Y-10476484D02*
X10060110Y-10466960D01*
X10060110Y-10466960D02*
X10050586Y-10447912D01*
X10050586Y-10447912D02*
X10050586Y-10276484D01*
X10307729Y-10476484D02*
X10307729Y-10276484D01*
X10307729Y-10276484D02*
X10374396Y-10419341D01*
X10374396Y-10419341D02*
X10441063Y-10276484D01*
X10441063Y-10276484D02*
X10441063Y-10476484D01*
X10622015Y-10476484D02*
X10622015Y-10371722D01*
X10622015Y-10371722D02*
X10612491Y-10352674D01*
X10612491Y-10352674D02*
X10593444Y-10343150D01*
X10593444Y-10343150D02*
X10555348Y-10343150D01*
X10555348Y-10343150D02*
X10536301Y-10352674D01*
X10622015Y-10466960D02*
X10602967Y-10476484D01*
X10602967Y-10476484D02*
X10555348Y-10476484D01*
X10555348Y-10476484D02*
X10536301Y-10466960D01*
X10536301Y-10466960D02*
X10526777Y-10447912D01*
X10526777Y-10447912D02*
X10526777Y-10428865D01*
X10526777Y-10428865D02*
X10536301Y-10409817D01*
X10536301Y-10409817D02*
X10555348Y-10400293D01*
X10555348Y-10400293D02*
X10602967Y-10400293D01*
X10602967Y-10400293D02*
X10622015Y-10390770D01*
X10717253Y-10343150D02*
X10717253Y-10543150D01*
X10717253Y-10352674D02*
X10736301Y-10343150D01*
X10736301Y-10343150D02*
X10774396Y-10343150D01*
X10774396Y-10343150D02*
X10793444Y-10352674D01*
X10793444Y-10352674D02*
X10802967Y-10362198D01*
X10802967Y-10362198D02*
X10812491Y-10381246D01*
X10812491Y-10381246D02*
X10812491Y-10438389D01*
X10812491Y-10438389D02*
X10802967Y-10457436D01*
X10802967Y-10457436D02*
X10793444Y-10466960D01*
X10793444Y-10466960D02*
X10774396Y-10476484D01*
X10774396Y-10476484D02*
X10736301Y-10476484D01*
X10736301Y-10476484D02*
X10717253Y-10466960D01*
X10898205Y-10457436D02*
X10907729Y-10466960D01*
X10907729Y-10466960D02*
X10898205Y-10476484D01*
X10898205Y-10476484D02*
X10888682Y-10466960D01*
X10888682Y-10466960D02*
X10898205Y-10457436D01*
X10898205Y-10457436D02*
X10898205Y-10476484D01*
X10898205Y-10352674D02*
X10907729Y-10362198D01*
X10907729Y-10362198D02*
X10898205Y-10371722D01*
X10898205Y-10371722D02*
X10888682Y-10362198D01*
X10888682Y-10362198D02*
X10898205Y-10352674D01*
X10898205Y-10352674D02*
X10898205Y-10371722D01*
D10*
X9226000Y-10785000D02*
X9266000Y-10825000D01*
X9266000Y-10785000D02*
X9226000Y-10825000D01*
D11*
X9564872Y-10696484D02*
X9583920Y-10696484D01*
X9583920Y-10696484D02*
X9602967Y-10706008D01*
X9602967Y-10706008D02*
X9612491Y-10715531D01*
X9612491Y-10715531D02*
X9622015Y-10734579D01*
X9622015Y-10734579D02*
X9631539Y-10772674D01*
X9631539Y-10772674D02*
X9631539Y-10820293D01*
X9631539Y-10820293D02*
X9622015Y-10858389D01*
X9622015Y-10858389D02*
X9612491Y-10877436D01*
X9612491Y-10877436D02*
X9602967Y-10886960D01*
X9602967Y-10886960D02*
X9583920Y-10896484D01*
X9583920Y-10896484D02*
X9564872Y-10896484D01*
X9564872Y-10896484D02*
X9545824Y-10886960D01*
X9545824Y-10886960D02*
X9536301Y-10877436D01*
X9536301Y-10877436D02*
X9526777Y-10858389D01*
X9526777Y-10858389D02*
X9517253Y-10820293D01*
X9517253Y-10820293D02*
X9517253Y-10772674D01*
X9517253Y-10772674D02*
X9526777Y-10734579D01*
X9526777Y-10734579D02*
X9536301Y-10715531D01*
X9536301Y-10715531D02*
X9545824Y-10706008D01*
X9545824Y-10706008D02*
X9564872Y-10696484D01*
X9717253Y-10877436D02*
X9726777Y-10886960D01*
X9726777Y-10886960D02*
X9717253Y-10896484D01*
X9717253Y-10896484D02*
X9707729Y-10886960D01*
X9707729Y-10886960D02*
X9717253Y-10877436D01*
X9717253Y-10877436D02*
X9717253Y-10896484D01*
X9898205Y-10763150D02*
X9898205Y-10896484D01*
X9850586Y-10686960D02*
X9802967Y-10829817D01*
X9802967Y-10829817D02*
X9926777Y-10829817D01*
X10041063Y-10696484D02*
X10060110Y-10696484D01*
X10060110Y-10696484D02*
X10079158Y-10706008D01*
X10079158Y-10706008D02*
X10088682Y-10715531D01*
X10088682Y-10715531D02*
X10098205Y-10734579D01*
X10098205Y-10734579D02*
X10107729Y-10772674D01*
X10107729Y-10772674D02*
X10107729Y-10820293D01*
X10107729Y-10820293D02*
X10098205Y-10858389D01*
X10098205Y-10858389D02*
X10088682Y-10877436D01*
X10088682Y-10877436D02*
X10079158Y-10886960D01*
X10079158Y-10886960D02*
X10060110Y-10896484D01*
X10060110Y-10896484D02*
X10041063Y-10896484D01*
X10041063Y-10896484D02*
X10022015Y-10886960D01*
X10022015Y-10886960D02*
X10012491Y-10877436D01*
X10012491Y-10877436D02*
X10002967Y-10858389D01*
X10002967Y-10858389D02*
X9993444Y-10820293D01*
X9993444Y-10820293D02*
X9993444Y-10772674D01*
X9993444Y-10772674D02*
X10002967Y-10734579D01*
X10002967Y-10734579D02*
X10012491Y-10715531D01*
X10012491Y-10715531D02*
X10022015Y-10706008D01*
X10022015Y-10706008D02*
X10041063Y-10696484D01*
X10231539Y-10696484D02*
X10250586Y-10696484D01*
X10250586Y-10696484D02*
X10269634Y-10706008D01*
X10269634Y-10706008D02*
X10279158Y-10715531D01*
X10279158Y-10715531D02*
X10288682Y-10734579D01*
X10288682Y-10734579D02*
X10298205Y-10772674D01*
X10298205Y-10772674D02*
X10298205Y-10820293D01*
X10298205Y-10820293D02*
X10288682Y-10858389D01*
X10288682Y-10858389D02*
X10279158Y-10877436D01*
X10279158Y-10877436D02*
X10269634Y-10886960D01*
X10269634Y-10886960D02*
X10250586Y-10896484D01*
X10250586Y-10896484D02*
X10231539Y-10896484D01*
X10231539Y-10896484D02*
X10212491Y-10886960D01*
X10212491Y-10886960D02*
X10202967Y-10877436D01*
X10202967Y-10877436D02*
X10193444Y-10858389D01*
X10193444Y-10858389D02*
X10183920Y-10820293D01*
X10183920Y-10820293D02*
X10183920Y-10772674D01*
X10183920Y-10772674D02*
X10193444Y-10734579D01*
X10193444Y-10734579D02*
X10202967Y-10715531D01*
X10202967Y-10715531D02*
X10212491Y-10706008D01*
X10212491Y-10706008D02*
X10231539Y-10696484D01*
X10383920Y-10896484D02*
X10383920Y-10763150D01*
X10383920Y-10782198D02*
X10393444Y-10772674D01*
X10393444Y-10772674D02*
X10412491Y-10763150D01*
X10412491Y-10763150D02*
X10441063Y-10763150D01*
X10441063Y-10763150D02*
X10460110Y-10772674D01*
X10460110Y-10772674D02*
X10469634Y-10791722D01*
X10469634Y-10791722D02*
X10469634Y-10896484D01*
X10469634Y-10791722D02*
X10479158Y-10772674D01*
X10479158Y-10772674D02*
X10498205Y-10763150D01*
X10498205Y-10763150D02*
X10526777Y-10763150D01*
X10526777Y-10763150D02*
X10545825Y-10772674D01*
X10545825Y-10772674D02*
X10555348Y-10791722D01*
X10555348Y-10791722D02*
X10555348Y-10896484D01*
X10650586Y-10896484D02*
X10650586Y-10763150D01*
X10650586Y-10782198D02*
X10660110Y-10772674D01*
X10660110Y-10772674D02*
X10679158Y-10763150D01*
X10679158Y-10763150D02*
X10707729Y-10763150D01*
X10707729Y-10763150D02*
X10726777Y-10772674D01*
X10726777Y-10772674D02*
X10736301Y-10791722D01*
X10736301Y-10791722D02*
X10736301Y-10896484D01*
X10736301Y-10791722D02*
X10745825Y-10772674D01*
X10745825Y-10772674D02*
X10764872Y-10763150D01*
X10764872Y-10763150D02*
X10793444Y-10763150D01*
X10793444Y-10763150D02*
X10812491Y-10772674D01*
X10812491Y-10772674D02*
X10822015Y-10791722D01*
X10822015Y-10791722D02*
X10822015Y-10896484D01*
X11212491Y-10686960D02*
X11041063Y-10944103D01*
X11469634Y-10696484D02*
X11488682Y-10696484D01*
X11488682Y-10696484D02*
X11507729Y-10706008D01*
X11507729Y-10706008D02*
X11517253Y-10715531D01*
X11517253Y-10715531D02*
X11526777Y-10734579D01*
X11526777Y-10734579D02*
X11536301Y-10772674D01*
X11536301Y-10772674D02*
X11536301Y-10820293D01*
X11536301Y-10820293D02*
X11526777Y-10858389D01*
X11526777Y-10858389D02*
X11517253Y-10877436D01*
X11517253Y-10877436D02*
X11507729Y-10886960D01*
X11507729Y-10886960D02*
X11488682Y-10896484D01*
X11488682Y-10896484D02*
X11469634Y-10896484D01*
X11469634Y-10896484D02*
X11450586Y-10886960D01*
X11450586Y-10886960D02*
X11441063Y-10877436D01*
X11441063Y-10877436D02*
X11431539Y-10858389D01*
X11431539Y-10858389D02*
X11422015Y-10820293D01*
X11422015Y-10820293D02*
X11422015Y-10772674D01*
X11422015Y-10772674D02*
X11431539Y-10734579D01*
X11431539Y-10734579D02*
X11441063Y-10715531D01*
X11441063Y-10715531D02*
X11450586Y-10706008D01*
X11450586Y-10706008D02*
X11469634Y-10696484D01*
X11622015Y-10877436D02*
X11631539Y-10886960D01*
X11631539Y-10886960D02*
X11622015Y-10896484D01*
X11622015Y-10896484D02*
X11612491Y-10886960D01*
X11612491Y-10886960D02*
X11622015Y-10877436D01*
X11622015Y-10877436D02*
X11622015Y-10896484D01*
X11755348Y-10696484D02*
X11774396Y-10696484D01*
X11774396Y-10696484D02*
X11793444Y-10706008D01*
X11793444Y-10706008D02*
X11802967Y-10715531D01*
X11802967Y-10715531D02*
X11812491Y-10734579D01*
X11812491Y-10734579D02*
X11822015Y-10772674D01*
X11822015Y-10772674D02*
X11822015Y-10820293D01*
X11822015Y-10820293D02*
X11812491Y-10858389D01*
X11812491Y-10858389D02*
X11802967Y-10877436D01*
X11802967Y-10877436D02*
X11793444Y-10886960D01*
X11793444Y-10886960D02*
X11774396Y-10896484D01*
X11774396Y-10896484D02*
X11755348Y-10896484D01*
X11755348Y-10896484D02*
X11736301Y-10886960D01*
X11736301Y-10886960D02*
X11726777Y-10877436D01*
X11726777Y-10877436D02*
X11717253Y-10858389D01*
X11717253Y-10858389D02*
X11707729Y-10820293D01*
X11707729Y-10820293D02*
X11707729Y-10772674D01*
X11707729Y-10772674D02*
X11717253Y-10734579D01*
X11717253Y-10734579D02*
X11726777Y-10715531D01*
X11726777Y-10715531D02*
X11736301Y-10706008D01*
X11736301Y-10706008D02*
X11755348Y-10696484D01*
X12012491Y-10896484D02*
X11898206Y-10896484D01*
X11955348Y-10896484D02*
X11955348Y-10696484D01*
X11955348Y-10696484D02*
X11936301Y-10725055D01*
X11936301Y-10725055D02*
X11917253Y-10744103D01*
X11917253Y-10744103D02*
X11898206Y-10753627D01*
X12193444Y-10696484D02*
X12098206Y-10696484D01*
X12098206Y-10696484D02*
X12088682Y-10791722D01*
X12088682Y-10791722D02*
X12098206Y-10782198D01*
X12098206Y-10782198D02*
X12117253Y-10772674D01*
X12117253Y-10772674D02*
X12164872Y-10772674D01*
X12164872Y-10772674D02*
X12183920Y-10782198D01*
X12183920Y-10782198D02*
X12193444Y-10791722D01*
X12193444Y-10791722D02*
X12202967Y-10810770D01*
X12202967Y-10810770D02*
X12202967Y-10858389D01*
X12202967Y-10858389D02*
X12193444Y-10877436D01*
X12193444Y-10877436D02*
X12183920Y-10886960D01*
X12183920Y-10886960D02*
X12164872Y-10896484D01*
X12164872Y-10896484D02*
X12117253Y-10896484D01*
X12117253Y-10896484D02*
X12098206Y-10886960D01*
X12098206Y-10886960D02*
X12088682Y-10877436D01*
X12269634Y-10696484D02*
X12402967Y-10696484D01*
X12402967Y-10696484D02*
X12317253Y-10896484D01*
X12469634Y-10696484D02*
X12469634Y-10734579D01*
X12545825Y-10696484D02*
X12545825Y-10734579D01*
X12841063Y-10972674D02*
X12831539Y-10963150D01*
X12831539Y-10963150D02*
X12812491Y-10934579D01*
X12812491Y-10934579D02*
X12802968Y-10915531D01*
X12802968Y-10915531D02*
X12793444Y-10886960D01*
X12793444Y-10886960D02*
X12783920Y-10839341D01*
X12783920Y-10839341D02*
X12783920Y-10801246D01*
X12783920Y-10801246D02*
X12793444Y-10753627D01*
X12793444Y-10753627D02*
X12802968Y-10725055D01*
X12802968Y-10725055D02*
X12812491Y-10706008D01*
X12812491Y-10706008D02*
X12831539Y-10677436D01*
X12831539Y-10677436D02*
X12841063Y-10667912D01*
X12907729Y-10715531D02*
X12917253Y-10706008D01*
X12917253Y-10706008D02*
X12936301Y-10696484D01*
X12936301Y-10696484D02*
X12983920Y-10696484D01*
X12983920Y-10696484D02*
X13002968Y-10706008D01*
X13002968Y-10706008D02*
X13012491Y-10715531D01*
X13012491Y-10715531D02*
X13022015Y-10734579D01*
X13022015Y-10734579D02*
X13022015Y-10753627D01*
X13022015Y-10753627D02*
X13012491Y-10782198D01*
X13012491Y-10782198D02*
X12898206Y-10896484D01*
X12898206Y-10896484D02*
X13022015Y-10896484D01*
X13260110Y-10896484D02*
X13260110Y-10696484D01*
X13345825Y-10896484D02*
X13345825Y-10791722D01*
X13345825Y-10791722D02*
X13336301Y-10772674D01*
X13336301Y-10772674D02*
X13317253Y-10763150D01*
X13317253Y-10763150D02*
X13288682Y-10763150D01*
X13288682Y-10763150D02*
X13269634Y-10772674D01*
X13269634Y-10772674D02*
X13260110Y-10782198D01*
X13469634Y-10896484D02*
X13450587Y-10886960D01*
X13450587Y-10886960D02*
X13441063Y-10877436D01*
X13441063Y-10877436D02*
X13431539Y-10858389D01*
X13431539Y-10858389D02*
X13431539Y-10801246D01*
X13431539Y-10801246D02*
X13441063Y-10782198D01*
X13441063Y-10782198D02*
X13450587Y-10772674D01*
X13450587Y-10772674D02*
X13469634Y-10763150D01*
X13469634Y-10763150D02*
X13498206Y-10763150D01*
X13498206Y-10763150D02*
X13517253Y-10772674D01*
X13517253Y-10772674D02*
X13526777Y-10782198D01*
X13526777Y-10782198D02*
X13536301Y-10801246D01*
X13536301Y-10801246D02*
X13536301Y-10858389D01*
X13536301Y-10858389D02*
X13526777Y-10877436D01*
X13526777Y-10877436D02*
X13517253Y-10886960D01*
X13517253Y-10886960D02*
X13498206Y-10896484D01*
X13498206Y-10896484D02*
X13469634Y-10896484D01*
X13650587Y-10896484D02*
X13631539Y-10886960D01*
X13631539Y-10886960D02*
X13622015Y-10867912D01*
X13622015Y-10867912D02*
X13622015Y-10696484D01*
X13802968Y-10886960D02*
X13783920Y-10896484D01*
X13783920Y-10896484D02*
X13745825Y-10896484D01*
X13745825Y-10896484D02*
X13726777Y-10886960D01*
X13726777Y-10886960D02*
X13717253Y-10867912D01*
X13717253Y-10867912D02*
X13717253Y-10791722D01*
X13717253Y-10791722D02*
X13726777Y-10772674D01*
X13726777Y-10772674D02*
X13745825Y-10763150D01*
X13745825Y-10763150D02*
X13783920Y-10763150D01*
X13783920Y-10763150D02*
X13802968Y-10772674D01*
X13802968Y-10772674D02*
X13812491Y-10791722D01*
X13812491Y-10791722D02*
X13812491Y-10810770D01*
X13812491Y-10810770D02*
X13717253Y-10829817D01*
X13888682Y-10886960D02*
X13907730Y-10896484D01*
X13907730Y-10896484D02*
X13945825Y-10896484D01*
X13945825Y-10896484D02*
X13964872Y-10886960D01*
X13964872Y-10886960D02*
X13974396Y-10867912D01*
X13974396Y-10867912D02*
X13974396Y-10858389D01*
X13974396Y-10858389D02*
X13964872Y-10839341D01*
X13964872Y-10839341D02*
X13945825Y-10829817D01*
X13945825Y-10829817D02*
X13917253Y-10829817D01*
X13917253Y-10829817D02*
X13898206Y-10820293D01*
X13898206Y-10820293D02*
X13888682Y-10801246D01*
X13888682Y-10801246D02*
X13888682Y-10791722D01*
X13888682Y-10791722D02*
X13898206Y-10772674D01*
X13898206Y-10772674D02*
X13917253Y-10763150D01*
X13917253Y-10763150D02*
X13945825Y-10763150D01*
X13945825Y-10763150D02*
X13964872Y-10772674D01*
X14041063Y-10972674D02*
X14050587Y-10963150D01*
X14050587Y-10963150D02*
X14069634Y-10934579D01*
X14069634Y-10934579D02*
X14079158Y-10915531D01*
X14079158Y-10915531D02*
X14088682Y-10886960D01*
X14088682Y-10886960D02*
X14098206Y-10839341D01*
X14098206Y-10839341D02*
X14098206Y-10801246D01*
X14098206Y-10801246D02*
X14088682Y-10753627D01*
X14088682Y-10753627D02*
X14079158Y-10725055D01*
X14079158Y-10725055D02*
X14069634Y-10706008D01*
X14069634Y-10706008D02*
X14050587Y-10677436D01*
X14050587Y-10677436D02*
X14041063Y-10667912D01*
D10*
X9266000Y-11069000D02*
G75*
G03*
X9266000Y-11069000I-38000J0D01*
G01*
D11*
X9564872Y-10960484D02*
X9583920Y-10960484D01*
X9583920Y-10960484D02*
X9602967Y-10970008D01*
X9602967Y-10970008D02*
X9612491Y-10979531D01*
X9612491Y-10979531D02*
X9622015Y-10998579D01*
X9622015Y-10998579D02*
X9631539Y-11036674D01*
X9631539Y-11036674D02*
X9631539Y-11084293D01*
X9631539Y-11084293D02*
X9622015Y-11122389D01*
X9622015Y-11122389D02*
X9612491Y-11141436D01*
X9612491Y-11141436D02*
X9602967Y-11150960D01*
X9602967Y-11150960D02*
X9583920Y-11160484D01*
X9583920Y-11160484D02*
X9564872Y-11160484D01*
X9564872Y-11160484D02*
X9545824Y-11150960D01*
X9545824Y-11150960D02*
X9536301Y-11141436D01*
X9536301Y-11141436D02*
X9526777Y-11122389D01*
X9526777Y-11122389D02*
X9517253Y-11084293D01*
X9517253Y-11084293D02*
X9517253Y-11036674D01*
X9517253Y-11036674D02*
X9526777Y-10998579D01*
X9526777Y-10998579D02*
X9536301Y-10979531D01*
X9536301Y-10979531D02*
X9545824Y-10970008D01*
X9545824Y-10970008D02*
X9564872Y-10960484D01*
X9717253Y-11141436D02*
X9726777Y-11150960D01*
X9726777Y-11150960D02*
X9717253Y-11160484D01*
X9717253Y-11160484D02*
X9707729Y-11150960D01*
X9707729Y-11150960D02*
X9717253Y-11141436D01*
X9717253Y-11141436D02*
X9717253Y-11160484D01*
X9793444Y-10960484D02*
X9926777Y-10960484D01*
X9926777Y-10960484D02*
X9841063Y-11160484D01*
X10088682Y-10960484D02*
X10050586Y-10960484D01*
X10050586Y-10960484D02*
X10031539Y-10970008D01*
X10031539Y-10970008D02*
X10022015Y-10979531D01*
X10022015Y-10979531D02*
X10002967Y-11008103D01*
X10002967Y-11008103D02*
X9993444Y-11046198D01*
X9993444Y-11046198D02*
X9993444Y-11122389D01*
X9993444Y-11122389D02*
X10002967Y-11141436D01*
X10002967Y-11141436D02*
X10012491Y-11150960D01*
X10012491Y-11150960D02*
X10031539Y-11160484D01*
X10031539Y-11160484D02*
X10069634Y-11160484D01*
X10069634Y-11160484D02*
X10088682Y-11150960D01*
X10088682Y-11150960D02*
X10098205Y-11141436D01*
X10098205Y-11141436D02*
X10107729Y-11122389D01*
X10107729Y-11122389D02*
X10107729Y-11074770D01*
X10107729Y-11074770D02*
X10098205Y-11055722D01*
X10098205Y-11055722D02*
X10088682Y-11046198D01*
X10088682Y-11046198D02*
X10069634Y-11036674D01*
X10069634Y-11036674D02*
X10031539Y-11036674D01*
X10031539Y-11036674D02*
X10012491Y-11046198D01*
X10012491Y-11046198D02*
X10002967Y-11055722D01*
X10002967Y-11055722D02*
X9993444Y-11074770D01*
X10231539Y-10960484D02*
X10250586Y-10960484D01*
X10250586Y-10960484D02*
X10269634Y-10970008D01*
X10269634Y-10970008D02*
X10279158Y-10979531D01*
X10279158Y-10979531D02*
X10288682Y-10998579D01*
X10288682Y-10998579D02*
X10298205Y-11036674D01*
X10298205Y-11036674D02*
X10298205Y-11084293D01*
X10298205Y-11084293D02*
X10288682Y-11122389D01*
X10288682Y-11122389D02*
X10279158Y-11141436D01*
X10279158Y-11141436D02*
X10269634Y-11150960D01*
X10269634Y-11150960D02*
X10250586Y-11160484D01*
X10250586Y-11160484D02*
X10231539Y-11160484D01*
X10231539Y-11160484D02*
X10212491Y-11150960D01*
X10212491Y-11150960D02*
X10202967Y-11141436D01*
X10202967Y-11141436D02*
X10193444Y-11122389D01*
X10193444Y-11122389D02*
X10183920Y-11084293D01*
X10183920Y-11084293D02*
X10183920Y-11036674D01*
X10183920Y-11036674D02*
X10193444Y-10998579D01*
X10193444Y-10998579D02*
X10202967Y-10979531D01*
X10202967Y-10979531D02*
X10212491Y-10970008D01*
X10212491Y-10970008D02*
X10231539Y-10960484D01*
X10383920Y-11160484D02*
X10383920Y-11027150D01*
X10383920Y-11046198D02*
X10393444Y-11036674D01*
X10393444Y-11036674D02*
X10412491Y-11027150D01*
X10412491Y-11027150D02*
X10441063Y-11027150D01*
X10441063Y-11027150D02*
X10460110Y-11036674D01*
X10460110Y-11036674D02*
X10469634Y-11055722D01*
X10469634Y-11055722D02*
X10469634Y-11160484D01*
X10469634Y-11055722D02*
X10479158Y-11036674D01*
X10479158Y-11036674D02*
X10498205Y-11027150D01*
X10498205Y-11027150D02*
X10526777Y-11027150D01*
X10526777Y-11027150D02*
X10545825Y-11036674D01*
X10545825Y-11036674D02*
X10555348Y-11055722D01*
X10555348Y-11055722D02*
X10555348Y-11160484D01*
X10650586Y-11160484D02*
X10650586Y-11027150D01*
X10650586Y-11046198D02*
X10660110Y-11036674D01*
X10660110Y-11036674D02*
X10679158Y-11027150D01*
X10679158Y-11027150D02*
X10707729Y-11027150D01*
X10707729Y-11027150D02*
X10726777Y-11036674D01*
X10726777Y-11036674D02*
X10736301Y-11055722D01*
X10736301Y-11055722D02*
X10736301Y-11160484D01*
X10736301Y-11055722D02*
X10745825Y-11036674D01*
X10745825Y-11036674D02*
X10764872Y-11027150D01*
X10764872Y-11027150D02*
X10793444Y-11027150D01*
X10793444Y-11027150D02*
X10812491Y-11036674D01*
X10812491Y-11036674D02*
X10822015Y-11055722D01*
X10822015Y-11055722D02*
X10822015Y-11160484D01*
X11212491Y-10950960D02*
X11041063Y-11208103D01*
X11469634Y-10960484D02*
X11488682Y-10960484D01*
X11488682Y-10960484D02*
X11507729Y-10970008D01*
X11507729Y-10970008D02*
X11517253Y-10979531D01*
X11517253Y-10979531D02*
X11526777Y-10998579D01*
X11526777Y-10998579D02*
X11536301Y-11036674D01*
X11536301Y-11036674D02*
X11536301Y-11084293D01*
X11536301Y-11084293D02*
X11526777Y-11122389D01*
X11526777Y-11122389D02*
X11517253Y-11141436D01*
X11517253Y-11141436D02*
X11507729Y-11150960D01*
X11507729Y-11150960D02*
X11488682Y-11160484D01*
X11488682Y-11160484D02*
X11469634Y-11160484D01*
X11469634Y-11160484D02*
X11450586Y-11150960D01*
X11450586Y-11150960D02*
X11441063Y-11141436D01*
X11441063Y-11141436D02*
X11431539Y-11122389D01*
X11431539Y-11122389D02*
X11422015Y-11084293D01*
X11422015Y-11084293D02*
X11422015Y-11036674D01*
X11422015Y-11036674D02*
X11431539Y-10998579D01*
X11431539Y-10998579D02*
X11441063Y-10979531D01*
X11441063Y-10979531D02*
X11450586Y-10970008D01*
X11450586Y-10970008D02*
X11469634Y-10960484D01*
X11622015Y-11141436D02*
X11631539Y-11150960D01*
X11631539Y-11150960D02*
X11622015Y-11160484D01*
X11622015Y-11160484D02*
X11612491Y-11150960D01*
X11612491Y-11150960D02*
X11622015Y-11141436D01*
X11622015Y-11141436D02*
X11622015Y-11160484D01*
X11755348Y-10960484D02*
X11774396Y-10960484D01*
X11774396Y-10960484D02*
X11793444Y-10970008D01*
X11793444Y-10970008D02*
X11802967Y-10979531D01*
X11802967Y-10979531D02*
X11812491Y-10998579D01*
X11812491Y-10998579D02*
X11822015Y-11036674D01*
X11822015Y-11036674D02*
X11822015Y-11084293D01*
X11822015Y-11084293D02*
X11812491Y-11122389D01*
X11812491Y-11122389D02*
X11802967Y-11141436D01*
X11802967Y-11141436D02*
X11793444Y-11150960D01*
X11793444Y-11150960D02*
X11774396Y-11160484D01*
X11774396Y-11160484D02*
X11755348Y-11160484D01*
X11755348Y-11160484D02*
X11736301Y-11150960D01*
X11736301Y-11150960D02*
X11726777Y-11141436D01*
X11726777Y-11141436D02*
X11717253Y-11122389D01*
X11717253Y-11122389D02*
X11707729Y-11084293D01*
X11707729Y-11084293D02*
X11707729Y-11036674D01*
X11707729Y-11036674D02*
X11717253Y-10998579D01*
X11717253Y-10998579D02*
X11726777Y-10979531D01*
X11726777Y-10979531D02*
X11736301Y-10970008D01*
X11736301Y-10970008D02*
X11755348Y-10960484D01*
X11898206Y-10979531D02*
X11907729Y-10970008D01*
X11907729Y-10970008D02*
X11926777Y-10960484D01*
X11926777Y-10960484D02*
X11974396Y-10960484D01*
X11974396Y-10960484D02*
X11993444Y-10970008D01*
X11993444Y-10970008D02*
X12002967Y-10979531D01*
X12002967Y-10979531D02*
X12012491Y-10998579D01*
X12012491Y-10998579D02*
X12012491Y-11017627D01*
X12012491Y-11017627D02*
X12002967Y-11046198D01*
X12002967Y-11046198D02*
X11888682Y-11160484D01*
X11888682Y-11160484D02*
X12012491Y-11160484D01*
X12107729Y-11160484D02*
X12145825Y-11160484D01*
X12145825Y-11160484D02*
X12164872Y-11150960D01*
X12164872Y-11150960D02*
X12174396Y-11141436D01*
X12174396Y-11141436D02*
X12193444Y-11112865D01*
X12193444Y-11112865D02*
X12202967Y-11074770D01*
X12202967Y-11074770D02*
X12202967Y-10998579D01*
X12202967Y-10998579D02*
X12193444Y-10979531D01*
X12193444Y-10979531D02*
X12183920Y-10970008D01*
X12183920Y-10970008D02*
X12164872Y-10960484D01*
X12164872Y-10960484D02*
X12126777Y-10960484D01*
X12126777Y-10960484D02*
X12107729Y-10970008D01*
X12107729Y-10970008D02*
X12098206Y-10979531D01*
X12098206Y-10979531D02*
X12088682Y-10998579D01*
X12088682Y-10998579D02*
X12088682Y-11046198D01*
X12088682Y-11046198D02*
X12098206Y-11065246D01*
X12098206Y-11065246D02*
X12107729Y-11074770D01*
X12107729Y-11074770D02*
X12126777Y-11084293D01*
X12126777Y-11084293D02*
X12164872Y-11084293D01*
X12164872Y-11084293D02*
X12183920Y-11074770D01*
X12183920Y-11074770D02*
X12193444Y-11065246D01*
X12193444Y-11065246D02*
X12202967Y-11046198D01*
X12298206Y-11160484D02*
X12336301Y-11160484D01*
X12336301Y-11160484D02*
X12355348Y-11150960D01*
X12355348Y-11150960D02*
X12364872Y-11141436D01*
X12364872Y-11141436D02*
X12383920Y-11112865D01*
X12383920Y-11112865D02*
X12393444Y-11074770D01*
X12393444Y-11074770D02*
X12393444Y-10998579D01*
X12393444Y-10998579D02*
X12383920Y-10979531D01*
X12383920Y-10979531D02*
X12374396Y-10970008D01*
X12374396Y-10970008D02*
X12355348Y-10960484D01*
X12355348Y-10960484D02*
X12317253Y-10960484D01*
X12317253Y-10960484D02*
X12298206Y-10970008D01*
X12298206Y-10970008D02*
X12288682Y-10979531D01*
X12288682Y-10979531D02*
X12279158Y-10998579D01*
X12279158Y-10998579D02*
X12279158Y-11046198D01*
X12279158Y-11046198D02*
X12288682Y-11065246D01*
X12288682Y-11065246D02*
X12298206Y-11074770D01*
X12298206Y-11074770D02*
X12317253Y-11084293D01*
X12317253Y-11084293D02*
X12355348Y-11084293D01*
X12355348Y-11084293D02*
X12374396Y-11074770D01*
X12374396Y-11074770D02*
X12383920Y-11065246D01*
X12383920Y-11065246D02*
X12393444Y-11046198D01*
X12469634Y-10960484D02*
X12469634Y-10998579D01*
X12545825Y-10960484D02*
X12545825Y-10998579D01*
X12841063Y-11236674D02*
X12831539Y-11227150D01*
X12831539Y-11227150D02*
X12812491Y-11198579D01*
X12812491Y-11198579D02*
X12802968Y-11179531D01*
X12802968Y-11179531D02*
X12793444Y-11150960D01*
X12793444Y-11150960D02*
X12783920Y-11103341D01*
X12783920Y-11103341D02*
X12783920Y-11065246D01*
X12783920Y-11065246D02*
X12793444Y-11017627D01*
X12793444Y-11017627D02*
X12802968Y-10989055D01*
X12802968Y-10989055D02*
X12812491Y-10970008D01*
X12812491Y-10970008D02*
X12831539Y-10941436D01*
X12831539Y-10941436D02*
X12841063Y-10931912D01*
X12898206Y-10960484D02*
X13022015Y-10960484D01*
X13022015Y-10960484D02*
X12955348Y-11036674D01*
X12955348Y-11036674D02*
X12983920Y-11036674D01*
X12983920Y-11036674D02*
X13002968Y-11046198D01*
X13002968Y-11046198D02*
X13012491Y-11055722D01*
X13012491Y-11055722D02*
X13022015Y-11074770D01*
X13022015Y-11074770D02*
X13022015Y-11122389D01*
X13022015Y-11122389D02*
X13012491Y-11141436D01*
X13012491Y-11141436D02*
X13002968Y-11150960D01*
X13002968Y-11150960D02*
X12983920Y-11160484D01*
X12983920Y-11160484D02*
X12926777Y-11160484D01*
X12926777Y-11160484D02*
X12907729Y-11150960D01*
X12907729Y-11150960D02*
X12898206Y-11141436D01*
X13098206Y-10979531D02*
X13107729Y-10970008D01*
X13107729Y-10970008D02*
X13126777Y-10960484D01*
X13126777Y-10960484D02*
X13174396Y-10960484D01*
X13174396Y-10960484D02*
X13193444Y-10970008D01*
X13193444Y-10970008D02*
X13202968Y-10979531D01*
X13202968Y-10979531D02*
X13212491Y-10998579D01*
X13212491Y-10998579D02*
X13212491Y-11017627D01*
X13212491Y-11017627D02*
X13202968Y-11046198D01*
X13202968Y-11046198D02*
X13088682Y-11160484D01*
X13088682Y-11160484D02*
X13212491Y-11160484D01*
X13450587Y-11160484D02*
X13450587Y-10960484D01*
X13536301Y-11160484D02*
X13536301Y-11055722D01*
X13536301Y-11055722D02*
X13526777Y-11036674D01*
X13526777Y-11036674D02*
X13507730Y-11027150D01*
X13507730Y-11027150D02*
X13479158Y-11027150D01*
X13479158Y-11027150D02*
X13460110Y-11036674D01*
X13460110Y-11036674D02*
X13450587Y-11046198D01*
X13660110Y-11160484D02*
X13641063Y-11150960D01*
X13641063Y-11150960D02*
X13631539Y-11141436D01*
X13631539Y-11141436D02*
X13622015Y-11122389D01*
X13622015Y-11122389D02*
X13622015Y-11065246D01*
X13622015Y-11065246D02*
X13631539Y-11046198D01*
X13631539Y-11046198D02*
X13641063Y-11036674D01*
X13641063Y-11036674D02*
X13660110Y-11027150D01*
X13660110Y-11027150D02*
X13688682Y-11027150D01*
X13688682Y-11027150D02*
X13707730Y-11036674D01*
X13707730Y-11036674D02*
X13717253Y-11046198D01*
X13717253Y-11046198D02*
X13726777Y-11065246D01*
X13726777Y-11065246D02*
X13726777Y-11122389D01*
X13726777Y-11122389D02*
X13717253Y-11141436D01*
X13717253Y-11141436D02*
X13707730Y-11150960D01*
X13707730Y-11150960D02*
X13688682Y-11160484D01*
X13688682Y-11160484D02*
X13660110Y-11160484D01*
X13841063Y-11160484D02*
X13822015Y-11150960D01*
X13822015Y-11150960D02*
X13812491Y-11131912D01*
X13812491Y-11131912D02*
X13812491Y-10960484D01*
X13993444Y-11150960D02*
X13974396Y-11160484D01*
X13974396Y-11160484D02*
X13936301Y-11160484D01*
X13936301Y-11160484D02*
X13917253Y-11150960D01*
X13917253Y-11150960D02*
X13907730Y-11131912D01*
X13907730Y-11131912D02*
X13907730Y-11055722D01*
X13907730Y-11055722D02*
X13917253Y-11036674D01*
X13917253Y-11036674D02*
X13936301Y-11027150D01*
X13936301Y-11027150D02*
X13974396Y-11027150D01*
X13974396Y-11027150D02*
X13993444Y-11036674D01*
X13993444Y-11036674D02*
X14002968Y-11055722D01*
X14002968Y-11055722D02*
X14002968Y-11074770D01*
X14002968Y-11074770D02*
X13907730Y-11093817D01*
X14079158Y-11150960D02*
X14098206Y-11160484D01*
X14098206Y-11160484D02*
X14136301Y-11160484D01*
X14136301Y-11160484D02*
X14155349Y-11150960D01*
X14155349Y-11150960D02*
X14164872Y-11131912D01*
X14164872Y-11131912D02*
X14164872Y-11122389D01*
X14164872Y-11122389D02*
X14155349Y-11103341D01*
X14155349Y-11103341D02*
X14136301Y-11093817D01*
X14136301Y-11093817D02*
X14107730Y-11093817D01*
X14107730Y-11093817D02*
X14088682Y-11084293D01*
X14088682Y-11084293D02*
X14079158Y-11065246D01*
X14079158Y-11065246D02*
X14079158Y-11055722D01*
X14079158Y-11055722D02*
X14088682Y-11036674D01*
X14088682Y-11036674D02*
X14107730Y-11027150D01*
X14107730Y-11027150D02*
X14136301Y-11027150D01*
X14136301Y-11027150D02*
X14155349Y-11036674D01*
X14231539Y-11236674D02*
X14241063Y-11227150D01*
X14241063Y-11227150D02*
X14260111Y-11198579D01*
X14260111Y-11198579D02*
X14269634Y-11179531D01*
X14269634Y-11179531D02*
X14279158Y-11150960D01*
X14279158Y-11150960D02*
X14288682Y-11103341D01*
X14288682Y-11103341D02*
X14288682Y-11065246D01*
X14288682Y-11065246D02*
X14279158Y-11017627D01*
X14279158Y-11017627D02*
X14269634Y-10989055D01*
X14269634Y-10989055D02*
X14260111Y-10970008D01*
X14260111Y-10970008D02*
X14241063Y-10941436D01*
X14241063Y-10941436D02*
X14231539Y-10931912D01*
D10*
X9226000Y-11293000D02*
X9226000Y-11373000D01*
X9186000Y-11333000D02*
X9266000Y-11333000D01*
D11*
X9564872Y-11224484D02*
X9583920Y-11224484D01*
X9583920Y-11224484D02*
X9602967Y-11234008D01*
X9602967Y-11234008D02*
X9612491Y-11243531D01*
X9612491Y-11243531D02*
X9622015Y-11262579D01*
X9622015Y-11262579D02*
X9631539Y-11300674D01*
X9631539Y-11300674D02*
X9631539Y-11348293D01*
X9631539Y-11348293D02*
X9622015Y-11386388D01*
X9622015Y-11386388D02*
X9612491Y-11405436D01*
X9612491Y-11405436D02*
X9602967Y-11414960D01*
X9602967Y-11414960D02*
X9583920Y-11424484D01*
X9583920Y-11424484D02*
X9564872Y-11424484D01*
X9564872Y-11424484D02*
X9545824Y-11414960D01*
X9545824Y-11414960D02*
X9536301Y-11405436D01*
X9536301Y-11405436D02*
X9526777Y-11386388D01*
X9526777Y-11386388D02*
X9517253Y-11348293D01*
X9517253Y-11348293D02*
X9517253Y-11300674D01*
X9517253Y-11300674D02*
X9526777Y-11262579D01*
X9526777Y-11262579D02*
X9536301Y-11243531D01*
X9536301Y-11243531D02*
X9545824Y-11234008D01*
X9545824Y-11234008D02*
X9564872Y-11224484D01*
X9717253Y-11405436D02*
X9726777Y-11414960D01*
X9726777Y-11414960D02*
X9717253Y-11424484D01*
X9717253Y-11424484D02*
X9707729Y-11414960D01*
X9707729Y-11414960D02*
X9717253Y-11405436D01*
X9717253Y-11405436D02*
X9717253Y-11424484D01*
X9841063Y-11310198D02*
X9822015Y-11300674D01*
X9822015Y-11300674D02*
X9812491Y-11291150D01*
X9812491Y-11291150D02*
X9802967Y-11272103D01*
X9802967Y-11272103D02*
X9802967Y-11262579D01*
X9802967Y-11262579D02*
X9812491Y-11243531D01*
X9812491Y-11243531D02*
X9822015Y-11234008D01*
X9822015Y-11234008D02*
X9841063Y-11224484D01*
X9841063Y-11224484D02*
X9879158Y-11224484D01*
X9879158Y-11224484D02*
X9898205Y-11234008D01*
X9898205Y-11234008D02*
X9907729Y-11243531D01*
X9907729Y-11243531D02*
X9917253Y-11262579D01*
X9917253Y-11262579D02*
X9917253Y-11272103D01*
X9917253Y-11272103D02*
X9907729Y-11291150D01*
X9907729Y-11291150D02*
X9898205Y-11300674D01*
X9898205Y-11300674D02*
X9879158Y-11310198D01*
X9879158Y-11310198D02*
X9841063Y-11310198D01*
X9841063Y-11310198D02*
X9822015Y-11319722D01*
X9822015Y-11319722D02*
X9812491Y-11329246D01*
X9812491Y-11329246D02*
X9802967Y-11348293D01*
X9802967Y-11348293D02*
X9802967Y-11386388D01*
X9802967Y-11386388D02*
X9812491Y-11405436D01*
X9812491Y-11405436D02*
X9822015Y-11414960D01*
X9822015Y-11414960D02*
X9841063Y-11424484D01*
X9841063Y-11424484D02*
X9879158Y-11424484D01*
X9879158Y-11424484D02*
X9898205Y-11414960D01*
X9898205Y-11414960D02*
X9907729Y-11405436D01*
X9907729Y-11405436D02*
X9917253Y-11386388D01*
X9917253Y-11386388D02*
X9917253Y-11348293D01*
X9917253Y-11348293D02*
X9907729Y-11329246D01*
X9907729Y-11329246D02*
X9898205Y-11319722D01*
X9898205Y-11319722D02*
X9879158Y-11310198D01*
X10041063Y-11224484D02*
X10060110Y-11224484D01*
X10060110Y-11224484D02*
X10079158Y-11234008D01*
X10079158Y-11234008D02*
X10088682Y-11243531D01*
X10088682Y-11243531D02*
X10098205Y-11262579D01*
X10098205Y-11262579D02*
X10107729Y-11300674D01*
X10107729Y-11300674D02*
X10107729Y-11348293D01*
X10107729Y-11348293D02*
X10098205Y-11386388D01*
X10098205Y-11386388D02*
X10088682Y-11405436D01*
X10088682Y-11405436D02*
X10079158Y-11414960D01*
X10079158Y-11414960D02*
X10060110Y-11424484D01*
X10060110Y-11424484D02*
X10041063Y-11424484D01*
X10041063Y-11424484D02*
X10022015Y-11414960D01*
X10022015Y-11414960D02*
X10012491Y-11405436D01*
X10012491Y-11405436D02*
X10002967Y-11386388D01*
X10002967Y-11386388D02*
X9993444Y-11348293D01*
X9993444Y-11348293D02*
X9993444Y-11300674D01*
X9993444Y-11300674D02*
X10002967Y-11262579D01*
X10002967Y-11262579D02*
X10012491Y-11243531D01*
X10012491Y-11243531D02*
X10022015Y-11234008D01*
X10022015Y-11234008D02*
X10041063Y-11224484D01*
X10231539Y-11224484D02*
X10250586Y-11224484D01*
X10250586Y-11224484D02*
X10269634Y-11234008D01*
X10269634Y-11234008D02*
X10279158Y-11243531D01*
X10279158Y-11243531D02*
X10288682Y-11262579D01*
X10288682Y-11262579D02*
X10298205Y-11300674D01*
X10298205Y-11300674D02*
X10298205Y-11348293D01*
X10298205Y-11348293D02*
X10288682Y-11386388D01*
X10288682Y-11386388D02*
X10279158Y-11405436D01*
X10279158Y-11405436D02*
X10269634Y-11414960D01*
X10269634Y-11414960D02*
X10250586Y-11424484D01*
X10250586Y-11424484D02*
X10231539Y-11424484D01*
X10231539Y-11424484D02*
X10212491Y-11414960D01*
X10212491Y-11414960D02*
X10202967Y-11405436D01*
X10202967Y-11405436D02*
X10193444Y-11386388D01*
X10193444Y-11386388D02*
X10183920Y-11348293D01*
X10183920Y-11348293D02*
X10183920Y-11300674D01*
X10183920Y-11300674D02*
X10193444Y-11262579D01*
X10193444Y-11262579D02*
X10202967Y-11243531D01*
X10202967Y-11243531D02*
X10212491Y-11234008D01*
X10212491Y-11234008D02*
X10231539Y-11224484D01*
X10383920Y-11424484D02*
X10383920Y-11291150D01*
X10383920Y-11310198D02*
X10393444Y-11300674D01*
X10393444Y-11300674D02*
X10412491Y-11291150D01*
X10412491Y-11291150D02*
X10441063Y-11291150D01*
X10441063Y-11291150D02*
X10460110Y-11300674D01*
X10460110Y-11300674D02*
X10469634Y-11319722D01*
X10469634Y-11319722D02*
X10469634Y-11424484D01*
X10469634Y-11319722D02*
X10479158Y-11300674D01*
X10479158Y-11300674D02*
X10498205Y-11291150D01*
X10498205Y-11291150D02*
X10526777Y-11291150D01*
X10526777Y-11291150D02*
X10545825Y-11300674D01*
X10545825Y-11300674D02*
X10555348Y-11319722D01*
X10555348Y-11319722D02*
X10555348Y-11424484D01*
X10650586Y-11424484D02*
X10650586Y-11291150D01*
X10650586Y-11310198D02*
X10660110Y-11300674D01*
X10660110Y-11300674D02*
X10679158Y-11291150D01*
X10679158Y-11291150D02*
X10707729Y-11291150D01*
X10707729Y-11291150D02*
X10726777Y-11300674D01*
X10726777Y-11300674D02*
X10736301Y-11319722D01*
X10736301Y-11319722D02*
X10736301Y-11424484D01*
X10736301Y-11319722D02*
X10745825Y-11300674D01*
X10745825Y-11300674D02*
X10764872Y-11291150D01*
X10764872Y-11291150D02*
X10793444Y-11291150D01*
X10793444Y-11291150D02*
X10812491Y-11300674D01*
X10812491Y-11300674D02*
X10822015Y-11319722D01*
X10822015Y-11319722D02*
X10822015Y-11424484D01*
X11212491Y-11214960D02*
X11041063Y-11472103D01*
X11469634Y-11224484D02*
X11488682Y-11224484D01*
X11488682Y-11224484D02*
X11507729Y-11234008D01*
X11507729Y-11234008D02*
X11517253Y-11243531D01*
X11517253Y-11243531D02*
X11526777Y-11262579D01*
X11526777Y-11262579D02*
X11536301Y-11300674D01*
X11536301Y-11300674D02*
X11536301Y-11348293D01*
X11536301Y-11348293D02*
X11526777Y-11386388D01*
X11526777Y-11386388D02*
X11517253Y-11405436D01*
X11517253Y-11405436D02*
X11507729Y-11414960D01*
X11507729Y-11414960D02*
X11488682Y-11424484D01*
X11488682Y-11424484D02*
X11469634Y-11424484D01*
X11469634Y-11424484D02*
X11450586Y-11414960D01*
X11450586Y-11414960D02*
X11441063Y-11405436D01*
X11441063Y-11405436D02*
X11431539Y-11386388D01*
X11431539Y-11386388D02*
X11422015Y-11348293D01*
X11422015Y-11348293D02*
X11422015Y-11300674D01*
X11422015Y-11300674D02*
X11431539Y-11262579D01*
X11431539Y-11262579D02*
X11441063Y-11243531D01*
X11441063Y-11243531D02*
X11450586Y-11234008D01*
X11450586Y-11234008D02*
X11469634Y-11224484D01*
X11622015Y-11405436D02*
X11631539Y-11414960D01*
X11631539Y-11414960D02*
X11622015Y-11424484D01*
X11622015Y-11424484D02*
X11612491Y-11414960D01*
X11612491Y-11414960D02*
X11622015Y-11405436D01*
X11622015Y-11405436D02*
X11622015Y-11424484D01*
X11755348Y-11224484D02*
X11774396Y-11224484D01*
X11774396Y-11224484D02*
X11793444Y-11234008D01*
X11793444Y-11234008D02*
X11802967Y-11243531D01*
X11802967Y-11243531D02*
X11812491Y-11262579D01*
X11812491Y-11262579D02*
X11822015Y-11300674D01*
X11822015Y-11300674D02*
X11822015Y-11348293D01*
X11822015Y-11348293D02*
X11812491Y-11386388D01*
X11812491Y-11386388D02*
X11802967Y-11405436D01*
X11802967Y-11405436D02*
X11793444Y-11414960D01*
X11793444Y-11414960D02*
X11774396Y-11424484D01*
X11774396Y-11424484D02*
X11755348Y-11424484D01*
X11755348Y-11424484D02*
X11736301Y-11414960D01*
X11736301Y-11414960D02*
X11726777Y-11405436D01*
X11726777Y-11405436D02*
X11717253Y-11386388D01*
X11717253Y-11386388D02*
X11707729Y-11348293D01*
X11707729Y-11348293D02*
X11707729Y-11300674D01*
X11707729Y-11300674D02*
X11717253Y-11262579D01*
X11717253Y-11262579D02*
X11726777Y-11243531D01*
X11726777Y-11243531D02*
X11736301Y-11234008D01*
X11736301Y-11234008D02*
X11755348Y-11224484D01*
X11888682Y-11224484D02*
X12012491Y-11224484D01*
X12012491Y-11224484D02*
X11945825Y-11300674D01*
X11945825Y-11300674D02*
X11974396Y-11300674D01*
X11974396Y-11300674D02*
X11993444Y-11310198D01*
X11993444Y-11310198D02*
X12002967Y-11319722D01*
X12002967Y-11319722D02*
X12012491Y-11338769D01*
X12012491Y-11338769D02*
X12012491Y-11386388D01*
X12012491Y-11386388D02*
X12002967Y-11405436D01*
X12002967Y-11405436D02*
X11993444Y-11414960D01*
X11993444Y-11414960D02*
X11974396Y-11424484D01*
X11974396Y-11424484D02*
X11917253Y-11424484D01*
X11917253Y-11424484D02*
X11898206Y-11414960D01*
X11898206Y-11414960D02*
X11888682Y-11405436D01*
X12202967Y-11424484D02*
X12088682Y-11424484D01*
X12145825Y-11424484D02*
X12145825Y-11224484D01*
X12145825Y-11224484D02*
X12126777Y-11253055D01*
X12126777Y-11253055D02*
X12107729Y-11272103D01*
X12107729Y-11272103D02*
X12088682Y-11281627D01*
X12383920Y-11224484D02*
X12288682Y-11224484D01*
X12288682Y-11224484D02*
X12279158Y-11319722D01*
X12279158Y-11319722D02*
X12288682Y-11310198D01*
X12288682Y-11310198D02*
X12307729Y-11300674D01*
X12307729Y-11300674D02*
X12355348Y-11300674D01*
X12355348Y-11300674D02*
X12374396Y-11310198D01*
X12374396Y-11310198D02*
X12383920Y-11319722D01*
X12383920Y-11319722D02*
X12393444Y-11338769D01*
X12393444Y-11338769D02*
X12393444Y-11386388D01*
X12393444Y-11386388D02*
X12383920Y-11405436D01*
X12383920Y-11405436D02*
X12374396Y-11414960D01*
X12374396Y-11414960D02*
X12355348Y-11424484D01*
X12355348Y-11424484D02*
X12307729Y-11424484D01*
X12307729Y-11424484D02*
X12288682Y-11414960D01*
X12288682Y-11414960D02*
X12279158Y-11405436D01*
X12469634Y-11224484D02*
X12469634Y-11262579D01*
X12545825Y-11224484D02*
X12545825Y-11262579D01*
X12841063Y-11500674D02*
X12831539Y-11491150D01*
X12831539Y-11491150D02*
X12812491Y-11462579D01*
X12812491Y-11462579D02*
X12802968Y-11443531D01*
X12802968Y-11443531D02*
X12793444Y-11414960D01*
X12793444Y-11414960D02*
X12783920Y-11367341D01*
X12783920Y-11367341D02*
X12783920Y-11329246D01*
X12783920Y-11329246D02*
X12793444Y-11281627D01*
X12793444Y-11281627D02*
X12802968Y-11253055D01*
X12802968Y-11253055D02*
X12812491Y-11234008D01*
X12812491Y-11234008D02*
X12831539Y-11205436D01*
X12831539Y-11205436D02*
X12841063Y-11195912D01*
X12898206Y-11224484D02*
X13022015Y-11224484D01*
X13022015Y-11224484D02*
X12955348Y-11300674D01*
X12955348Y-11300674D02*
X12983920Y-11300674D01*
X12983920Y-11300674D02*
X13002968Y-11310198D01*
X13002968Y-11310198D02*
X13012491Y-11319722D01*
X13012491Y-11319722D02*
X13022015Y-11338769D01*
X13022015Y-11338769D02*
X13022015Y-11386388D01*
X13022015Y-11386388D02*
X13012491Y-11405436D01*
X13012491Y-11405436D02*
X13002968Y-11414960D01*
X13002968Y-11414960D02*
X12983920Y-11424484D01*
X12983920Y-11424484D02*
X12926777Y-11424484D01*
X12926777Y-11424484D02*
X12907729Y-11414960D01*
X12907729Y-11414960D02*
X12898206Y-11405436D01*
X13136301Y-11310198D02*
X13117253Y-11300674D01*
X13117253Y-11300674D02*
X13107729Y-11291150D01*
X13107729Y-11291150D02*
X13098206Y-11272103D01*
X13098206Y-11272103D02*
X13098206Y-11262579D01*
X13098206Y-11262579D02*
X13107729Y-11243531D01*
X13107729Y-11243531D02*
X13117253Y-11234008D01*
X13117253Y-11234008D02*
X13136301Y-11224484D01*
X13136301Y-11224484D02*
X13174396Y-11224484D01*
X13174396Y-11224484D02*
X13193444Y-11234008D01*
X13193444Y-11234008D02*
X13202968Y-11243531D01*
X13202968Y-11243531D02*
X13212491Y-11262579D01*
X13212491Y-11262579D02*
X13212491Y-11272103D01*
X13212491Y-11272103D02*
X13202968Y-11291150D01*
X13202968Y-11291150D02*
X13193444Y-11300674D01*
X13193444Y-11300674D02*
X13174396Y-11310198D01*
X13174396Y-11310198D02*
X13136301Y-11310198D01*
X13136301Y-11310198D02*
X13117253Y-11319722D01*
X13117253Y-11319722D02*
X13107729Y-11329246D01*
X13107729Y-11329246D02*
X13098206Y-11348293D01*
X13098206Y-11348293D02*
X13098206Y-11386388D01*
X13098206Y-11386388D02*
X13107729Y-11405436D01*
X13107729Y-11405436D02*
X13117253Y-11414960D01*
X13117253Y-11414960D02*
X13136301Y-11424484D01*
X13136301Y-11424484D02*
X13174396Y-11424484D01*
X13174396Y-11424484D02*
X13193444Y-11414960D01*
X13193444Y-11414960D02*
X13202968Y-11405436D01*
X13202968Y-11405436D02*
X13212491Y-11386388D01*
X13212491Y-11386388D02*
X13212491Y-11348293D01*
X13212491Y-11348293D02*
X13202968Y-11329246D01*
X13202968Y-11329246D02*
X13193444Y-11319722D01*
X13193444Y-11319722D02*
X13174396Y-11310198D01*
X13450587Y-11424484D02*
X13450587Y-11224484D01*
X13536301Y-11424484D02*
X13536301Y-11319722D01*
X13536301Y-11319722D02*
X13526777Y-11300674D01*
X13526777Y-11300674D02*
X13507730Y-11291150D01*
X13507730Y-11291150D02*
X13479158Y-11291150D01*
X13479158Y-11291150D02*
X13460110Y-11300674D01*
X13460110Y-11300674D02*
X13450587Y-11310198D01*
X13660110Y-11424484D02*
X13641063Y-11414960D01*
X13641063Y-11414960D02*
X13631539Y-11405436D01*
X13631539Y-11405436D02*
X13622015Y-11386388D01*
X13622015Y-11386388D02*
X13622015Y-11329246D01*
X13622015Y-11329246D02*
X13631539Y-11310198D01*
X13631539Y-11310198D02*
X13641063Y-11300674D01*
X13641063Y-11300674D02*
X13660110Y-11291150D01*
X13660110Y-11291150D02*
X13688682Y-11291150D01*
X13688682Y-11291150D02*
X13707730Y-11300674D01*
X13707730Y-11300674D02*
X13717253Y-11310198D01*
X13717253Y-11310198D02*
X13726777Y-11329246D01*
X13726777Y-11329246D02*
X13726777Y-11386388D01*
X13726777Y-11386388D02*
X13717253Y-11405436D01*
X13717253Y-11405436D02*
X13707730Y-11414960D01*
X13707730Y-11414960D02*
X13688682Y-11424484D01*
X13688682Y-11424484D02*
X13660110Y-11424484D01*
X13841063Y-11424484D02*
X13822015Y-11414960D01*
X13822015Y-11414960D02*
X13812491Y-11395912D01*
X13812491Y-11395912D02*
X13812491Y-11224484D01*
X13993444Y-11414960D02*
X13974396Y-11424484D01*
X13974396Y-11424484D02*
X13936301Y-11424484D01*
X13936301Y-11424484D02*
X13917253Y-11414960D01*
X13917253Y-11414960D02*
X13907730Y-11395912D01*
X13907730Y-11395912D02*
X13907730Y-11319722D01*
X13907730Y-11319722D02*
X13917253Y-11300674D01*
X13917253Y-11300674D02*
X13936301Y-11291150D01*
X13936301Y-11291150D02*
X13974396Y-11291150D01*
X13974396Y-11291150D02*
X13993444Y-11300674D01*
X13993444Y-11300674D02*
X14002968Y-11319722D01*
X14002968Y-11319722D02*
X14002968Y-11338769D01*
X14002968Y-11338769D02*
X13907730Y-11357817D01*
X14079158Y-11414960D02*
X14098206Y-11424484D01*
X14098206Y-11424484D02*
X14136301Y-11424484D01*
X14136301Y-11424484D02*
X14155349Y-11414960D01*
X14155349Y-11414960D02*
X14164872Y-11395912D01*
X14164872Y-11395912D02*
X14164872Y-11386388D01*
X14164872Y-11386388D02*
X14155349Y-11367341D01*
X14155349Y-11367341D02*
X14136301Y-11357817D01*
X14136301Y-11357817D02*
X14107730Y-11357817D01*
X14107730Y-11357817D02*
X14088682Y-11348293D01*
X14088682Y-11348293D02*
X14079158Y-11329246D01*
X14079158Y-11329246D02*
X14079158Y-11319722D01*
X14079158Y-11319722D02*
X14088682Y-11300674D01*
X14088682Y-11300674D02*
X14107730Y-11291150D01*
X14107730Y-11291150D02*
X14136301Y-11291150D01*
X14136301Y-11291150D02*
X14155349Y-11300674D01*
X14231539Y-11500674D02*
X14241063Y-11491150D01*
X14241063Y-11491150D02*
X14260111Y-11462579D01*
X14260111Y-11462579D02*
X14269634Y-11443531D01*
X14269634Y-11443531D02*
X14279158Y-11414960D01*
X14279158Y-11414960D02*
X14288682Y-11367341D01*
X14288682Y-11367341D02*
X14288682Y-11329246D01*
X14288682Y-11329246D02*
X14279158Y-11281627D01*
X14279158Y-11281627D02*
X14269634Y-11253055D01*
X14269634Y-11253055D02*
X14260111Y-11234008D01*
X14260111Y-11234008D02*
X14241063Y-11205436D01*
X14241063Y-11205436D02*
X14231539Y-11195912D01*
M02*
