%TF.GenerationSoftware,KiCad,Pcbnew,7.0.9*%
%TF.CreationDate,2023-11-22T14:24:46-05:00*%
%TF.ProjectId,Esp Controller,45737020-436f-46e7-9472-6f6c6c65722e,rev?*%
%TF.SameCoordinates,Original*%
%TF.FileFunction,Copper,L2,Bot*%
%TF.FilePolarity,Positive*%
%FSLAX46Y46*%
G04 Gerber Fmt 4.6, Leading zero omitted, Abs format (unit mm)*
G04 Created by KiCad (PCBNEW 7.0.9) date 2023-11-22 14:24:46*
%MOMM*%
%LPD*%
G01*
G04 APERTURE LIST*
%TA.AperFunction,ComponentPad*%
%ADD10R,1.200000X2.000000*%
%TD*%
%TA.AperFunction,ComponentPad*%
%ADD11O,1.200000X2.000000*%
%TD*%
%TA.AperFunction,ComponentPad*%
%ADD12C,1.500000*%
%TD*%
%TA.AperFunction,ComponentPad*%
%ADD13R,1.500000X1.500000*%
%TD*%
%TA.AperFunction,ViaPad*%
%ADD14C,0.800000*%
%TD*%
%TA.AperFunction,Conductor*%
%ADD15C,0.250000*%
%TD*%
G04 APERTURE END LIST*
D10*
%TO.P,U2,1,3V3*%
%TO.N,unconnected-(U2-3V3-Pad1)*%
X141823440Y-53340000D03*
D11*
%TO.P,U2,2,CHIP_PU*%
%TO.N,unconnected-(U2-CHIP_PU-Pad2)*%
X139283440Y-53340000D03*
%TO.P,U2,3,SENSOR_VP/GPIO36/ADC1_CH0*%
%TO.N,unconnected-(U2-SENSOR_VP{slash}GPIO36{slash}ADC1_CH0-Pad3)*%
X136743440Y-53340000D03*
%TO.P,U2,4,SENSOR_VN/GPIO39/ADC1_CH3*%
%TO.N,unconnected-(U2-SENSOR_VN{slash}GPIO39{slash}ADC1_CH3-Pad4)*%
X134203440Y-53340000D03*
%TO.P,U2,5,VDET_1/GPIO34/ADC1_CH6*%
%TO.N,unconnected-(U2-VDET_1{slash}GPIO34{slash}ADC1_CH6-Pad5)*%
X131663440Y-53340000D03*
%TO.P,U2,6,VDET_2/GPIO35/ADC1_CH7*%
%TO.N,unconnected-(U2-VDET_2{slash}GPIO35{slash}ADC1_CH7-Pad6)*%
X129123440Y-53340000D03*
%TO.P,U2,7,32K_XP/GPIO32/ADC1_CH4*%
%TO.N,unconnected-(U2-32K_XP{slash}GPIO32{slash}ADC1_CH4-Pad7)*%
X126583440Y-53340000D03*
%TO.P,U2,8,32K_XN/GPIO33/ADC1_CH5*%
%TO.N,unconnected-(U2-32K_XN{slash}GPIO33{slash}ADC1_CH5-Pad8)*%
X124043440Y-53340000D03*
%TO.P,U2,9,DAC_1/ADC2_CH8/GPIO25*%
%TO.N,/Wht1*%
X121503440Y-53340000D03*
%TO.P,U2,10,DAC_2/ADC2_CH9/GPIO26*%
%TO.N,/Grn1*%
X118963440Y-53340000D03*
%TO.P,U2,11,ADC2_CH7/GPIO27*%
%TO.N,/Blu1*%
X116423440Y-53340000D03*
%TO.P,U2,12,MTMS/GPIO14/ADC2_CH6*%
%TO.N,/Yel1*%
X113883440Y-53340000D03*
%TO.P,U2,13,MTDI/GPIO12/ADC2_CH5*%
%TO.N,/Red1*%
X111343440Y-53340000D03*
%TO.P,U2,14,GND*%
%TO.N,GND*%
X108803440Y-53340000D03*
%TO.P,U2,15,MTCK/GPIO13/ADC2_CH4*%
%TO.N,unconnected-(U2-MTCK{slash}GPIO13{slash}ADC2_CH4-Pad15)*%
X106263440Y-53340000D03*
%TO.P,U2,16,SD_DATA2/GPIO9*%
%TO.N,unconnected-(U2-SD_DATA2{slash}GPIO9-Pad16)*%
X103723440Y-53340000D03*
%TO.P,U2,17,SD_DATA3/GPIO10*%
%TO.N,unconnected-(U2-SD_DATA3{slash}GPIO10-Pad17)*%
X101183440Y-53340000D03*
%TO.P,U2,18,CMD*%
%TO.N,unconnected-(U2-CMD-Pad18)*%
X98643440Y-53340000D03*
%TO.P,U2,19,5V*%
%TO.N,unconnected-(U2-5V-Pad19)*%
X96103440Y-53340000D03*
%TO.P,U2,20,SD_CLK/GPIO6*%
%TO.N,/Red3*%
X96106160Y-78736320D03*
%TO.P,U2,21,SD_DATA0/GPIO7*%
%TO.N,/Blu3*%
X98646160Y-78736320D03*
%TO.P,U2,22,SD_DATA1/GPIO8*%
%TO.N,/Wht3*%
X101183440Y-78740000D03*
%TO.P,U2,23,MTDO/GPIO15/ADC2_CH3*%
%TO.N,/Red2*%
X103723440Y-78740000D03*
%TO.P,U2,24,ADC2_CH2/GPIO2*%
%TO.N,unconnected-(U2-ADC2_CH2{slash}GPIO2-Pad24)*%
X106263440Y-78740000D03*
%TO.P,U2,25,GPIO0/BOOT/ADC2_CH1*%
%TO.N,unconnected-(U2-GPIO0{slash}BOOT{slash}ADC2_CH1-Pad25)*%
X108803440Y-78740000D03*
%TO.P,U2,26,ADC2_CH0/GPIO4*%
%TO.N,/Yel2*%
X111343440Y-78740000D03*
%TO.P,U2,27,GPIO16*%
%TO.N,unconnected-(U2-GPIO16-Pad27)*%
X113883440Y-78740000D03*
%TO.P,U2,28,GPIO17*%
%TO.N,unconnected-(U2-GPIO17-Pad28)*%
X116423440Y-78740000D03*
%TO.P,U2,29,GPIO5*%
%TO.N,/Blu2*%
X118963440Y-78740000D03*
%TO.P,U2,30,GPIO18*%
%TO.N,/Grn2*%
X121503440Y-78740000D03*
%TO.P,U2,31,GPIO19*%
%TO.N,/Wht2*%
X124043440Y-78740000D03*
%TO.P,U2,32,GND*%
%TO.N,GND*%
X126583440Y-78740000D03*
%TO.P,U2,33,GPIO21*%
%TO.N,/Red4*%
X129123440Y-78740000D03*
%TO.P,U2,34,U0RXD/GPIO3*%
%TO.N,unconnected-(U2-U0RXD{slash}GPIO3-Pad34)*%
X131663440Y-78740000D03*
%TO.P,U2,35,U0TXD/GPIO1*%
%TO.N,unconnected-(U2-U0TXD{slash}GPIO1-Pad35)*%
X134203440Y-78740000D03*
%TO.P,U2,36,GPIO22*%
%TO.N,/Blu4*%
X136743440Y-78740000D03*
%TO.P,U2,37,GPIO23*%
%TO.N,/Wht4*%
X139283440Y-78740000D03*
%TO.P,U2,38,GND*%
%TO.N,GND*%
X141823440Y-78740000D03*
%TD*%
D12*
%TO.P,J1,8*%
%TO.N,GND*%
X107477500Y-88880000D03*
%TO.P,J1,7*%
X106207500Y-91420000D03*
%TO.P,J1,6*%
%TO.N,/Grn1*%
X104937500Y-88880000D03*
%TO.P,J1,5*%
%TO.N,/Wht1*%
X103667500Y-91420000D03*
%TO.P,J1,4*%
%TO.N,/Blu1*%
X102397500Y-88880000D03*
%TO.P,J1,3*%
%TO.N,unconnected-(J1-Pad3)*%
X101127500Y-91420000D03*
%TO.P,J1,2*%
%TO.N,/Yel1*%
X99857500Y-88880000D03*
D13*
%TO.P,J1,1*%
%TO.N,/Red1*%
X98587500Y-91420000D03*
%TD*%
D12*
%TO.P,J2,8*%
%TO.N,GND*%
X151130000Y-88900000D03*
%TO.P,J2,7*%
X149860000Y-91440000D03*
%TO.P,J2,6*%
%TO.N,/Grn2*%
X148590000Y-88900000D03*
%TO.P,J2,5*%
%TO.N,/Wht2*%
X147320000Y-91440000D03*
%TO.P,J2,4*%
%TO.N,/Blu2*%
X146050000Y-88900000D03*
%TO.P,J2,3*%
%TO.N,unconnected-(J2-Pad3)*%
X144780000Y-91440000D03*
%TO.P,J2,2*%
%TO.N,/Yel2*%
X143510000Y-88900000D03*
D13*
%TO.P,J2,1*%
%TO.N,/Red2*%
X142240000Y-91440000D03*
%TD*%
D12*
%TO.P,J3,8*%
%TO.N,GND*%
X129067500Y-88880000D03*
%TO.P,J3,7*%
X127797500Y-91420000D03*
%TO.P,J3,6*%
%TO.N,/Grn1*%
X126527500Y-88880000D03*
%TO.P,J3,5*%
%TO.N,/Wht3*%
X125257500Y-91420000D03*
%TO.P,J3,4*%
%TO.N,/Blu3*%
X123987500Y-88880000D03*
%TO.P,J3,3*%
%TO.N,unconnected-(J3-Pad3)*%
X122717500Y-91420000D03*
%TO.P,J3,2*%
%TO.N,/Yel1*%
X121447500Y-88880000D03*
D13*
%TO.P,J3,1*%
%TO.N,/Red3*%
X120177500Y-91420000D03*
%TD*%
D12*
%TO.P,J4,8*%
%TO.N,GND*%
X173517500Y-88880000D03*
%TO.P,J4,7*%
X172247500Y-91420000D03*
%TO.P,J4,6*%
%TO.N,/Grn2*%
X170977500Y-88880000D03*
%TO.P,J4,5*%
%TO.N,/Wht4*%
X169707500Y-91420000D03*
%TO.P,J4,4*%
%TO.N,/Blu4*%
X168437500Y-88880000D03*
%TO.P,J4,3*%
%TO.N,unconnected-(J4-Pad3)*%
X167167500Y-91420000D03*
%TO.P,J4,2*%
%TO.N,/Yel2*%
X165897500Y-88880000D03*
D13*
%TO.P,J4,1*%
%TO.N,/Red4*%
X164627500Y-91420000D03*
%TD*%
D14*
%TO.N,/Yel1*%
X114300000Y-91440000D03*
%TO.N,/Grn1*%
X111760000Y-91440000D03*
%TD*%
D15*
%TO.N,GND*%
X126583440Y-86395940D02*
X129067500Y-88880000D01*
X126583440Y-78740000D02*
X126583440Y-86395940D01*
%TO.N,/Grn1*%
X115570000Y-87630000D02*
X111760000Y-91440000D01*
X126527500Y-88880000D02*
X125277500Y-87630000D01*
X125277500Y-87630000D02*
X115570000Y-87630000D01*
%TO.N,/Yel1*%
X116860000Y-88880000D02*
X114300000Y-91440000D01*
X121447500Y-88880000D02*
X116860000Y-88880000D01*
%TO.N,/Grn2*%
X169687500Y-90170000D02*
X170977500Y-88880000D01*
X165527500Y-90170000D02*
X169687500Y-90170000D01*
X149665000Y-87825000D02*
X163182500Y-87825000D01*
X163182500Y-87825000D02*
X165527500Y-90170000D01*
X148590000Y-88900000D02*
X149665000Y-87825000D01*
%TO.N,/Yel2*%
X162107500Y-85090000D02*
X165897500Y-88880000D01*
X147320000Y-85090000D02*
X162107500Y-85090000D01*
X143510000Y-88900000D02*
X147320000Y-85090000D01*
%TO.N,/Wht1*%
X107188440Y-87056560D02*
X107188440Y-67655000D01*
X106012500Y-89325280D02*
X106012500Y-88232500D01*
X106012500Y-88232500D02*
X107188440Y-87056560D01*
X103917780Y-91420000D02*
X106012500Y-89325280D01*
X107188440Y-67655000D02*
X121503440Y-53340000D01*
X103667500Y-91420000D02*
X103917780Y-91420000D01*
%TO.N,/Grn1*%
X104937500Y-88880000D02*
X104937500Y-67365940D01*
X104937500Y-67365940D02*
X118963440Y-53340000D01*
%TO.N,/Blu1*%
X102397500Y-67365940D02*
X116423440Y-53340000D01*
X102397500Y-88880000D02*
X102397500Y-67365940D01*
%TO.N,/Yel1*%
X97031160Y-70192280D02*
X113883440Y-53340000D01*
X97031160Y-86053660D02*
X97031160Y-70192280D01*
X99857500Y-88880000D02*
X97031160Y-86053660D01*
%TO.N,/Red1*%
X95181160Y-69502280D02*
X111343440Y-53340000D01*
X95181160Y-88013660D02*
X95181160Y-69502280D01*
X98587500Y-91420000D02*
X95181160Y-88013660D01*
%TO.N,GND*%
X135890000Y-92515000D02*
X141823440Y-86581560D01*
X141823440Y-86581560D02*
X141823440Y-78740000D01*
X135890000Y-92515000D02*
X128892500Y-92515000D01*
X148785000Y-92515000D02*
X135890000Y-92515000D01*
X107477500Y-90150000D02*
X107477500Y-88880000D01*
X106207500Y-91420000D02*
X107477500Y-90150000D01*
X107282500Y-92495000D02*
X106207500Y-91420000D01*
X126722500Y-92495000D02*
X107282500Y-92495000D01*
X127797500Y-91420000D02*
X126722500Y-92495000D01*
X129067500Y-90150000D02*
X127797500Y-91420000D01*
X129067500Y-88880000D02*
X129067500Y-90150000D01*
X149860000Y-91440000D02*
X148785000Y-92515000D01*
X128892500Y-92515000D02*
X127797500Y-91420000D01*
X149860000Y-90170000D02*
X149860000Y-91440000D01*
X151130000Y-88900000D02*
X149860000Y-90170000D01*
X150915000Y-92495000D02*
X149860000Y-91440000D01*
X171172500Y-92495000D02*
X150915000Y-92495000D01*
X172247500Y-91420000D02*
X171172500Y-92495000D01*
X173517500Y-88880000D02*
X173517500Y-90150000D01*
X173517500Y-90150000D02*
X172247500Y-91420000D01*
%TD*%
M02*
