%TF.GenerationSoftware,KiCad,Pcbnew,7.0.8*%
%TF.CreationDate,2023-11-19T13:08:37-05:00*%
%TF.ProjectId,Light Pcb,4c696768-7420-4506-9362-2e6b69636164,rev?*%
%TF.SameCoordinates,Original*%
%TF.FileFunction,Copper,L1,Top*%
%TF.FilePolarity,Positive*%
%FSLAX46Y46*%
G04 Gerber Fmt 4.6, Leading zero omitted, Abs format (unit mm)*
G04 Created by KiCad (PCBNEW 7.0.8) date 2023-11-19 13:08:37*
%MOMM*%
%LPD*%
G01*
G04 APERTURE LIST*
%TA.AperFunction,ComponentPad*%
%ADD10R,1.350000X1.350000*%
%TD*%
%TA.AperFunction,ComponentPad*%
%ADD11O,1.350000X1.350000*%
%TD*%
%TA.AperFunction,ComponentPad*%
%ADD12C,1.400000*%
%TD*%
%TA.AperFunction,ComponentPad*%
%ADD13O,1.400000X1.400000*%
%TD*%
%TA.AperFunction,ComponentPad*%
%ADD14R,1.800000X1.800000*%
%TD*%
%TA.AperFunction,ComponentPad*%
%ADD15C,1.800000*%
%TD*%
%TA.AperFunction,Conductor*%
%ADD16C,0.250000*%
%TD*%
%TA.AperFunction,Conductor*%
%ADD17C,0.500000*%
%TD*%
G04 APERTURE END LIST*
D10*
%TO.P,J1,1,Pin_1*%
%TO.N,Net-(D1-K)*%
X101600000Y-77660000D03*
D11*
%TO.P,J1,2,Pin_2*%
%TO.N,Net-(J1-Pin_2)*%
X101600000Y-75660000D03*
%TO.P,J1,3,Pin_3*%
%TO.N,Net-(J1-Pin_3)*%
X101600000Y-73660000D03*
%TO.P,J1,4,Pin_4*%
%TO.N,Net-(J1-Pin_4)*%
X101600000Y-71660000D03*
%TO.P,J1,5,Pin_5*%
%TO.N,Net-(J1-Pin_5)*%
X101600000Y-69660000D03*
%TO.P,J1,6,Pin_6*%
%TO.N,Net-(J1-Pin_6)*%
X101600000Y-67660000D03*
%TD*%
D12*
%TO.P,R5,1*%
%TO.N,Net-(D5-A)*%
X110490000Y-58420000D03*
D13*
%TO.P,R5,2*%
%TO.N,Net-(J1-Pin_3)*%
X105410000Y-58420000D03*
%TD*%
D12*
%TO.P,R4,1*%
%TO.N,Net-(D4-A)*%
X110490000Y-71120000D03*
D13*
%TO.P,R4,2*%
%TO.N,Net-(J1-Pin_2)*%
X105410000Y-71120000D03*
%TD*%
D12*
%TO.P,R3,1*%
%TO.N,Net-(D3-A)*%
X92710000Y-71120000D03*
D13*
%TO.P,R3,2*%
%TO.N,Net-(J1-Pin_4)*%
X97790000Y-71120000D03*
%TD*%
%TO.P,R2,2*%
%TO.N,Net-(J1-Pin_5)*%
X97790000Y-58420000D03*
D12*
%TO.P,R2,1*%
%TO.N,Net-(D2-A)*%
X92710000Y-58420000D03*
%TD*%
%TO.P,R1,1*%
%TO.N,Net-(D1-A)*%
X101600000Y-58420000D03*
D13*
%TO.P,R1,2*%
%TO.N,Net-(J1-Pin_6)*%
X101600000Y-63500000D03*
%TD*%
D14*
%TO.P,D5,1,K*%
%TO.N,Net-(D1-K)*%
X111760000Y-63500000D03*
D15*
%TO.P,D5,2,A*%
%TO.N,Net-(D5-A)*%
X109220000Y-63500000D03*
%TD*%
D14*
%TO.P,D4,1,K*%
%TO.N,Net-(D1-K)*%
X111760000Y-76200000D03*
D15*
%TO.P,D4,2,A*%
%TO.N,Net-(D4-A)*%
X109220000Y-76200000D03*
%TD*%
D14*
%TO.P,D3,1,K*%
%TO.N,Net-(D1-K)*%
X91440000Y-76200000D03*
D15*
%TO.P,D3,2,A*%
%TO.N,Net-(D3-A)*%
X93980000Y-76200000D03*
%TD*%
D14*
%TO.P,D2,1,K*%
%TO.N,Net-(D1-K)*%
X91440000Y-63500000D03*
D15*
%TO.P,D2,2,A*%
%TO.N,Net-(D2-A)*%
X93980000Y-63500000D03*
%TD*%
D14*
%TO.P,D1,1,K*%
%TO.N,Net-(D1-K)*%
X101600000Y-50800000D03*
D15*
%TO.P,D1,2,A*%
%TO.N,Net-(D1-A)*%
X101600000Y-53340000D03*
%TD*%
D16*
%TO.N,Net-(J1-Pin_6)*%
X101600000Y-63500000D02*
X101600000Y-67660000D01*
%TO.N,Net-(D5-A)*%
X110490000Y-62230000D02*
X110490000Y-58420000D01*
X109220000Y-63500000D02*
X110490000Y-62230000D01*
%TO.N,Net-(D2-A)*%
X92710000Y-62230000D02*
X92710000Y-58420000D01*
X93980000Y-63500000D02*
X92710000Y-62230000D01*
%TO.N,Net-(D3-A)*%
X92710000Y-74930000D02*
X92710000Y-71120000D01*
X93980000Y-76200000D02*
X92710000Y-74930000D01*
%TO.N,Net-(D4-A)*%
X109220000Y-72390000D02*
X109220000Y-76200000D01*
X110490000Y-71120000D02*
X109220000Y-72390000D01*
%TO.N,Net-(J1-Pin_2)*%
X105410000Y-71850000D02*
X105410000Y-71120000D01*
X101600000Y-75660000D02*
X105410000Y-71850000D01*
%TO.N,Net-(J1-Pin_3)*%
X104385000Y-59445000D02*
X105410000Y-58420000D01*
X104385000Y-70875000D02*
X104385000Y-59445000D01*
X101600000Y-73660000D02*
X104385000Y-70875000D01*
%TO.N,Net-(J1-Pin_4)*%
X98330000Y-71660000D02*
X97790000Y-71120000D01*
X101600000Y-71660000D02*
X98330000Y-71660000D01*
%TO.N,Net-(J1-Pin_5)*%
X97790000Y-65850000D02*
X101600000Y-69660000D01*
X97790000Y-58420000D02*
X97790000Y-65850000D01*
D17*
%TO.N,Net-(D1-A)*%
X101600000Y-53340000D02*
X101600000Y-58420000D01*
%TD*%
M02*
