%TF.GenerationSoftware,KiCad,Pcbnew,7.0.9*%
%TF.CreationDate,2023-12-13T17:14:35-05:00*%
%TF.ProjectId,Light Pcb,4c696768-7420-4506-9362-2e6b69636164,rev?*%
%TF.SameCoordinates,Original*%
%TF.FileFunction,Copper,L1,Top*%
%TF.FilePolarity,Positive*%
%FSLAX46Y46*%
G04 Gerber Fmt 4.6, Leading zero omitted, Abs format (unit mm)*
G04 Created by KiCad (PCBNEW 7.0.9) date 2023-12-13 17:14:35*
%MOMM*%
%LPD*%
G01*
G04 APERTURE LIST*
%TA.AperFunction,ComponentPad*%
%ADD10C,1.600000*%
%TD*%
%TA.AperFunction,ComponentPad*%
%ADD11O,1.600000X1.600000*%
%TD*%
%TA.AperFunction,ComponentPad*%
%ADD12C,1.500000*%
%TD*%
%TA.AperFunction,ComponentPad*%
%ADD13R,1.500000X1.500000*%
%TD*%
%TA.AperFunction,ComponentPad*%
%ADD14R,1.800000X1.800000*%
%TD*%
%TA.AperFunction,ComponentPad*%
%ADD15C,1.800000*%
%TD*%
%TA.AperFunction,Conductor*%
%ADD16C,0.500000*%
%TD*%
G04 APERTURE END LIST*
D10*
%TO.P,R5,1*%
%TO.N,Net-(J1-Pad5)*%
X98500000Y-67810000D03*
D11*
%TO.P,R5,2*%
%TO.N,Net-(D5-A)*%
X98500000Y-60190000D03*
%TD*%
D10*
%TO.P,R4,1*%
%TO.N,Net-(D4-A)*%
X98500000Y-72190000D03*
D11*
%TO.P,R4,2*%
%TO.N,Net-(J1-Pad4)*%
X98500000Y-79810000D03*
%TD*%
D10*
%TO.P,R3,1*%
%TO.N,Net-(J1-Pad6)*%
X104500000Y-79810000D03*
D11*
%TO.P,R3,2*%
%TO.N,Net-(D3-A)*%
X104500000Y-72190000D03*
%TD*%
D10*
%TO.P,R2,1*%
%TO.N,Net-(D2-A)*%
X104500000Y-60190000D03*
D11*
%TO.P,R2,2*%
%TO.N,Net-(J1-Pad2)*%
X104500000Y-67810000D03*
%TD*%
D10*
%TO.P,R1,1*%
%TO.N,Net-(J1-Pad1)*%
X98020000Y-56730000D03*
D11*
%TO.P,R1,2*%
%TO.N,Net-(D1-A)*%
X105640000Y-56730000D03*
%TD*%
D12*
%TO.P,J1,8*%
%TO.N,Net-(D1-K)*%
X102790000Y-94637500D03*
%TO.P,J1,7*%
X100250000Y-93367500D03*
%TO.P,J1,6*%
%TO.N,Net-(J1-Pad6)*%
X102790000Y-92097500D03*
%TO.P,J1,5*%
%TO.N,Net-(J1-Pad5)*%
X100250000Y-90827500D03*
%TO.P,J1,4*%
%TO.N,Net-(J1-Pad4)*%
X102790000Y-89557500D03*
%TO.P,J1,3*%
%TO.N,unconnected-(J1-Pad3)*%
X100250000Y-88287500D03*
%TO.P,J1,2*%
%TO.N,Net-(J1-Pad2)*%
X102790000Y-87017500D03*
D13*
%TO.P,J1,1*%
%TO.N,Net-(J1-Pad1)*%
X100250000Y-85747500D03*
%TD*%
D14*
%TO.P,D1,1,K*%
%TO.N,Net-(D1-K)*%
X101600000Y-49530000D03*
D15*
%TO.P,D1,2,A*%
%TO.N,Net-(D1-A)*%
X101600000Y-52070000D03*
%TD*%
D14*
%TO.P,D2,1,K*%
%TO.N,Net-(D1-K)*%
X112000000Y-62500000D03*
D15*
%TO.P,D2,2,A*%
%TO.N,Net-(D2-A)*%
X109460000Y-62500000D03*
%TD*%
D14*
%TO.P,D5,1,K*%
%TO.N,Net-(D1-K)*%
X91460000Y-62500000D03*
D15*
%TO.P,D5,2,A*%
%TO.N,Net-(D5-A)*%
X94000000Y-62500000D03*
%TD*%
D14*
%TO.P,D4,1,K*%
%TO.N,Net-(D1-K)*%
X91225000Y-77500000D03*
D15*
%TO.P,D4,2,A*%
%TO.N,Net-(D4-A)*%
X93765000Y-77500000D03*
%TD*%
D14*
%TO.P,D3,1,K*%
%TO.N,Net-(D1-K)*%
X112000000Y-77500000D03*
D15*
%TO.P,D3,2,A*%
%TO.N,Net-(D3-A)*%
X109460000Y-77500000D03*
%TD*%
D16*
%TO.N,Net-(J1-Pad5)*%
X101450000Y-70760000D02*
X98500000Y-67810000D01*
X101450000Y-89627500D02*
X101450000Y-70760000D01*
X100250000Y-90827500D02*
X101450000Y-89627500D01*
%TO.N,Net-(J1-Pad2)*%
X102790000Y-69520000D02*
X104500000Y-67810000D01*
X102790000Y-87017500D02*
X102790000Y-69520000D01*
%TO.N,Net-(J1-Pad6)*%
X104500000Y-90387500D02*
X102790000Y-92097500D01*
X104500000Y-79810000D02*
X104500000Y-90387500D01*
%TO.N,Net-(J1-Pad4)*%
X101590000Y-90757500D02*
X102790000Y-89557500D01*
X100000000Y-95500000D02*
X101590000Y-93910000D01*
X98500000Y-94000000D02*
X100000000Y-95500000D01*
X101590000Y-93910000D02*
X101590000Y-90757500D01*
X98500000Y-79810000D02*
X98500000Y-94000000D01*
%TD*%
M02*
