%TF.GenerationSoftware,KiCad,Pcbnew,7.0.9*%
%TF.CreationDate,2023-12-13T17:14:32-05:00*%
%TF.ProjectId,Light Pcb,4c696768-7420-4506-9362-2e6b69636164,rev?*%
%TF.SameCoordinates,Original*%
%TF.FileFunction,Drillmap*%
%TF.FilePolarity,Positive*%
%FSLAX45Y45*%
G04 Gerber Fmt 4.5, Leading zero omitted, Abs format (unit mm)*
G04 Created by KiCad (PCBNEW 7.0.9) date 2023-12-13 17:14:32*
%MOMM*%
%LPD*%
G01*
G04 APERTURE LIST*
%ADD10C,0.100000*%
%ADD11C,0.200000*%
%ADD12C,0.320000*%
G04 APERTURE END LIST*
D10*
X11129000Y-8996000D02*
G75*
G03*
X11129000Y-8996000I-127000J0D01*
G01*
X11030000Y-5210000D02*
G75*
G03*
X11030000Y-5210000I-127000J0D01*
G01*
X9596000Y-5204000D02*
G75*
G03*
X9596000Y-5204000I-127000J0D01*
G01*
X8890000Y-4699000D02*
X11430000Y-4699000D01*
X11430000Y-9796000D01*
X8890000Y-9796000D01*
X8890000Y-4699000D01*
D11*
D12*
X9230000Y-8287750D02*
X9550000Y-8607750D01*
X9550000Y-8287750D02*
X9230000Y-8607750D01*
X9230000Y-9430750D02*
X9550000Y-9750750D01*
X9550000Y-9430750D02*
X9230000Y-9750750D01*
D11*
X9145777Y-10112484D02*
X9145777Y-9912484D01*
X9145777Y-9912484D02*
X9193396Y-9912484D01*
X9193396Y-9912484D02*
X9221967Y-9922008D01*
X9221967Y-9922008D02*
X9241015Y-9941055D01*
X9241015Y-9941055D02*
X9250539Y-9960103D01*
X9250539Y-9960103D02*
X9260063Y-9998198D01*
X9260063Y-9998198D02*
X9260063Y-10026770D01*
X9260063Y-10026770D02*
X9250539Y-10064865D01*
X9250539Y-10064865D02*
X9241015Y-10083912D01*
X9241015Y-10083912D02*
X9221967Y-10102960D01*
X9221967Y-10102960D02*
X9193396Y-10112484D01*
X9193396Y-10112484D02*
X9145777Y-10112484D01*
X9345777Y-10112484D02*
X9345777Y-9979150D01*
X9345777Y-10017246D02*
X9355301Y-9998198D01*
X9355301Y-9998198D02*
X9364824Y-9988674D01*
X9364824Y-9988674D02*
X9383872Y-9979150D01*
X9383872Y-9979150D02*
X9402920Y-9979150D01*
X9469586Y-10112484D02*
X9469586Y-9979150D01*
X9469586Y-9912484D02*
X9460063Y-9922008D01*
X9460063Y-9922008D02*
X9469586Y-9931531D01*
X9469586Y-9931531D02*
X9479110Y-9922008D01*
X9479110Y-9922008D02*
X9469586Y-9912484D01*
X9469586Y-9912484D02*
X9469586Y-9931531D01*
X9593396Y-10112484D02*
X9574348Y-10102960D01*
X9574348Y-10102960D02*
X9564824Y-10083912D01*
X9564824Y-10083912D02*
X9564824Y-9912484D01*
X9698158Y-10112484D02*
X9679110Y-10102960D01*
X9679110Y-10102960D02*
X9669586Y-10083912D01*
X9669586Y-10083912D02*
X9669586Y-9912484D01*
X9926729Y-10112484D02*
X9926729Y-9912484D01*
X9926729Y-9912484D02*
X9993396Y-10055341D01*
X9993396Y-10055341D02*
X10060063Y-9912484D01*
X10060063Y-9912484D02*
X10060063Y-10112484D01*
X10241015Y-10112484D02*
X10241015Y-10007722D01*
X10241015Y-10007722D02*
X10231491Y-9988674D01*
X10231491Y-9988674D02*
X10212444Y-9979150D01*
X10212444Y-9979150D02*
X10174348Y-9979150D01*
X10174348Y-9979150D02*
X10155301Y-9988674D01*
X10241015Y-10102960D02*
X10221967Y-10112484D01*
X10221967Y-10112484D02*
X10174348Y-10112484D01*
X10174348Y-10112484D02*
X10155301Y-10102960D01*
X10155301Y-10102960D02*
X10145777Y-10083912D01*
X10145777Y-10083912D02*
X10145777Y-10064865D01*
X10145777Y-10064865D02*
X10155301Y-10045817D01*
X10155301Y-10045817D02*
X10174348Y-10036293D01*
X10174348Y-10036293D02*
X10221967Y-10036293D01*
X10221967Y-10036293D02*
X10241015Y-10026770D01*
X10336253Y-9979150D02*
X10336253Y-10179150D01*
X10336253Y-9988674D02*
X10355301Y-9979150D01*
X10355301Y-9979150D02*
X10393396Y-9979150D01*
X10393396Y-9979150D02*
X10412444Y-9988674D01*
X10412444Y-9988674D02*
X10421967Y-9998198D01*
X10421967Y-9998198D02*
X10431491Y-10017246D01*
X10431491Y-10017246D02*
X10431491Y-10074389D01*
X10431491Y-10074389D02*
X10421967Y-10093436D01*
X10421967Y-10093436D02*
X10412444Y-10102960D01*
X10412444Y-10102960D02*
X10393396Y-10112484D01*
X10393396Y-10112484D02*
X10355301Y-10112484D01*
X10355301Y-10112484D02*
X10336253Y-10102960D01*
X10517205Y-10093436D02*
X10526729Y-10102960D01*
X10526729Y-10102960D02*
X10517205Y-10112484D01*
X10517205Y-10112484D02*
X10507682Y-10102960D01*
X10507682Y-10102960D02*
X10517205Y-10093436D01*
X10517205Y-10093436D02*
X10517205Y-10112484D01*
X10517205Y-9988674D02*
X10526729Y-9998198D01*
X10526729Y-9998198D02*
X10517205Y-10007722D01*
X10517205Y-10007722D02*
X10507682Y-9998198D01*
X10507682Y-9998198D02*
X10517205Y-9988674D01*
X10517205Y-9988674D02*
X10517205Y-10007722D01*
X8685000Y-10341000D02*
X8885000Y-10541000D01*
X8885000Y-10341000D02*
X8685000Y-10541000D01*
X9126729Y-10332484D02*
X9250539Y-10332484D01*
X9250539Y-10332484D02*
X9183872Y-10408674D01*
X9183872Y-10408674D02*
X9212444Y-10408674D01*
X9212444Y-10408674D02*
X9231491Y-10418198D01*
X9231491Y-10418198D02*
X9241015Y-10427722D01*
X9241015Y-10427722D02*
X9250539Y-10446770D01*
X9250539Y-10446770D02*
X9250539Y-10494389D01*
X9250539Y-10494389D02*
X9241015Y-10513436D01*
X9241015Y-10513436D02*
X9231491Y-10522960D01*
X9231491Y-10522960D02*
X9212444Y-10532484D01*
X9212444Y-10532484D02*
X9155301Y-10532484D01*
X9155301Y-10532484D02*
X9136253Y-10522960D01*
X9136253Y-10522960D02*
X9126729Y-10513436D01*
X9336253Y-10513436D02*
X9345777Y-10522960D01*
X9345777Y-10522960D02*
X9336253Y-10532484D01*
X9336253Y-10532484D02*
X9326729Y-10522960D01*
X9326729Y-10522960D02*
X9336253Y-10513436D01*
X9336253Y-10513436D02*
X9336253Y-10532484D01*
X9421967Y-10351531D02*
X9431491Y-10342008D01*
X9431491Y-10342008D02*
X9450539Y-10332484D01*
X9450539Y-10332484D02*
X9498158Y-10332484D01*
X9498158Y-10332484D02*
X9517205Y-10342008D01*
X9517205Y-10342008D02*
X9526729Y-10351531D01*
X9526729Y-10351531D02*
X9536253Y-10370579D01*
X9536253Y-10370579D02*
X9536253Y-10389627D01*
X9536253Y-10389627D02*
X9526729Y-10418198D01*
X9526729Y-10418198D02*
X9412444Y-10532484D01*
X9412444Y-10532484D02*
X9536253Y-10532484D01*
X9660063Y-10332484D02*
X9679110Y-10332484D01*
X9679110Y-10332484D02*
X9698158Y-10342008D01*
X9698158Y-10342008D02*
X9707682Y-10351531D01*
X9707682Y-10351531D02*
X9717205Y-10370579D01*
X9717205Y-10370579D02*
X9726729Y-10408674D01*
X9726729Y-10408674D02*
X9726729Y-10456293D01*
X9726729Y-10456293D02*
X9717205Y-10494389D01*
X9717205Y-10494389D02*
X9707682Y-10513436D01*
X9707682Y-10513436D02*
X9698158Y-10522960D01*
X9698158Y-10522960D02*
X9679110Y-10532484D01*
X9679110Y-10532484D02*
X9660063Y-10532484D01*
X9660063Y-10532484D02*
X9641015Y-10522960D01*
X9641015Y-10522960D02*
X9631491Y-10513436D01*
X9631491Y-10513436D02*
X9621967Y-10494389D01*
X9621967Y-10494389D02*
X9612444Y-10456293D01*
X9612444Y-10456293D02*
X9612444Y-10408674D01*
X9612444Y-10408674D02*
X9621967Y-10370579D01*
X9621967Y-10370579D02*
X9631491Y-10351531D01*
X9631491Y-10351531D02*
X9641015Y-10342008D01*
X9641015Y-10342008D02*
X9660063Y-10332484D01*
X9850539Y-10332484D02*
X9869586Y-10332484D01*
X9869586Y-10332484D02*
X9888634Y-10342008D01*
X9888634Y-10342008D02*
X9898158Y-10351531D01*
X9898158Y-10351531D02*
X9907682Y-10370579D01*
X9907682Y-10370579D02*
X9917205Y-10408674D01*
X9917205Y-10408674D02*
X9917205Y-10456293D01*
X9917205Y-10456293D02*
X9907682Y-10494389D01*
X9907682Y-10494389D02*
X9898158Y-10513436D01*
X9898158Y-10513436D02*
X9888634Y-10522960D01*
X9888634Y-10522960D02*
X9869586Y-10532484D01*
X9869586Y-10532484D02*
X9850539Y-10532484D01*
X9850539Y-10532484D02*
X9831491Y-10522960D01*
X9831491Y-10522960D02*
X9821967Y-10513436D01*
X9821967Y-10513436D02*
X9812444Y-10494389D01*
X9812444Y-10494389D02*
X9802920Y-10456293D01*
X9802920Y-10456293D02*
X9802920Y-10408674D01*
X9802920Y-10408674D02*
X9812444Y-10370579D01*
X9812444Y-10370579D02*
X9821967Y-10351531D01*
X9821967Y-10351531D02*
X9831491Y-10342008D01*
X9831491Y-10342008D02*
X9850539Y-10332484D01*
X10002920Y-10532484D02*
X10002920Y-10399150D01*
X10002920Y-10418198D02*
X10012444Y-10408674D01*
X10012444Y-10408674D02*
X10031491Y-10399150D01*
X10031491Y-10399150D02*
X10060063Y-10399150D01*
X10060063Y-10399150D02*
X10079110Y-10408674D01*
X10079110Y-10408674D02*
X10088634Y-10427722D01*
X10088634Y-10427722D02*
X10088634Y-10532484D01*
X10088634Y-10427722D02*
X10098158Y-10408674D01*
X10098158Y-10408674D02*
X10117205Y-10399150D01*
X10117205Y-10399150D02*
X10145777Y-10399150D01*
X10145777Y-10399150D02*
X10164825Y-10408674D01*
X10164825Y-10408674D02*
X10174348Y-10427722D01*
X10174348Y-10427722D02*
X10174348Y-10532484D01*
X10269586Y-10532484D02*
X10269586Y-10399150D01*
X10269586Y-10418198D02*
X10279110Y-10408674D01*
X10279110Y-10408674D02*
X10298158Y-10399150D01*
X10298158Y-10399150D02*
X10326729Y-10399150D01*
X10326729Y-10399150D02*
X10345777Y-10408674D01*
X10345777Y-10408674D02*
X10355301Y-10427722D01*
X10355301Y-10427722D02*
X10355301Y-10532484D01*
X10355301Y-10427722D02*
X10364825Y-10408674D01*
X10364825Y-10408674D02*
X10383872Y-10399150D01*
X10383872Y-10399150D02*
X10412444Y-10399150D01*
X10412444Y-10399150D02*
X10431491Y-10408674D01*
X10431491Y-10408674D02*
X10441015Y-10427722D01*
X10441015Y-10427722D02*
X10441015Y-10532484D01*
X10831491Y-10322960D02*
X10660063Y-10580103D01*
X11088634Y-10332484D02*
X11107682Y-10332484D01*
X11107682Y-10332484D02*
X11126729Y-10342008D01*
X11126729Y-10342008D02*
X11136253Y-10351531D01*
X11136253Y-10351531D02*
X11145777Y-10370579D01*
X11145777Y-10370579D02*
X11155301Y-10408674D01*
X11155301Y-10408674D02*
X11155301Y-10456293D01*
X11155301Y-10456293D02*
X11145777Y-10494389D01*
X11145777Y-10494389D02*
X11136253Y-10513436D01*
X11136253Y-10513436D02*
X11126729Y-10522960D01*
X11126729Y-10522960D02*
X11107682Y-10532484D01*
X11107682Y-10532484D02*
X11088634Y-10532484D01*
X11088634Y-10532484D02*
X11069587Y-10522960D01*
X11069587Y-10522960D02*
X11060063Y-10513436D01*
X11060063Y-10513436D02*
X11050539Y-10494389D01*
X11050539Y-10494389D02*
X11041015Y-10456293D01*
X11041015Y-10456293D02*
X11041015Y-10408674D01*
X11041015Y-10408674D02*
X11050539Y-10370579D01*
X11050539Y-10370579D02*
X11060063Y-10351531D01*
X11060063Y-10351531D02*
X11069587Y-10342008D01*
X11069587Y-10342008D02*
X11088634Y-10332484D01*
X11241015Y-10513436D02*
X11250539Y-10522960D01*
X11250539Y-10522960D02*
X11241015Y-10532484D01*
X11241015Y-10532484D02*
X11231491Y-10522960D01*
X11231491Y-10522960D02*
X11241015Y-10513436D01*
X11241015Y-10513436D02*
X11241015Y-10532484D01*
X11441015Y-10532484D02*
X11326729Y-10532484D01*
X11383872Y-10532484D02*
X11383872Y-10332484D01*
X11383872Y-10332484D02*
X11364825Y-10361055D01*
X11364825Y-10361055D02*
X11345777Y-10380103D01*
X11345777Y-10380103D02*
X11326729Y-10389627D01*
X11517206Y-10351531D02*
X11526729Y-10342008D01*
X11526729Y-10342008D02*
X11545777Y-10332484D01*
X11545777Y-10332484D02*
X11593396Y-10332484D01*
X11593396Y-10332484D02*
X11612444Y-10342008D01*
X11612444Y-10342008D02*
X11621967Y-10351531D01*
X11621967Y-10351531D02*
X11631491Y-10370579D01*
X11631491Y-10370579D02*
X11631491Y-10389627D01*
X11631491Y-10389627D02*
X11621967Y-10418198D01*
X11621967Y-10418198D02*
X11507682Y-10532484D01*
X11507682Y-10532484D02*
X11631491Y-10532484D01*
X11802920Y-10332484D02*
X11764825Y-10332484D01*
X11764825Y-10332484D02*
X11745777Y-10342008D01*
X11745777Y-10342008D02*
X11736253Y-10351531D01*
X11736253Y-10351531D02*
X11717206Y-10380103D01*
X11717206Y-10380103D02*
X11707682Y-10418198D01*
X11707682Y-10418198D02*
X11707682Y-10494389D01*
X11707682Y-10494389D02*
X11717206Y-10513436D01*
X11717206Y-10513436D02*
X11726729Y-10522960D01*
X11726729Y-10522960D02*
X11745777Y-10532484D01*
X11745777Y-10532484D02*
X11783872Y-10532484D01*
X11783872Y-10532484D02*
X11802920Y-10522960D01*
X11802920Y-10522960D02*
X11812444Y-10513436D01*
X11812444Y-10513436D02*
X11821967Y-10494389D01*
X11821967Y-10494389D02*
X11821967Y-10446770D01*
X11821967Y-10446770D02*
X11812444Y-10427722D01*
X11812444Y-10427722D02*
X11802920Y-10418198D01*
X11802920Y-10418198D02*
X11783872Y-10408674D01*
X11783872Y-10408674D02*
X11745777Y-10408674D01*
X11745777Y-10408674D02*
X11726729Y-10418198D01*
X11726729Y-10418198D02*
X11717206Y-10427722D01*
X11717206Y-10427722D02*
X11707682Y-10446770D01*
X11945777Y-10332484D02*
X11964825Y-10332484D01*
X11964825Y-10332484D02*
X11983872Y-10342008D01*
X11983872Y-10342008D02*
X11993396Y-10351531D01*
X11993396Y-10351531D02*
X12002920Y-10370579D01*
X12002920Y-10370579D02*
X12012444Y-10408674D01*
X12012444Y-10408674D02*
X12012444Y-10456293D01*
X12012444Y-10456293D02*
X12002920Y-10494389D01*
X12002920Y-10494389D02*
X11993396Y-10513436D01*
X11993396Y-10513436D02*
X11983872Y-10522960D01*
X11983872Y-10522960D02*
X11964825Y-10532484D01*
X11964825Y-10532484D02*
X11945777Y-10532484D01*
X11945777Y-10532484D02*
X11926729Y-10522960D01*
X11926729Y-10522960D02*
X11917206Y-10513436D01*
X11917206Y-10513436D02*
X11907682Y-10494389D01*
X11907682Y-10494389D02*
X11898158Y-10456293D01*
X11898158Y-10456293D02*
X11898158Y-10408674D01*
X11898158Y-10408674D02*
X11907682Y-10370579D01*
X11907682Y-10370579D02*
X11917206Y-10351531D01*
X11917206Y-10351531D02*
X11926729Y-10342008D01*
X11926729Y-10342008D02*
X11945777Y-10332484D01*
X12088634Y-10332484D02*
X12088634Y-10370579D01*
X12164825Y-10332484D02*
X12164825Y-10370579D01*
X12460063Y-10608674D02*
X12450539Y-10599150D01*
X12450539Y-10599150D02*
X12431491Y-10570579D01*
X12431491Y-10570579D02*
X12421968Y-10551531D01*
X12421968Y-10551531D02*
X12412444Y-10522960D01*
X12412444Y-10522960D02*
X12402920Y-10475341D01*
X12402920Y-10475341D02*
X12402920Y-10437246D01*
X12402920Y-10437246D02*
X12412444Y-10389627D01*
X12412444Y-10389627D02*
X12421968Y-10361055D01*
X12421968Y-10361055D02*
X12431491Y-10342008D01*
X12431491Y-10342008D02*
X12450539Y-10313436D01*
X12450539Y-10313436D02*
X12460063Y-10303912D01*
X12526729Y-10351531D02*
X12536253Y-10342008D01*
X12536253Y-10342008D02*
X12555301Y-10332484D01*
X12555301Y-10332484D02*
X12602920Y-10332484D01*
X12602920Y-10332484D02*
X12621968Y-10342008D01*
X12621968Y-10342008D02*
X12631491Y-10351531D01*
X12631491Y-10351531D02*
X12641015Y-10370579D01*
X12641015Y-10370579D02*
X12641015Y-10389627D01*
X12641015Y-10389627D02*
X12631491Y-10418198D01*
X12631491Y-10418198D02*
X12517206Y-10532484D01*
X12517206Y-10532484D02*
X12641015Y-10532484D01*
X12879110Y-10532484D02*
X12879110Y-10332484D01*
X12964825Y-10532484D02*
X12964825Y-10427722D01*
X12964825Y-10427722D02*
X12955301Y-10408674D01*
X12955301Y-10408674D02*
X12936253Y-10399150D01*
X12936253Y-10399150D02*
X12907682Y-10399150D01*
X12907682Y-10399150D02*
X12888634Y-10408674D01*
X12888634Y-10408674D02*
X12879110Y-10418198D01*
X13088634Y-10532484D02*
X13069587Y-10522960D01*
X13069587Y-10522960D02*
X13060063Y-10513436D01*
X13060063Y-10513436D02*
X13050539Y-10494389D01*
X13050539Y-10494389D02*
X13050539Y-10437246D01*
X13050539Y-10437246D02*
X13060063Y-10418198D01*
X13060063Y-10418198D02*
X13069587Y-10408674D01*
X13069587Y-10408674D02*
X13088634Y-10399150D01*
X13088634Y-10399150D02*
X13117206Y-10399150D01*
X13117206Y-10399150D02*
X13136253Y-10408674D01*
X13136253Y-10408674D02*
X13145777Y-10418198D01*
X13145777Y-10418198D02*
X13155301Y-10437246D01*
X13155301Y-10437246D02*
X13155301Y-10494389D01*
X13155301Y-10494389D02*
X13145777Y-10513436D01*
X13145777Y-10513436D02*
X13136253Y-10522960D01*
X13136253Y-10522960D02*
X13117206Y-10532484D01*
X13117206Y-10532484D02*
X13088634Y-10532484D01*
X13269587Y-10532484D02*
X13250539Y-10522960D01*
X13250539Y-10522960D02*
X13241015Y-10503912D01*
X13241015Y-10503912D02*
X13241015Y-10332484D01*
X13421968Y-10522960D02*
X13402920Y-10532484D01*
X13402920Y-10532484D02*
X13364825Y-10532484D01*
X13364825Y-10532484D02*
X13345777Y-10522960D01*
X13345777Y-10522960D02*
X13336253Y-10503912D01*
X13336253Y-10503912D02*
X13336253Y-10427722D01*
X13336253Y-10427722D02*
X13345777Y-10408674D01*
X13345777Y-10408674D02*
X13364825Y-10399150D01*
X13364825Y-10399150D02*
X13402920Y-10399150D01*
X13402920Y-10399150D02*
X13421968Y-10408674D01*
X13421968Y-10408674D02*
X13431491Y-10427722D01*
X13431491Y-10427722D02*
X13431491Y-10446770D01*
X13431491Y-10446770D02*
X13336253Y-10465817D01*
X13507682Y-10522960D02*
X13526730Y-10532484D01*
X13526730Y-10532484D02*
X13564825Y-10532484D01*
X13564825Y-10532484D02*
X13583872Y-10522960D01*
X13583872Y-10522960D02*
X13593396Y-10503912D01*
X13593396Y-10503912D02*
X13593396Y-10494389D01*
X13593396Y-10494389D02*
X13583872Y-10475341D01*
X13583872Y-10475341D02*
X13564825Y-10465817D01*
X13564825Y-10465817D02*
X13536253Y-10465817D01*
X13536253Y-10465817D02*
X13517206Y-10456293D01*
X13517206Y-10456293D02*
X13507682Y-10437246D01*
X13507682Y-10437246D02*
X13507682Y-10427722D01*
X13507682Y-10427722D02*
X13517206Y-10408674D01*
X13517206Y-10408674D02*
X13536253Y-10399150D01*
X13536253Y-10399150D02*
X13564825Y-10399150D01*
X13564825Y-10399150D02*
X13583872Y-10408674D01*
X13660063Y-10608674D02*
X13669587Y-10599150D01*
X13669587Y-10599150D02*
X13688634Y-10570579D01*
X13688634Y-10570579D02*
X13698158Y-10551531D01*
X13698158Y-10551531D02*
X13707682Y-10522960D01*
X13707682Y-10522960D02*
X13717206Y-10475341D01*
X13717206Y-10475341D02*
X13717206Y-10437246D01*
X13717206Y-10437246D02*
X13707682Y-10389627D01*
X13707682Y-10389627D02*
X13698158Y-10361055D01*
X13698158Y-10361055D02*
X13688634Y-10342008D01*
X13688634Y-10342008D02*
X13669587Y-10313436D01*
X13669587Y-10313436D02*
X13660063Y-10303912D01*
X14021968Y-10608674D02*
X14012444Y-10599150D01*
X14012444Y-10599150D02*
X13993396Y-10570579D01*
X13993396Y-10570579D02*
X13983872Y-10551531D01*
X13983872Y-10551531D02*
X13974349Y-10522960D01*
X13974349Y-10522960D02*
X13964825Y-10475341D01*
X13964825Y-10475341D02*
X13964825Y-10437246D01*
X13964825Y-10437246D02*
X13974349Y-10389627D01*
X13974349Y-10389627D02*
X13983872Y-10361055D01*
X13983872Y-10361055D02*
X13993396Y-10342008D01*
X13993396Y-10342008D02*
X14012444Y-10313436D01*
X14012444Y-10313436D02*
X14021968Y-10303912D01*
X14098158Y-10399150D02*
X14098158Y-10532484D01*
X14098158Y-10418198D02*
X14107682Y-10408674D01*
X14107682Y-10408674D02*
X14126730Y-10399150D01*
X14126730Y-10399150D02*
X14155301Y-10399150D01*
X14155301Y-10399150D02*
X14174349Y-10408674D01*
X14174349Y-10408674D02*
X14183872Y-10427722D01*
X14183872Y-10427722D02*
X14183872Y-10532484D01*
X14307682Y-10532484D02*
X14288634Y-10522960D01*
X14288634Y-10522960D02*
X14279111Y-10513436D01*
X14279111Y-10513436D02*
X14269587Y-10494389D01*
X14269587Y-10494389D02*
X14269587Y-10437246D01*
X14269587Y-10437246D02*
X14279111Y-10418198D01*
X14279111Y-10418198D02*
X14288634Y-10408674D01*
X14288634Y-10408674D02*
X14307682Y-10399150D01*
X14307682Y-10399150D02*
X14336253Y-10399150D01*
X14336253Y-10399150D02*
X14355301Y-10408674D01*
X14355301Y-10408674D02*
X14364825Y-10418198D01*
X14364825Y-10418198D02*
X14374349Y-10437246D01*
X14374349Y-10437246D02*
X14374349Y-10494389D01*
X14374349Y-10494389D02*
X14364825Y-10513436D01*
X14364825Y-10513436D02*
X14355301Y-10522960D01*
X14355301Y-10522960D02*
X14336253Y-10532484D01*
X14336253Y-10532484D02*
X14307682Y-10532484D01*
X14431492Y-10399150D02*
X14507682Y-10399150D01*
X14460063Y-10332484D02*
X14460063Y-10503912D01*
X14460063Y-10503912D02*
X14469587Y-10522960D01*
X14469587Y-10522960D02*
X14488634Y-10532484D01*
X14488634Y-10532484D02*
X14507682Y-10532484D01*
X14726730Y-10399150D02*
X14726730Y-10599150D01*
X14726730Y-10408674D02*
X14745777Y-10399150D01*
X14745777Y-10399150D02*
X14783873Y-10399150D01*
X14783873Y-10399150D02*
X14802920Y-10408674D01*
X14802920Y-10408674D02*
X14812444Y-10418198D01*
X14812444Y-10418198D02*
X14821968Y-10437246D01*
X14821968Y-10437246D02*
X14821968Y-10494389D01*
X14821968Y-10494389D02*
X14812444Y-10513436D01*
X14812444Y-10513436D02*
X14802920Y-10522960D01*
X14802920Y-10522960D02*
X14783873Y-10532484D01*
X14783873Y-10532484D02*
X14745777Y-10532484D01*
X14745777Y-10532484D02*
X14726730Y-10522960D01*
X14936253Y-10532484D02*
X14917206Y-10522960D01*
X14917206Y-10522960D02*
X14907682Y-10503912D01*
X14907682Y-10503912D02*
X14907682Y-10332484D01*
X15098158Y-10532484D02*
X15098158Y-10427722D01*
X15098158Y-10427722D02*
X15088634Y-10408674D01*
X15088634Y-10408674D02*
X15069587Y-10399150D01*
X15069587Y-10399150D02*
X15031492Y-10399150D01*
X15031492Y-10399150D02*
X15012444Y-10408674D01*
X15098158Y-10522960D02*
X15079111Y-10532484D01*
X15079111Y-10532484D02*
X15031492Y-10532484D01*
X15031492Y-10532484D02*
X15012444Y-10522960D01*
X15012444Y-10522960D02*
X15002920Y-10503912D01*
X15002920Y-10503912D02*
X15002920Y-10484865D01*
X15002920Y-10484865D02*
X15012444Y-10465817D01*
X15012444Y-10465817D02*
X15031492Y-10456293D01*
X15031492Y-10456293D02*
X15079111Y-10456293D01*
X15079111Y-10456293D02*
X15098158Y-10446770D01*
X15164825Y-10399150D02*
X15241015Y-10399150D01*
X15193396Y-10332484D02*
X15193396Y-10503912D01*
X15193396Y-10503912D02*
X15202920Y-10522960D01*
X15202920Y-10522960D02*
X15221968Y-10532484D01*
X15221968Y-10532484D02*
X15241015Y-10532484D01*
X15383873Y-10522960D02*
X15364825Y-10532484D01*
X15364825Y-10532484D02*
X15326730Y-10532484D01*
X15326730Y-10532484D02*
X15307682Y-10522960D01*
X15307682Y-10522960D02*
X15298158Y-10503912D01*
X15298158Y-10503912D02*
X15298158Y-10427722D01*
X15298158Y-10427722D02*
X15307682Y-10408674D01*
X15307682Y-10408674D02*
X15326730Y-10399150D01*
X15326730Y-10399150D02*
X15364825Y-10399150D01*
X15364825Y-10399150D02*
X15383873Y-10408674D01*
X15383873Y-10408674D02*
X15393396Y-10427722D01*
X15393396Y-10427722D02*
X15393396Y-10446770D01*
X15393396Y-10446770D02*
X15298158Y-10465817D01*
X15564825Y-10532484D02*
X15564825Y-10332484D01*
X15564825Y-10522960D02*
X15545777Y-10532484D01*
X15545777Y-10532484D02*
X15507682Y-10532484D01*
X15507682Y-10532484D02*
X15488634Y-10522960D01*
X15488634Y-10522960D02*
X15479111Y-10513436D01*
X15479111Y-10513436D02*
X15469587Y-10494389D01*
X15469587Y-10494389D02*
X15469587Y-10437246D01*
X15469587Y-10437246D02*
X15479111Y-10418198D01*
X15479111Y-10418198D02*
X15488634Y-10408674D01*
X15488634Y-10408674D02*
X15507682Y-10399150D01*
X15507682Y-10399150D02*
X15545777Y-10399150D01*
X15545777Y-10399150D02*
X15564825Y-10408674D01*
X15641015Y-10608674D02*
X15650539Y-10599150D01*
X15650539Y-10599150D02*
X15669587Y-10570579D01*
X15669587Y-10570579D02*
X15679111Y-10551531D01*
X15679111Y-10551531D02*
X15688634Y-10522960D01*
X15688634Y-10522960D02*
X15698158Y-10475341D01*
X15698158Y-10475341D02*
X15698158Y-10437246D01*
X15698158Y-10437246D02*
X15688634Y-10389627D01*
X15688634Y-10389627D02*
X15679111Y-10361055D01*
X15679111Y-10361055D02*
X15669587Y-10342008D01*
X15669587Y-10342008D02*
X15650539Y-10313436D01*
X15650539Y-10313436D02*
X15641015Y-10303912D01*
M02*
