%TF.GenerationSoftware,KiCad,Pcbnew,7.0.9*%
%TF.CreationDate,2023-12-13T17:42:51-05:00*%
%TF.ProjectId,Servo_Adapt,53657276-6f5f-4416-9461-70742e6b6963,rev?*%
%TF.SameCoordinates,Original*%
%TF.FileFunction,Drillmap*%
%TF.FilePolarity,Positive*%
%FSLAX45Y45*%
G04 Gerber Fmt 4.5, Leading zero omitted, Abs format (unit mm)*
G04 Created by KiCad (PCBNEW 7.0.9) date 2023-12-13 17:42:51*
%MOMM*%
%LPD*%
G01*
G04 APERTURE LIST*
%ADD10C,0.100000*%
%ADD11C,0.200000*%
G04 APERTURE END LIST*
D10*
X12550000Y-7000000D02*
X15650000Y-7000000D01*
X15650000Y-9700000D01*
X12550000Y-9700000D01*
X12550000Y-7000000D01*
D11*
D10*
X13601250Y-8076000D02*
X13677250Y-8152000D01*
X13677250Y-8076000D02*
X13601250Y-8152000D01*
X13728250Y-7822000D02*
X13804250Y-7898000D01*
X13804250Y-7822000D02*
X13728250Y-7898000D01*
X13855250Y-8076000D02*
X13931250Y-8152000D01*
X13931250Y-8076000D02*
X13855250Y-8152000D01*
X13982250Y-7822000D02*
X14058250Y-7898000D01*
X14058250Y-7822000D02*
X13982250Y-7898000D01*
X14109250Y-8076000D02*
X14185250Y-8152000D01*
X14185250Y-8076000D02*
X14109250Y-8152000D01*
X14236250Y-7822000D02*
X14312250Y-7898000D01*
X14312250Y-7822000D02*
X14236250Y-7898000D01*
X14363250Y-8076000D02*
X14439250Y-8152000D01*
X14439250Y-8076000D02*
X14363250Y-8152000D01*
X14490250Y-7822000D02*
X14566250Y-7898000D01*
X14566250Y-7822000D02*
X14490250Y-7898000D01*
X12790000Y-7892000D02*
G75*
G03*
X12790000Y-7892000I-40000J0D01*
G01*
X12790000Y-8908000D02*
G75*
G03*
X12790000Y-8908000I-40000J0D01*
G01*
X13140000Y-7892000D02*
G75*
G03*
X13140000Y-7892000I-40000J0D01*
G01*
X13140000Y-8908000D02*
G75*
G03*
X13140000Y-8908000I-40000J0D01*
G01*
X15140000Y-7792000D02*
G75*
G03*
X15140000Y-7792000I-40000J0D01*
G01*
X15140000Y-8808000D02*
G75*
G03*
X15140000Y-8808000I-40000J0D01*
G01*
X15490000Y-7784000D02*
G75*
G03*
X15490000Y-7784000I-40000J0D01*
G01*
X15490000Y-8800000D02*
G75*
G03*
X15490000Y-8800000I-40000J0D01*
G01*
X12900000Y-7177500D02*
X12900000Y-7267500D01*
X12855000Y-7222500D02*
X12945000Y-7222500D01*
X12900000Y-7431500D02*
X12900000Y-7521500D01*
X12855000Y-7476500D02*
X12945000Y-7476500D01*
X12900000Y-9178500D02*
X12900000Y-9268500D01*
X12855000Y-9223500D02*
X12945000Y-9223500D01*
X12900000Y-9432500D02*
X12900000Y-9522500D01*
X12855000Y-9477500D02*
X12945000Y-9477500D01*
X15300000Y-7155000D02*
X15300000Y-7245000D01*
X15255000Y-7200000D02*
X15345000Y-7200000D01*
X15300000Y-7409000D02*
X15300000Y-7499000D01*
X15255000Y-7454000D02*
X15345000Y-7454000D01*
X15300000Y-9128500D02*
X15300000Y-9218500D01*
X15255000Y-9173500D02*
X15345000Y-9173500D01*
X15300000Y-9382500D02*
X15300000Y-9472500D01*
X15255000Y-9427500D02*
X15345000Y-9427500D01*
X13835356Y-8785356D02*
X13835356Y-8714644D01*
X13764644Y-8714644D01*
X13764644Y-8785356D01*
X13835356Y-8785356D01*
X13835356Y-9039356D02*
X13835356Y-8968644D01*
X13764644Y-8968644D01*
X13764644Y-9039356D01*
X13835356Y-9039356D01*
X13835356Y-9293356D02*
X13835356Y-9222644D01*
X13764644Y-9222644D01*
X13764644Y-9293356D01*
X13835356Y-9293356D01*
X14535356Y-8781356D02*
X14535356Y-8710644D01*
X14464644Y-8710644D01*
X14464644Y-8781356D01*
X14535356Y-8781356D01*
X14535356Y-9035356D02*
X14535356Y-8964644D01*
X14464644Y-8964644D01*
X14464644Y-9035356D01*
X14535356Y-9035356D01*
X14535356Y-9289356D02*
X14535356Y-9218644D01*
X14464644Y-9218644D01*
X14464644Y-9289356D01*
X14535356Y-9289356D01*
D11*
X12805777Y-10016484D02*
X12805777Y-9816484D01*
X12805777Y-9816484D02*
X12853396Y-9816484D01*
X12853396Y-9816484D02*
X12881967Y-9826008D01*
X12881967Y-9826008D02*
X12901015Y-9845055D01*
X12901015Y-9845055D02*
X12910539Y-9864103D01*
X12910539Y-9864103D02*
X12920062Y-9902198D01*
X12920062Y-9902198D02*
X12920062Y-9930770D01*
X12920062Y-9930770D02*
X12910539Y-9968865D01*
X12910539Y-9968865D02*
X12901015Y-9987912D01*
X12901015Y-9987912D02*
X12881967Y-10006960D01*
X12881967Y-10006960D02*
X12853396Y-10016484D01*
X12853396Y-10016484D02*
X12805777Y-10016484D01*
X13005777Y-10016484D02*
X13005777Y-9883150D01*
X13005777Y-9921246D02*
X13015301Y-9902198D01*
X13015301Y-9902198D02*
X13024824Y-9892674D01*
X13024824Y-9892674D02*
X13043872Y-9883150D01*
X13043872Y-9883150D02*
X13062920Y-9883150D01*
X13129586Y-10016484D02*
X13129586Y-9883150D01*
X13129586Y-9816484D02*
X13120062Y-9826008D01*
X13120062Y-9826008D02*
X13129586Y-9835531D01*
X13129586Y-9835531D02*
X13139110Y-9826008D01*
X13139110Y-9826008D02*
X13129586Y-9816484D01*
X13129586Y-9816484D02*
X13129586Y-9835531D01*
X13253396Y-10016484D02*
X13234348Y-10006960D01*
X13234348Y-10006960D02*
X13224824Y-9987912D01*
X13224824Y-9987912D02*
X13224824Y-9816484D01*
X13358158Y-10016484D02*
X13339110Y-10006960D01*
X13339110Y-10006960D02*
X13329586Y-9987912D01*
X13329586Y-9987912D02*
X13329586Y-9816484D01*
X13586729Y-10016484D02*
X13586729Y-9816484D01*
X13586729Y-9816484D02*
X13653396Y-9959341D01*
X13653396Y-9959341D02*
X13720062Y-9816484D01*
X13720062Y-9816484D02*
X13720062Y-10016484D01*
X13901015Y-10016484D02*
X13901015Y-9911722D01*
X13901015Y-9911722D02*
X13891491Y-9892674D01*
X13891491Y-9892674D02*
X13872443Y-9883150D01*
X13872443Y-9883150D02*
X13834348Y-9883150D01*
X13834348Y-9883150D02*
X13815301Y-9892674D01*
X13901015Y-10006960D02*
X13881967Y-10016484D01*
X13881967Y-10016484D02*
X13834348Y-10016484D01*
X13834348Y-10016484D02*
X13815301Y-10006960D01*
X13815301Y-10006960D02*
X13805777Y-9987912D01*
X13805777Y-9987912D02*
X13805777Y-9968865D01*
X13805777Y-9968865D02*
X13815301Y-9949817D01*
X13815301Y-9949817D02*
X13834348Y-9940293D01*
X13834348Y-9940293D02*
X13881967Y-9940293D01*
X13881967Y-9940293D02*
X13901015Y-9930770D01*
X13996253Y-9883150D02*
X13996253Y-10083150D01*
X13996253Y-9892674D02*
X14015301Y-9883150D01*
X14015301Y-9883150D02*
X14053396Y-9883150D01*
X14053396Y-9883150D02*
X14072443Y-9892674D01*
X14072443Y-9892674D02*
X14081967Y-9902198D01*
X14081967Y-9902198D02*
X14091491Y-9921246D01*
X14091491Y-9921246D02*
X14091491Y-9978389D01*
X14091491Y-9978389D02*
X14081967Y-9997436D01*
X14081967Y-9997436D02*
X14072443Y-10006960D01*
X14072443Y-10006960D02*
X14053396Y-10016484D01*
X14053396Y-10016484D02*
X14015301Y-10016484D01*
X14015301Y-10016484D02*
X13996253Y-10006960D01*
X14177205Y-9997436D02*
X14186729Y-10006960D01*
X14186729Y-10006960D02*
X14177205Y-10016484D01*
X14177205Y-10016484D02*
X14167682Y-10006960D01*
X14167682Y-10006960D02*
X14177205Y-9997436D01*
X14177205Y-9997436D02*
X14177205Y-10016484D01*
X14177205Y-9892674D02*
X14186729Y-9902198D01*
X14186729Y-9902198D02*
X14177205Y-9911722D01*
X14177205Y-9911722D02*
X14167682Y-9902198D01*
X14167682Y-9902198D02*
X14177205Y-9892674D01*
X14177205Y-9892674D02*
X14177205Y-9911722D01*
D10*
X12469000Y-10307000D02*
X12545000Y-10383000D01*
X12545000Y-10307000D02*
X12469000Y-10383000D01*
D11*
X12843872Y-10236484D02*
X12862920Y-10236484D01*
X12862920Y-10236484D02*
X12881967Y-10246008D01*
X12881967Y-10246008D02*
X12891491Y-10255531D01*
X12891491Y-10255531D02*
X12901015Y-10274579D01*
X12901015Y-10274579D02*
X12910539Y-10312674D01*
X12910539Y-10312674D02*
X12910539Y-10360293D01*
X12910539Y-10360293D02*
X12901015Y-10398389D01*
X12901015Y-10398389D02*
X12891491Y-10417436D01*
X12891491Y-10417436D02*
X12881967Y-10426960D01*
X12881967Y-10426960D02*
X12862920Y-10436484D01*
X12862920Y-10436484D02*
X12843872Y-10436484D01*
X12843872Y-10436484D02*
X12824824Y-10426960D01*
X12824824Y-10426960D02*
X12815301Y-10417436D01*
X12815301Y-10417436D02*
X12805777Y-10398389D01*
X12805777Y-10398389D02*
X12796253Y-10360293D01*
X12796253Y-10360293D02*
X12796253Y-10312674D01*
X12796253Y-10312674D02*
X12805777Y-10274579D01*
X12805777Y-10274579D02*
X12815301Y-10255531D01*
X12815301Y-10255531D02*
X12824824Y-10246008D01*
X12824824Y-10246008D02*
X12843872Y-10236484D01*
X12996253Y-10417436D02*
X13005777Y-10426960D01*
X13005777Y-10426960D02*
X12996253Y-10436484D01*
X12996253Y-10436484D02*
X12986729Y-10426960D01*
X12986729Y-10426960D02*
X12996253Y-10417436D01*
X12996253Y-10417436D02*
X12996253Y-10436484D01*
X13072443Y-10236484D02*
X13205777Y-10236484D01*
X13205777Y-10236484D02*
X13120062Y-10436484D01*
X13367682Y-10236484D02*
X13329586Y-10236484D01*
X13329586Y-10236484D02*
X13310539Y-10246008D01*
X13310539Y-10246008D02*
X13301015Y-10255531D01*
X13301015Y-10255531D02*
X13281967Y-10284103D01*
X13281967Y-10284103D02*
X13272443Y-10322198D01*
X13272443Y-10322198D02*
X13272443Y-10398389D01*
X13272443Y-10398389D02*
X13281967Y-10417436D01*
X13281967Y-10417436D02*
X13291491Y-10426960D01*
X13291491Y-10426960D02*
X13310539Y-10436484D01*
X13310539Y-10436484D02*
X13348634Y-10436484D01*
X13348634Y-10436484D02*
X13367682Y-10426960D01*
X13367682Y-10426960D02*
X13377205Y-10417436D01*
X13377205Y-10417436D02*
X13386729Y-10398389D01*
X13386729Y-10398389D02*
X13386729Y-10350770D01*
X13386729Y-10350770D02*
X13377205Y-10331722D01*
X13377205Y-10331722D02*
X13367682Y-10322198D01*
X13367682Y-10322198D02*
X13348634Y-10312674D01*
X13348634Y-10312674D02*
X13310539Y-10312674D01*
X13310539Y-10312674D02*
X13291491Y-10322198D01*
X13291491Y-10322198D02*
X13281967Y-10331722D01*
X13281967Y-10331722D02*
X13272443Y-10350770D01*
X13510539Y-10236484D02*
X13529586Y-10236484D01*
X13529586Y-10236484D02*
X13548634Y-10246008D01*
X13548634Y-10246008D02*
X13558158Y-10255531D01*
X13558158Y-10255531D02*
X13567682Y-10274579D01*
X13567682Y-10274579D02*
X13577205Y-10312674D01*
X13577205Y-10312674D02*
X13577205Y-10360293D01*
X13577205Y-10360293D02*
X13567682Y-10398389D01*
X13567682Y-10398389D02*
X13558158Y-10417436D01*
X13558158Y-10417436D02*
X13548634Y-10426960D01*
X13548634Y-10426960D02*
X13529586Y-10436484D01*
X13529586Y-10436484D02*
X13510539Y-10436484D01*
X13510539Y-10436484D02*
X13491491Y-10426960D01*
X13491491Y-10426960D02*
X13481967Y-10417436D01*
X13481967Y-10417436D02*
X13472443Y-10398389D01*
X13472443Y-10398389D02*
X13462920Y-10360293D01*
X13462920Y-10360293D02*
X13462920Y-10312674D01*
X13462920Y-10312674D02*
X13472443Y-10274579D01*
X13472443Y-10274579D02*
X13481967Y-10255531D01*
X13481967Y-10255531D02*
X13491491Y-10246008D01*
X13491491Y-10246008D02*
X13510539Y-10236484D01*
X13662920Y-10436484D02*
X13662920Y-10303150D01*
X13662920Y-10322198D02*
X13672443Y-10312674D01*
X13672443Y-10312674D02*
X13691491Y-10303150D01*
X13691491Y-10303150D02*
X13720063Y-10303150D01*
X13720063Y-10303150D02*
X13739110Y-10312674D01*
X13739110Y-10312674D02*
X13748634Y-10331722D01*
X13748634Y-10331722D02*
X13748634Y-10436484D01*
X13748634Y-10331722D02*
X13758158Y-10312674D01*
X13758158Y-10312674D02*
X13777205Y-10303150D01*
X13777205Y-10303150D02*
X13805777Y-10303150D01*
X13805777Y-10303150D02*
X13824824Y-10312674D01*
X13824824Y-10312674D02*
X13834348Y-10331722D01*
X13834348Y-10331722D02*
X13834348Y-10436484D01*
X13929586Y-10436484D02*
X13929586Y-10303150D01*
X13929586Y-10322198D02*
X13939110Y-10312674D01*
X13939110Y-10312674D02*
X13958158Y-10303150D01*
X13958158Y-10303150D02*
X13986729Y-10303150D01*
X13986729Y-10303150D02*
X14005777Y-10312674D01*
X14005777Y-10312674D02*
X14015301Y-10331722D01*
X14015301Y-10331722D02*
X14015301Y-10436484D01*
X14015301Y-10331722D02*
X14024824Y-10312674D01*
X14024824Y-10312674D02*
X14043872Y-10303150D01*
X14043872Y-10303150D02*
X14072443Y-10303150D01*
X14072443Y-10303150D02*
X14091491Y-10312674D01*
X14091491Y-10312674D02*
X14101015Y-10331722D01*
X14101015Y-10331722D02*
X14101015Y-10436484D01*
X14491491Y-10226960D02*
X14320063Y-10484103D01*
X14748634Y-10236484D02*
X14767682Y-10236484D01*
X14767682Y-10236484D02*
X14786729Y-10246008D01*
X14786729Y-10246008D02*
X14796253Y-10255531D01*
X14796253Y-10255531D02*
X14805777Y-10274579D01*
X14805777Y-10274579D02*
X14815301Y-10312674D01*
X14815301Y-10312674D02*
X14815301Y-10360293D01*
X14815301Y-10360293D02*
X14805777Y-10398389D01*
X14805777Y-10398389D02*
X14796253Y-10417436D01*
X14796253Y-10417436D02*
X14786729Y-10426960D01*
X14786729Y-10426960D02*
X14767682Y-10436484D01*
X14767682Y-10436484D02*
X14748634Y-10436484D01*
X14748634Y-10436484D02*
X14729586Y-10426960D01*
X14729586Y-10426960D02*
X14720063Y-10417436D01*
X14720063Y-10417436D02*
X14710539Y-10398389D01*
X14710539Y-10398389D02*
X14701015Y-10360293D01*
X14701015Y-10360293D02*
X14701015Y-10312674D01*
X14701015Y-10312674D02*
X14710539Y-10274579D01*
X14710539Y-10274579D02*
X14720063Y-10255531D01*
X14720063Y-10255531D02*
X14729586Y-10246008D01*
X14729586Y-10246008D02*
X14748634Y-10236484D01*
X14901015Y-10417436D02*
X14910539Y-10426960D01*
X14910539Y-10426960D02*
X14901015Y-10436484D01*
X14901015Y-10436484D02*
X14891491Y-10426960D01*
X14891491Y-10426960D02*
X14901015Y-10417436D01*
X14901015Y-10417436D02*
X14901015Y-10436484D01*
X15034348Y-10236484D02*
X15053396Y-10236484D01*
X15053396Y-10236484D02*
X15072444Y-10246008D01*
X15072444Y-10246008D02*
X15081967Y-10255531D01*
X15081967Y-10255531D02*
X15091491Y-10274579D01*
X15091491Y-10274579D02*
X15101015Y-10312674D01*
X15101015Y-10312674D02*
X15101015Y-10360293D01*
X15101015Y-10360293D02*
X15091491Y-10398389D01*
X15091491Y-10398389D02*
X15081967Y-10417436D01*
X15081967Y-10417436D02*
X15072444Y-10426960D01*
X15072444Y-10426960D02*
X15053396Y-10436484D01*
X15053396Y-10436484D02*
X15034348Y-10436484D01*
X15034348Y-10436484D02*
X15015301Y-10426960D01*
X15015301Y-10426960D02*
X15005777Y-10417436D01*
X15005777Y-10417436D02*
X14996253Y-10398389D01*
X14996253Y-10398389D02*
X14986729Y-10360293D01*
X14986729Y-10360293D02*
X14986729Y-10312674D01*
X14986729Y-10312674D02*
X14996253Y-10274579D01*
X14996253Y-10274579D02*
X15005777Y-10255531D01*
X15005777Y-10255531D02*
X15015301Y-10246008D01*
X15015301Y-10246008D02*
X15034348Y-10236484D01*
X15177206Y-10255531D02*
X15186729Y-10246008D01*
X15186729Y-10246008D02*
X15205777Y-10236484D01*
X15205777Y-10236484D02*
X15253396Y-10236484D01*
X15253396Y-10236484D02*
X15272444Y-10246008D01*
X15272444Y-10246008D02*
X15281967Y-10255531D01*
X15281967Y-10255531D02*
X15291491Y-10274579D01*
X15291491Y-10274579D02*
X15291491Y-10293627D01*
X15291491Y-10293627D02*
X15281967Y-10322198D01*
X15281967Y-10322198D02*
X15167682Y-10436484D01*
X15167682Y-10436484D02*
X15291491Y-10436484D01*
X15386729Y-10436484D02*
X15424825Y-10436484D01*
X15424825Y-10436484D02*
X15443872Y-10426960D01*
X15443872Y-10426960D02*
X15453396Y-10417436D01*
X15453396Y-10417436D02*
X15472444Y-10388865D01*
X15472444Y-10388865D02*
X15481967Y-10350770D01*
X15481967Y-10350770D02*
X15481967Y-10274579D01*
X15481967Y-10274579D02*
X15472444Y-10255531D01*
X15472444Y-10255531D02*
X15462920Y-10246008D01*
X15462920Y-10246008D02*
X15443872Y-10236484D01*
X15443872Y-10236484D02*
X15405777Y-10236484D01*
X15405777Y-10236484D02*
X15386729Y-10246008D01*
X15386729Y-10246008D02*
X15377206Y-10255531D01*
X15377206Y-10255531D02*
X15367682Y-10274579D01*
X15367682Y-10274579D02*
X15367682Y-10322198D01*
X15367682Y-10322198D02*
X15377206Y-10341246D01*
X15377206Y-10341246D02*
X15386729Y-10350770D01*
X15386729Y-10350770D02*
X15405777Y-10360293D01*
X15405777Y-10360293D02*
X15443872Y-10360293D01*
X15443872Y-10360293D02*
X15462920Y-10350770D01*
X15462920Y-10350770D02*
X15472444Y-10341246D01*
X15472444Y-10341246D02*
X15481967Y-10322198D01*
X15577206Y-10436484D02*
X15615301Y-10436484D01*
X15615301Y-10436484D02*
X15634348Y-10426960D01*
X15634348Y-10426960D02*
X15643872Y-10417436D01*
X15643872Y-10417436D02*
X15662920Y-10388865D01*
X15662920Y-10388865D02*
X15672444Y-10350770D01*
X15672444Y-10350770D02*
X15672444Y-10274579D01*
X15672444Y-10274579D02*
X15662920Y-10255531D01*
X15662920Y-10255531D02*
X15653396Y-10246008D01*
X15653396Y-10246008D02*
X15634348Y-10236484D01*
X15634348Y-10236484D02*
X15596253Y-10236484D01*
X15596253Y-10236484D02*
X15577206Y-10246008D01*
X15577206Y-10246008D02*
X15567682Y-10255531D01*
X15567682Y-10255531D02*
X15558158Y-10274579D01*
X15558158Y-10274579D02*
X15558158Y-10322198D01*
X15558158Y-10322198D02*
X15567682Y-10341246D01*
X15567682Y-10341246D02*
X15577206Y-10350770D01*
X15577206Y-10350770D02*
X15596253Y-10360293D01*
X15596253Y-10360293D02*
X15634348Y-10360293D01*
X15634348Y-10360293D02*
X15653396Y-10350770D01*
X15653396Y-10350770D02*
X15662920Y-10341246D01*
X15662920Y-10341246D02*
X15672444Y-10322198D01*
X15748634Y-10236484D02*
X15748634Y-10274579D01*
X15824825Y-10236484D02*
X15824825Y-10274579D01*
X16120063Y-10512674D02*
X16110539Y-10503150D01*
X16110539Y-10503150D02*
X16091491Y-10474579D01*
X16091491Y-10474579D02*
X16081968Y-10455531D01*
X16081968Y-10455531D02*
X16072444Y-10426960D01*
X16072444Y-10426960D02*
X16062920Y-10379341D01*
X16062920Y-10379341D02*
X16062920Y-10341246D01*
X16062920Y-10341246D02*
X16072444Y-10293627D01*
X16072444Y-10293627D02*
X16081968Y-10265055D01*
X16081968Y-10265055D02*
X16091491Y-10246008D01*
X16091491Y-10246008D02*
X16110539Y-10217436D01*
X16110539Y-10217436D02*
X16120063Y-10207912D01*
X16224825Y-10322198D02*
X16205777Y-10312674D01*
X16205777Y-10312674D02*
X16196253Y-10303150D01*
X16196253Y-10303150D02*
X16186729Y-10284103D01*
X16186729Y-10284103D02*
X16186729Y-10274579D01*
X16186729Y-10274579D02*
X16196253Y-10255531D01*
X16196253Y-10255531D02*
X16205777Y-10246008D01*
X16205777Y-10246008D02*
X16224825Y-10236484D01*
X16224825Y-10236484D02*
X16262920Y-10236484D01*
X16262920Y-10236484D02*
X16281968Y-10246008D01*
X16281968Y-10246008D02*
X16291491Y-10255531D01*
X16291491Y-10255531D02*
X16301015Y-10274579D01*
X16301015Y-10274579D02*
X16301015Y-10284103D01*
X16301015Y-10284103D02*
X16291491Y-10303150D01*
X16291491Y-10303150D02*
X16281968Y-10312674D01*
X16281968Y-10312674D02*
X16262920Y-10322198D01*
X16262920Y-10322198D02*
X16224825Y-10322198D01*
X16224825Y-10322198D02*
X16205777Y-10331722D01*
X16205777Y-10331722D02*
X16196253Y-10341246D01*
X16196253Y-10341246D02*
X16186729Y-10360293D01*
X16186729Y-10360293D02*
X16186729Y-10398389D01*
X16186729Y-10398389D02*
X16196253Y-10417436D01*
X16196253Y-10417436D02*
X16205777Y-10426960D01*
X16205777Y-10426960D02*
X16224825Y-10436484D01*
X16224825Y-10436484D02*
X16262920Y-10436484D01*
X16262920Y-10436484D02*
X16281968Y-10426960D01*
X16281968Y-10426960D02*
X16291491Y-10417436D01*
X16291491Y-10417436D02*
X16301015Y-10398389D01*
X16301015Y-10398389D02*
X16301015Y-10360293D01*
X16301015Y-10360293D02*
X16291491Y-10341246D01*
X16291491Y-10341246D02*
X16281968Y-10331722D01*
X16281968Y-10331722D02*
X16262920Y-10322198D01*
X16539110Y-10436484D02*
X16539110Y-10236484D01*
X16624825Y-10436484D02*
X16624825Y-10331722D01*
X16624825Y-10331722D02*
X16615301Y-10312674D01*
X16615301Y-10312674D02*
X16596253Y-10303150D01*
X16596253Y-10303150D02*
X16567682Y-10303150D01*
X16567682Y-10303150D02*
X16548634Y-10312674D01*
X16548634Y-10312674D02*
X16539110Y-10322198D01*
X16748634Y-10436484D02*
X16729587Y-10426960D01*
X16729587Y-10426960D02*
X16720063Y-10417436D01*
X16720063Y-10417436D02*
X16710539Y-10398389D01*
X16710539Y-10398389D02*
X16710539Y-10341246D01*
X16710539Y-10341246D02*
X16720063Y-10322198D01*
X16720063Y-10322198D02*
X16729587Y-10312674D01*
X16729587Y-10312674D02*
X16748634Y-10303150D01*
X16748634Y-10303150D02*
X16777206Y-10303150D01*
X16777206Y-10303150D02*
X16796253Y-10312674D01*
X16796253Y-10312674D02*
X16805777Y-10322198D01*
X16805777Y-10322198D02*
X16815301Y-10341246D01*
X16815301Y-10341246D02*
X16815301Y-10398389D01*
X16815301Y-10398389D02*
X16805777Y-10417436D01*
X16805777Y-10417436D02*
X16796253Y-10426960D01*
X16796253Y-10426960D02*
X16777206Y-10436484D01*
X16777206Y-10436484D02*
X16748634Y-10436484D01*
X16929587Y-10436484D02*
X16910539Y-10426960D01*
X16910539Y-10426960D02*
X16901015Y-10407912D01*
X16901015Y-10407912D02*
X16901015Y-10236484D01*
X17081968Y-10426960D02*
X17062920Y-10436484D01*
X17062920Y-10436484D02*
X17024825Y-10436484D01*
X17024825Y-10436484D02*
X17005777Y-10426960D01*
X17005777Y-10426960D02*
X16996253Y-10407912D01*
X16996253Y-10407912D02*
X16996253Y-10331722D01*
X16996253Y-10331722D02*
X17005777Y-10312674D01*
X17005777Y-10312674D02*
X17024825Y-10303150D01*
X17024825Y-10303150D02*
X17062920Y-10303150D01*
X17062920Y-10303150D02*
X17081968Y-10312674D01*
X17081968Y-10312674D02*
X17091492Y-10331722D01*
X17091492Y-10331722D02*
X17091492Y-10350770D01*
X17091492Y-10350770D02*
X16996253Y-10369817D01*
X17167682Y-10426960D02*
X17186730Y-10436484D01*
X17186730Y-10436484D02*
X17224825Y-10436484D01*
X17224825Y-10436484D02*
X17243873Y-10426960D01*
X17243873Y-10426960D02*
X17253396Y-10407912D01*
X17253396Y-10407912D02*
X17253396Y-10398389D01*
X17253396Y-10398389D02*
X17243873Y-10379341D01*
X17243873Y-10379341D02*
X17224825Y-10369817D01*
X17224825Y-10369817D02*
X17196253Y-10369817D01*
X17196253Y-10369817D02*
X17177206Y-10360293D01*
X17177206Y-10360293D02*
X17167682Y-10341246D01*
X17167682Y-10341246D02*
X17167682Y-10331722D01*
X17167682Y-10331722D02*
X17177206Y-10312674D01*
X17177206Y-10312674D02*
X17196253Y-10303150D01*
X17196253Y-10303150D02*
X17224825Y-10303150D01*
X17224825Y-10303150D02*
X17243873Y-10312674D01*
X17320063Y-10512674D02*
X17329587Y-10503150D01*
X17329587Y-10503150D02*
X17348634Y-10474579D01*
X17348634Y-10474579D02*
X17358158Y-10455531D01*
X17358158Y-10455531D02*
X17367682Y-10426960D01*
X17367682Y-10426960D02*
X17377206Y-10379341D01*
X17377206Y-10379341D02*
X17377206Y-10341246D01*
X17377206Y-10341246D02*
X17367682Y-10293627D01*
X17367682Y-10293627D02*
X17358158Y-10265055D01*
X17358158Y-10265055D02*
X17348634Y-10246008D01*
X17348634Y-10246008D02*
X17329587Y-10217436D01*
X17329587Y-10217436D02*
X17320063Y-10207912D01*
D10*
X12545000Y-10609000D02*
G75*
G03*
X12545000Y-10609000I-40000J0D01*
G01*
D11*
X12843872Y-10500484D02*
X12862920Y-10500484D01*
X12862920Y-10500484D02*
X12881967Y-10510008D01*
X12881967Y-10510008D02*
X12891491Y-10519531D01*
X12891491Y-10519531D02*
X12901015Y-10538579D01*
X12901015Y-10538579D02*
X12910539Y-10576674D01*
X12910539Y-10576674D02*
X12910539Y-10624293D01*
X12910539Y-10624293D02*
X12901015Y-10662389D01*
X12901015Y-10662389D02*
X12891491Y-10681436D01*
X12891491Y-10681436D02*
X12881967Y-10690960D01*
X12881967Y-10690960D02*
X12862920Y-10700484D01*
X12862920Y-10700484D02*
X12843872Y-10700484D01*
X12843872Y-10700484D02*
X12824824Y-10690960D01*
X12824824Y-10690960D02*
X12815301Y-10681436D01*
X12815301Y-10681436D02*
X12805777Y-10662389D01*
X12805777Y-10662389D02*
X12796253Y-10624293D01*
X12796253Y-10624293D02*
X12796253Y-10576674D01*
X12796253Y-10576674D02*
X12805777Y-10538579D01*
X12805777Y-10538579D02*
X12815301Y-10519531D01*
X12815301Y-10519531D02*
X12824824Y-10510008D01*
X12824824Y-10510008D02*
X12843872Y-10500484D01*
X12996253Y-10681436D02*
X13005777Y-10690960D01*
X13005777Y-10690960D02*
X12996253Y-10700484D01*
X12996253Y-10700484D02*
X12986729Y-10690960D01*
X12986729Y-10690960D02*
X12996253Y-10681436D01*
X12996253Y-10681436D02*
X12996253Y-10700484D01*
X13120062Y-10586198D02*
X13101015Y-10576674D01*
X13101015Y-10576674D02*
X13091491Y-10567150D01*
X13091491Y-10567150D02*
X13081967Y-10548103D01*
X13081967Y-10548103D02*
X13081967Y-10538579D01*
X13081967Y-10538579D02*
X13091491Y-10519531D01*
X13091491Y-10519531D02*
X13101015Y-10510008D01*
X13101015Y-10510008D02*
X13120062Y-10500484D01*
X13120062Y-10500484D02*
X13158158Y-10500484D01*
X13158158Y-10500484D02*
X13177205Y-10510008D01*
X13177205Y-10510008D02*
X13186729Y-10519531D01*
X13186729Y-10519531D02*
X13196253Y-10538579D01*
X13196253Y-10538579D02*
X13196253Y-10548103D01*
X13196253Y-10548103D02*
X13186729Y-10567150D01*
X13186729Y-10567150D02*
X13177205Y-10576674D01*
X13177205Y-10576674D02*
X13158158Y-10586198D01*
X13158158Y-10586198D02*
X13120062Y-10586198D01*
X13120062Y-10586198D02*
X13101015Y-10595722D01*
X13101015Y-10595722D02*
X13091491Y-10605246D01*
X13091491Y-10605246D02*
X13081967Y-10624293D01*
X13081967Y-10624293D02*
X13081967Y-10662389D01*
X13081967Y-10662389D02*
X13091491Y-10681436D01*
X13091491Y-10681436D02*
X13101015Y-10690960D01*
X13101015Y-10690960D02*
X13120062Y-10700484D01*
X13120062Y-10700484D02*
X13158158Y-10700484D01*
X13158158Y-10700484D02*
X13177205Y-10690960D01*
X13177205Y-10690960D02*
X13186729Y-10681436D01*
X13186729Y-10681436D02*
X13196253Y-10662389D01*
X13196253Y-10662389D02*
X13196253Y-10624293D01*
X13196253Y-10624293D02*
X13186729Y-10605246D01*
X13186729Y-10605246D02*
X13177205Y-10595722D01*
X13177205Y-10595722D02*
X13158158Y-10586198D01*
X13320062Y-10500484D02*
X13339110Y-10500484D01*
X13339110Y-10500484D02*
X13358158Y-10510008D01*
X13358158Y-10510008D02*
X13367682Y-10519531D01*
X13367682Y-10519531D02*
X13377205Y-10538579D01*
X13377205Y-10538579D02*
X13386729Y-10576674D01*
X13386729Y-10576674D02*
X13386729Y-10624293D01*
X13386729Y-10624293D02*
X13377205Y-10662389D01*
X13377205Y-10662389D02*
X13367682Y-10681436D01*
X13367682Y-10681436D02*
X13358158Y-10690960D01*
X13358158Y-10690960D02*
X13339110Y-10700484D01*
X13339110Y-10700484D02*
X13320062Y-10700484D01*
X13320062Y-10700484D02*
X13301015Y-10690960D01*
X13301015Y-10690960D02*
X13291491Y-10681436D01*
X13291491Y-10681436D02*
X13281967Y-10662389D01*
X13281967Y-10662389D02*
X13272443Y-10624293D01*
X13272443Y-10624293D02*
X13272443Y-10576674D01*
X13272443Y-10576674D02*
X13281967Y-10538579D01*
X13281967Y-10538579D02*
X13291491Y-10519531D01*
X13291491Y-10519531D02*
X13301015Y-10510008D01*
X13301015Y-10510008D02*
X13320062Y-10500484D01*
X13510539Y-10500484D02*
X13529586Y-10500484D01*
X13529586Y-10500484D02*
X13548634Y-10510008D01*
X13548634Y-10510008D02*
X13558158Y-10519531D01*
X13558158Y-10519531D02*
X13567682Y-10538579D01*
X13567682Y-10538579D02*
X13577205Y-10576674D01*
X13577205Y-10576674D02*
X13577205Y-10624293D01*
X13577205Y-10624293D02*
X13567682Y-10662389D01*
X13567682Y-10662389D02*
X13558158Y-10681436D01*
X13558158Y-10681436D02*
X13548634Y-10690960D01*
X13548634Y-10690960D02*
X13529586Y-10700484D01*
X13529586Y-10700484D02*
X13510539Y-10700484D01*
X13510539Y-10700484D02*
X13491491Y-10690960D01*
X13491491Y-10690960D02*
X13481967Y-10681436D01*
X13481967Y-10681436D02*
X13472443Y-10662389D01*
X13472443Y-10662389D02*
X13462920Y-10624293D01*
X13462920Y-10624293D02*
X13462920Y-10576674D01*
X13462920Y-10576674D02*
X13472443Y-10538579D01*
X13472443Y-10538579D02*
X13481967Y-10519531D01*
X13481967Y-10519531D02*
X13491491Y-10510008D01*
X13491491Y-10510008D02*
X13510539Y-10500484D01*
X13662920Y-10700484D02*
X13662920Y-10567150D01*
X13662920Y-10586198D02*
X13672443Y-10576674D01*
X13672443Y-10576674D02*
X13691491Y-10567150D01*
X13691491Y-10567150D02*
X13720063Y-10567150D01*
X13720063Y-10567150D02*
X13739110Y-10576674D01*
X13739110Y-10576674D02*
X13748634Y-10595722D01*
X13748634Y-10595722D02*
X13748634Y-10700484D01*
X13748634Y-10595722D02*
X13758158Y-10576674D01*
X13758158Y-10576674D02*
X13777205Y-10567150D01*
X13777205Y-10567150D02*
X13805777Y-10567150D01*
X13805777Y-10567150D02*
X13824824Y-10576674D01*
X13824824Y-10576674D02*
X13834348Y-10595722D01*
X13834348Y-10595722D02*
X13834348Y-10700484D01*
X13929586Y-10700484D02*
X13929586Y-10567150D01*
X13929586Y-10586198D02*
X13939110Y-10576674D01*
X13939110Y-10576674D02*
X13958158Y-10567150D01*
X13958158Y-10567150D02*
X13986729Y-10567150D01*
X13986729Y-10567150D02*
X14005777Y-10576674D01*
X14005777Y-10576674D02*
X14015301Y-10595722D01*
X14015301Y-10595722D02*
X14015301Y-10700484D01*
X14015301Y-10595722D02*
X14024824Y-10576674D01*
X14024824Y-10576674D02*
X14043872Y-10567150D01*
X14043872Y-10567150D02*
X14072443Y-10567150D01*
X14072443Y-10567150D02*
X14091491Y-10576674D01*
X14091491Y-10576674D02*
X14101015Y-10595722D01*
X14101015Y-10595722D02*
X14101015Y-10700484D01*
X14491491Y-10490960D02*
X14320063Y-10748103D01*
X14748634Y-10500484D02*
X14767682Y-10500484D01*
X14767682Y-10500484D02*
X14786729Y-10510008D01*
X14786729Y-10510008D02*
X14796253Y-10519531D01*
X14796253Y-10519531D02*
X14805777Y-10538579D01*
X14805777Y-10538579D02*
X14815301Y-10576674D01*
X14815301Y-10576674D02*
X14815301Y-10624293D01*
X14815301Y-10624293D02*
X14805777Y-10662389D01*
X14805777Y-10662389D02*
X14796253Y-10681436D01*
X14796253Y-10681436D02*
X14786729Y-10690960D01*
X14786729Y-10690960D02*
X14767682Y-10700484D01*
X14767682Y-10700484D02*
X14748634Y-10700484D01*
X14748634Y-10700484D02*
X14729586Y-10690960D01*
X14729586Y-10690960D02*
X14720063Y-10681436D01*
X14720063Y-10681436D02*
X14710539Y-10662389D01*
X14710539Y-10662389D02*
X14701015Y-10624293D01*
X14701015Y-10624293D02*
X14701015Y-10576674D01*
X14701015Y-10576674D02*
X14710539Y-10538579D01*
X14710539Y-10538579D02*
X14720063Y-10519531D01*
X14720063Y-10519531D02*
X14729586Y-10510008D01*
X14729586Y-10510008D02*
X14748634Y-10500484D01*
X14901015Y-10681436D02*
X14910539Y-10690960D01*
X14910539Y-10690960D02*
X14901015Y-10700484D01*
X14901015Y-10700484D02*
X14891491Y-10690960D01*
X14891491Y-10690960D02*
X14901015Y-10681436D01*
X14901015Y-10681436D02*
X14901015Y-10700484D01*
X15034348Y-10500484D02*
X15053396Y-10500484D01*
X15053396Y-10500484D02*
X15072444Y-10510008D01*
X15072444Y-10510008D02*
X15081967Y-10519531D01*
X15081967Y-10519531D02*
X15091491Y-10538579D01*
X15091491Y-10538579D02*
X15101015Y-10576674D01*
X15101015Y-10576674D02*
X15101015Y-10624293D01*
X15101015Y-10624293D02*
X15091491Y-10662389D01*
X15091491Y-10662389D02*
X15081967Y-10681436D01*
X15081967Y-10681436D02*
X15072444Y-10690960D01*
X15072444Y-10690960D02*
X15053396Y-10700484D01*
X15053396Y-10700484D02*
X15034348Y-10700484D01*
X15034348Y-10700484D02*
X15015301Y-10690960D01*
X15015301Y-10690960D02*
X15005777Y-10681436D01*
X15005777Y-10681436D02*
X14996253Y-10662389D01*
X14996253Y-10662389D02*
X14986729Y-10624293D01*
X14986729Y-10624293D02*
X14986729Y-10576674D01*
X14986729Y-10576674D02*
X14996253Y-10538579D01*
X14996253Y-10538579D02*
X15005777Y-10519531D01*
X15005777Y-10519531D02*
X15015301Y-10510008D01*
X15015301Y-10510008D02*
X15034348Y-10500484D01*
X15167682Y-10500484D02*
X15291491Y-10500484D01*
X15291491Y-10500484D02*
X15224825Y-10576674D01*
X15224825Y-10576674D02*
X15253396Y-10576674D01*
X15253396Y-10576674D02*
X15272444Y-10586198D01*
X15272444Y-10586198D02*
X15281967Y-10595722D01*
X15281967Y-10595722D02*
X15291491Y-10614770D01*
X15291491Y-10614770D02*
X15291491Y-10662389D01*
X15291491Y-10662389D02*
X15281967Y-10681436D01*
X15281967Y-10681436D02*
X15272444Y-10690960D01*
X15272444Y-10690960D02*
X15253396Y-10700484D01*
X15253396Y-10700484D02*
X15196253Y-10700484D01*
X15196253Y-10700484D02*
X15177206Y-10690960D01*
X15177206Y-10690960D02*
X15167682Y-10681436D01*
X15481967Y-10700484D02*
X15367682Y-10700484D01*
X15424825Y-10700484D02*
X15424825Y-10500484D01*
X15424825Y-10500484D02*
X15405777Y-10529055D01*
X15405777Y-10529055D02*
X15386729Y-10548103D01*
X15386729Y-10548103D02*
X15367682Y-10557627D01*
X15662920Y-10500484D02*
X15567682Y-10500484D01*
X15567682Y-10500484D02*
X15558158Y-10595722D01*
X15558158Y-10595722D02*
X15567682Y-10586198D01*
X15567682Y-10586198D02*
X15586729Y-10576674D01*
X15586729Y-10576674D02*
X15634348Y-10576674D01*
X15634348Y-10576674D02*
X15653396Y-10586198D01*
X15653396Y-10586198D02*
X15662920Y-10595722D01*
X15662920Y-10595722D02*
X15672444Y-10614770D01*
X15672444Y-10614770D02*
X15672444Y-10662389D01*
X15672444Y-10662389D02*
X15662920Y-10681436D01*
X15662920Y-10681436D02*
X15653396Y-10690960D01*
X15653396Y-10690960D02*
X15634348Y-10700484D01*
X15634348Y-10700484D02*
X15586729Y-10700484D01*
X15586729Y-10700484D02*
X15567682Y-10690960D01*
X15567682Y-10690960D02*
X15558158Y-10681436D01*
X15748634Y-10500484D02*
X15748634Y-10538579D01*
X15824825Y-10500484D02*
X15824825Y-10538579D01*
X16120063Y-10776674D02*
X16110539Y-10767150D01*
X16110539Y-10767150D02*
X16091491Y-10738579D01*
X16091491Y-10738579D02*
X16081968Y-10719531D01*
X16081968Y-10719531D02*
X16072444Y-10690960D01*
X16072444Y-10690960D02*
X16062920Y-10643341D01*
X16062920Y-10643341D02*
X16062920Y-10605246D01*
X16062920Y-10605246D02*
X16072444Y-10557627D01*
X16072444Y-10557627D02*
X16081968Y-10529055D01*
X16081968Y-10529055D02*
X16091491Y-10510008D01*
X16091491Y-10510008D02*
X16110539Y-10481436D01*
X16110539Y-10481436D02*
X16120063Y-10471912D01*
X16224825Y-10586198D02*
X16205777Y-10576674D01*
X16205777Y-10576674D02*
X16196253Y-10567150D01*
X16196253Y-10567150D02*
X16186729Y-10548103D01*
X16186729Y-10548103D02*
X16186729Y-10538579D01*
X16186729Y-10538579D02*
X16196253Y-10519531D01*
X16196253Y-10519531D02*
X16205777Y-10510008D01*
X16205777Y-10510008D02*
X16224825Y-10500484D01*
X16224825Y-10500484D02*
X16262920Y-10500484D01*
X16262920Y-10500484D02*
X16281968Y-10510008D01*
X16281968Y-10510008D02*
X16291491Y-10519531D01*
X16291491Y-10519531D02*
X16301015Y-10538579D01*
X16301015Y-10538579D02*
X16301015Y-10548103D01*
X16301015Y-10548103D02*
X16291491Y-10567150D01*
X16291491Y-10567150D02*
X16281968Y-10576674D01*
X16281968Y-10576674D02*
X16262920Y-10586198D01*
X16262920Y-10586198D02*
X16224825Y-10586198D01*
X16224825Y-10586198D02*
X16205777Y-10595722D01*
X16205777Y-10595722D02*
X16196253Y-10605246D01*
X16196253Y-10605246D02*
X16186729Y-10624293D01*
X16186729Y-10624293D02*
X16186729Y-10662389D01*
X16186729Y-10662389D02*
X16196253Y-10681436D01*
X16196253Y-10681436D02*
X16205777Y-10690960D01*
X16205777Y-10690960D02*
X16224825Y-10700484D01*
X16224825Y-10700484D02*
X16262920Y-10700484D01*
X16262920Y-10700484D02*
X16281968Y-10690960D01*
X16281968Y-10690960D02*
X16291491Y-10681436D01*
X16291491Y-10681436D02*
X16301015Y-10662389D01*
X16301015Y-10662389D02*
X16301015Y-10624293D01*
X16301015Y-10624293D02*
X16291491Y-10605246D01*
X16291491Y-10605246D02*
X16281968Y-10595722D01*
X16281968Y-10595722D02*
X16262920Y-10586198D01*
X16539110Y-10700484D02*
X16539110Y-10500484D01*
X16624825Y-10700484D02*
X16624825Y-10595722D01*
X16624825Y-10595722D02*
X16615301Y-10576674D01*
X16615301Y-10576674D02*
X16596253Y-10567150D01*
X16596253Y-10567150D02*
X16567682Y-10567150D01*
X16567682Y-10567150D02*
X16548634Y-10576674D01*
X16548634Y-10576674D02*
X16539110Y-10586198D01*
X16748634Y-10700484D02*
X16729587Y-10690960D01*
X16729587Y-10690960D02*
X16720063Y-10681436D01*
X16720063Y-10681436D02*
X16710539Y-10662389D01*
X16710539Y-10662389D02*
X16710539Y-10605246D01*
X16710539Y-10605246D02*
X16720063Y-10586198D01*
X16720063Y-10586198D02*
X16729587Y-10576674D01*
X16729587Y-10576674D02*
X16748634Y-10567150D01*
X16748634Y-10567150D02*
X16777206Y-10567150D01*
X16777206Y-10567150D02*
X16796253Y-10576674D01*
X16796253Y-10576674D02*
X16805777Y-10586198D01*
X16805777Y-10586198D02*
X16815301Y-10605246D01*
X16815301Y-10605246D02*
X16815301Y-10662389D01*
X16815301Y-10662389D02*
X16805777Y-10681436D01*
X16805777Y-10681436D02*
X16796253Y-10690960D01*
X16796253Y-10690960D02*
X16777206Y-10700484D01*
X16777206Y-10700484D02*
X16748634Y-10700484D01*
X16929587Y-10700484D02*
X16910539Y-10690960D01*
X16910539Y-10690960D02*
X16901015Y-10671912D01*
X16901015Y-10671912D02*
X16901015Y-10500484D01*
X17081968Y-10690960D02*
X17062920Y-10700484D01*
X17062920Y-10700484D02*
X17024825Y-10700484D01*
X17024825Y-10700484D02*
X17005777Y-10690960D01*
X17005777Y-10690960D02*
X16996253Y-10671912D01*
X16996253Y-10671912D02*
X16996253Y-10595722D01*
X16996253Y-10595722D02*
X17005777Y-10576674D01*
X17005777Y-10576674D02*
X17024825Y-10567150D01*
X17024825Y-10567150D02*
X17062920Y-10567150D01*
X17062920Y-10567150D02*
X17081968Y-10576674D01*
X17081968Y-10576674D02*
X17091492Y-10595722D01*
X17091492Y-10595722D02*
X17091492Y-10614770D01*
X17091492Y-10614770D02*
X16996253Y-10633817D01*
X17167682Y-10690960D02*
X17186730Y-10700484D01*
X17186730Y-10700484D02*
X17224825Y-10700484D01*
X17224825Y-10700484D02*
X17243873Y-10690960D01*
X17243873Y-10690960D02*
X17253396Y-10671912D01*
X17253396Y-10671912D02*
X17253396Y-10662389D01*
X17253396Y-10662389D02*
X17243873Y-10643341D01*
X17243873Y-10643341D02*
X17224825Y-10633817D01*
X17224825Y-10633817D02*
X17196253Y-10633817D01*
X17196253Y-10633817D02*
X17177206Y-10624293D01*
X17177206Y-10624293D02*
X17167682Y-10605246D01*
X17167682Y-10605246D02*
X17167682Y-10595722D01*
X17167682Y-10595722D02*
X17177206Y-10576674D01*
X17177206Y-10576674D02*
X17196253Y-10567150D01*
X17196253Y-10567150D02*
X17224825Y-10567150D01*
X17224825Y-10567150D02*
X17243873Y-10576674D01*
X17320063Y-10776674D02*
X17329587Y-10767150D01*
X17329587Y-10767150D02*
X17348634Y-10738579D01*
X17348634Y-10738579D02*
X17358158Y-10719531D01*
X17358158Y-10719531D02*
X17367682Y-10690960D01*
X17367682Y-10690960D02*
X17377206Y-10643341D01*
X17377206Y-10643341D02*
X17377206Y-10605246D01*
X17377206Y-10605246D02*
X17367682Y-10557627D01*
X17367682Y-10557627D02*
X17358158Y-10529055D01*
X17358158Y-10529055D02*
X17348634Y-10510008D01*
X17348634Y-10510008D02*
X17329587Y-10481436D01*
X17329587Y-10481436D02*
X17320063Y-10471912D01*
D10*
X12500000Y-10828000D02*
X12500000Y-10918000D01*
X12455000Y-10873000D02*
X12545000Y-10873000D01*
D11*
X12843872Y-10764484D02*
X12862920Y-10764484D01*
X12862920Y-10764484D02*
X12881967Y-10774008D01*
X12881967Y-10774008D02*
X12891491Y-10783531D01*
X12891491Y-10783531D02*
X12901015Y-10802579D01*
X12901015Y-10802579D02*
X12910539Y-10840674D01*
X12910539Y-10840674D02*
X12910539Y-10888293D01*
X12910539Y-10888293D02*
X12901015Y-10926389D01*
X12901015Y-10926389D02*
X12891491Y-10945436D01*
X12891491Y-10945436D02*
X12881967Y-10954960D01*
X12881967Y-10954960D02*
X12862920Y-10964484D01*
X12862920Y-10964484D02*
X12843872Y-10964484D01*
X12843872Y-10964484D02*
X12824824Y-10954960D01*
X12824824Y-10954960D02*
X12815301Y-10945436D01*
X12815301Y-10945436D02*
X12805777Y-10926389D01*
X12805777Y-10926389D02*
X12796253Y-10888293D01*
X12796253Y-10888293D02*
X12796253Y-10840674D01*
X12796253Y-10840674D02*
X12805777Y-10802579D01*
X12805777Y-10802579D02*
X12815301Y-10783531D01*
X12815301Y-10783531D02*
X12824824Y-10774008D01*
X12824824Y-10774008D02*
X12843872Y-10764484D01*
X12996253Y-10945436D02*
X13005777Y-10954960D01*
X13005777Y-10954960D02*
X12996253Y-10964484D01*
X12996253Y-10964484D02*
X12986729Y-10954960D01*
X12986729Y-10954960D02*
X12996253Y-10945436D01*
X12996253Y-10945436D02*
X12996253Y-10964484D01*
X13101015Y-10964484D02*
X13139110Y-10964484D01*
X13139110Y-10964484D02*
X13158158Y-10954960D01*
X13158158Y-10954960D02*
X13167682Y-10945436D01*
X13167682Y-10945436D02*
X13186729Y-10916865D01*
X13186729Y-10916865D02*
X13196253Y-10878770D01*
X13196253Y-10878770D02*
X13196253Y-10802579D01*
X13196253Y-10802579D02*
X13186729Y-10783531D01*
X13186729Y-10783531D02*
X13177205Y-10774008D01*
X13177205Y-10774008D02*
X13158158Y-10764484D01*
X13158158Y-10764484D02*
X13120062Y-10764484D01*
X13120062Y-10764484D02*
X13101015Y-10774008D01*
X13101015Y-10774008D02*
X13091491Y-10783531D01*
X13091491Y-10783531D02*
X13081967Y-10802579D01*
X13081967Y-10802579D02*
X13081967Y-10850198D01*
X13081967Y-10850198D02*
X13091491Y-10869246D01*
X13091491Y-10869246D02*
X13101015Y-10878770D01*
X13101015Y-10878770D02*
X13120062Y-10888293D01*
X13120062Y-10888293D02*
X13158158Y-10888293D01*
X13158158Y-10888293D02*
X13177205Y-10878770D01*
X13177205Y-10878770D02*
X13186729Y-10869246D01*
X13186729Y-10869246D02*
X13196253Y-10850198D01*
X13320062Y-10764484D02*
X13339110Y-10764484D01*
X13339110Y-10764484D02*
X13358158Y-10774008D01*
X13358158Y-10774008D02*
X13367682Y-10783531D01*
X13367682Y-10783531D02*
X13377205Y-10802579D01*
X13377205Y-10802579D02*
X13386729Y-10840674D01*
X13386729Y-10840674D02*
X13386729Y-10888293D01*
X13386729Y-10888293D02*
X13377205Y-10926389D01*
X13377205Y-10926389D02*
X13367682Y-10945436D01*
X13367682Y-10945436D02*
X13358158Y-10954960D01*
X13358158Y-10954960D02*
X13339110Y-10964484D01*
X13339110Y-10964484D02*
X13320062Y-10964484D01*
X13320062Y-10964484D02*
X13301015Y-10954960D01*
X13301015Y-10954960D02*
X13291491Y-10945436D01*
X13291491Y-10945436D02*
X13281967Y-10926389D01*
X13281967Y-10926389D02*
X13272443Y-10888293D01*
X13272443Y-10888293D02*
X13272443Y-10840674D01*
X13272443Y-10840674D02*
X13281967Y-10802579D01*
X13281967Y-10802579D02*
X13291491Y-10783531D01*
X13291491Y-10783531D02*
X13301015Y-10774008D01*
X13301015Y-10774008D02*
X13320062Y-10764484D01*
X13510539Y-10764484D02*
X13529586Y-10764484D01*
X13529586Y-10764484D02*
X13548634Y-10774008D01*
X13548634Y-10774008D02*
X13558158Y-10783531D01*
X13558158Y-10783531D02*
X13567682Y-10802579D01*
X13567682Y-10802579D02*
X13577205Y-10840674D01*
X13577205Y-10840674D02*
X13577205Y-10888293D01*
X13577205Y-10888293D02*
X13567682Y-10926389D01*
X13567682Y-10926389D02*
X13558158Y-10945436D01*
X13558158Y-10945436D02*
X13548634Y-10954960D01*
X13548634Y-10954960D02*
X13529586Y-10964484D01*
X13529586Y-10964484D02*
X13510539Y-10964484D01*
X13510539Y-10964484D02*
X13491491Y-10954960D01*
X13491491Y-10954960D02*
X13481967Y-10945436D01*
X13481967Y-10945436D02*
X13472443Y-10926389D01*
X13472443Y-10926389D02*
X13462920Y-10888293D01*
X13462920Y-10888293D02*
X13462920Y-10840674D01*
X13462920Y-10840674D02*
X13472443Y-10802579D01*
X13472443Y-10802579D02*
X13481967Y-10783531D01*
X13481967Y-10783531D02*
X13491491Y-10774008D01*
X13491491Y-10774008D02*
X13510539Y-10764484D01*
X13662920Y-10964484D02*
X13662920Y-10831150D01*
X13662920Y-10850198D02*
X13672443Y-10840674D01*
X13672443Y-10840674D02*
X13691491Y-10831150D01*
X13691491Y-10831150D02*
X13720063Y-10831150D01*
X13720063Y-10831150D02*
X13739110Y-10840674D01*
X13739110Y-10840674D02*
X13748634Y-10859722D01*
X13748634Y-10859722D02*
X13748634Y-10964484D01*
X13748634Y-10859722D02*
X13758158Y-10840674D01*
X13758158Y-10840674D02*
X13777205Y-10831150D01*
X13777205Y-10831150D02*
X13805777Y-10831150D01*
X13805777Y-10831150D02*
X13824824Y-10840674D01*
X13824824Y-10840674D02*
X13834348Y-10859722D01*
X13834348Y-10859722D02*
X13834348Y-10964484D01*
X13929586Y-10964484D02*
X13929586Y-10831150D01*
X13929586Y-10850198D02*
X13939110Y-10840674D01*
X13939110Y-10840674D02*
X13958158Y-10831150D01*
X13958158Y-10831150D02*
X13986729Y-10831150D01*
X13986729Y-10831150D02*
X14005777Y-10840674D01*
X14005777Y-10840674D02*
X14015301Y-10859722D01*
X14015301Y-10859722D02*
X14015301Y-10964484D01*
X14015301Y-10859722D02*
X14024824Y-10840674D01*
X14024824Y-10840674D02*
X14043872Y-10831150D01*
X14043872Y-10831150D02*
X14072443Y-10831150D01*
X14072443Y-10831150D02*
X14091491Y-10840674D01*
X14091491Y-10840674D02*
X14101015Y-10859722D01*
X14101015Y-10859722D02*
X14101015Y-10964484D01*
X14491491Y-10754960D02*
X14320063Y-11012103D01*
X14748634Y-10764484D02*
X14767682Y-10764484D01*
X14767682Y-10764484D02*
X14786729Y-10774008D01*
X14786729Y-10774008D02*
X14796253Y-10783531D01*
X14796253Y-10783531D02*
X14805777Y-10802579D01*
X14805777Y-10802579D02*
X14815301Y-10840674D01*
X14815301Y-10840674D02*
X14815301Y-10888293D01*
X14815301Y-10888293D02*
X14805777Y-10926389D01*
X14805777Y-10926389D02*
X14796253Y-10945436D01*
X14796253Y-10945436D02*
X14786729Y-10954960D01*
X14786729Y-10954960D02*
X14767682Y-10964484D01*
X14767682Y-10964484D02*
X14748634Y-10964484D01*
X14748634Y-10964484D02*
X14729586Y-10954960D01*
X14729586Y-10954960D02*
X14720063Y-10945436D01*
X14720063Y-10945436D02*
X14710539Y-10926389D01*
X14710539Y-10926389D02*
X14701015Y-10888293D01*
X14701015Y-10888293D02*
X14701015Y-10840674D01*
X14701015Y-10840674D02*
X14710539Y-10802579D01*
X14710539Y-10802579D02*
X14720063Y-10783531D01*
X14720063Y-10783531D02*
X14729586Y-10774008D01*
X14729586Y-10774008D02*
X14748634Y-10764484D01*
X14901015Y-10945436D02*
X14910539Y-10954960D01*
X14910539Y-10954960D02*
X14901015Y-10964484D01*
X14901015Y-10964484D02*
X14891491Y-10954960D01*
X14891491Y-10954960D02*
X14901015Y-10945436D01*
X14901015Y-10945436D02*
X14901015Y-10964484D01*
X15034348Y-10764484D02*
X15053396Y-10764484D01*
X15053396Y-10764484D02*
X15072444Y-10774008D01*
X15072444Y-10774008D02*
X15081967Y-10783531D01*
X15081967Y-10783531D02*
X15091491Y-10802579D01*
X15091491Y-10802579D02*
X15101015Y-10840674D01*
X15101015Y-10840674D02*
X15101015Y-10888293D01*
X15101015Y-10888293D02*
X15091491Y-10926389D01*
X15091491Y-10926389D02*
X15081967Y-10945436D01*
X15081967Y-10945436D02*
X15072444Y-10954960D01*
X15072444Y-10954960D02*
X15053396Y-10964484D01*
X15053396Y-10964484D02*
X15034348Y-10964484D01*
X15034348Y-10964484D02*
X15015301Y-10954960D01*
X15015301Y-10954960D02*
X15005777Y-10945436D01*
X15005777Y-10945436D02*
X14996253Y-10926389D01*
X14996253Y-10926389D02*
X14986729Y-10888293D01*
X14986729Y-10888293D02*
X14986729Y-10840674D01*
X14986729Y-10840674D02*
X14996253Y-10802579D01*
X14996253Y-10802579D02*
X15005777Y-10783531D01*
X15005777Y-10783531D02*
X15015301Y-10774008D01*
X15015301Y-10774008D02*
X15034348Y-10764484D01*
X15167682Y-10764484D02*
X15291491Y-10764484D01*
X15291491Y-10764484D02*
X15224825Y-10840674D01*
X15224825Y-10840674D02*
X15253396Y-10840674D01*
X15253396Y-10840674D02*
X15272444Y-10850198D01*
X15272444Y-10850198D02*
X15281967Y-10859722D01*
X15281967Y-10859722D02*
X15291491Y-10878770D01*
X15291491Y-10878770D02*
X15291491Y-10926389D01*
X15291491Y-10926389D02*
X15281967Y-10945436D01*
X15281967Y-10945436D02*
X15272444Y-10954960D01*
X15272444Y-10954960D02*
X15253396Y-10964484D01*
X15253396Y-10964484D02*
X15196253Y-10964484D01*
X15196253Y-10964484D02*
X15177206Y-10954960D01*
X15177206Y-10954960D02*
X15167682Y-10945436D01*
X15472444Y-10764484D02*
X15377206Y-10764484D01*
X15377206Y-10764484D02*
X15367682Y-10859722D01*
X15367682Y-10859722D02*
X15377206Y-10850198D01*
X15377206Y-10850198D02*
X15396253Y-10840674D01*
X15396253Y-10840674D02*
X15443872Y-10840674D01*
X15443872Y-10840674D02*
X15462920Y-10850198D01*
X15462920Y-10850198D02*
X15472444Y-10859722D01*
X15472444Y-10859722D02*
X15481967Y-10878770D01*
X15481967Y-10878770D02*
X15481967Y-10926389D01*
X15481967Y-10926389D02*
X15472444Y-10945436D01*
X15472444Y-10945436D02*
X15462920Y-10954960D01*
X15462920Y-10954960D02*
X15443872Y-10964484D01*
X15443872Y-10964484D02*
X15396253Y-10964484D01*
X15396253Y-10964484D02*
X15377206Y-10954960D01*
X15377206Y-10954960D02*
X15367682Y-10945436D01*
X15653396Y-10831150D02*
X15653396Y-10964484D01*
X15605777Y-10754960D02*
X15558158Y-10897817D01*
X15558158Y-10897817D02*
X15681967Y-10897817D01*
X15748634Y-10764484D02*
X15748634Y-10802579D01*
X15824825Y-10764484D02*
X15824825Y-10802579D01*
X16120063Y-11040674D02*
X16110539Y-11031150D01*
X16110539Y-11031150D02*
X16091491Y-11002579D01*
X16091491Y-11002579D02*
X16081968Y-10983531D01*
X16081968Y-10983531D02*
X16072444Y-10954960D01*
X16072444Y-10954960D02*
X16062920Y-10907341D01*
X16062920Y-10907341D02*
X16062920Y-10869246D01*
X16062920Y-10869246D02*
X16072444Y-10821627D01*
X16072444Y-10821627D02*
X16081968Y-10793055D01*
X16081968Y-10793055D02*
X16091491Y-10774008D01*
X16091491Y-10774008D02*
X16110539Y-10745436D01*
X16110539Y-10745436D02*
X16120063Y-10735912D01*
X16224825Y-10850198D02*
X16205777Y-10840674D01*
X16205777Y-10840674D02*
X16196253Y-10831150D01*
X16196253Y-10831150D02*
X16186729Y-10812103D01*
X16186729Y-10812103D02*
X16186729Y-10802579D01*
X16186729Y-10802579D02*
X16196253Y-10783531D01*
X16196253Y-10783531D02*
X16205777Y-10774008D01*
X16205777Y-10774008D02*
X16224825Y-10764484D01*
X16224825Y-10764484D02*
X16262920Y-10764484D01*
X16262920Y-10764484D02*
X16281968Y-10774008D01*
X16281968Y-10774008D02*
X16291491Y-10783531D01*
X16291491Y-10783531D02*
X16301015Y-10802579D01*
X16301015Y-10802579D02*
X16301015Y-10812103D01*
X16301015Y-10812103D02*
X16291491Y-10831150D01*
X16291491Y-10831150D02*
X16281968Y-10840674D01*
X16281968Y-10840674D02*
X16262920Y-10850198D01*
X16262920Y-10850198D02*
X16224825Y-10850198D01*
X16224825Y-10850198D02*
X16205777Y-10859722D01*
X16205777Y-10859722D02*
X16196253Y-10869246D01*
X16196253Y-10869246D02*
X16186729Y-10888293D01*
X16186729Y-10888293D02*
X16186729Y-10926389D01*
X16186729Y-10926389D02*
X16196253Y-10945436D01*
X16196253Y-10945436D02*
X16205777Y-10954960D01*
X16205777Y-10954960D02*
X16224825Y-10964484D01*
X16224825Y-10964484D02*
X16262920Y-10964484D01*
X16262920Y-10964484D02*
X16281968Y-10954960D01*
X16281968Y-10954960D02*
X16291491Y-10945436D01*
X16291491Y-10945436D02*
X16301015Y-10926389D01*
X16301015Y-10926389D02*
X16301015Y-10888293D01*
X16301015Y-10888293D02*
X16291491Y-10869246D01*
X16291491Y-10869246D02*
X16281968Y-10859722D01*
X16281968Y-10859722D02*
X16262920Y-10850198D01*
X16539110Y-10964484D02*
X16539110Y-10764484D01*
X16624825Y-10964484D02*
X16624825Y-10859722D01*
X16624825Y-10859722D02*
X16615301Y-10840674D01*
X16615301Y-10840674D02*
X16596253Y-10831150D01*
X16596253Y-10831150D02*
X16567682Y-10831150D01*
X16567682Y-10831150D02*
X16548634Y-10840674D01*
X16548634Y-10840674D02*
X16539110Y-10850198D01*
X16748634Y-10964484D02*
X16729587Y-10954960D01*
X16729587Y-10954960D02*
X16720063Y-10945436D01*
X16720063Y-10945436D02*
X16710539Y-10926389D01*
X16710539Y-10926389D02*
X16710539Y-10869246D01*
X16710539Y-10869246D02*
X16720063Y-10850198D01*
X16720063Y-10850198D02*
X16729587Y-10840674D01*
X16729587Y-10840674D02*
X16748634Y-10831150D01*
X16748634Y-10831150D02*
X16777206Y-10831150D01*
X16777206Y-10831150D02*
X16796253Y-10840674D01*
X16796253Y-10840674D02*
X16805777Y-10850198D01*
X16805777Y-10850198D02*
X16815301Y-10869246D01*
X16815301Y-10869246D02*
X16815301Y-10926389D01*
X16815301Y-10926389D02*
X16805777Y-10945436D01*
X16805777Y-10945436D02*
X16796253Y-10954960D01*
X16796253Y-10954960D02*
X16777206Y-10964484D01*
X16777206Y-10964484D02*
X16748634Y-10964484D01*
X16929587Y-10964484D02*
X16910539Y-10954960D01*
X16910539Y-10954960D02*
X16901015Y-10935912D01*
X16901015Y-10935912D02*
X16901015Y-10764484D01*
X17081968Y-10954960D02*
X17062920Y-10964484D01*
X17062920Y-10964484D02*
X17024825Y-10964484D01*
X17024825Y-10964484D02*
X17005777Y-10954960D01*
X17005777Y-10954960D02*
X16996253Y-10935912D01*
X16996253Y-10935912D02*
X16996253Y-10859722D01*
X16996253Y-10859722D02*
X17005777Y-10840674D01*
X17005777Y-10840674D02*
X17024825Y-10831150D01*
X17024825Y-10831150D02*
X17062920Y-10831150D01*
X17062920Y-10831150D02*
X17081968Y-10840674D01*
X17081968Y-10840674D02*
X17091492Y-10859722D01*
X17091492Y-10859722D02*
X17091492Y-10878770D01*
X17091492Y-10878770D02*
X16996253Y-10897817D01*
X17167682Y-10954960D02*
X17186730Y-10964484D01*
X17186730Y-10964484D02*
X17224825Y-10964484D01*
X17224825Y-10964484D02*
X17243873Y-10954960D01*
X17243873Y-10954960D02*
X17253396Y-10935912D01*
X17253396Y-10935912D02*
X17253396Y-10926389D01*
X17253396Y-10926389D02*
X17243873Y-10907341D01*
X17243873Y-10907341D02*
X17224825Y-10897817D01*
X17224825Y-10897817D02*
X17196253Y-10897817D01*
X17196253Y-10897817D02*
X17177206Y-10888293D01*
X17177206Y-10888293D02*
X17167682Y-10869246D01*
X17167682Y-10869246D02*
X17167682Y-10859722D01*
X17167682Y-10859722D02*
X17177206Y-10840674D01*
X17177206Y-10840674D02*
X17196253Y-10831150D01*
X17196253Y-10831150D02*
X17224825Y-10831150D01*
X17224825Y-10831150D02*
X17243873Y-10840674D01*
X17320063Y-11040674D02*
X17329587Y-11031150D01*
X17329587Y-11031150D02*
X17348634Y-11002579D01*
X17348634Y-11002579D02*
X17358158Y-10983531D01*
X17358158Y-10983531D02*
X17367682Y-10954960D01*
X17367682Y-10954960D02*
X17377206Y-10907341D01*
X17377206Y-10907341D02*
X17377206Y-10869246D01*
X17377206Y-10869246D02*
X17367682Y-10821627D01*
X17367682Y-10821627D02*
X17358158Y-10793055D01*
X17358158Y-10793055D02*
X17348634Y-10774008D01*
X17348634Y-10774008D02*
X17329587Y-10745436D01*
X17329587Y-10745436D02*
X17320063Y-10735912D01*
D10*
X12530356Y-11172356D02*
X12530356Y-11101644D01*
X12459644Y-11101644D01*
X12459644Y-11172356D01*
X12530356Y-11172356D01*
D11*
X12910539Y-11228484D02*
X12796253Y-11228484D01*
X12853396Y-11228484D02*
X12853396Y-11028484D01*
X12853396Y-11028484D02*
X12834348Y-11057055D01*
X12834348Y-11057055D02*
X12815301Y-11076103D01*
X12815301Y-11076103D02*
X12796253Y-11085627D01*
X12996253Y-11209436D02*
X13005777Y-11218960D01*
X13005777Y-11218960D02*
X12996253Y-11228484D01*
X12996253Y-11228484D02*
X12986729Y-11218960D01*
X12986729Y-11218960D02*
X12996253Y-11209436D01*
X12996253Y-11209436D02*
X12996253Y-11228484D01*
X13129586Y-11028484D02*
X13148634Y-11028484D01*
X13148634Y-11028484D02*
X13167682Y-11038008D01*
X13167682Y-11038008D02*
X13177205Y-11047531D01*
X13177205Y-11047531D02*
X13186729Y-11066579D01*
X13186729Y-11066579D02*
X13196253Y-11104674D01*
X13196253Y-11104674D02*
X13196253Y-11152293D01*
X13196253Y-11152293D02*
X13186729Y-11190388D01*
X13186729Y-11190388D02*
X13177205Y-11209436D01*
X13177205Y-11209436D02*
X13167682Y-11218960D01*
X13167682Y-11218960D02*
X13148634Y-11228484D01*
X13148634Y-11228484D02*
X13129586Y-11228484D01*
X13129586Y-11228484D02*
X13110539Y-11218960D01*
X13110539Y-11218960D02*
X13101015Y-11209436D01*
X13101015Y-11209436D02*
X13091491Y-11190388D01*
X13091491Y-11190388D02*
X13081967Y-11152293D01*
X13081967Y-11152293D02*
X13081967Y-11104674D01*
X13081967Y-11104674D02*
X13091491Y-11066579D01*
X13091491Y-11066579D02*
X13101015Y-11047531D01*
X13101015Y-11047531D02*
X13110539Y-11038008D01*
X13110539Y-11038008D02*
X13129586Y-11028484D01*
X13320062Y-11028484D02*
X13339110Y-11028484D01*
X13339110Y-11028484D02*
X13358158Y-11038008D01*
X13358158Y-11038008D02*
X13367682Y-11047531D01*
X13367682Y-11047531D02*
X13377205Y-11066579D01*
X13377205Y-11066579D02*
X13386729Y-11104674D01*
X13386729Y-11104674D02*
X13386729Y-11152293D01*
X13386729Y-11152293D02*
X13377205Y-11190388D01*
X13377205Y-11190388D02*
X13367682Y-11209436D01*
X13367682Y-11209436D02*
X13358158Y-11218960D01*
X13358158Y-11218960D02*
X13339110Y-11228484D01*
X13339110Y-11228484D02*
X13320062Y-11228484D01*
X13320062Y-11228484D02*
X13301015Y-11218960D01*
X13301015Y-11218960D02*
X13291491Y-11209436D01*
X13291491Y-11209436D02*
X13281967Y-11190388D01*
X13281967Y-11190388D02*
X13272443Y-11152293D01*
X13272443Y-11152293D02*
X13272443Y-11104674D01*
X13272443Y-11104674D02*
X13281967Y-11066579D01*
X13281967Y-11066579D02*
X13291491Y-11047531D01*
X13291491Y-11047531D02*
X13301015Y-11038008D01*
X13301015Y-11038008D02*
X13320062Y-11028484D01*
X13510539Y-11028484D02*
X13529586Y-11028484D01*
X13529586Y-11028484D02*
X13548634Y-11038008D01*
X13548634Y-11038008D02*
X13558158Y-11047531D01*
X13558158Y-11047531D02*
X13567682Y-11066579D01*
X13567682Y-11066579D02*
X13577205Y-11104674D01*
X13577205Y-11104674D02*
X13577205Y-11152293D01*
X13577205Y-11152293D02*
X13567682Y-11190388D01*
X13567682Y-11190388D02*
X13558158Y-11209436D01*
X13558158Y-11209436D02*
X13548634Y-11218960D01*
X13548634Y-11218960D02*
X13529586Y-11228484D01*
X13529586Y-11228484D02*
X13510539Y-11228484D01*
X13510539Y-11228484D02*
X13491491Y-11218960D01*
X13491491Y-11218960D02*
X13481967Y-11209436D01*
X13481967Y-11209436D02*
X13472443Y-11190388D01*
X13472443Y-11190388D02*
X13462920Y-11152293D01*
X13462920Y-11152293D02*
X13462920Y-11104674D01*
X13462920Y-11104674D02*
X13472443Y-11066579D01*
X13472443Y-11066579D02*
X13481967Y-11047531D01*
X13481967Y-11047531D02*
X13491491Y-11038008D01*
X13491491Y-11038008D02*
X13510539Y-11028484D01*
X13662920Y-11228484D02*
X13662920Y-11095150D01*
X13662920Y-11114198D02*
X13672443Y-11104674D01*
X13672443Y-11104674D02*
X13691491Y-11095150D01*
X13691491Y-11095150D02*
X13720063Y-11095150D01*
X13720063Y-11095150D02*
X13739110Y-11104674D01*
X13739110Y-11104674D02*
X13748634Y-11123722D01*
X13748634Y-11123722D02*
X13748634Y-11228484D01*
X13748634Y-11123722D02*
X13758158Y-11104674D01*
X13758158Y-11104674D02*
X13777205Y-11095150D01*
X13777205Y-11095150D02*
X13805777Y-11095150D01*
X13805777Y-11095150D02*
X13824824Y-11104674D01*
X13824824Y-11104674D02*
X13834348Y-11123722D01*
X13834348Y-11123722D02*
X13834348Y-11228484D01*
X13929586Y-11228484D02*
X13929586Y-11095150D01*
X13929586Y-11114198D02*
X13939110Y-11104674D01*
X13939110Y-11104674D02*
X13958158Y-11095150D01*
X13958158Y-11095150D02*
X13986729Y-11095150D01*
X13986729Y-11095150D02*
X14005777Y-11104674D01*
X14005777Y-11104674D02*
X14015301Y-11123722D01*
X14015301Y-11123722D02*
X14015301Y-11228484D01*
X14015301Y-11123722D02*
X14024824Y-11104674D01*
X14024824Y-11104674D02*
X14043872Y-11095150D01*
X14043872Y-11095150D02*
X14072443Y-11095150D01*
X14072443Y-11095150D02*
X14091491Y-11104674D01*
X14091491Y-11104674D02*
X14101015Y-11123722D01*
X14101015Y-11123722D02*
X14101015Y-11228484D01*
X14491491Y-11018960D02*
X14320063Y-11276103D01*
X14748634Y-11028484D02*
X14767682Y-11028484D01*
X14767682Y-11028484D02*
X14786729Y-11038008D01*
X14786729Y-11038008D02*
X14796253Y-11047531D01*
X14796253Y-11047531D02*
X14805777Y-11066579D01*
X14805777Y-11066579D02*
X14815301Y-11104674D01*
X14815301Y-11104674D02*
X14815301Y-11152293D01*
X14815301Y-11152293D02*
X14805777Y-11190388D01*
X14805777Y-11190388D02*
X14796253Y-11209436D01*
X14796253Y-11209436D02*
X14786729Y-11218960D01*
X14786729Y-11218960D02*
X14767682Y-11228484D01*
X14767682Y-11228484D02*
X14748634Y-11228484D01*
X14748634Y-11228484D02*
X14729586Y-11218960D01*
X14729586Y-11218960D02*
X14720063Y-11209436D01*
X14720063Y-11209436D02*
X14710539Y-11190388D01*
X14710539Y-11190388D02*
X14701015Y-11152293D01*
X14701015Y-11152293D02*
X14701015Y-11104674D01*
X14701015Y-11104674D02*
X14710539Y-11066579D01*
X14710539Y-11066579D02*
X14720063Y-11047531D01*
X14720063Y-11047531D02*
X14729586Y-11038008D01*
X14729586Y-11038008D02*
X14748634Y-11028484D01*
X14901015Y-11209436D02*
X14910539Y-11218960D01*
X14910539Y-11218960D02*
X14901015Y-11228484D01*
X14901015Y-11228484D02*
X14891491Y-11218960D01*
X14891491Y-11218960D02*
X14901015Y-11209436D01*
X14901015Y-11209436D02*
X14901015Y-11228484D01*
X15034348Y-11028484D02*
X15053396Y-11028484D01*
X15053396Y-11028484D02*
X15072444Y-11038008D01*
X15072444Y-11038008D02*
X15081967Y-11047531D01*
X15081967Y-11047531D02*
X15091491Y-11066579D01*
X15091491Y-11066579D02*
X15101015Y-11104674D01*
X15101015Y-11104674D02*
X15101015Y-11152293D01*
X15101015Y-11152293D02*
X15091491Y-11190388D01*
X15091491Y-11190388D02*
X15081967Y-11209436D01*
X15081967Y-11209436D02*
X15072444Y-11218960D01*
X15072444Y-11218960D02*
X15053396Y-11228484D01*
X15053396Y-11228484D02*
X15034348Y-11228484D01*
X15034348Y-11228484D02*
X15015301Y-11218960D01*
X15015301Y-11218960D02*
X15005777Y-11209436D01*
X15005777Y-11209436D02*
X14996253Y-11190388D01*
X14996253Y-11190388D02*
X14986729Y-11152293D01*
X14986729Y-11152293D02*
X14986729Y-11104674D01*
X14986729Y-11104674D02*
X14996253Y-11066579D01*
X14996253Y-11066579D02*
X15005777Y-11047531D01*
X15005777Y-11047531D02*
X15015301Y-11038008D01*
X15015301Y-11038008D02*
X15034348Y-11028484D01*
X15167682Y-11028484D02*
X15291491Y-11028484D01*
X15291491Y-11028484D02*
X15224825Y-11104674D01*
X15224825Y-11104674D02*
X15253396Y-11104674D01*
X15253396Y-11104674D02*
X15272444Y-11114198D01*
X15272444Y-11114198D02*
X15281967Y-11123722D01*
X15281967Y-11123722D02*
X15291491Y-11142770D01*
X15291491Y-11142770D02*
X15291491Y-11190388D01*
X15291491Y-11190388D02*
X15281967Y-11209436D01*
X15281967Y-11209436D02*
X15272444Y-11218960D01*
X15272444Y-11218960D02*
X15253396Y-11228484D01*
X15253396Y-11228484D02*
X15196253Y-11228484D01*
X15196253Y-11228484D02*
X15177206Y-11218960D01*
X15177206Y-11218960D02*
X15167682Y-11209436D01*
X15386729Y-11228484D02*
X15424825Y-11228484D01*
X15424825Y-11228484D02*
X15443872Y-11218960D01*
X15443872Y-11218960D02*
X15453396Y-11209436D01*
X15453396Y-11209436D02*
X15472444Y-11180865D01*
X15472444Y-11180865D02*
X15481967Y-11142770D01*
X15481967Y-11142770D02*
X15481967Y-11066579D01*
X15481967Y-11066579D02*
X15472444Y-11047531D01*
X15472444Y-11047531D02*
X15462920Y-11038008D01*
X15462920Y-11038008D02*
X15443872Y-11028484D01*
X15443872Y-11028484D02*
X15405777Y-11028484D01*
X15405777Y-11028484D02*
X15386729Y-11038008D01*
X15386729Y-11038008D02*
X15377206Y-11047531D01*
X15377206Y-11047531D02*
X15367682Y-11066579D01*
X15367682Y-11066579D02*
X15367682Y-11114198D01*
X15367682Y-11114198D02*
X15377206Y-11133246D01*
X15377206Y-11133246D02*
X15386729Y-11142770D01*
X15386729Y-11142770D02*
X15405777Y-11152293D01*
X15405777Y-11152293D02*
X15443872Y-11152293D01*
X15443872Y-11152293D02*
X15462920Y-11142770D01*
X15462920Y-11142770D02*
X15472444Y-11133246D01*
X15472444Y-11133246D02*
X15481967Y-11114198D01*
X15653396Y-11095150D02*
X15653396Y-11228484D01*
X15605777Y-11018960D02*
X15558158Y-11161817D01*
X15558158Y-11161817D02*
X15681967Y-11161817D01*
X15748634Y-11028484D02*
X15748634Y-11066579D01*
X15824825Y-11028484D02*
X15824825Y-11066579D01*
X16120063Y-11304674D02*
X16110539Y-11295150D01*
X16110539Y-11295150D02*
X16091491Y-11266579D01*
X16091491Y-11266579D02*
X16081968Y-11247531D01*
X16081968Y-11247531D02*
X16072444Y-11218960D01*
X16072444Y-11218960D02*
X16062920Y-11171341D01*
X16062920Y-11171341D02*
X16062920Y-11133246D01*
X16062920Y-11133246D02*
X16072444Y-11085627D01*
X16072444Y-11085627D02*
X16081968Y-11057055D01*
X16081968Y-11057055D02*
X16091491Y-11038008D01*
X16091491Y-11038008D02*
X16110539Y-11009436D01*
X16110539Y-11009436D02*
X16120063Y-10999912D01*
X16281968Y-11028484D02*
X16243872Y-11028484D01*
X16243872Y-11028484D02*
X16224825Y-11038008D01*
X16224825Y-11038008D02*
X16215301Y-11047531D01*
X16215301Y-11047531D02*
X16196253Y-11076103D01*
X16196253Y-11076103D02*
X16186729Y-11114198D01*
X16186729Y-11114198D02*
X16186729Y-11190388D01*
X16186729Y-11190388D02*
X16196253Y-11209436D01*
X16196253Y-11209436D02*
X16205777Y-11218960D01*
X16205777Y-11218960D02*
X16224825Y-11228484D01*
X16224825Y-11228484D02*
X16262920Y-11228484D01*
X16262920Y-11228484D02*
X16281968Y-11218960D01*
X16281968Y-11218960D02*
X16291491Y-11209436D01*
X16291491Y-11209436D02*
X16301015Y-11190388D01*
X16301015Y-11190388D02*
X16301015Y-11142770D01*
X16301015Y-11142770D02*
X16291491Y-11123722D01*
X16291491Y-11123722D02*
X16281968Y-11114198D01*
X16281968Y-11114198D02*
X16262920Y-11104674D01*
X16262920Y-11104674D02*
X16224825Y-11104674D01*
X16224825Y-11104674D02*
X16205777Y-11114198D01*
X16205777Y-11114198D02*
X16196253Y-11123722D01*
X16196253Y-11123722D02*
X16186729Y-11142770D01*
X16539110Y-11228484D02*
X16539110Y-11028484D01*
X16624825Y-11228484D02*
X16624825Y-11123722D01*
X16624825Y-11123722D02*
X16615301Y-11104674D01*
X16615301Y-11104674D02*
X16596253Y-11095150D01*
X16596253Y-11095150D02*
X16567682Y-11095150D01*
X16567682Y-11095150D02*
X16548634Y-11104674D01*
X16548634Y-11104674D02*
X16539110Y-11114198D01*
X16748634Y-11228484D02*
X16729587Y-11218960D01*
X16729587Y-11218960D02*
X16720063Y-11209436D01*
X16720063Y-11209436D02*
X16710539Y-11190388D01*
X16710539Y-11190388D02*
X16710539Y-11133246D01*
X16710539Y-11133246D02*
X16720063Y-11114198D01*
X16720063Y-11114198D02*
X16729587Y-11104674D01*
X16729587Y-11104674D02*
X16748634Y-11095150D01*
X16748634Y-11095150D02*
X16777206Y-11095150D01*
X16777206Y-11095150D02*
X16796253Y-11104674D01*
X16796253Y-11104674D02*
X16805777Y-11114198D01*
X16805777Y-11114198D02*
X16815301Y-11133246D01*
X16815301Y-11133246D02*
X16815301Y-11190388D01*
X16815301Y-11190388D02*
X16805777Y-11209436D01*
X16805777Y-11209436D02*
X16796253Y-11218960D01*
X16796253Y-11218960D02*
X16777206Y-11228484D01*
X16777206Y-11228484D02*
X16748634Y-11228484D01*
X16929587Y-11228484D02*
X16910539Y-11218960D01*
X16910539Y-11218960D02*
X16901015Y-11199912D01*
X16901015Y-11199912D02*
X16901015Y-11028484D01*
X17081968Y-11218960D02*
X17062920Y-11228484D01*
X17062920Y-11228484D02*
X17024825Y-11228484D01*
X17024825Y-11228484D02*
X17005777Y-11218960D01*
X17005777Y-11218960D02*
X16996253Y-11199912D01*
X16996253Y-11199912D02*
X16996253Y-11123722D01*
X16996253Y-11123722D02*
X17005777Y-11104674D01*
X17005777Y-11104674D02*
X17024825Y-11095150D01*
X17024825Y-11095150D02*
X17062920Y-11095150D01*
X17062920Y-11095150D02*
X17081968Y-11104674D01*
X17081968Y-11104674D02*
X17091492Y-11123722D01*
X17091492Y-11123722D02*
X17091492Y-11142770D01*
X17091492Y-11142770D02*
X16996253Y-11161817D01*
X17167682Y-11218960D02*
X17186730Y-11228484D01*
X17186730Y-11228484D02*
X17224825Y-11228484D01*
X17224825Y-11228484D02*
X17243873Y-11218960D01*
X17243873Y-11218960D02*
X17253396Y-11199912D01*
X17253396Y-11199912D02*
X17253396Y-11190388D01*
X17253396Y-11190388D02*
X17243873Y-11171341D01*
X17243873Y-11171341D02*
X17224825Y-11161817D01*
X17224825Y-11161817D02*
X17196253Y-11161817D01*
X17196253Y-11161817D02*
X17177206Y-11152293D01*
X17177206Y-11152293D02*
X17167682Y-11133246D01*
X17167682Y-11133246D02*
X17167682Y-11123722D01*
X17167682Y-11123722D02*
X17177206Y-11104674D01*
X17177206Y-11104674D02*
X17196253Y-11095150D01*
X17196253Y-11095150D02*
X17224825Y-11095150D01*
X17224825Y-11095150D02*
X17243873Y-11104674D01*
X17320063Y-11304674D02*
X17329587Y-11295150D01*
X17329587Y-11295150D02*
X17348634Y-11266579D01*
X17348634Y-11266579D02*
X17358158Y-11247531D01*
X17358158Y-11247531D02*
X17367682Y-11218960D01*
X17367682Y-11218960D02*
X17377206Y-11171341D01*
X17377206Y-11171341D02*
X17377206Y-11133246D01*
X17377206Y-11133246D02*
X17367682Y-11085627D01*
X17367682Y-11085627D02*
X17358158Y-11057055D01*
X17358158Y-11057055D02*
X17348634Y-11038008D01*
X17348634Y-11038008D02*
X17329587Y-11009436D01*
X17329587Y-11009436D02*
X17320063Y-10999912D01*
M02*
