%TF.GenerationSoftware,KiCad,Pcbnew,7.0.9*%
%TF.CreationDate,2023-12-13T17:42:54-05:00*%
%TF.ProjectId,Servo_Adapt,53657276-6f5f-4416-9461-70742e6b6963,rev?*%
%TF.SameCoordinates,Original*%
%TF.FileFunction,Copper,L2,Bot*%
%TF.FilePolarity,Positive*%
%FSLAX46Y46*%
G04 Gerber Fmt 4.6, Leading zero omitted, Abs format (unit mm)*
G04 Created by KiCad (PCBNEW 7.0.9) date 2023-12-13 17:42:54*
%MOMM*%
%LPD*%
G01*
G04 APERTURE LIST*
%TA.AperFunction,ComponentPad*%
%ADD10C,1.600000*%
%TD*%
%TA.AperFunction,ComponentPad*%
%ADD11O,1.600000X1.600000*%
%TD*%
%TA.AperFunction,ComponentPad*%
%ADD12R,1.800000X1.800000*%
%TD*%
%TA.AperFunction,ComponentPad*%
%ADD13C,1.800000*%
%TD*%
%TA.AperFunction,ComponentPad*%
%ADD14R,1.700000X1.700000*%
%TD*%
%TA.AperFunction,ComponentPad*%
%ADD15O,1.700000X1.700000*%
%TD*%
%TA.AperFunction,ComponentPad*%
%ADD16R,1.500000X1.500000*%
%TD*%
%TA.AperFunction,ComponentPad*%
%ADD17C,1.500000*%
%TD*%
%TA.AperFunction,Conductor*%
%ADD18C,0.500000*%
%TD*%
G04 APERTURE END LIST*
D10*
%TO.P,R4,1*%
%TO.N,Net-(D4-A)*%
X151000000Y-77920000D03*
D11*
%TO.P,R4,2*%
%TO.N,Net-(J1-Pad2)*%
X151000000Y-88080000D03*
%TD*%
D10*
%TO.P,R3,1*%
%TO.N,Net-(D3-A)*%
X154500000Y-88000000D03*
D11*
%TO.P,R3,2*%
%TO.N,Net-(J1-Pad1)*%
X154500000Y-77840000D03*
%TD*%
D12*
%TO.P,D4,1,K*%
%TO.N,Net-(D1-K)*%
X153000000Y-72000000D03*
D13*
%TO.P,D4,2,A*%
%TO.N,Net-(D4-A)*%
X153000000Y-74540000D03*
%TD*%
D12*
%TO.P,D3,1,K*%
%TO.N,Net-(D1-K)*%
X153000000Y-94275000D03*
D13*
%TO.P,D3,2,A*%
%TO.N,Net-(D3-A)*%
X153000000Y-91735000D03*
%TD*%
D10*
%TO.P,R2,1*%
%TO.N,Net-(D1-A)*%
X131000000Y-78920000D03*
D11*
%TO.P,R2,2*%
%TO.N,Net-(J1-Pad2)*%
X131000000Y-89080000D03*
%TD*%
D10*
%TO.P,R1,1*%
%TO.N,Net-(D2-A)*%
X127500000Y-89080000D03*
D11*
%TO.P,R1,2*%
%TO.N,Net-(J1-Pad1)*%
X127500000Y-78920000D03*
%TD*%
D14*
%TO.P,J3,1,Pin_1*%
%TO.N,Net-(J3-Pin_1)*%
X138000000Y-87500000D03*
D15*
%TO.P,J3,2,Pin_2*%
%TO.N,Net-(J2-Pin_2)*%
X138000000Y-90040000D03*
%TO.P,J3,3,Pin_3*%
%TO.N,Net-(D1-K)*%
X138000000Y-92580000D03*
%TD*%
D14*
%TO.P,J2,1,Pin_1*%
%TO.N,Net-(J2-Pin_1)*%
X145000000Y-87460000D03*
D15*
%TO.P,J2,2,Pin_2*%
%TO.N,Net-(J2-Pin_2)*%
X145000000Y-90000000D03*
%TO.P,J2,3,Pin_3*%
%TO.N,Net-(D1-K)*%
X145000000Y-92540000D03*
%TD*%
D16*
%TO.P,J1,1*%
%TO.N,Net-(J1-Pad1)*%
X145282500Y-78600000D03*
D17*
%TO.P,J1,2*%
%TO.N,Net-(J1-Pad2)*%
X144012500Y-81140000D03*
%TO.P,J1,3*%
%TO.N,Net-(J2-Pin_2)*%
X142742500Y-78600000D03*
%TO.P,J1,4*%
%TO.N,Net-(J2-Pin_1)*%
X141472500Y-81140000D03*
%TO.P,J1,5*%
%TO.N,Net-(J3-Pin_1)*%
X140202500Y-78600000D03*
%TO.P,J1,6*%
%TO.N,unconnected-(J1-Pad6)*%
X138932500Y-81140000D03*
%TO.P,J1,7*%
%TO.N,Net-(D1-K)*%
X137662500Y-78600000D03*
%TO.P,J1,8*%
X136392500Y-81140000D03*
%TD*%
D12*
%TO.P,D2,1,K*%
%TO.N,Net-(D1-K)*%
X129000000Y-94775000D03*
D13*
%TO.P,D2,2,A*%
%TO.N,Net-(D2-A)*%
X129000000Y-92235000D03*
%TD*%
D12*
%TO.P,D1,1,K*%
%TO.N,Net-(D1-K)*%
X129000000Y-72225000D03*
D13*
%TO.P,D1,2,A*%
%TO.N,Net-(D1-A)*%
X129000000Y-74765000D03*
%TD*%
D18*
%TO.N,Net-(J2-Pin_1)*%
X142460000Y-87460000D02*
X141472500Y-86472500D01*
X141472500Y-86472500D02*
X141472500Y-81140000D01*
X145000000Y-87460000D02*
X142460000Y-87460000D01*
%TO.N,Net-(J2-Pin_2)*%
X144960000Y-90040000D02*
X145000000Y-90000000D01*
X138000000Y-90040000D02*
X144960000Y-90040000D01*
%TO.N,Net-(D3-A)*%
X154500000Y-90235000D02*
X153000000Y-91735000D01*
X154500000Y-88000000D02*
X154500000Y-90235000D01*
%TO.N,Net-(D4-A)*%
X153000000Y-75920000D02*
X151000000Y-77920000D01*
X153000000Y-74540000D02*
X153000000Y-75920000D01*
%TO.N,Net-(D1-A)*%
X131000000Y-76765000D02*
X129000000Y-74765000D01*
X131000000Y-78920000D02*
X131000000Y-76765000D01*
%TO.N,Net-(D2-A)*%
X129000000Y-92235000D02*
X129000000Y-90580000D01*
X129000000Y-90580000D02*
X127500000Y-89080000D01*
%TO.N,Net-(D1-K)*%
X151265000Y-92540000D02*
X153000000Y-94275000D01*
X145000000Y-92540000D02*
X151265000Y-92540000D01*
X144960000Y-92580000D02*
X145000000Y-92540000D01*
X138000000Y-92580000D02*
X144960000Y-92580000D01*
X135805000Y-94775000D02*
X138000000Y-92580000D01*
X129000000Y-94775000D02*
X135805000Y-94775000D01*
X136392500Y-90972500D02*
X138000000Y-92580000D01*
X136392500Y-81140000D02*
X136392500Y-90972500D01*
X137662500Y-78600000D02*
X137662500Y-79870000D01*
X137662500Y-79870000D02*
X136392500Y-81140000D01*
X149500000Y-72000000D02*
X153000000Y-72000000D01*
X149500000Y-72272348D02*
X149500000Y-72000000D01*
X147422348Y-74350000D02*
X149500000Y-72272348D01*
X141912500Y-74350000D02*
X147422348Y-74350000D01*
X137662500Y-78600000D02*
X141912500Y-74350000D01*
X131287500Y-72225000D02*
X137662500Y-78600000D01*
X129000000Y-72225000D02*
X131287500Y-72225000D01*
%TD*%
M02*
