%TF.GenerationSoftware,KiCad,Pcbnew,7.0.9*%
%TF.CreationDate,2023-12-13T17:14:32-05:00*%
%TF.ProjectId,Light Pcb,4c696768-7420-4506-9362-2e6b69636164,rev?*%
%TF.SameCoordinates,Original*%
%TF.FileFunction,Drillmap*%
%TF.FilePolarity,Positive*%
%FSLAX45Y45*%
G04 Gerber Fmt 4.5, Leading zero omitted, Abs format (unit mm)*
G04 Created by KiCad (PCBNEW 7.0.9) date 2023-12-13 17:14:32*
%MOMM*%
%LPD*%
G01*
G04 APERTURE LIST*
%ADD10C,0.100000*%
%ADD11C,0.200000*%
G04 APERTURE END LIST*
D10*
X11129000Y-8996000D02*
G75*
G03*
X11129000Y-8996000I-127000J0D01*
G01*
X11030000Y-5210000D02*
G75*
G03*
X11030000Y-5210000I-127000J0D01*
G01*
X9596000Y-5204000D02*
G75*
G03*
X9596000Y-5204000I-127000J0D01*
G01*
X8890000Y-4699000D02*
X11430000Y-4699000D01*
X11430000Y-9796000D01*
X8890000Y-9796000D01*
X8890000Y-4699000D01*
D11*
D10*
X9987000Y-8536750D02*
X10063000Y-8612750D01*
X10063000Y-8536750D02*
X9987000Y-8612750D01*
X9987000Y-8790750D02*
X10063000Y-8866750D01*
X10063000Y-8790750D02*
X9987000Y-8866750D01*
X9987000Y-9044750D02*
X10063000Y-9120750D01*
X10063000Y-9044750D02*
X9987000Y-9120750D01*
X9987000Y-9298750D02*
X10063000Y-9374750D01*
X10063000Y-9298750D02*
X9987000Y-9374750D01*
X10241000Y-8663750D02*
X10317000Y-8739750D01*
X10317000Y-8663750D02*
X10241000Y-8739750D01*
X10241000Y-8917750D02*
X10317000Y-8993750D01*
X10317000Y-8917750D02*
X10241000Y-8993750D01*
X10241000Y-9171750D02*
X10317000Y-9247750D01*
X10317000Y-9171750D02*
X10241000Y-9247750D01*
X10241000Y-9425750D02*
X10317000Y-9501750D01*
X10317000Y-9425750D02*
X10241000Y-9501750D01*
X9842000Y-5673000D02*
G75*
G03*
X9842000Y-5673000I-40000J0D01*
G01*
X9890000Y-6019000D02*
G75*
G03*
X9890000Y-6019000I-40000J0D01*
G01*
X9890000Y-6781000D02*
G75*
G03*
X9890000Y-6781000I-40000J0D01*
G01*
X9890000Y-7219000D02*
G75*
G03*
X9890000Y-7219000I-40000J0D01*
G01*
X9890000Y-7981000D02*
G75*
G03*
X9890000Y-7981000I-40000J0D01*
G01*
X10490000Y-6019000D02*
G75*
G03*
X10490000Y-6019000I-40000J0D01*
G01*
X10490000Y-6781000D02*
G75*
G03*
X10490000Y-6781000I-40000J0D01*
G01*
X10490000Y-7219000D02*
G75*
G03*
X10490000Y-7219000I-40000J0D01*
G01*
X10490000Y-7981000D02*
G75*
G03*
X10490000Y-7981000I-40000J0D01*
G01*
X10604000Y-5673000D02*
G75*
G03*
X10604000Y-5673000I-40000J0D01*
G01*
X9122500Y-7705000D02*
X9122500Y-7795000D01*
X9077500Y-7750000D02*
X9167500Y-7750000D01*
X9146000Y-6205000D02*
X9146000Y-6295000D01*
X9101000Y-6250000D02*
X9191000Y-6250000D01*
X9376500Y-7705000D02*
X9376500Y-7795000D01*
X9331500Y-7750000D02*
X9421500Y-7750000D01*
X9400000Y-6205000D02*
X9400000Y-6295000D01*
X9355000Y-6250000D02*
X9445000Y-6250000D01*
X10160000Y-4908000D02*
X10160000Y-4998000D01*
X10115000Y-4953000D02*
X10205000Y-4953000D01*
X10160000Y-5162000D02*
X10160000Y-5252000D01*
X10115000Y-5207000D02*
X10205000Y-5207000D01*
X10946000Y-6205000D02*
X10946000Y-6295000D01*
X10901000Y-6250000D02*
X10991000Y-6250000D01*
X10946000Y-7705000D02*
X10946000Y-7795000D01*
X10901000Y-7750000D02*
X10991000Y-7750000D01*
X11200000Y-6205000D02*
X11200000Y-6295000D01*
X11155000Y-6250000D02*
X11245000Y-6250000D01*
X11200000Y-7705000D02*
X11200000Y-7795000D01*
X11155000Y-7750000D02*
X11245000Y-7750000D01*
D11*
X9145777Y-10112484D02*
X9145777Y-9912484D01*
X9145777Y-9912484D02*
X9193396Y-9912484D01*
X9193396Y-9912484D02*
X9221967Y-9922008D01*
X9221967Y-9922008D02*
X9241015Y-9941055D01*
X9241015Y-9941055D02*
X9250539Y-9960103D01*
X9250539Y-9960103D02*
X9260063Y-9998198D01*
X9260063Y-9998198D02*
X9260063Y-10026770D01*
X9260063Y-10026770D02*
X9250539Y-10064865D01*
X9250539Y-10064865D02*
X9241015Y-10083912D01*
X9241015Y-10083912D02*
X9221967Y-10102960D01*
X9221967Y-10102960D02*
X9193396Y-10112484D01*
X9193396Y-10112484D02*
X9145777Y-10112484D01*
X9345777Y-10112484D02*
X9345777Y-9979150D01*
X9345777Y-10017246D02*
X9355301Y-9998198D01*
X9355301Y-9998198D02*
X9364824Y-9988674D01*
X9364824Y-9988674D02*
X9383872Y-9979150D01*
X9383872Y-9979150D02*
X9402920Y-9979150D01*
X9469586Y-10112484D02*
X9469586Y-9979150D01*
X9469586Y-9912484D02*
X9460063Y-9922008D01*
X9460063Y-9922008D02*
X9469586Y-9931531D01*
X9469586Y-9931531D02*
X9479110Y-9922008D01*
X9479110Y-9922008D02*
X9469586Y-9912484D01*
X9469586Y-9912484D02*
X9469586Y-9931531D01*
X9593396Y-10112484D02*
X9574348Y-10102960D01*
X9574348Y-10102960D02*
X9564824Y-10083912D01*
X9564824Y-10083912D02*
X9564824Y-9912484D01*
X9698158Y-10112484D02*
X9679110Y-10102960D01*
X9679110Y-10102960D02*
X9669586Y-10083912D01*
X9669586Y-10083912D02*
X9669586Y-9912484D01*
X9926729Y-10112484D02*
X9926729Y-9912484D01*
X9926729Y-9912484D02*
X9993396Y-10055341D01*
X9993396Y-10055341D02*
X10060063Y-9912484D01*
X10060063Y-9912484D02*
X10060063Y-10112484D01*
X10241015Y-10112484D02*
X10241015Y-10007722D01*
X10241015Y-10007722D02*
X10231491Y-9988674D01*
X10231491Y-9988674D02*
X10212444Y-9979150D01*
X10212444Y-9979150D02*
X10174348Y-9979150D01*
X10174348Y-9979150D02*
X10155301Y-9988674D01*
X10241015Y-10102960D02*
X10221967Y-10112484D01*
X10221967Y-10112484D02*
X10174348Y-10112484D01*
X10174348Y-10112484D02*
X10155301Y-10102960D01*
X10155301Y-10102960D02*
X10145777Y-10083912D01*
X10145777Y-10083912D02*
X10145777Y-10064865D01*
X10145777Y-10064865D02*
X10155301Y-10045817D01*
X10155301Y-10045817D02*
X10174348Y-10036293D01*
X10174348Y-10036293D02*
X10221967Y-10036293D01*
X10221967Y-10036293D02*
X10241015Y-10026770D01*
X10336253Y-9979150D02*
X10336253Y-10179150D01*
X10336253Y-9988674D02*
X10355301Y-9979150D01*
X10355301Y-9979150D02*
X10393396Y-9979150D01*
X10393396Y-9979150D02*
X10412444Y-9988674D01*
X10412444Y-9988674D02*
X10421967Y-9998198D01*
X10421967Y-9998198D02*
X10431491Y-10017246D01*
X10431491Y-10017246D02*
X10431491Y-10074389D01*
X10431491Y-10074389D02*
X10421967Y-10093436D01*
X10421967Y-10093436D02*
X10412444Y-10102960D01*
X10412444Y-10102960D02*
X10393396Y-10112484D01*
X10393396Y-10112484D02*
X10355301Y-10112484D01*
X10355301Y-10112484D02*
X10336253Y-10102960D01*
X10517205Y-10093436D02*
X10526729Y-10102960D01*
X10526729Y-10102960D02*
X10517205Y-10112484D01*
X10517205Y-10112484D02*
X10507682Y-10102960D01*
X10507682Y-10102960D02*
X10517205Y-10093436D01*
X10517205Y-10093436D02*
X10517205Y-10112484D01*
X10517205Y-9988674D02*
X10526729Y-9998198D01*
X10526729Y-9998198D02*
X10517205Y-10007722D01*
X10517205Y-10007722D02*
X10507682Y-9998198D01*
X10507682Y-9998198D02*
X10517205Y-9988674D01*
X10517205Y-9988674D02*
X10517205Y-10007722D01*
D10*
X8809000Y-10403000D02*
X8885000Y-10479000D01*
X8885000Y-10403000D02*
X8809000Y-10479000D01*
D11*
X9183872Y-10332484D02*
X9202920Y-10332484D01*
X9202920Y-10332484D02*
X9221967Y-10342008D01*
X9221967Y-10342008D02*
X9231491Y-10351531D01*
X9231491Y-10351531D02*
X9241015Y-10370579D01*
X9241015Y-10370579D02*
X9250539Y-10408674D01*
X9250539Y-10408674D02*
X9250539Y-10456293D01*
X9250539Y-10456293D02*
X9241015Y-10494389D01*
X9241015Y-10494389D02*
X9231491Y-10513436D01*
X9231491Y-10513436D02*
X9221967Y-10522960D01*
X9221967Y-10522960D02*
X9202920Y-10532484D01*
X9202920Y-10532484D02*
X9183872Y-10532484D01*
X9183872Y-10532484D02*
X9164824Y-10522960D01*
X9164824Y-10522960D02*
X9155301Y-10513436D01*
X9155301Y-10513436D02*
X9145777Y-10494389D01*
X9145777Y-10494389D02*
X9136253Y-10456293D01*
X9136253Y-10456293D02*
X9136253Y-10408674D01*
X9136253Y-10408674D02*
X9145777Y-10370579D01*
X9145777Y-10370579D02*
X9155301Y-10351531D01*
X9155301Y-10351531D02*
X9164824Y-10342008D01*
X9164824Y-10342008D02*
X9183872Y-10332484D01*
X9336253Y-10513436D02*
X9345777Y-10522960D01*
X9345777Y-10522960D02*
X9336253Y-10532484D01*
X9336253Y-10532484D02*
X9326729Y-10522960D01*
X9326729Y-10522960D02*
X9336253Y-10513436D01*
X9336253Y-10513436D02*
X9336253Y-10532484D01*
X9412444Y-10332484D02*
X9545777Y-10332484D01*
X9545777Y-10332484D02*
X9460063Y-10532484D01*
X9707682Y-10332484D02*
X9669586Y-10332484D01*
X9669586Y-10332484D02*
X9650539Y-10342008D01*
X9650539Y-10342008D02*
X9641015Y-10351531D01*
X9641015Y-10351531D02*
X9621967Y-10380103D01*
X9621967Y-10380103D02*
X9612444Y-10418198D01*
X9612444Y-10418198D02*
X9612444Y-10494389D01*
X9612444Y-10494389D02*
X9621967Y-10513436D01*
X9621967Y-10513436D02*
X9631491Y-10522960D01*
X9631491Y-10522960D02*
X9650539Y-10532484D01*
X9650539Y-10532484D02*
X9688634Y-10532484D01*
X9688634Y-10532484D02*
X9707682Y-10522960D01*
X9707682Y-10522960D02*
X9717205Y-10513436D01*
X9717205Y-10513436D02*
X9726729Y-10494389D01*
X9726729Y-10494389D02*
X9726729Y-10446770D01*
X9726729Y-10446770D02*
X9717205Y-10427722D01*
X9717205Y-10427722D02*
X9707682Y-10418198D01*
X9707682Y-10418198D02*
X9688634Y-10408674D01*
X9688634Y-10408674D02*
X9650539Y-10408674D01*
X9650539Y-10408674D02*
X9631491Y-10418198D01*
X9631491Y-10418198D02*
X9621967Y-10427722D01*
X9621967Y-10427722D02*
X9612444Y-10446770D01*
X9850539Y-10332484D02*
X9869586Y-10332484D01*
X9869586Y-10332484D02*
X9888634Y-10342008D01*
X9888634Y-10342008D02*
X9898158Y-10351531D01*
X9898158Y-10351531D02*
X9907682Y-10370579D01*
X9907682Y-10370579D02*
X9917205Y-10408674D01*
X9917205Y-10408674D02*
X9917205Y-10456293D01*
X9917205Y-10456293D02*
X9907682Y-10494389D01*
X9907682Y-10494389D02*
X9898158Y-10513436D01*
X9898158Y-10513436D02*
X9888634Y-10522960D01*
X9888634Y-10522960D02*
X9869586Y-10532484D01*
X9869586Y-10532484D02*
X9850539Y-10532484D01*
X9850539Y-10532484D02*
X9831491Y-10522960D01*
X9831491Y-10522960D02*
X9821967Y-10513436D01*
X9821967Y-10513436D02*
X9812444Y-10494389D01*
X9812444Y-10494389D02*
X9802920Y-10456293D01*
X9802920Y-10456293D02*
X9802920Y-10408674D01*
X9802920Y-10408674D02*
X9812444Y-10370579D01*
X9812444Y-10370579D02*
X9821967Y-10351531D01*
X9821967Y-10351531D02*
X9831491Y-10342008D01*
X9831491Y-10342008D02*
X9850539Y-10332484D01*
X10002920Y-10532484D02*
X10002920Y-10399150D01*
X10002920Y-10418198D02*
X10012444Y-10408674D01*
X10012444Y-10408674D02*
X10031491Y-10399150D01*
X10031491Y-10399150D02*
X10060063Y-10399150D01*
X10060063Y-10399150D02*
X10079110Y-10408674D01*
X10079110Y-10408674D02*
X10088634Y-10427722D01*
X10088634Y-10427722D02*
X10088634Y-10532484D01*
X10088634Y-10427722D02*
X10098158Y-10408674D01*
X10098158Y-10408674D02*
X10117205Y-10399150D01*
X10117205Y-10399150D02*
X10145777Y-10399150D01*
X10145777Y-10399150D02*
X10164825Y-10408674D01*
X10164825Y-10408674D02*
X10174348Y-10427722D01*
X10174348Y-10427722D02*
X10174348Y-10532484D01*
X10269586Y-10532484D02*
X10269586Y-10399150D01*
X10269586Y-10418198D02*
X10279110Y-10408674D01*
X10279110Y-10408674D02*
X10298158Y-10399150D01*
X10298158Y-10399150D02*
X10326729Y-10399150D01*
X10326729Y-10399150D02*
X10345777Y-10408674D01*
X10345777Y-10408674D02*
X10355301Y-10427722D01*
X10355301Y-10427722D02*
X10355301Y-10532484D01*
X10355301Y-10427722D02*
X10364825Y-10408674D01*
X10364825Y-10408674D02*
X10383872Y-10399150D01*
X10383872Y-10399150D02*
X10412444Y-10399150D01*
X10412444Y-10399150D02*
X10431491Y-10408674D01*
X10431491Y-10408674D02*
X10441015Y-10427722D01*
X10441015Y-10427722D02*
X10441015Y-10532484D01*
X10831491Y-10322960D02*
X10660063Y-10580103D01*
X11088634Y-10332484D02*
X11107682Y-10332484D01*
X11107682Y-10332484D02*
X11126729Y-10342008D01*
X11126729Y-10342008D02*
X11136253Y-10351531D01*
X11136253Y-10351531D02*
X11145777Y-10370579D01*
X11145777Y-10370579D02*
X11155301Y-10408674D01*
X11155301Y-10408674D02*
X11155301Y-10456293D01*
X11155301Y-10456293D02*
X11145777Y-10494389D01*
X11145777Y-10494389D02*
X11136253Y-10513436D01*
X11136253Y-10513436D02*
X11126729Y-10522960D01*
X11126729Y-10522960D02*
X11107682Y-10532484D01*
X11107682Y-10532484D02*
X11088634Y-10532484D01*
X11088634Y-10532484D02*
X11069587Y-10522960D01*
X11069587Y-10522960D02*
X11060063Y-10513436D01*
X11060063Y-10513436D02*
X11050539Y-10494389D01*
X11050539Y-10494389D02*
X11041015Y-10456293D01*
X11041015Y-10456293D02*
X11041015Y-10408674D01*
X11041015Y-10408674D02*
X11050539Y-10370579D01*
X11050539Y-10370579D02*
X11060063Y-10351531D01*
X11060063Y-10351531D02*
X11069587Y-10342008D01*
X11069587Y-10342008D02*
X11088634Y-10332484D01*
X11241015Y-10513436D02*
X11250539Y-10522960D01*
X11250539Y-10522960D02*
X11241015Y-10532484D01*
X11241015Y-10532484D02*
X11231491Y-10522960D01*
X11231491Y-10522960D02*
X11241015Y-10513436D01*
X11241015Y-10513436D02*
X11241015Y-10532484D01*
X11374348Y-10332484D02*
X11393396Y-10332484D01*
X11393396Y-10332484D02*
X11412444Y-10342008D01*
X11412444Y-10342008D02*
X11421967Y-10351531D01*
X11421967Y-10351531D02*
X11431491Y-10370579D01*
X11431491Y-10370579D02*
X11441015Y-10408674D01*
X11441015Y-10408674D02*
X11441015Y-10456293D01*
X11441015Y-10456293D02*
X11431491Y-10494389D01*
X11431491Y-10494389D02*
X11421967Y-10513436D01*
X11421967Y-10513436D02*
X11412444Y-10522960D01*
X11412444Y-10522960D02*
X11393396Y-10532484D01*
X11393396Y-10532484D02*
X11374348Y-10532484D01*
X11374348Y-10532484D02*
X11355301Y-10522960D01*
X11355301Y-10522960D02*
X11345777Y-10513436D01*
X11345777Y-10513436D02*
X11336253Y-10494389D01*
X11336253Y-10494389D02*
X11326729Y-10456293D01*
X11326729Y-10456293D02*
X11326729Y-10408674D01*
X11326729Y-10408674D02*
X11336253Y-10370579D01*
X11336253Y-10370579D02*
X11345777Y-10351531D01*
X11345777Y-10351531D02*
X11355301Y-10342008D01*
X11355301Y-10342008D02*
X11374348Y-10332484D01*
X11517206Y-10351531D02*
X11526729Y-10342008D01*
X11526729Y-10342008D02*
X11545777Y-10332484D01*
X11545777Y-10332484D02*
X11593396Y-10332484D01*
X11593396Y-10332484D02*
X11612444Y-10342008D01*
X11612444Y-10342008D02*
X11621967Y-10351531D01*
X11621967Y-10351531D02*
X11631491Y-10370579D01*
X11631491Y-10370579D02*
X11631491Y-10389627D01*
X11631491Y-10389627D02*
X11621967Y-10418198D01*
X11621967Y-10418198D02*
X11507682Y-10532484D01*
X11507682Y-10532484D02*
X11631491Y-10532484D01*
X11726729Y-10532484D02*
X11764825Y-10532484D01*
X11764825Y-10532484D02*
X11783872Y-10522960D01*
X11783872Y-10522960D02*
X11793396Y-10513436D01*
X11793396Y-10513436D02*
X11812444Y-10484865D01*
X11812444Y-10484865D02*
X11821967Y-10446770D01*
X11821967Y-10446770D02*
X11821967Y-10370579D01*
X11821967Y-10370579D02*
X11812444Y-10351531D01*
X11812444Y-10351531D02*
X11802920Y-10342008D01*
X11802920Y-10342008D02*
X11783872Y-10332484D01*
X11783872Y-10332484D02*
X11745777Y-10332484D01*
X11745777Y-10332484D02*
X11726729Y-10342008D01*
X11726729Y-10342008D02*
X11717206Y-10351531D01*
X11717206Y-10351531D02*
X11707682Y-10370579D01*
X11707682Y-10370579D02*
X11707682Y-10418198D01*
X11707682Y-10418198D02*
X11717206Y-10437246D01*
X11717206Y-10437246D02*
X11726729Y-10446770D01*
X11726729Y-10446770D02*
X11745777Y-10456293D01*
X11745777Y-10456293D02*
X11783872Y-10456293D01*
X11783872Y-10456293D02*
X11802920Y-10446770D01*
X11802920Y-10446770D02*
X11812444Y-10437246D01*
X11812444Y-10437246D02*
X11821967Y-10418198D01*
X11917206Y-10532484D02*
X11955301Y-10532484D01*
X11955301Y-10532484D02*
X11974348Y-10522960D01*
X11974348Y-10522960D02*
X11983872Y-10513436D01*
X11983872Y-10513436D02*
X12002920Y-10484865D01*
X12002920Y-10484865D02*
X12012444Y-10446770D01*
X12012444Y-10446770D02*
X12012444Y-10370579D01*
X12012444Y-10370579D02*
X12002920Y-10351531D01*
X12002920Y-10351531D02*
X11993396Y-10342008D01*
X11993396Y-10342008D02*
X11974348Y-10332484D01*
X11974348Y-10332484D02*
X11936253Y-10332484D01*
X11936253Y-10332484D02*
X11917206Y-10342008D01*
X11917206Y-10342008D02*
X11907682Y-10351531D01*
X11907682Y-10351531D02*
X11898158Y-10370579D01*
X11898158Y-10370579D02*
X11898158Y-10418198D01*
X11898158Y-10418198D02*
X11907682Y-10437246D01*
X11907682Y-10437246D02*
X11917206Y-10446770D01*
X11917206Y-10446770D02*
X11936253Y-10456293D01*
X11936253Y-10456293D02*
X11974348Y-10456293D01*
X11974348Y-10456293D02*
X11993396Y-10446770D01*
X11993396Y-10446770D02*
X12002920Y-10437246D01*
X12002920Y-10437246D02*
X12012444Y-10418198D01*
X12088634Y-10332484D02*
X12088634Y-10370579D01*
X12164825Y-10332484D02*
X12164825Y-10370579D01*
X12460063Y-10608674D02*
X12450539Y-10599150D01*
X12450539Y-10599150D02*
X12431491Y-10570579D01*
X12431491Y-10570579D02*
X12421968Y-10551531D01*
X12421968Y-10551531D02*
X12412444Y-10522960D01*
X12412444Y-10522960D02*
X12402920Y-10475341D01*
X12402920Y-10475341D02*
X12402920Y-10437246D01*
X12402920Y-10437246D02*
X12412444Y-10389627D01*
X12412444Y-10389627D02*
X12421968Y-10361055D01*
X12421968Y-10361055D02*
X12431491Y-10342008D01*
X12431491Y-10342008D02*
X12450539Y-10313436D01*
X12450539Y-10313436D02*
X12460063Y-10303912D01*
X12564825Y-10418198D02*
X12545777Y-10408674D01*
X12545777Y-10408674D02*
X12536253Y-10399150D01*
X12536253Y-10399150D02*
X12526729Y-10380103D01*
X12526729Y-10380103D02*
X12526729Y-10370579D01*
X12526729Y-10370579D02*
X12536253Y-10351531D01*
X12536253Y-10351531D02*
X12545777Y-10342008D01*
X12545777Y-10342008D02*
X12564825Y-10332484D01*
X12564825Y-10332484D02*
X12602920Y-10332484D01*
X12602920Y-10332484D02*
X12621968Y-10342008D01*
X12621968Y-10342008D02*
X12631491Y-10351531D01*
X12631491Y-10351531D02*
X12641015Y-10370579D01*
X12641015Y-10370579D02*
X12641015Y-10380103D01*
X12641015Y-10380103D02*
X12631491Y-10399150D01*
X12631491Y-10399150D02*
X12621968Y-10408674D01*
X12621968Y-10408674D02*
X12602920Y-10418198D01*
X12602920Y-10418198D02*
X12564825Y-10418198D01*
X12564825Y-10418198D02*
X12545777Y-10427722D01*
X12545777Y-10427722D02*
X12536253Y-10437246D01*
X12536253Y-10437246D02*
X12526729Y-10456293D01*
X12526729Y-10456293D02*
X12526729Y-10494389D01*
X12526729Y-10494389D02*
X12536253Y-10513436D01*
X12536253Y-10513436D02*
X12545777Y-10522960D01*
X12545777Y-10522960D02*
X12564825Y-10532484D01*
X12564825Y-10532484D02*
X12602920Y-10532484D01*
X12602920Y-10532484D02*
X12621968Y-10522960D01*
X12621968Y-10522960D02*
X12631491Y-10513436D01*
X12631491Y-10513436D02*
X12641015Y-10494389D01*
X12641015Y-10494389D02*
X12641015Y-10456293D01*
X12641015Y-10456293D02*
X12631491Y-10437246D01*
X12631491Y-10437246D02*
X12621968Y-10427722D01*
X12621968Y-10427722D02*
X12602920Y-10418198D01*
X12879110Y-10532484D02*
X12879110Y-10332484D01*
X12964825Y-10532484D02*
X12964825Y-10427722D01*
X12964825Y-10427722D02*
X12955301Y-10408674D01*
X12955301Y-10408674D02*
X12936253Y-10399150D01*
X12936253Y-10399150D02*
X12907682Y-10399150D01*
X12907682Y-10399150D02*
X12888634Y-10408674D01*
X12888634Y-10408674D02*
X12879110Y-10418198D01*
X13088634Y-10532484D02*
X13069587Y-10522960D01*
X13069587Y-10522960D02*
X13060063Y-10513436D01*
X13060063Y-10513436D02*
X13050539Y-10494389D01*
X13050539Y-10494389D02*
X13050539Y-10437246D01*
X13050539Y-10437246D02*
X13060063Y-10418198D01*
X13060063Y-10418198D02*
X13069587Y-10408674D01*
X13069587Y-10408674D02*
X13088634Y-10399150D01*
X13088634Y-10399150D02*
X13117206Y-10399150D01*
X13117206Y-10399150D02*
X13136253Y-10408674D01*
X13136253Y-10408674D02*
X13145777Y-10418198D01*
X13145777Y-10418198D02*
X13155301Y-10437246D01*
X13155301Y-10437246D02*
X13155301Y-10494389D01*
X13155301Y-10494389D02*
X13145777Y-10513436D01*
X13145777Y-10513436D02*
X13136253Y-10522960D01*
X13136253Y-10522960D02*
X13117206Y-10532484D01*
X13117206Y-10532484D02*
X13088634Y-10532484D01*
X13269587Y-10532484D02*
X13250539Y-10522960D01*
X13250539Y-10522960D02*
X13241015Y-10503912D01*
X13241015Y-10503912D02*
X13241015Y-10332484D01*
X13421968Y-10522960D02*
X13402920Y-10532484D01*
X13402920Y-10532484D02*
X13364825Y-10532484D01*
X13364825Y-10532484D02*
X13345777Y-10522960D01*
X13345777Y-10522960D02*
X13336253Y-10503912D01*
X13336253Y-10503912D02*
X13336253Y-10427722D01*
X13336253Y-10427722D02*
X13345777Y-10408674D01*
X13345777Y-10408674D02*
X13364825Y-10399150D01*
X13364825Y-10399150D02*
X13402920Y-10399150D01*
X13402920Y-10399150D02*
X13421968Y-10408674D01*
X13421968Y-10408674D02*
X13431491Y-10427722D01*
X13431491Y-10427722D02*
X13431491Y-10446770D01*
X13431491Y-10446770D02*
X13336253Y-10465817D01*
X13507682Y-10522960D02*
X13526730Y-10532484D01*
X13526730Y-10532484D02*
X13564825Y-10532484D01*
X13564825Y-10532484D02*
X13583872Y-10522960D01*
X13583872Y-10522960D02*
X13593396Y-10503912D01*
X13593396Y-10503912D02*
X13593396Y-10494389D01*
X13593396Y-10494389D02*
X13583872Y-10475341D01*
X13583872Y-10475341D02*
X13564825Y-10465817D01*
X13564825Y-10465817D02*
X13536253Y-10465817D01*
X13536253Y-10465817D02*
X13517206Y-10456293D01*
X13517206Y-10456293D02*
X13507682Y-10437246D01*
X13507682Y-10437246D02*
X13507682Y-10427722D01*
X13507682Y-10427722D02*
X13517206Y-10408674D01*
X13517206Y-10408674D02*
X13536253Y-10399150D01*
X13536253Y-10399150D02*
X13564825Y-10399150D01*
X13564825Y-10399150D02*
X13583872Y-10408674D01*
X13660063Y-10608674D02*
X13669587Y-10599150D01*
X13669587Y-10599150D02*
X13688634Y-10570579D01*
X13688634Y-10570579D02*
X13698158Y-10551531D01*
X13698158Y-10551531D02*
X13707682Y-10522960D01*
X13707682Y-10522960D02*
X13717206Y-10475341D01*
X13717206Y-10475341D02*
X13717206Y-10437246D01*
X13717206Y-10437246D02*
X13707682Y-10389627D01*
X13707682Y-10389627D02*
X13698158Y-10361055D01*
X13698158Y-10361055D02*
X13688634Y-10342008D01*
X13688634Y-10342008D02*
X13669587Y-10313436D01*
X13669587Y-10313436D02*
X13660063Y-10303912D01*
D10*
X8885000Y-10705000D02*
G75*
G03*
X8885000Y-10705000I-40000J0D01*
G01*
D11*
X9183872Y-10596484D02*
X9202920Y-10596484D01*
X9202920Y-10596484D02*
X9221967Y-10606008D01*
X9221967Y-10606008D02*
X9231491Y-10615531D01*
X9231491Y-10615531D02*
X9241015Y-10634579D01*
X9241015Y-10634579D02*
X9250539Y-10672674D01*
X9250539Y-10672674D02*
X9250539Y-10720293D01*
X9250539Y-10720293D02*
X9241015Y-10758389D01*
X9241015Y-10758389D02*
X9231491Y-10777436D01*
X9231491Y-10777436D02*
X9221967Y-10786960D01*
X9221967Y-10786960D02*
X9202920Y-10796484D01*
X9202920Y-10796484D02*
X9183872Y-10796484D01*
X9183872Y-10796484D02*
X9164824Y-10786960D01*
X9164824Y-10786960D02*
X9155301Y-10777436D01*
X9155301Y-10777436D02*
X9145777Y-10758389D01*
X9145777Y-10758389D02*
X9136253Y-10720293D01*
X9136253Y-10720293D02*
X9136253Y-10672674D01*
X9136253Y-10672674D02*
X9145777Y-10634579D01*
X9145777Y-10634579D02*
X9155301Y-10615531D01*
X9155301Y-10615531D02*
X9164824Y-10606008D01*
X9164824Y-10606008D02*
X9183872Y-10596484D01*
X9336253Y-10777436D02*
X9345777Y-10786960D01*
X9345777Y-10786960D02*
X9336253Y-10796484D01*
X9336253Y-10796484D02*
X9326729Y-10786960D01*
X9326729Y-10786960D02*
X9336253Y-10777436D01*
X9336253Y-10777436D02*
X9336253Y-10796484D01*
X9460063Y-10682198D02*
X9441015Y-10672674D01*
X9441015Y-10672674D02*
X9431491Y-10663150D01*
X9431491Y-10663150D02*
X9421967Y-10644103D01*
X9421967Y-10644103D02*
X9421967Y-10634579D01*
X9421967Y-10634579D02*
X9431491Y-10615531D01*
X9431491Y-10615531D02*
X9441015Y-10606008D01*
X9441015Y-10606008D02*
X9460063Y-10596484D01*
X9460063Y-10596484D02*
X9498158Y-10596484D01*
X9498158Y-10596484D02*
X9517205Y-10606008D01*
X9517205Y-10606008D02*
X9526729Y-10615531D01*
X9526729Y-10615531D02*
X9536253Y-10634579D01*
X9536253Y-10634579D02*
X9536253Y-10644103D01*
X9536253Y-10644103D02*
X9526729Y-10663150D01*
X9526729Y-10663150D02*
X9517205Y-10672674D01*
X9517205Y-10672674D02*
X9498158Y-10682198D01*
X9498158Y-10682198D02*
X9460063Y-10682198D01*
X9460063Y-10682198D02*
X9441015Y-10691722D01*
X9441015Y-10691722D02*
X9431491Y-10701246D01*
X9431491Y-10701246D02*
X9421967Y-10720293D01*
X9421967Y-10720293D02*
X9421967Y-10758389D01*
X9421967Y-10758389D02*
X9431491Y-10777436D01*
X9431491Y-10777436D02*
X9441015Y-10786960D01*
X9441015Y-10786960D02*
X9460063Y-10796484D01*
X9460063Y-10796484D02*
X9498158Y-10796484D01*
X9498158Y-10796484D02*
X9517205Y-10786960D01*
X9517205Y-10786960D02*
X9526729Y-10777436D01*
X9526729Y-10777436D02*
X9536253Y-10758389D01*
X9536253Y-10758389D02*
X9536253Y-10720293D01*
X9536253Y-10720293D02*
X9526729Y-10701246D01*
X9526729Y-10701246D02*
X9517205Y-10691722D01*
X9517205Y-10691722D02*
X9498158Y-10682198D01*
X9660063Y-10596484D02*
X9679110Y-10596484D01*
X9679110Y-10596484D02*
X9698158Y-10606008D01*
X9698158Y-10606008D02*
X9707682Y-10615531D01*
X9707682Y-10615531D02*
X9717205Y-10634579D01*
X9717205Y-10634579D02*
X9726729Y-10672674D01*
X9726729Y-10672674D02*
X9726729Y-10720293D01*
X9726729Y-10720293D02*
X9717205Y-10758389D01*
X9717205Y-10758389D02*
X9707682Y-10777436D01*
X9707682Y-10777436D02*
X9698158Y-10786960D01*
X9698158Y-10786960D02*
X9679110Y-10796484D01*
X9679110Y-10796484D02*
X9660063Y-10796484D01*
X9660063Y-10796484D02*
X9641015Y-10786960D01*
X9641015Y-10786960D02*
X9631491Y-10777436D01*
X9631491Y-10777436D02*
X9621967Y-10758389D01*
X9621967Y-10758389D02*
X9612444Y-10720293D01*
X9612444Y-10720293D02*
X9612444Y-10672674D01*
X9612444Y-10672674D02*
X9621967Y-10634579D01*
X9621967Y-10634579D02*
X9631491Y-10615531D01*
X9631491Y-10615531D02*
X9641015Y-10606008D01*
X9641015Y-10606008D02*
X9660063Y-10596484D01*
X9850539Y-10596484D02*
X9869586Y-10596484D01*
X9869586Y-10596484D02*
X9888634Y-10606008D01*
X9888634Y-10606008D02*
X9898158Y-10615531D01*
X9898158Y-10615531D02*
X9907682Y-10634579D01*
X9907682Y-10634579D02*
X9917205Y-10672674D01*
X9917205Y-10672674D02*
X9917205Y-10720293D01*
X9917205Y-10720293D02*
X9907682Y-10758389D01*
X9907682Y-10758389D02*
X9898158Y-10777436D01*
X9898158Y-10777436D02*
X9888634Y-10786960D01*
X9888634Y-10786960D02*
X9869586Y-10796484D01*
X9869586Y-10796484D02*
X9850539Y-10796484D01*
X9850539Y-10796484D02*
X9831491Y-10786960D01*
X9831491Y-10786960D02*
X9821967Y-10777436D01*
X9821967Y-10777436D02*
X9812444Y-10758389D01*
X9812444Y-10758389D02*
X9802920Y-10720293D01*
X9802920Y-10720293D02*
X9802920Y-10672674D01*
X9802920Y-10672674D02*
X9812444Y-10634579D01*
X9812444Y-10634579D02*
X9821967Y-10615531D01*
X9821967Y-10615531D02*
X9831491Y-10606008D01*
X9831491Y-10606008D02*
X9850539Y-10596484D01*
X10002920Y-10796484D02*
X10002920Y-10663150D01*
X10002920Y-10682198D02*
X10012444Y-10672674D01*
X10012444Y-10672674D02*
X10031491Y-10663150D01*
X10031491Y-10663150D02*
X10060063Y-10663150D01*
X10060063Y-10663150D02*
X10079110Y-10672674D01*
X10079110Y-10672674D02*
X10088634Y-10691722D01*
X10088634Y-10691722D02*
X10088634Y-10796484D01*
X10088634Y-10691722D02*
X10098158Y-10672674D01*
X10098158Y-10672674D02*
X10117205Y-10663150D01*
X10117205Y-10663150D02*
X10145777Y-10663150D01*
X10145777Y-10663150D02*
X10164825Y-10672674D01*
X10164825Y-10672674D02*
X10174348Y-10691722D01*
X10174348Y-10691722D02*
X10174348Y-10796484D01*
X10269586Y-10796484D02*
X10269586Y-10663150D01*
X10269586Y-10682198D02*
X10279110Y-10672674D01*
X10279110Y-10672674D02*
X10298158Y-10663150D01*
X10298158Y-10663150D02*
X10326729Y-10663150D01*
X10326729Y-10663150D02*
X10345777Y-10672674D01*
X10345777Y-10672674D02*
X10355301Y-10691722D01*
X10355301Y-10691722D02*
X10355301Y-10796484D01*
X10355301Y-10691722D02*
X10364825Y-10672674D01*
X10364825Y-10672674D02*
X10383872Y-10663150D01*
X10383872Y-10663150D02*
X10412444Y-10663150D01*
X10412444Y-10663150D02*
X10431491Y-10672674D01*
X10431491Y-10672674D02*
X10441015Y-10691722D01*
X10441015Y-10691722D02*
X10441015Y-10796484D01*
X10831491Y-10586960D02*
X10660063Y-10844103D01*
X11088634Y-10596484D02*
X11107682Y-10596484D01*
X11107682Y-10596484D02*
X11126729Y-10606008D01*
X11126729Y-10606008D02*
X11136253Y-10615531D01*
X11136253Y-10615531D02*
X11145777Y-10634579D01*
X11145777Y-10634579D02*
X11155301Y-10672674D01*
X11155301Y-10672674D02*
X11155301Y-10720293D01*
X11155301Y-10720293D02*
X11145777Y-10758389D01*
X11145777Y-10758389D02*
X11136253Y-10777436D01*
X11136253Y-10777436D02*
X11126729Y-10786960D01*
X11126729Y-10786960D02*
X11107682Y-10796484D01*
X11107682Y-10796484D02*
X11088634Y-10796484D01*
X11088634Y-10796484D02*
X11069587Y-10786960D01*
X11069587Y-10786960D02*
X11060063Y-10777436D01*
X11060063Y-10777436D02*
X11050539Y-10758389D01*
X11050539Y-10758389D02*
X11041015Y-10720293D01*
X11041015Y-10720293D02*
X11041015Y-10672674D01*
X11041015Y-10672674D02*
X11050539Y-10634579D01*
X11050539Y-10634579D02*
X11060063Y-10615531D01*
X11060063Y-10615531D02*
X11069587Y-10606008D01*
X11069587Y-10606008D02*
X11088634Y-10596484D01*
X11241015Y-10777436D02*
X11250539Y-10786960D01*
X11250539Y-10786960D02*
X11241015Y-10796484D01*
X11241015Y-10796484D02*
X11231491Y-10786960D01*
X11231491Y-10786960D02*
X11241015Y-10777436D01*
X11241015Y-10777436D02*
X11241015Y-10796484D01*
X11374348Y-10596484D02*
X11393396Y-10596484D01*
X11393396Y-10596484D02*
X11412444Y-10606008D01*
X11412444Y-10606008D02*
X11421967Y-10615531D01*
X11421967Y-10615531D02*
X11431491Y-10634579D01*
X11431491Y-10634579D02*
X11441015Y-10672674D01*
X11441015Y-10672674D02*
X11441015Y-10720293D01*
X11441015Y-10720293D02*
X11431491Y-10758389D01*
X11431491Y-10758389D02*
X11421967Y-10777436D01*
X11421967Y-10777436D02*
X11412444Y-10786960D01*
X11412444Y-10786960D02*
X11393396Y-10796484D01*
X11393396Y-10796484D02*
X11374348Y-10796484D01*
X11374348Y-10796484D02*
X11355301Y-10786960D01*
X11355301Y-10786960D02*
X11345777Y-10777436D01*
X11345777Y-10777436D02*
X11336253Y-10758389D01*
X11336253Y-10758389D02*
X11326729Y-10720293D01*
X11326729Y-10720293D02*
X11326729Y-10672674D01*
X11326729Y-10672674D02*
X11336253Y-10634579D01*
X11336253Y-10634579D02*
X11345777Y-10615531D01*
X11345777Y-10615531D02*
X11355301Y-10606008D01*
X11355301Y-10606008D02*
X11374348Y-10596484D01*
X11507682Y-10596484D02*
X11631491Y-10596484D01*
X11631491Y-10596484D02*
X11564825Y-10672674D01*
X11564825Y-10672674D02*
X11593396Y-10672674D01*
X11593396Y-10672674D02*
X11612444Y-10682198D01*
X11612444Y-10682198D02*
X11621967Y-10691722D01*
X11621967Y-10691722D02*
X11631491Y-10710770D01*
X11631491Y-10710770D02*
X11631491Y-10758389D01*
X11631491Y-10758389D02*
X11621967Y-10777436D01*
X11621967Y-10777436D02*
X11612444Y-10786960D01*
X11612444Y-10786960D02*
X11593396Y-10796484D01*
X11593396Y-10796484D02*
X11536253Y-10796484D01*
X11536253Y-10796484D02*
X11517206Y-10786960D01*
X11517206Y-10786960D02*
X11507682Y-10777436D01*
X11821967Y-10796484D02*
X11707682Y-10796484D01*
X11764825Y-10796484D02*
X11764825Y-10596484D01*
X11764825Y-10596484D02*
X11745777Y-10625055D01*
X11745777Y-10625055D02*
X11726729Y-10644103D01*
X11726729Y-10644103D02*
X11707682Y-10653627D01*
X12002920Y-10596484D02*
X11907682Y-10596484D01*
X11907682Y-10596484D02*
X11898158Y-10691722D01*
X11898158Y-10691722D02*
X11907682Y-10682198D01*
X11907682Y-10682198D02*
X11926729Y-10672674D01*
X11926729Y-10672674D02*
X11974348Y-10672674D01*
X11974348Y-10672674D02*
X11993396Y-10682198D01*
X11993396Y-10682198D02*
X12002920Y-10691722D01*
X12002920Y-10691722D02*
X12012444Y-10710770D01*
X12012444Y-10710770D02*
X12012444Y-10758389D01*
X12012444Y-10758389D02*
X12002920Y-10777436D01*
X12002920Y-10777436D02*
X11993396Y-10786960D01*
X11993396Y-10786960D02*
X11974348Y-10796484D01*
X11974348Y-10796484D02*
X11926729Y-10796484D01*
X11926729Y-10796484D02*
X11907682Y-10786960D01*
X11907682Y-10786960D02*
X11898158Y-10777436D01*
X12088634Y-10596484D02*
X12088634Y-10634579D01*
X12164825Y-10596484D02*
X12164825Y-10634579D01*
X12460063Y-10872674D02*
X12450539Y-10863150D01*
X12450539Y-10863150D02*
X12431491Y-10834579D01*
X12431491Y-10834579D02*
X12421968Y-10815531D01*
X12421968Y-10815531D02*
X12412444Y-10786960D01*
X12412444Y-10786960D02*
X12402920Y-10739341D01*
X12402920Y-10739341D02*
X12402920Y-10701246D01*
X12402920Y-10701246D02*
X12412444Y-10653627D01*
X12412444Y-10653627D02*
X12421968Y-10625055D01*
X12421968Y-10625055D02*
X12431491Y-10606008D01*
X12431491Y-10606008D02*
X12450539Y-10577436D01*
X12450539Y-10577436D02*
X12460063Y-10567912D01*
X12641015Y-10796484D02*
X12526729Y-10796484D01*
X12583872Y-10796484D02*
X12583872Y-10596484D01*
X12583872Y-10596484D02*
X12564825Y-10625055D01*
X12564825Y-10625055D02*
X12545777Y-10644103D01*
X12545777Y-10644103D02*
X12526729Y-10653627D01*
X12764825Y-10596484D02*
X12783872Y-10596484D01*
X12783872Y-10596484D02*
X12802920Y-10606008D01*
X12802920Y-10606008D02*
X12812444Y-10615531D01*
X12812444Y-10615531D02*
X12821968Y-10634579D01*
X12821968Y-10634579D02*
X12831491Y-10672674D01*
X12831491Y-10672674D02*
X12831491Y-10720293D01*
X12831491Y-10720293D02*
X12821968Y-10758389D01*
X12821968Y-10758389D02*
X12812444Y-10777436D01*
X12812444Y-10777436D02*
X12802920Y-10786960D01*
X12802920Y-10786960D02*
X12783872Y-10796484D01*
X12783872Y-10796484D02*
X12764825Y-10796484D01*
X12764825Y-10796484D02*
X12745777Y-10786960D01*
X12745777Y-10786960D02*
X12736253Y-10777436D01*
X12736253Y-10777436D02*
X12726729Y-10758389D01*
X12726729Y-10758389D02*
X12717206Y-10720293D01*
X12717206Y-10720293D02*
X12717206Y-10672674D01*
X12717206Y-10672674D02*
X12726729Y-10634579D01*
X12726729Y-10634579D02*
X12736253Y-10615531D01*
X12736253Y-10615531D02*
X12745777Y-10606008D01*
X12745777Y-10606008D02*
X12764825Y-10596484D01*
X13069587Y-10796484D02*
X13069587Y-10596484D01*
X13155301Y-10796484D02*
X13155301Y-10691722D01*
X13155301Y-10691722D02*
X13145777Y-10672674D01*
X13145777Y-10672674D02*
X13126730Y-10663150D01*
X13126730Y-10663150D02*
X13098158Y-10663150D01*
X13098158Y-10663150D02*
X13079110Y-10672674D01*
X13079110Y-10672674D02*
X13069587Y-10682198D01*
X13279110Y-10796484D02*
X13260063Y-10786960D01*
X13260063Y-10786960D02*
X13250539Y-10777436D01*
X13250539Y-10777436D02*
X13241015Y-10758389D01*
X13241015Y-10758389D02*
X13241015Y-10701246D01*
X13241015Y-10701246D02*
X13250539Y-10682198D01*
X13250539Y-10682198D02*
X13260063Y-10672674D01*
X13260063Y-10672674D02*
X13279110Y-10663150D01*
X13279110Y-10663150D02*
X13307682Y-10663150D01*
X13307682Y-10663150D02*
X13326730Y-10672674D01*
X13326730Y-10672674D02*
X13336253Y-10682198D01*
X13336253Y-10682198D02*
X13345777Y-10701246D01*
X13345777Y-10701246D02*
X13345777Y-10758389D01*
X13345777Y-10758389D02*
X13336253Y-10777436D01*
X13336253Y-10777436D02*
X13326730Y-10786960D01*
X13326730Y-10786960D02*
X13307682Y-10796484D01*
X13307682Y-10796484D02*
X13279110Y-10796484D01*
X13460063Y-10796484D02*
X13441015Y-10786960D01*
X13441015Y-10786960D02*
X13431491Y-10767912D01*
X13431491Y-10767912D02*
X13431491Y-10596484D01*
X13612444Y-10786960D02*
X13593396Y-10796484D01*
X13593396Y-10796484D02*
X13555301Y-10796484D01*
X13555301Y-10796484D02*
X13536253Y-10786960D01*
X13536253Y-10786960D02*
X13526730Y-10767912D01*
X13526730Y-10767912D02*
X13526730Y-10691722D01*
X13526730Y-10691722D02*
X13536253Y-10672674D01*
X13536253Y-10672674D02*
X13555301Y-10663150D01*
X13555301Y-10663150D02*
X13593396Y-10663150D01*
X13593396Y-10663150D02*
X13612444Y-10672674D01*
X13612444Y-10672674D02*
X13621968Y-10691722D01*
X13621968Y-10691722D02*
X13621968Y-10710770D01*
X13621968Y-10710770D02*
X13526730Y-10729817D01*
X13698158Y-10786960D02*
X13717206Y-10796484D01*
X13717206Y-10796484D02*
X13755301Y-10796484D01*
X13755301Y-10796484D02*
X13774349Y-10786960D01*
X13774349Y-10786960D02*
X13783872Y-10767912D01*
X13783872Y-10767912D02*
X13783872Y-10758389D01*
X13783872Y-10758389D02*
X13774349Y-10739341D01*
X13774349Y-10739341D02*
X13755301Y-10729817D01*
X13755301Y-10729817D02*
X13726730Y-10729817D01*
X13726730Y-10729817D02*
X13707682Y-10720293D01*
X13707682Y-10720293D02*
X13698158Y-10701246D01*
X13698158Y-10701246D02*
X13698158Y-10691722D01*
X13698158Y-10691722D02*
X13707682Y-10672674D01*
X13707682Y-10672674D02*
X13726730Y-10663150D01*
X13726730Y-10663150D02*
X13755301Y-10663150D01*
X13755301Y-10663150D02*
X13774349Y-10672674D01*
X13850539Y-10872674D02*
X13860063Y-10863150D01*
X13860063Y-10863150D02*
X13879111Y-10834579D01*
X13879111Y-10834579D02*
X13888634Y-10815531D01*
X13888634Y-10815531D02*
X13898158Y-10786960D01*
X13898158Y-10786960D02*
X13907682Y-10739341D01*
X13907682Y-10739341D02*
X13907682Y-10701246D01*
X13907682Y-10701246D02*
X13898158Y-10653627D01*
X13898158Y-10653627D02*
X13888634Y-10625055D01*
X13888634Y-10625055D02*
X13879111Y-10606008D01*
X13879111Y-10606008D02*
X13860063Y-10577436D01*
X13860063Y-10577436D02*
X13850539Y-10567912D01*
D10*
X8840000Y-10924000D02*
X8840000Y-11014000D01*
X8795000Y-10969000D02*
X8885000Y-10969000D01*
D11*
X9183872Y-10860484D02*
X9202920Y-10860484D01*
X9202920Y-10860484D02*
X9221967Y-10870008D01*
X9221967Y-10870008D02*
X9231491Y-10879531D01*
X9231491Y-10879531D02*
X9241015Y-10898579D01*
X9241015Y-10898579D02*
X9250539Y-10936674D01*
X9250539Y-10936674D02*
X9250539Y-10984293D01*
X9250539Y-10984293D02*
X9241015Y-11022389D01*
X9241015Y-11022389D02*
X9231491Y-11041436D01*
X9231491Y-11041436D02*
X9221967Y-11050960D01*
X9221967Y-11050960D02*
X9202920Y-11060484D01*
X9202920Y-11060484D02*
X9183872Y-11060484D01*
X9183872Y-11060484D02*
X9164824Y-11050960D01*
X9164824Y-11050960D02*
X9155301Y-11041436D01*
X9155301Y-11041436D02*
X9145777Y-11022389D01*
X9145777Y-11022389D02*
X9136253Y-10984293D01*
X9136253Y-10984293D02*
X9136253Y-10936674D01*
X9136253Y-10936674D02*
X9145777Y-10898579D01*
X9145777Y-10898579D02*
X9155301Y-10879531D01*
X9155301Y-10879531D02*
X9164824Y-10870008D01*
X9164824Y-10870008D02*
X9183872Y-10860484D01*
X9336253Y-11041436D02*
X9345777Y-11050960D01*
X9345777Y-11050960D02*
X9336253Y-11060484D01*
X9336253Y-11060484D02*
X9326729Y-11050960D01*
X9326729Y-11050960D02*
X9336253Y-11041436D01*
X9336253Y-11041436D02*
X9336253Y-11060484D01*
X9441015Y-11060484D02*
X9479110Y-11060484D01*
X9479110Y-11060484D02*
X9498158Y-11050960D01*
X9498158Y-11050960D02*
X9507682Y-11041436D01*
X9507682Y-11041436D02*
X9526729Y-11012865D01*
X9526729Y-11012865D02*
X9536253Y-10974770D01*
X9536253Y-10974770D02*
X9536253Y-10898579D01*
X9536253Y-10898579D02*
X9526729Y-10879531D01*
X9526729Y-10879531D02*
X9517205Y-10870008D01*
X9517205Y-10870008D02*
X9498158Y-10860484D01*
X9498158Y-10860484D02*
X9460063Y-10860484D01*
X9460063Y-10860484D02*
X9441015Y-10870008D01*
X9441015Y-10870008D02*
X9431491Y-10879531D01*
X9431491Y-10879531D02*
X9421967Y-10898579D01*
X9421967Y-10898579D02*
X9421967Y-10946198D01*
X9421967Y-10946198D02*
X9431491Y-10965246D01*
X9431491Y-10965246D02*
X9441015Y-10974770D01*
X9441015Y-10974770D02*
X9460063Y-10984293D01*
X9460063Y-10984293D02*
X9498158Y-10984293D01*
X9498158Y-10984293D02*
X9517205Y-10974770D01*
X9517205Y-10974770D02*
X9526729Y-10965246D01*
X9526729Y-10965246D02*
X9536253Y-10946198D01*
X9660063Y-10860484D02*
X9679110Y-10860484D01*
X9679110Y-10860484D02*
X9698158Y-10870008D01*
X9698158Y-10870008D02*
X9707682Y-10879531D01*
X9707682Y-10879531D02*
X9717205Y-10898579D01*
X9717205Y-10898579D02*
X9726729Y-10936674D01*
X9726729Y-10936674D02*
X9726729Y-10984293D01*
X9726729Y-10984293D02*
X9717205Y-11022389D01*
X9717205Y-11022389D02*
X9707682Y-11041436D01*
X9707682Y-11041436D02*
X9698158Y-11050960D01*
X9698158Y-11050960D02*
X9679110Y-11060484D01*
X9679110Y-11060484D02*
X9660063Y-11060484D01*
X9660063Y-11060484D02*
X9641015Y-11050960D01*
X9641015Y-11050960D02*
X9631491Y-11041436D01*
X9631491Y-11041436D02*
X9621967Y-11022389D01*
X9621967Y-11022389D02*
X9612444Y-10984293D01*
X9612444Y-10984293D02*
X9612444Y-10936674D01*
X9612444Y-10936674D02*
X9621967Y-10898579D01*
X9621967Y-10898579D02*
X9631491Y-10879531D01*
X9631491Y-10879531D02*
X9641015Y-10870008D01*
X9641015Y-10870008D02*
X9660063Y-10860484D01*
X9850539Y-10860484D02*
X9869586Y-10860484D01*
X9869586Y-10860484D02*
X9888634Y-10870008D01*
X9888634Y-10870008D02*
X9898158Y-10879531D01*
X9898158Y-10879531D02*
X9907682Y-10898579D01*
X9907682Y-10898579D02*
X9917205Y-10936674D01*
X9917205Y-10936674D02*
X9917205Y-10984293D01*
X9917205Y-10984293D02*
X9907682Y-11022389D01*
X9907682Y-11022389D02*
X9898158Y-11041436D01*
X9898158Y-11041436D02*
X9888634Y-11050960D01*
X9888634Y-11050960D02*
X9869586Y-11060484D01*
X9869586Y-11060484D02*
X9850539Y-11060484D01*
X9850539Y-11060484D02*
X9831491Y-11050960D01*
X9831491Y-11050960D02*
X9821967Y-11041436D01*
X9821967Y-11041436D02*
X9812444Y-11022389D01*
X9812444Y-11022389D02*
X9802920Y-10984293D01*
X9802920Y-10984293D02*
X9802920Y-10936674D01*
X9802920Y-10936674D02*
X9812444Y-10898579D01*
X9812444Y-10898579D02*
X9821967Y-10879531D01*
X9821967Y-10879531D02*
X9831491Y-10870008D01*
X9831491Y-10870008D02*
X9850539Y-10860484D01*
X10002920Y-11060484D02*
X10002920Y-10927150D01*
X10002920Y-10946198D02*
X10012444Y-10936674D01*
X10012444Y-10936674D02*
X10031491Y-10927150D01*
X10031491Y-10927150D02*
X10060063Y-10927150D01*
X10060063Y-10927150D02*
X10079110Y-10936674D01*
X10079110Y-10936674D02*
X10088634Y-10955722D01*
X10088634Y-10955722D02*
X10088634Y-11060484D01*
X10088634Y-10955722D02*
X10098158Y-10936674D01*
X10098158Y-10936674D02*
X10117205Y-10927150D01*
X10117205Y-10927150D02*
X10145777Y-10927150D01*
X10145777Y-10927150D02*
X10164825Y-10936674D01*
X10164825Y-10936674D02*
X10174348Y-10955722D01*
X10174348Y-10955722D02*
X10174348Y-11060484D01*
X10269586Y-11060484D02*
X10269586Y-10927150D01*
X10269586Y-10946198D02*
X10279110Y-10936674D01*
X10279110Y-10936674D02*
X10298158Y-10927150D01*
X10298158Y-10927150D02*
X10326729Y-10927150D01*
X10326729Y-10927150D02*
X10345777Y-10936674D01*
X10345777Y-10936674D02*
X10355301Y-10955722D01*
X10355301Y-10955722D02*
X10355301Y-11060484D01*
X10355301Y-10955722D02*
X10364825Y-10936674D01*
X10364825Y-10936674D02*
X10383872Y-10927150D01*
X10383872Y-10927150D02*
X10412444Y-10927150D01*
X10412444Y-10927150D02*
X10431491Y-10936674D01*
X10431491Y-10936674D02*
X10441015Y-10955722D01*
X10441015Y-10955722D02*
X10441015Y-11060484D01*
X10831491Y-10850960D02*
X10660063Y-11108103D01*
X11088634Y-10860484D02*
X11107682Y-10860484D01*
X11107682Y-10860484D02*
X11126729Y-10870008D01*
X11126729Y-10870008D02*
X11136253Y-10879531D01*
X11136253Y-10879531D02*
X11145777Y-10898579D01*
X11145777Y-10898579D02*
X11155301Y-10936674D01*
X11155301Y-10936674D02*
X11155301Y-10984293D01*
X11155301Y-10984293D02*
X11145777Y-11022389D01*
X11145777Y-11022389D02*
X11136253Y-11041436D01*
X11136253Y-11041436D02*
X11126729Y-11050960D01*
X11126729Y-11050960D02*
X11107682Y-11060484D01*
X11107682Y-11060484D02*
X11088634Y-11060484D01*
X11088634Y-11060484D02*
X11069587Y-11050960D01*
X11069587Y-11050960D02*
X11060063Y-11041436D01*
X11060063Y-11041436D02*
X11050539Y-11022389D01*
X11050539Y-11022389D02*
X11041015Y-10984293D01*
X11041015Y-10984293D02*
X11041015Y-10936674D01*
X11041015Y-10936674D02*
X11050539Y-10898579D01*
X11050539Y-10898579D02*
X11060063Y-10879531D01*
X11060063Y-10879531D02*
X11069587Y-10870008D01*
X11069587Y-10870008D02*
X11088634Y-10860484D01*
X11241015Y-11041436D02*
X11250539Y-11050960D01*
X11250539Y-11050960D02*
X11241015Y-11060484D01*
X11241015Y-11060484D02*
X11231491Y-11050960D01*
X11231491Y-11050960D02*
X11241015Y-11041436D01*
X11241015Y-11041436D02*
X11241015Y-11060484D01*
X11374348Y-10860484D02*
X11393396Y-10860484D01*
X11393396Y-10860484D02*
X11412444Y-10870008D01*
X11412444Y-10870008D02*
X11421967Y-10879531D01*
X11421967Y-10879531D02*
X11431491Y-10898579D01*
X11431491Y-10898579D02*
X11441015Y-10936674D01*
X11441015Y-10936674D02*
X11441015Y-10984293D01*
X11441015Y-10984293D02*
X11431491Y-11022389D01*
X11431491Y-11022389D02*
X11421967Y-11041436D01*
X11421967Y-11041436D02*
X11412444Y-11050960D01*
X11412444Y-11050960D02*
X11393396Y-11060484D01*
X11393396Y-11060484D02*
X11374348Y-11060484D01*
X11374348Y-11060484D02*
X11355301Y-11050960D01*
X11355301Y-11050960D02*
X11345777Y-11041436D01*
X11345777Y-11041436D02*
X11336253Y-11022389D01*
X11336253Y-11022389D02*
X11326729Y-10984293D01*
X11326729Y-10984293D02*
X11326729Y-10936674D01*
X11326729Y-10936674D02*
X11336253Y-10898579D01*
X11336253Y-10898579D02*
X11345777Y-10879531D01*
X11345777Y-10879531D02*
X11355301Y-10870008D01*
X11355301Y-10870008D02*
X11374348Y-10860484D01*
X11507682Y-10860484D02*
X11631491Y-10860484D01*
X11631491Y-10860484D02*
X11564825Y-10936674D01*
X11564825Y-10936674D02*
X11593396Y-10936674D01*
X11593396Y-10936674D02*
X11612444Y-10946198D01*
X11612444Y-10946198D02*
X11621967Y-10955722D01*
X11621967Y-10955722D02*
X11631491Y-10974770D01*
X11631491Y-10974770D02*
X11631491Y-11022389D01*
X11631491Y-11022389D02*
X11621967Y-11041436D01*
X11621967Y-11041436D02*
X11612444Y-11050960D01*
X11612444Y-11050960D02*
X11593396Y-11060484D01*
X11593396Y-11060484D02*
X11536253Y-11060484D01*
X11536253Y-11060484D02*
X11517206Y-11050960D01*
X11517206Y-11050960D02*
X11507682Y-11041436D01*
X11812444Y-10860484D02*
X11717206Y-10860484D01*
X11717206Y-10860484D02*
X11707682Y-10955722D01*
X11707682Y-10955722D02*
X11717206Y-10946198D01*
X11717206Y-10946198D02*
X11736253Y-10936674D01*
X11736253Y-10936674D02*
X11783872Y-10936674D01*
X11783872Y-10936674D02*
X11802920Y-10946198D01*
X11802920Y-10946198D02*
X11812444Y-10955722D01*
X11812444Y-10955722D02*
X11821967Y-10974770D01*
X11821967Y-10974770D02*
X11821967Y-11022389D01*
X11821967Y-11022389D02*
X11812444Y-11041436D01*
X11812444Y-11041436D02*
X11802920Y-11050960D01*
X11802920Y-11050960D02*
X11783872Y-11060484D01*
X11783872Y-11060484D02*
X11736253Y-11060484D01*
X11736253Y-11060484D02*
X11717206Y-11050960D01*
X11717206Y-11050960D02*
X11707682Y-11041436D01*
X11993396Y-10927150D02*
X11993396Y-11060484D01*
X11945777Y-10850960D02*
X11898158Y-10993817D01*
X11898158Y-10993817D02*
X12021967Y-10993817D01*
X12088634Y-10860484D02*
X12088634Y-10898579D01*
X12164825Y-10860484D02*
X12164825Y-10898579D01*
X12460063Y-11136674D02*
X12450539Y-11127150D01*
X12450539Y-11127150D02*
X12431491Y-11098579D01*
X12431491Y-11098579D02*
X12421968Y-11079531D01*
X12421968Y-11079531D02*
X12412444Y-11050960D01*
X12412444Y-11050960D02*
X12402920Y-11003341D01*
X12402920Y-11003341D02*
X12402920Y-10965246D01*
X12402920Y-10965246D02*
X12412444Y-10917627D01*
X12412444Y-10917627D02*
X12421968Y-10889055D01*
X12421968Y-10889055D02*
X12431491Y-10870008D01*
X12431491Y-10870008D02*
X12450539Y-10841436D01*
X12450539Y-10841436D02*
X12460063Y-10831912D01*
X12641015Y-11060484D02*
X12526729Y-11060484D01*
X12583872Y-11060484D02*
X12583872Y-10860484D01*
X12583872Y-10860484D02*
X12564825Y-10889055D01*
X12564825Y-10889055D02*
X12545777Y-10908103D01*
X12545777Y-10908103D02*
X12526729Y-10917627D01*
X12764825Y-10860484D02*
X12783872Y-10860484D01*
X12783872Y-10860484D02*
X12802920Y-10870008D01*
X12802920Y-10870008D02*
X12812444Y-10879531D01*
X12812444Y-10879531D02*
X12821968Y-10898579D01*
X12821968Y-10898579D02*
X12831491Y-10936674D01*
X12831491Y-10936674D02*
X12831491Y-10984293D01*
X12831491Y-10984293D02*
X12821968Y-11022389D01*
X12821968Y-11022389D02*
X12812444Y-11041436D01*
X12812444Y-11041436D02*
X12802920Y-11050960D01*
X12802920Y-11050960D02*
X12783872Y-11060484D01*
X12783872Y-11060484D02*
X12764825Y-11060484D01*
X12764825Y-11060484D02*
X12745777Y-11050960D01*
X12745777Y-11050960D02*
X12736253Y-11041436D01*
X12736253Y-11041436D02*
X12726729Y-11022389D01*
X12726729Y-11022389D02*
X12717206Y-10984293D01*
X12717206Y-10984293D02*
X12717206Y-10936674D01*
X12717206Y-10936674D02*
X12726729Y-10898579D01*
X12726729Y-10898579D02*
X12736253Y-10879531D01*
X12736253Y-10879531D02*
X12745777Y-10870008D01*
X12745777Y-10870008D02*
X12764825Y-10860484D01*
X13069587Y-11060484D02*
X13069587Y-10860484D01*
X13155301Y-11060484D02*
X13155301Y-10955722D01*
X13155301Y-10955722D02*
X13145777Y-10936674D01*
X13145777Y-10936674D02*
X13126730Y-10927150D01*
X13126730Y-10927150D02*
X13098158Y-10927150D01*
X13098158Y-10927150D02*
X13079110Y-10936674D01*
X13079110Y-10936674D02*
X13069587Y-10946198D01*
X13279110Y-11060484D02*
X13260063Y-11050960D01*
X13260063Y-11050960D02*
X13250539Y-11041436D01*
X13250539Y-11041436D02*
X13241015Y-11022389D01*
X13241015Y-11022389D02*
X13241015Y-10965246D01*
X13241015Y-10965246D02*
X13250539Y-10946198D01*
X13250539Y-10946198D02*
X13260063Y-10936674D01*
X13260063Y-10936674D02*
X13279110Y-10927150D01*
X13279110Y-10927150D02*
X13307682Y-10927150D01*
X13307682Y-10927150D02*
X13326730Y-10936674D01*
X13326730Y-10936674D02*
X13336253Y-10946198D01*
X13336253Y-10946198D02*
X13345777Y-10965246D01*
X13345777Y-10965246D02*
X13345777Y-11022389D01*
X13345777Y-11022389D02*
X13336253Y-11041436D01*
X13336253Y-11041436D02*
X13326730Y-11050960D01*
X13326730Y-11050960D02*
X13307682Y-11060484D01*
X13307682Y-11060484D02*
X13279110Y-11060484D01*
X13460063Y-11060484D02*
X13441015Y-11050960D01*
X13441015Y-11050960D02*
X13431491Y-11031912D01*
X13431491Y-11031912D02*
X13431491Y-10860484D01*
X13612444Y-11050960D02*
X13593396Y-11060484D01*
X13593396Y-11060484D02*
X13555301Y-11060484D01*
X13555301Y-11060484D02*
X13536253Y-11050960D01*
X13536253Y-11050960D02*
X13526730Y-11031912D01*
X13526730Y-11031912D02*
X13526730Y-10955722D01*
X13526730Y-10955722D02*
X13536253Y-10936674D01*
X13536253Y-10936674D02*
X13555301Y-10927150D01*
X13555301Y-10927150D02*
X13593396Y-10927150D01*
X13593396Y-10927150D02*
X13612444Y-10936674D01*
X13612444Y-10936674D02*
X13621968Y-10955722D01*
X13621968Y-10955722D02*
X13621968Y-10974770D01*
X13621968Y-10974770D02*
X13526730Y-10993817D01*
X13698158Y-11050960D02*
X13717206Y-11060484D01*
X13717206Y-11060484D02*
X13755301Y-11060484D01*
X13755301Y-11060484D02*
X13774349Y-11050960D01*
X13774349Y-11050960D02*
X13783872Y-11031912D01*
X13783872Y-11031912D02*
X13783872Y-11022389D01*
X13783872Y-11022389D02*
X13774349Y-11003341D01*
X13774349Y-11003341D02*
X13755301Y-10993817D01*
X13755301Y-10993817D02*
X13726730Y-10993817D01*
X13726730Y-10993817D02*
X13707682Y-10984293D01*
X13707682Y-10984293D02*
X13698158Y-10965246D01*
X13698158Y-10965246D02*
X13698158Y-10955722D01*
X13698158Y-10955722D02*
X13707682Y-10936674D01*
X13707682Y-10936674D02*
X13726730Y-10927150D01*
X13726730Y-10927150D02*
X13755301Y-10927150D01*
X13755301Y-10927150D02*
X13774349Y-10936674D01*
X13850539Y-11136674D02*
X13860063Y-11127150D01*
X13860063Y-11127150D02*
X13879111Y-11098579D01*
X13879111Y-11098579D02*
X13888634Y-11079531D01*
X13888634Y-11079531D02*
X13898158Y-11050960D01*
X13898158Y-11050960D02*
X13907682Y-11003341D01*
X13907682Y-11003341D02*
X13907682Y-10965246D01*
X13907682Y-10965246D02*
X13898158Y-10917627D01*
X13898158Y-10917627D02*
X13888634Y-10889055D01*
X13888634Y-10889055D02*
X13879111Y-10870008D01*
X13879111Y-10870008D02*
X13860063Y-10841436D01*
X13860063Y-10841436D02*
X13850539Y-10831912D01*
M02*
