M48
; DRILL file {KiCad 7.0.9} date Wed Dec 13 17:14:32 2023
; FORMAT={-:-/ absolute / inch / decimal}
; #@! TF.CreationDate,2023-12-13T17:14:32-05:00
; #@! TF.GenerationSoftware,Kicad,Pcbnew,7.0.9
; #@! TF.FileFunction,Plated,1,2,PTH
FMAT,2
INCH
; #@! TA.AperFunction,Plated,PTH,ComponentDrill
T1C0.0299
; #@! TA.AperFunction,Plated,PTH,ComponentDrill
T2C0.0315
; #@! TA.AperFunction,Plated,PTH,ComponentDrill
T3C0.0354
%
G90
G05
T1
X3.9469Y-3.3759
X3.9469Y-3.4759
X3.9469Y-3.5759
X3.9469Y-3.6759
X4.0469Y-3.4259
X4.0469Y-3.5259
X4.0469Y-3.6259
X4.0469Y-3.7259
T2
X3.8591Y-2.2335
X3.878Y-2.3697
X3.878Y-2.6697
X3.878Y-2.8421
X3.878Y-3.1421
X4.1142Y-2.3697
X4.1142Y-2.6697
X4.1142Y-2.8421
X4.1142Y-3.1421
X4.1591Y-2.2335
T3
X3.5915Y-3.0512
X3.6008Y-2.4606
X3.6915Y-3.0512
X3.7008Y-2.4606
X4.0Y-1.95
X4.0Y-2.05
X4.3094Y-2.4606
X4.3094Y-3.0512
X4.4094Y-2.4606
X4.4094Y-3.0512
T0
M30
