solid ASCII
  facet normal 0.000000e+00 1.000000e+00 -0.000000e+00
    outer loop
      vertex   -3.153590e+01 -1.100000e+01 0.000000e+00
      vertex   -4.653590e+01 -1.100000e+01 0.000000e+00
      vertex   -3.153590e+01 -1.100000e+01 9.000000e+01
    endloop
  endfacet
  facet normal 0.000000e+00 1.000000e+00 0.000000e+00
    outer loop
      vertex   -3.153590e+01 -1.100000e+01 9.000000e+01
      vertex   -4.653590e+01 -1.100000e+01 0.000000e+00
      vertex   -4.653590e+01 -1.100000e+01 9.000000e+01
    endloop
  endfacet
  facet normal 8.660254e-01 -5.000000e-01 0.000000e+00
    outer loop
      vertex   -3.500000e+01 -1.700000e+01 0.000000e+00
      vertex   -3.153590e+01 -1.100000e+01 0.000000e+00
      vertex   -3.500000e+01 -1.700000e+01 9.000000e+01
    endloop
  endfacet
  facet normal 8.660254e-01 -5.000000e-01 0.000000e+00
    outer loop
      vertex   -3.500000e+01 -1.700000e+01 9.000000e+01
      vertex   -3.153590e+01 -1.100000e+01 0.000000e+00
      vertex   -3.153590e+01 -1.100000e+01 9.000000e+01
    endloop
  endfacet
  facet normal 4.401391e-16 -1.000000e+00 0.000000e+00
    outer loop
      vertex   -4.307180e+01 -1.700000e+01 0.000000e+00
      vertex   -3.500000e+01 -1.700000e+01 0.000000e+00
      vertex   -4.307180e+01 -1.700000e+01 9.000000e+01
    endloop
  endfacet
  facet normal 4.401391e-16 -1.000000e+00 0.000000e+00
    outer loop
      vertex   -4.307180e+01 -1.700000e+01 9.000000e+01
      vertex   -3.500000e+01 -1.700000e+01 0.000000e+00
      vertex   -3.500000e+01 -1.700000e+01 9.000000e+01
    endloop
  endfacet
  facet normal -8.660254e-01 -5.000000e-01 0.000000e+00
    outer loop
      vertex   -4.653590e+01 -1.100000e+01 0.000000e+00
      vertex   -4.307180e+01 -1.700000e+01 0.000000e+00
      vertex   -4.653590e+01 -1.100000e+01 9.000000e+01
    endloop
  endfacet
  facet normal -8.660254e-01 -5.000000e-01 0.000000e+00
    outer loop
      vertex   -4.653590e+01 -1.100000e+01 9.000000e+01
      vertex   -4.307180e+01 -1.700000e+01 0.000000e+00
      vertex   -4.307180e+01 -1.700000e+01 9.000000e+01
    endloop
  endfacet
  facet normal 0.000000e+00 -0.000000e+00 1.000000e+00
    outer loop
      vertex   -4.307180e+01 -1.700000e+01 9.000000e+01
      vertex   -3.500000e+01 -1.700000e+01 9.000000e+01
      vertex   -4.653590e+01 -1.100000e+01 9.000000e+01
    endloop
  endfacet
  facet normal -0.000000e+00 0.000000e+00 1.000000e+00
    outer loop
      vertex   -4.653590e+01 -1.100000e+01 9.000000e+01
      vertex   -3.500000e+01 -1.700000e+01 9.000000e+01
      vertex   -3.153590e+01 -1.100000e+01 9.000000e+01
    endloop
  endfacet
  facet normal 0.000000e+00 0.000000e+00 -1.000000e+00
    outer loop
      vertex   -4.653590e+01 -1.100000e+01 0.000000e+00
      vertex   -3.153590e+01 -1.100000e+01 0.000000e+00
      vertex   -4.307180e+01 -1.700000e+01 0.000000e+00
    endloop
  endfacet
  facet normal 0.000000e+00 0.000000e+00 -1.000000e+00
    outer loop
      vertex   -4.307180e+01 -1.700000e+01 0.000000e+00
      vertex   -3.153590e+01 -1.100000e+01 0.000000e+00
      vertex   -3.500000e+01 -1.700000e+01 0.000000e+00
    endloop
  endfacet
endsolid
