%TF.GenerationSoftware,KiCad,Pcbnew,7.0.8*%
%TF.CreationDate,2023-11-19T21:35:30-05:00*%
%TF.ProjectId,Light Pcb,4c696768-7420-4506-9362-2e6b69636164,rev?*%
%TF.SameCoordinates,Original*%
%TF.FileFunction,Drillmap*%
%TF.FilePolarity,Positive*%
%FSLAX45Y45*%
G04 Gerber Fmt 4.5, Leading zero omitted, Abs format (unit mm)*
G04 Created by KiCad (PCBNEW 7.0.8) date 2023-11-19 21:35:30*
%MOMM*%
%LPD*%
G01*
G04 APERTURE LIST*
%ADD10C,0.100000*%
%ADD11C,0.200000*%
%ADD12C,0.070000*%
%ADD13C,0.090000*%
G04 APERTURE END LIST*
D10*
X10922000Y-5334000D02*
G75*
G03*
X10922000Y-5334000I-127000J0D01*
G01*
X9652000Y-5334000D02*
G75*
G03*
X9652000Y-5334000I-127000J0D01*
G01*
X8890000Y-4699000D02*
X11430000Y-4699000D01*
X11430000Y-8128000D01*
X8890000Y-8128000D01*
X8890000Y-4699000D01*
D11*
D12*
X9236000Y-5807000D02*
X9306000Y-5877000D01*
X9306000Y-5807000D02*
X9236000Y-5877000D01*
X9236000Y-7077000D02*
X9306000Y-7147000D01*
X9306000Y-7077000D02*
X9236000Y-7147000D01*
X9744000Y-5807000D02*
X9814000Y-5877000D01*
X9814000Y-5807000D02*
X9744000Y-5877000D01*
X9744000Y-7077000D02*
X9814000Y-7147000D01*
X9814000Y-7077000D02*
X9744000Y-7147000D01*
X10125000Y-5553000D02*
X10195000Y-5623000D01*
X10195000Y-5553000D02*
X10125000Y-5623000D01*
X10125000Y-6061000D02*
X10195000Y-6131000D01*
X10195000Y-6061000D02*
X10125000Y-6131000D01*
X10506000Y-5807000D02*
X10576000Y-5877000D01*
X10576000Y-5807000D02*
X10506000Y-5877000D01*
X10506000Y-7077000D02*
X10576000Y-7147000D01*
X10576000Y-7077000D02*
X10506000Y-7147000D01*
X11014000Y-5807000D02*
X11084000Y-5877000D01*
X11084000Y-5807000D02*
X11014000Y-5877000D01*
X11014000Y-7077000D02*
X11084000Y-7147000D01*
X11084000Y-7077000D02*
X11014000Y-7147000D01*
D13*
X9189000Y-6350000D02*
G75*
G03*
X9189000Y-6350000I-45000J0D01*
G01*
X9189000Y-7620000D02*
G75*
G03*
X9189000Y-7620000I-45000J0D01*
G01*
X9443000Y-6350000D02*
G75*
G03*
X9443000Y-6350000I-45000J0D01*
G01*
X9443000Y-7620000D02*
G75*
G03*
X9443000Y-7620000I-45000J0D01*
G01*
X10205000Y-4953000D02*
G75*
G03*
X10205000Y-4953000I-45000J0D01*
G01*
X10205000Y-5207000D02*
G75*
G03*
X10205000Y-5207000I-45000J0D01*
G01*
X10967000Y-6350000D02*
G75*
G03*
X10967000Y-6350000I-45000J0D01*
G01*
X10967000Y-7620000D02*
G75*
G03*
X10967000Y-7620000I-45000J0D01*
G01*
X11221000Y-6350000D02*
G75*
G03*
X11221000Y-6350000I-45000J0D01*
G01*
X11221000Y-7620000D02*
G75*
G03*
X11221000Y-7620000I-45000J0D01*
G01*
D10*
X10160000Y-6446000D02*
X10160000Y-6546000D01*
X10110000Y-6496000D02*
X10210000Y-6496000D01*
X10160000Y-6700000D02*
X10160000Y-6800000D01*
X10110000Y-6750000D02*
X10210000Y-6750000D01*
X10160000Y-6954000D02*
X10160000Y-7054000D01*
X10110000Y-7004000D02*
X10210000Y-7004000D01*
X10160000Y-7208000D02*
X10160000Y-7308000D01*
X10110000Y-7258000D02*
X10210000Y-7258000D01*
X10160000Y-7462000D02*
X10160000Y-7562000D01*
X10110000Y-7512000D02*
X10210000Y-7512000D01*
X10160000Y-7716000D02*
X10160000Y-7816000D01*
X10110000Y-7766000D02*
X10210000Y-7766000D01*
D11*
X9145777Y-8444484D02*
X9145777Y-8244484D01*
X9145777Y-8244484D02*
X9193396Y-8244484D01*
X9193396Y-8244484D02*
X9221967Y-8254008D01*
X9221967Y-8254008D02*
X9241015Y-8273055D01*
X9241015Y-8273055D02*
X9250539Y-8292103D01*
X9250539Y-8292103D02*
X9260063Y-8330198D01*
X9260063Y-8330198D02*
X9260063Y-8358769D01*
X9260063Y-8358769D02*
X9250539Y-8396865D01*
X9250539Y-8396865D02*
X9241015Y-8415912D01*
X9241015Y-8415912D02*
X9221967Y-8434960D01*
X9221967Y-8434960D02*
X9193396Y-8444484D01*
X9193396Y-8444484D02*
X9145777Y-8444484D01*
X9345777Y-8444484D02*
X9345777Y-8311150D01*
X9345777Y-8349246D02*
X9355301Y-8330198D01*
X9355301Y-8330198D02*
X9364824Y-8320674D01*
X9364824Y-8320674D02*
X9383872Y-8311150D01*
X9383872Y-8311150D02*
X9402920Y-8311150D01*
X9469586Y-8444484D02*
X9469586Y-8311150D01*
X9469586Y-8244484D02*
X9460063Y-8254008D01*
X9460063Y-8254008D02*
X9469586Y-8263531D01*
X9469586Y-8263531D02*
X9479110Y-8254008D01*
X9479110Y-8254008D02*
X9469586Y-8244484D01*
X9469586Y-8244484D02*
X9469586Y-8263531D01*
X9593396Y-8444484D02*
X9574348Y-8434960D01*
X9574348Y-8434960D02*
X9564824Y-8415912D01*
X9564824Y-8415912D02*
X9564824Y-8244484D01*
X9698158Y-8444484D02*
X9679110Y-8434960D01*
X9679110Y-8434960D02*
X9669586Y-8415912D01*
X9669586Y-8415912D02*
X9669586Y-8244484D01*
X9926729Y-8444484D02*
X9926729Y-8244484D01*
X9926729Y-8244484D02*
X9993396Y-8387341D01*
X9993396Y-8387341D02*
X10060063Y-8244484D01*
X10060063Y-8244484D02*
X10060063Y-8444484D01*
X10241015Y-8444484D02*
X10241015Y-8339722D01*
X10241015Y-8339722D02*
X10231491Y-8320674D01*
X10231491Y-8320674D02*
X10212444Y-8311150D01*
X10212444Y-8311150D02*
X10174348Y-8311150D01*
X10174348Y-8311150D02*
X10155301Y-8320674D01*
X10241015Y-8434960D02*
X10221967Y-8444484D01*
X10221967Y-8444484D02*
X10174348Y-8444484D01*
X10174348Y-8444484D02*
X10155301Y-8434960D01*
X10155301Y-8434960D02*
X10145777Y-8415912D01*
X10145777Y-8415912D02*
X10145777Y-8396865D01*
X10145777Y-8396865D02*
X10155301Y-8377817D01*
X10155301Y-8377817D02*
X10174348Y-8368293D01*
X10174348Y-8368293D02*
X10221967Y-8368293D01*
X10221967Y-8368293D02*
X10241015Y-8358769D01*
X10336253Y-8311150D02*
X10336253Y-8511150D01*
X10336253Y-8320674D02*
X10355301Y-8311150D01*
X10355301Y-8311150D02*
X10393396Y-8311150D01*
X10393396Y-8311150D02*
X10412444Y-8320674D01*
X10412444Y-8320674D02*
X10421967Y-8330198D01*
X10421967Y-8330198D02*
X10431491Y-8349246D01*
X10431491Y-8349246D02*
X10431491Y-8406389D01*
X10431491Y-8406389D02*
X10421967Y-8425436D01*
X10421967Y-8425436D02*
X10412444Y-8434960D01*
X10412444Y-8434960D02*
X10393396Y-8444484D01*
X10393396Y-8444484D02*
X10355301Y-8444484D01*
X10355301Y-8444484D02*
X10336253Y-8434960D01*
X10517205Y-8425436D02*
X10526729Y-8434960D01*
X10526729Y-8434960D02*
X10517205Y-8444484D01*
X10517205Y-8444484D02*
X10507682Y-8434960D01*
X10507682Y-8434960D02*
X10517205Y-8425436D01*
X10517205Y-8425436D02*
X10517205Y-8444484D01*
X10517205Y-8320674D02*
X10526729Y-8330198D01*
X10526729Y-8330198D02*
X10517205Y-8339722D01*
X10517205Y-8339722D02*
X10507682Y-8330198D01*
X10507682Y-8330198D02*
X10517205Y-8320674D01*
X10517205Y-8320674D02*
X10517205Y-8339722D01*
D12*
X8815000Y-8738000D02*
X8885000Y-8808000D01*
X8885000Y-8738000D02*
X8815000Y-8808000D01*
D11*
X9183872Y-8664484D02*
X9202920Y-8664484D01*
X9202920Y-8664484D02*
X9221967Y-8674008D01*
X9221967Y-8674008D02*
X9231491Y-8683531D01*
X9231491Y-8683531D02*
X9241015Y-8702579D01*
X9241015Y-8702579D02*
X9250539Y-8740674D01*
X9250539Y-8740674D02*
X9250539Y-8788293D01*
X9250539Y-8788293D02*
X9241015Y-8826389D01*
X9241015Y-8826389D02*
X9231491Y-8845436D01*
X9231491Y-8845436D02*
X9221967Y-8854960D01*
X9221967Y-8854960D02*
X9202920Y-8864484D01*
X9202920Y-8864484D02*
X9183872Y-8864484D01*
X9183872Y-8864484D02*
X9164824Y-8854960D01*
X9164824Y-8854960D02*
X9155301Y-8845436D01*
X9155301Y-8845436D02*
X9145777Y-8826389D01*
X9145777Y-8826389D02*
X9136253Y-8788293D01*
X9136253Y-8788293D02*
X9136253Y-8740674D01*
X9136253Y-8740674D02*
X9145777Y-8702579D01*
X9145777Y-8702579D02*
X9155301Y-8683531D01*
X9155301Y-8683531D02*
X9164824Y-8674008D01*
X9164824Y-8674008D02*
X9183872Y-8664484D01*
X9336253Y-8845436D02*
X9345777Y-8854960D01*
X9345777Y-8854960D02*
X9336253Y-8864484D01*
X9336253Y-8864484D02*
X9326729Y-8854960D01*
X9326729Y-8854960D02*
X9336253Y-8845436D01*
X9336253Y-8845436D02*
X9336253Y-8864484D01*
X9412444Y-8664484D02*
X9545777Y-8664484D01*
X9545777Y-8664484D02*
X9460063Y-8864484D01*
X9660063Y-8664484D02*
X9679110Y-8664484D01*
X9679110Y-8664484D02*
X9698158Y-8674008D01*
X9698158Y-8674008D02*
X9707682Y-8683531D01*
X9707682Y-8683531D02*
X9717205Y-8702579D01*
X9717205Y-8702579D02*
X9726729Y-8740674D01*
X9726729Y-8740674D02*
X9726729Y-8788293D01*
X9726729Y-8788293D02*
X9717205Y-8826389D01*
X9717205Y-8826389D02*
X9707682Y-8845436D01*
X9707682Y-8845436D02*
X9698158Y-8854960D01*
X9698158Y-8854960D02*
X9679110Y-8864484D01*
X9679110Y-8864484D02*
X9660063Y-8864484D01*
X9660063Y-8864484D02*
X9641015Y-8854960D01*
X9641015Y-8854960D02*
X9631491Y-8845436D01*
X9631491Y-8845436D02*
X9621967Y-8826389D01*
X9621967Y-8826389D02*
X9612444Y-8788293D01*
X9612444Y-8788293D02*
X9612444Y-8740674D01*
X9612444Y-8740674D02*
X9621967Y-8702579D01*
X9621967Y-8702579D02*
X9631491Y-8683531D01*
X9631491Y-8683531D02*
X9641015Y-8674008D01*
X9641015Y-8674008D02*
X9660063Y-8664484D01*
X9850539Y-8664484D02*
X9869586Y-8664484D01*
X9869586Y-8664484D02*
X9888634Y-8674008D01*
X9888634Y-8674008D02*
X9898158Y-8683531D01*
X9898158Y-8683531D02*
X9907682Y-8702579D01*
X9907682Y-8702579D02*
X9917205Y-8740674D01*
X9917205Y-8740674D02*
X9917205Y-8788293D01*
X9917205Y-8788293D02*
X9907682Y-8826389D01*
X9907682Y-8826389D02*
X9898158Y-8845436D01*
X9898158Y-8845436D02*
X9888634Y-8854960D01*
X9888634Y-8854960D02*
X9869586Y-8864484D01*
X9869586Y-8864484D02*
X9850539Y-8864484D01*
X9850539Y-8864484D02*
X9831491Y-8854960D01*
X9831491Y-8854960D02*
X9821967Y-8845436D01*
X9821967Y-8845436D02*
X9812444Y-8826389D01*
X9812444Y-8826389D02*
X9802920Y-8788293D01*
X9802920Y-8788293D02*
X9802920Y-8740674D01*
X9802920Y-8740674D02*
X9812444Y-8702579D01*
X9812444Y-8702579D02*
X9821967Y-8683531D01*
X9821967Y-8683531D02*
X9831491Y-8674008D01*
X9831491Y-8674008D02*
X9850539Y-8664484D01*
X10002920Y-8864484D02*
X10002920Y-8731150D01*
X10002920Y-8750198D02*
X10012444Y-8740674D01*
X10012444Y-8740674D02*
X10031491Y-8731150D01*
X10031491Y-8731150D02*
X10060063Y-8731150D01*
X10060063Y-8731150D02*
X10079110Y-8740674D01*
X10079110Y-8740674D02*
X10088634Y-8759722D01*
X10088634Y-8759722D02*
X10088634Y-8864484D01*
X10088634Y-8759722D02*
X10098158Y-8740674D01*
X10098158Y-8740674D02*
X10117205Y-8731150D01*
X10117205Y-8731150D02*
X10145777Y-8731150D01*
X10145777Y-8731150D02*
X10164825Y-8740674D01*
X10164825Y-8740674D02*
X10174348Y-8759722D01*
X10174348Y-8759722D02*
X10174348Y-8864484D01*
X10269586Y-8864484D02*
X10269586Y-8731150D01*
X10269586Y-8750198D02*
X10279110Y-8740674D01*
X10279110Y-8740674D02*
X10298158Y-8731150D01*
X10298158Y-8731150D02*
X10326729Y-8731150D01*
X10326729Y-8731150D02*
X10345777Y-8740674D01*
X10345777Y-8740674D02*
X10355301Y-8759722D01*
X10355301Y-8759722D02*
X10355301Y-8864484D01*
X10355301Y-8759722D02*
X10364825Y-8740674D01*
X10364825Y-8740674D02*
X10383872Y-8731150D01*
X10383872Y-8731150D02*
X10412444Y-8731150D01*
X10412444Y-8731150D02*
X10431491Y-8740674D01*
X10431491Y-8740674D02*
X10441015Y-8759722D01*
X10441015Y-8759722D02*
X10441015Y-8864484D01*
X10831491Y-8654960D02*
X10660063Y-8912103D01*
X11088634Y-8664484D02*
X11107682Y-8664484D01*
X11107682Y-8664484D02*
X11126729Y-8674008D01*
X11126729Y-8674008D02*
X11136253Y-8683531D01*
X11136253Y-8683531D02*
X11145777Y-8702579D01*
X11145777Y-8702579D02*
X11155301Y-8740674D01*
X11155301Y-8740674D02*
X11155301Y-8788293D01*
X11155301Y-8788293D02*
X11145777Y-8826389D01*
X11145777Y-8826389D02*
X11136253Y-8845436D01*
X11136253Y-8845436D02*
X11126729Y-8854960D01*
X11126729Y-8854960D02*
X11107682Y-8864484D01*
X11107682Y-8864484D02*
X11088634Y-8864484D01*
X11088634Y-8864484D02*
X11069587Y-8854960D01*
X11069587Y-8854960D02*
X11060063Y-8845436D01*
X11060063Y-8845436D02*
X11050539Y-8826389D01*
X11050539Y-8826389D02*
X11041015Y-8788293D01*
X11041015Y-8788293D02*
X11041015Y-8740674D01*
X11041015Y-8740674D02*
X11050539Y-8702579D01*
X11050539Y-8702579D02*
X11060063Y-8683531D01*
X11060063Y-8683531D02*
X11069587Y-8674008D01*
X11069587Y-8674008D02*
X11088634Y-8664484D01*
X11241015Y-8845436D02*
X11250539Y-8854960D01*
X11250539Y-8854960D02*
X11241015Y-8864484D01*
X11241015Y-8864484D02*
X11231491Y-8854960D01*
X11231491Y-8854960D02*
X11241015Y-8845436D01*
X11241015Y-8845436D02*
X11241015Y-8864484D01*
X11374348Y-8664484D02*
X11393396Y-8664484D01*
X11393396Y-8664484D02*
X11412444Y-8674008D01*
X11412444Y-8674008D02*
X11421967Y-8683531D01*
X11421967Y-8683531D02*
X11431491Y-8702579D01*
X11431491Y-8702579D02*
X11441015Y-8740674D01*
X11441015Y-8740674D02*
X11441015Y-8788293D01*
X11441015Y-8788293D02*
X11431491Y-8826389D01*
X11431491Y-8826389D02*
X11421967Y-8845436D01*
X11421967Y-8845436D02*
X11412444Y-8854960D01*
X11412444Y-8854960D02*
X11393396Y-8864484D01*
X11393396Y-8864484D02*
X11374348Y-8864484D01*
X11374348Y-8864484D02*
X11355301Y-8854960D01*
X11355301Y-8854960D02*
X11345777Y-8845436D01*
X11345777Y-8845436D02*
X11336253Y-8826389D01*
X11336253Y-8826389D02*
X11326729Y-8788293D01*
X11326729Y-8788293D02*
X11326729Y-8740674D01*
X11326729Y-8740674D02*
X11336253Y-8702579D01*
X11336253Y-8702579D02*
X11345777Y-8683531D01*
X11345777Y-8683531D02*
X11355301Y-8674008D01*
X11355301Y-8674008D02*
X11374348Y-8664484D01*
X11517206Y-8683531D02*
X11526729Y-8674008D01*
X11526729Y-8674008D02*
X11545777Y-8664484D01*
X11545777Y-8664484D02*
X11593396Y-8664484D01*
X11593396Y-8664484D02*
X11612444Y-8674008D01*
X11612444Y-8674008D02*
X11621967Y-8683531D01*
X11621967Y-8683531D02*
X11631491Y-8702579D01*
X11631491Y-8702579D02*
X11631491Y-8721627D01*
X11631491Y-8721627D02*
X11621967Y-8750198D01*
X11621967Y-8750198D02*
X11507682Y-8864484D01*
X11507682Y-8864484D02*
X11631491Y-8864484D01*
X11698158Y-8664484D02*
X11831491Y-8664484D01*
X11831491Y-8664484D02*
X11745777Y-8864484D01*
X11993396Y-8664484D02*
X11955301Y-8664484D01*
X11955301Y-8664484D02*
X11936253Y-8674008D01*
X11936253Y-8674008D02*
X11926729Y-8683531D01*
X11926729Y-8683531D02*
X11907682Y-8712103D01*
X11907682Y-8712103D02*
X11898158Y-8750198D01*
X11898158Y-8750198D02*
X11898158Y-8826389D01*
X11898158Y-8826389D02*
X11907682Y-8845436D01*
X11907682Y-8845436D02*
X11917206Y-8854960D01*
X11917206Y-8854960D02*
X11936253Y-8864484D01*
X11936253Y-8864484D02*
X11974348Y-8864484D01*
X11974348Y-8864484D02*
X11993396Y-8854960D01*
X11993396Y-8854960D02*
X12002920Y-8845436D01*
X12002920Y-8845436D02*
X12012444Y-8826389D01*
X12012444Y-8826389D02*
X12012444Y-8778770D01*
X12012444Y-8778770D02*
X12002920Y-8759722D01*
X12002920Y-8759722D02*
X11993396Y-8750198D01*
X11993396Y-8750198D02*
X11974348Y-8740674D01*
X11974348Y-8740674D02*
X11936253Y-8740674D01*
X11936253Y-8740674D02*
X11917206Y-8750198D01*
X11917206Y-8750198D02*
X11907682Y-8759722D01*
X11907682Y-8759722D02*
X11898158Y-8778770D01*
X12088634Y-8664484D02*
X12088634Y-8702579D01*
X12164825Y-8664484D02*
X12164825Y-8702579D01*
X12460063Y-8940674D02*
X12450539Y-8931150D01*
X12450539Y-8931150D02*
X12431491Y-8902579D01*
X12431491Y-8902579D02*
X12421968Y-8883531D01*
X12421968Y-8883531D02*
X12412444Y-8854960D01*
X12412444Y-8854960D02*
X12402920Y-8807341D01*
X12402920Y-8807341D02*
X12402920Y-8769246D01*
X12402920Y-8769246D02*
X12412444Y-8721627D01*
X12412444Y-8721627D02*
X12421968Y-8693055D01*
X12421968Y-8693055D02*
X12431491Y-8674008D01*
X12431491Y-8674008D02*
X12450539Y-8645436D01*
X12450539Y-8645436D02*
X12460063Y-8635912D01*
X12641015Y-8864484D02*
X12526729Y-8864484D01*
X12583872Y-8864484D02*
X12583872Y-8664484D01*
X12583872Y-8664484D02*
X12564825Y-8693055D01*
X12564825Y-8693055D02*
X12545777Y-8712103D01*
X12545777Y-8712103D02*
X12526729Y-8721627D01*
X12764825Y-8664484D02*
X12783872Y-8664484D01*
X12783872Y-8664484D02*
X12802920Y-8674008D01*
X12802920Y-8674008D02*
X12812444Y-8683531D01*
X12812444Y-8683531D02*
X12821968Y-8702579D01*
X12821968Y-8702579D02*
X12831491Y-8740674D01*
X12831491Y-8740674D02*
X12831491Y-8788293D01*
X12831491Y-8788293D02*
X12821968Y-8826389D01*
X12821968Y-8826389D02*
X12812444Y-8845436D01*
X12812444Y-8845436D02*
X12802920Y-8854960D01*
X12802920Y-8854960D02*
X12783872Y-8864484D01*
X12783872Y-8864484D02*
X12764825Y-8864484D01*
X12764825Y-8864484D02*
X12745777Y-8854960D01*
X12745777Y-8854960D02*
X12736253Y-8845436D01*
X12736253Y-8845436D02*
X12726729Y-8826389D01*
X12726729Y-8826389D02*
X12717206Y-8788293D01*
X12717206Y-8788293D02*
X12717206Y-8740674D01*
X12717206Y-8740674D02*
X12726729Y-8702579D01*
X12726729Y-8702579D02*
X12736253Y-8683531D01*
X12736253Y-8683531D02*
X12745777Y-8674008D01*
X12745777Y-8674008D02*
X12764825Y-8664484D01*
X13069587Y-8864484D02*
X13069587Y-8664484D01*
X13155301Y-8864484D02*
X13155301Y-8759722D01*
X13155301Y-8759722D02*
X13145777Y-8740674D01*
X13145777Y-8740674D02*
X13126730Y-8731150D01*
X13126730Y-8731150D02*
X13098158Y-8731150D01*
X13098158Y-8731150D02*
X13079110Y-8740674D01*
X13079110Y-8740674D02*
X13069587Y-8750198D01*
X13279110Y-8864484D02*
X13260063Y-8854960D01*
X13260063Y-8854960D02*
X13250539Y-8845436D01*
X13250539Y-8845436D02*
X13241015Y-8826389D01*
X13241015Y-8826389D02*
X13241015Y-8769246D01*
X13241015Y-8769246D02*
X13250539Y-8750198D01*
X13250539Y-8750198D02*
X13260063Y-8740674D01*
X13260063Y-8740674D02*
X13279110Y-8731150D01*
X13279110Y-8731150D02*
X13307682Y-8731150D01*
X13307682Y-8731150D02*
X13326730Y-8740674D01*
X13326730Y-8740674D02*
X13336253Y-8750198D01*
X13336253Y-8750198D02*
X13345777Y-8769246D01*
X13345777Y-8769246D02*
X13345777Y-8826389D01*
X13345777Y-8826389D02*
X13336253Y-8845436D01*
X13336253Y-8845436D02*
X13326730Y-8854960D01*
X13326730Y-8854960D02*
X13307682Y-8864484D01*
X13307682Y-8864484D02*
X13279110Y-8864484D01*
X13460063Y-8864484D02*
X13441015Y-8854960D01*
X13441015Y-8854960D02*
X13431491Y-8835912D01*
X13431491Y-8835912D02*
X13431491Y-8664484D01*
X13612444Y-8854960D02*
X13593396Y-8864484D01*
X13593396Y-8864484D02*
X13555301Y-8864484D01*
X13555301Y-8864484D02*
X13536253Y-8854960D01*
X13536253Y-8854960D02*
X13526730Y-8835912D01*
X13526730Y-8835912D02*
X13526730Y-8759722D01*
X13526730Y-8759722D02*
X13536253Y-8740674D01*
X13536253Y-8740674D02*
X13555301Y-8731150D01*
X13555301Y-8731150D02*
X13593396Y-8731150D01*
X13593396Y-8731150D02*
X13612444Y-8740674D01*
X13612444Y-8740674D02*
X13621968Y-8759722D01*
X13621968Y-8759722D02*
X13621968Y-8778770D01*
X13621968Y-8778770D02*
X13526730Y-8797817D01*
X13698158Y-8854960D02*
X13717206Y-8864484D01*
X13717206Y-8864484D02*
X13755301Y-8864484D01*
X13755301Y-8864484D02*
X13774349Y-8854960D01*
X13774349Y-8854960D02*
X13783872Y-8835912D01*
X13783872Y-8835912D02*
X13783872Y-8826389D01*
X13783872Y-8826389D02*
X13774349Y-8807341D01*
X13774349Y-8807341D02*
X13755301Y-8797817D01*
X13755301Y-8797817D02*
X13726730Y-8797817D01*
X13726730Y-8797817D02*
X13707682Y-8788293D01*
X13707682Y-8788293D02*
X13698158Y-8769246D01*
X13698158Y-8769246D02*
X13698158Y-8759722D01*
X13698158Y-8759722D02*
X13707682Y-8740674D01*
X13707682Y-8740674D02*
X13726730Y-8731150D01*
X13726730Y-8731150D02*
X13755301Y-8731150D01*
X13755301Y-8731150D02*
X13774349Y-8740674D01*
X13850539Y-8940674D02*
X13860063Y-8931150D01*
X13860063Y-8931150D02*
X13879111Y-8902579D01*
X13879111Y-8902579D02*
X13888634Y-8883531D01*
X13888634Y-8883531D02*
X13898158Y-8854960D01*
X13898158Y-8854960D02*
X13907682Y-8807341D01*
X13907682Y-8807341D02*
X13907682Y-8769246D01*
X13907682Y-8769246D02*
X13898158Y-8721627D01*
X13898158Y-8721627D02*
X13888634Y-8693055D01*
X13888634Y-8693055D02*
X13879111Y-8674008D01*
X13879111Y-8674008D02*
X13860063Y-8645436D01*
X13860063Y-8645436D02*
X13850539Y-8635912D01*
D13*
X8885000Y-9037000D02*
G75*
G03*
X8885000Y-9037000I-45000J0D01*
G01*
D11*
X9183872Y-8928484D02*
X9202920Y-8928484D01*
X9202920Y-8928484D02*
X9221967Y-8938008D01*
X9221967Y-8938008D02*
X9231491Y-8947531D01*
X9231491Y-8947531D02*
X9241015Y-8966579D01*
X9241015Y-8966579D02*
X9250539Y-9004674D01*
X9250539Y-9004674D02*
X9250539Y-9052293D01*
X9250539Y-9052293D02*
X9241015Y-9090389D01*
X9241015Y-9090389D02*
X9231491Y-9109436D01*
X9231491Y-9109436D02*
X9221967Y-9118960D01*
X9221967Y-9118960D02*
X9202920Y-9128484D01*
X9202920Y-9128484D02*
X9183872Y-9128484D01*
X9183872Y-9128484D02*
X9164824Y-9118960D01*
X9164824Y-9118960D02*
X9155301Y-9109436D01*
X9155301Y-9109436D02*
X9145777Y-9090389D01*
X9145777Y-9090389D02*
X9136253Y-9052293D01*
X9136253Y-9052293D02*
X9136253Y-9004674D01*
X9136253Y-9004674D02*
X9145777Y-8966579D01*
X9145777Y-8966579D02*
X9155301Y-8947531D01*
X9155301Y-8947531D02*
X9164824Y-8938008D01*
X9164824Y-8938008D02*
X9183872Y-8928484D01*
X9336253Y-9109436D02*
X9345777Y-9118960D01*
X9345777Y-9118960D02*
X9336253Y-9128484D01*
X9336253Y-9128484D02*
X9326729Y-9118960D01*
X9326729Y-9118960D02*
X9336253Y-9109436D01*
X9336253Y-9109436D02*
X9336253Y-9128484D01*
X9441015Y-9128484D02*
X9479110Y-9128484D01*
X9479110Y-9128484D02*
X9498158Y-9118960D01*
X9498158Y-9118960D02*
X9507682Y-9109436D01*
X9507682Y-9109436D02*
X9526729Y-9080865D01*
X9526729Y-9080865D02*
X9536253Y-9042770D01*
X9536253Y-9042770D02*
X9536253Y-8966579D01*
X9536253Y-8966579D02*
X9526729Y-8947531D01*
X9526729Y-8947531D02*
X9517205Y-8938008D01*
X9517205Y-8938008D02*
X9498158Y-8928484D01*
X9498158Y-8928484D02*
X9460063Y-8928484D01*
X9460063Y-8928484D02*
X9441015Y-8938008D01*
X9441015Y-8938008D02*
X9431491Y-8947531D01*
X9431491Y-8947531D02*
X9421967Y-8966579D01*
X9421967Y-8966579D02*
X9421967Y-9014198D01*
X9421967Y-9014198D02*
X9431491Y-9033246D01*
X9431491Y-9033246D02*
X9441015Y-9042770D01*
X9441015Y-9042770D02*
X9460063Y-9052293D01*
X9460063Y-9052293D02*
X9498158Y-9052293D01*
X9498158Y-9052293D02*
X9517205Y-9042770D01*
X9517205Y-9042770D02*
X9526729Y-9033246D01*
X9526729Y-9033246D02*
X9536253Y-9014198D01*
X9660063Y-8928484D02*
X9679110Y-8928484D01*
X9679110Y-8928484D02*
X9698158Y-8938008D01*
X9698158Y-8938008D02*
X9707682Y-8947531D01*
X9707682Y-8947531D02*
X9717205Y-8966579D01*
X9717205Y-8966579D02*
X9726729Y-9004674D01*
X9726729Y-9004674D02*
X9726729Y-9052293D01*
X9726729Y-9052293D02*
X9717205Y-9090389D01*
X9717205Y-9090389D02*
X9707682Y-9109436D01*
X9707682Y-9109436D02*
X9698158Y-9118960D01*
X9698158Y-9118960D02*
X9679110Y-9128484D01*
X9679110Y-9128484D02*
X9660063Y-9128484D01*
X9660063Y-9128484D02*
X9641015Y-9118960D01*
X9641015Y-9118960D02*
X9631491Y-9109436D01*
X9631491Y-9109436D02*
X9621967Y-9090389D01*
X9621967Y-9090389D02*
X9612444Y-9052293D01*
X9612444Y-9052293D02*
X9612444Y-9004674D01*
X9612444Y-9004674D02*
X9621967Y-8966579D01*
X9621967Y-8966579D02*
X9631491Y-8947531D01*
X9631491Y-8947531D02*
X9641015Y-8938008D01*
X9641015Y-8938008D02*
X9660063Y-8928484D01*
X9850539Y-8928484D02*
X9869586Y-8928484D01*
X9869586Y-8928484D02*
X9888634Y-8938008D01*
X9888634Y-8938008D02*
X9898158Y-8947531D01*
X9898158Y-8947531D02*
X9907682Y-8966579D01*
X9907682Y-8966579D02*
X9917205Y-9004674D01*
X9917205Y-9004674D02*
X9917205Y-9052293D01*
X9917205Y-9052293D02*
X9907682Y-9090389D01*
X9907682Y-9090389D02*
X9898158Y-9109436D01*
X9898158Y-9109436D02*
X9888634Y-9118960D01*
X9888634Y-9118960D02*
X9869586Y-9128484D01*
X9869586Y-9128484D02*
X9850539Y-9128484D01*
X9850539Y-9128484D02*
X9831491Y-9118960D01*
X9831491Y-9118960D02*
X9821967Y-9109436D01*
X9821967Y-9109436D02*
X9812444Y-9090389D01*
X9812444Y-9090389D02*
X9802920Y-9052293D01*
X9802920Y-9052293D02*
X9802920Y-9004674D01*
X9802920Y-9004674D02*
X9812444Y-8966579D01*
X9812444Y-8966579D02*
X9821967Y-8947531D01*
X9821967Y-8947531D02*
X9831491Y-8938008D01*
X9831491Y-8938008D02*
X9850539Y-8928484D01*
X10002920Y-9128484D02*
X10002920Y-8995150D01*
X10002920Y-9014198D02*
X10012444Y-9004674D01*
X10012444Y-9004674D02*
X10031491Y-8995150D01*
X10031491Y-8995150D02*
X10060063Y-8995150D01*
X10060063Y-8995150D02*
X10079110Y-9004674D01*
X10079110Y-9004674D02*
X10088634Y-9023722D01*
X10088634Y-9023722D02*
X10088634Y-9128484D01*
X10088634Y-9023722D02*
X10098158Y-9004674D01*
X10098158Y-9004674D02*
X10117205Y-8995150D01*
X10117205Y-8995150D02*
X10145777Y-8995150D01*
X10145777Y-8995150D02*
X10164825Y-9004674D01*
X10164825Y-9004674D02*
X10174348Y-9023722D01*
X10174348Y-9023722D02*
X10174348Y-9128484D01*
X10269586Y-9128484D02*
X10269586Y-8995150D01*
X10269586Y-9014198D02*
X10279110Y-9004674D01*
X10279110Y-9004674D02*
X10298158Y-8995150D01*
X10298158Y-8995150D02*
X10326729Y-8995150D01*
X10326729Y-8995150D02*
X10345777Y-9004674D01*
X10345777Y-9004674D02*
X10355301Y-9023722D01*
X10355301Y-9023722D02*
X10355301Y-9128484D01*
X10355301Y-9023722D02*
X10364825Y-9004674D01*
X10364825Y-9004674D02*
X10383872Y-8995150D01*
X10383872Y-8995150D02*
X10412444Y-8995150D01*
X10412444Y-8995150D02*
X10431491Y-9004674D01*
X10431491Y-9004674D02*
X10441015Y-9023722D01*
X10441015Y-9023722D02*
X10441015Y-9128484D01*
X10831491Y-8918960D02*
X10660063Y-9176103D01*
X11088634Y-8928484D02*
X11107682Y-8928484D01*
X11107682Y-8928484D02*
X11126729Y-8938008D01*
X11126729Y-8938008D02*
X11136253Y-8947531D01*
X11136253Y-8947531D02*
X11145777Y-8966579D01*
X11145777Y-8966579D02*
X11155301Y-9004674D01*
X11155301Y-9004674D02*
X11155301Y-9052293D01*
X11155301Y-9052293D02*
X11145777Y-9090389D01*
X11145777Y-9090389D02*
X11136253Y-9109436D01*
X11136253Y-9109436D02*
X11126729Y-9118960D01*
X11126729Y-9118960D02*
X11107682Y-9128484D01*
X11107682Y-9128484D02*
X11088634Y-9128484D01*
X11088634Y-9128484D02*
X11069587Y-9118960D01*
X11069587Y-9118960D02*
X11060063Y-9109436D01*
X11060063Y-9109436D02*
X11050539Y-9090389D01*
X11050539Y-9090389D02*
X11041015Y-9052293D01*
X11041015Y-9052293D02*
X11041015Y-9004674D01*
X11041015Y-9004674D02*
X11050539Y-8966579D01*
X11050539Y-8966579D02*
X11060063Y-8947531D01*
X11060063Y-8947531D02*
X11069587Y-8938008D01*
X11069587Y-8938008D02*
X11088634Y-8928484D01*
X11241015Y-9109436D02*
X11250539Y-9118960D01*
X11250539Y-9118960D02*
X11241015Y-9128484D01*
X11241015Y-9128484D02*
X11231491Y-9118960D01*
X11231491Y-9118960D02*
X11241015Y-9109436D01*
X11241015Y-9109436D02*
X11241015Y-9128484D01*
X11374348Y-8928484D02*
X11393396Y-8928484D01*
X11393396Y-8928484D02*
X11412444Y-8938008D01*
X11412444Y-8938008D02*
X11421967Y-8947531D01*
X11421967Y-8947531D02*
X11431491Y-8966579D01*
X11431491Y-8966579D02*
X11441015Y-9004674D01*
X11441015Y-9004674D02*
X11441015Y-9052293D01*
X11441015Y-9052293D02*
X11431491Y-9090389D01*
X11431491Y-9090389D02*
X11421967Y-9109436D01*
X11421967Y-9109436D02*
X11412444Y-9118960D01*
X11412444Y-9118960D02*
X11393396Y-9128484D01*
X11393396Y-9128484D02*
X11374348Y-9128484D01*
X11374348Y-9128484D02*
X11355301Y-9118960D01*
X11355301Y-9118960D02*
X11345777Y-9109436D01*
X11345777Y-9109436D02*
X11336253Y-9090389D01*
X11336253Y-9090389D02*
X11326729Y-9052293D01*
X11326729Y-9052293D02*
X11326729Y-9004674D01*
X11326729Y-9004674D02*
X11336253Y-8966579D01*
X11336253Y-8966579D02*
X11345777Y-8947531D01*
X11345777Y-8947531D02*
X11355301Y-8938008D01*
X11355301Y-8938008D02*
X11374348Y-8928484D01*
X11507682Y-8928484D02*
X11631491Y-8928484D01*
X11631491Y-8928484D02*
X11564825Y-9004674D01*
X11564825Y-9004674D02*
X11593396Y-9004674D01*
X11593396Y-9004674D02*
X11612444Y-9014198D01*
X11612444Y-9014198D02*
X11621967Y-9023722D01*
X11621967Y-9023722D02*
X11631491Y-9042770D01*
X11631491Y-9042770D02*
X11631491Y-9090389D01*
X11631491Y-9090389D02*
X11621967Y-9109436D01*
X11621967Y-9109436D02*
X11612444Y-9118960D01*
X11612444Y-9118960D02*
X11593396Y-9128484D01*
X11593396Y-9128484D02*
X11536253Y-9128484D01*
X11536253Y-9128484D02*
X11517206Y-9118960D01*
X11517206Y-9118960D02*
X11507682Y-9109436D01*
X11812444Y-8928484D02*
X11717206Y-8928484D01*
X11717206Y-8928484D02*
X11707682Y-9023722D01*
X11707682Y-9023722D02*
X11717206Y-9014198D01*
X11717206Y-9014198D02*
X11736253Y-9004674D01*
X11736253Y-9004674D02*
X11783872Y-9004674D01*
X11783872Y-9004674D02*
X11802920Y-9014198D01*
X11802920Y-9014198D02*
X11812444Y-9023722D01*
X11812444Y-9023722D02*
X11821967Y-9042770D01*
X11821967Y-9042770D02*
X11821967Y-9090389D01*
X11821967Y-9090389D02*
X11812444Y-9109436D01*
X11812444Y-9109436D02*
X11802920Y-9118960D01*
X11802920Y-9118960D02*
X11783872Y-9128484D01*
X11783872Y-9128484D02*
X11736253Y-9128484D01*
X11736253Y-9128484D02*
X11717206Y-9118960D01*
X11717206Y-9118960D02*
X11707682Y-9109436D01*
X11993396Y-8995150D02*
X11993396Y-9128484D01*
X11945777Y-8918960D02*
X11898158Y-9061817D01*
X11898158Y-9061817D02*
X12021967Y-9061817D01*
X12088634Y-8928484D02*
X12088634Y-8966579D01*
X12164825Y-8928484D02*
X12164825Y-8966579D01*
X12460063Y-9204674D02*
X12450539Y-9195150D01*
X12450539Y-9195150D02*
X12431491Y-9166579D01*
X12431491Y-9166579D02*
X12421968Y-9147531D01*
X12421968Y-9147531D02*
X12412444Y-9118960D01*
X12412444Y-9118960D02*
X12402920Y-9071341D01*
X12402920Y-9071341D02*
X12402920Y-9033246D01*
X12402920Y-9033246D02*
X12412444Y-8985627D01*
X12412444Y-8985627D02*
X12421968Y-8957055D01*
X12421968Y-8957055D02*
X12431491Y-8938008D01*
X12431491Y-8938008D02*
X12450539Y-8909436D01*
X12450539Y-8909436D02*
X12460063Y-8899912D01*
X12641015Y-9128484D02*
X12526729Y-9128484D01*
X12583872Y-9128484D02*
X12583872Y-8928484D01*
X12583872Y-8928484D02*
X12564825Y-8957055D01*
X12564825Y-8957055D02*
X12545777Y-8976103D01*
X12545777Y-8976103D02*
X12526729Y-8985627D01*
X12764825Y-8928484D02*
X12783872Y-8928484D01*
X12783872Y-8928484D02*
X12802920Y-8938008D01*
X12802920Y-8938008D02*
X12812444Y-8947531D01*
X12812444Y-8947531D02*
X12821968Y-8966579D01*
X12821968Y-8966579D02*
X12831491Y-9004674D01*
X12831491Y-9004674D02*
X12831491Y-9052293D01*
X12831491Y-9052293D02*
X12821968Y-9090389D01*
X12821968Y-9090389D02*
X12812444Y-9109436D01*
X12812444Y-9109436D02*
X12802920Y-9118960D01*
X12802920Y-9118960D02*
X12783872Y-9128484D01*
X12783872Y-9128484D02*
X12764825Y-9128484D01*
X12764825Y-9128484D02*
X12745777Y-9118960D01*
X12745777Y-9118960D02*
X12736253Y-9109436D01*
X12736253Y-9109436D02*
X12726729Y-9090389D01*
X12726729Y-9090389D02*
X12717206Y-9052293D01*
X12717206Y-9052293D02*
X12717206Y-9004674D01*
X12717206Y-9004674D02*
X12726729Y-8966579D01*
X12726729Y-8966579D02*
X12736253Y-8947531D01*
X12736253Y-8947531D02*
X12745777Y-8938008D01*
X12745777Y-8938008D02*
X12764825Y-8928484D01*
X13069587Y-9128484D02*
X13069587Y-8928484D01*
X13155301Y-9128484D02*
X13155301Y-9023722D01*
X13155301Y-9023722D02*
X13145777Y-9004674D01*
X13145777Y-9004674D02*
X13126730Y-8995150D01*
X13126730Y-8995150D02*
X13098158Y-8995150D01*
X13098158Y-8995150D02*
X13079110Y-9004674D01*
X13079110Y-9004674D02*
X13069587Y-9014198D01*
X13279110Y-9128484D02*
X13260063Y-9118960D01*
X13260063Y-9118960D02*
X13250539Y-9109436D01*
X13250539Y-9109436D02*
X13241015Y-9090389D01*
X13241015Y-9090389D02*
X13241015Y-9033246D01*
X13241015Y-9033246D02*
X13250539Y-9014198D01*
X13250539Y-9014198D02*
X13260063Y-9004674D01*
X13260063Y-9004674D02*
X13279110Y-8995150D01*
X13279110Y-8995150D02*
X13307682Y-8995150D01*
X13307682Y-8995150D02*
X13326730Y-9004674D01*
X13326730Y-9004674D02*
X13336253Y-9014198D01*
X13336253Y-9014198D02*
X13345777Y-9033246D01*
X13345777Y-9033246D02*
X13345777Y-9090389D01*
X13345777Y-9090389D02*
X13336253Y-9109436D01*
X13336253Y-9109436D02*
X13326730Y-9118960D01*
X13326730Y-9118960D02*
X13307682Y-9128484D01*
X13307682Y-9128484D02*
X13279110Y-9128484D01*
X13460063Y-9128484D02*
X13441015Y-9118960D01*
X13441015Y-9118960D02*
X13431491Y-9099912D01*
X13431491Y-9099912D02*
X13431491Y-8928484D01*
X13612444Y-9118960D02*
X13593396Y-9128484D01*
X13593396Y-9128484D02*
X13555301Y-9128484D01*
X13555301Y-9128484D02*
X13536253Y-9118960D01*
X13536253Y-9118960D02*
X13526730Y-9099912D01*
X13526730Y-9099912D02*
X13526730Y-9023722D01*
X13526730Y-9023722D02*
X13536253Y-9004674D01*
X13536253Y-9004674D02*
X13555301Y-8995150D01*
X13555301Y-8995150D02*
X13593396Y-8995150D01*
X13593396Y-8995150D02*
X13612444Y-9004674D01*
X13612444Y-9004674D02*
X13621968Y-9023722D01*
X13621968Y-9023722D02*
X13621968Y-9042770D01*
X13621968Y-9042770D02*
X13526730Y-9061817D01*
X13698158Y-9118960D02*
X13717206Y-9128484D01*
X13717206Y-9128484D02*
X13755301Y-9128484D01*
X13755301Y-9128484D02*
X13774349Y-9118960D01*
X13774349Y-9118960D02*
X13783872Y-9099912D01*
X13783872Y-9099912D02*
X13783872Y-9090389D01*
X13783872Y-9090389D02*
X13774349Y-9071341D01*
X13774349Y-9071341D02*
X13755301Y-9061817D01*
X13755301Y-9061817D02*
X13726730Y-9061817D01*
X13726730Y-9061817D02*
X13707682Y-9052293D01*
X13707682Y-9052293D02*
X13698158Y-9033246D01*
X13698158Y-9033246D02*
X13698158Y-9023722D01*
X13698158Y-9023722D02*
X13707682Y-9004674D01*
X13707682Y-9004674D02*
X13726730Y-8995150D01*
X13726730Y-8995150D02*
X13755301Y-8995150D01*
X13755301Y-8995150D02*
X13774349Y-9004674D01*
X13850539Y-9204674D02*
X13860063Y-9195150D01*
X13860063Y-9195150D02*
X13879111Y-9166579D01*
X13879111Y-9166579D02*
X13888634Y-9147531D01*
X13888634Y-9147531D02*
X13898158Y-9118960D01*
X13898158Y-9118960D02*
X13907682Y-9071341D01*
X13907682Y-9071341D02*
X13907682Y-9033246D01*
X13907682Y-9033246D02*
X13898158Y-8985627D01*
X13898158Y-8985627D02*
X13888634Y-8957055D01*
X13888634Y-8957055D02*
X13879111Y-8938008D01*
X13879111Y-8938008D02*
X13860063Y-8909436D01*
X13860063Y-8909436D02*
X13850539Y-8899912D01*
D10*
X8835000Y-9251000D02*
X8835000Y-9351000D01*
X8785000Y-9301000D02*
X8885000Y-9301000D01*
D11*
X9250539Y-9392484D02*
X9136253Y-9392484D01*
X9193396Y-9392484D02*
X9193396Y-9192484D01*
X9193396Y-9192484D02*
X9174348Y-9221055D01*
X9174348Y-9221055D02*
X9155301Y-9240103D01*
X9155301Y-9240103D02*
X9136253Y-9249627D01*
X9336253Y-9373436D02*
X9345777Y-9382960D01*
X9345777Y-9382960D02*
X9336253Y-9392484D01*
X9336253Y-9392484D02*
X9326729Y-9382960D01*
X9326729Y-9382960D02*
X9336253Y-9373436D01*
X9336253Y-9373436D02*
X9336253Y-9392484D01*
X9469586Y-9192484D02*
X9488634Y-9192484D01*
X9488634Y-9192484D02*
X9507682Y-9202008D01*
X9507682Y-9202008D02*
X9517205Y-9211531D01*
X9517205Y-9211531D02*
X9526729Y-9230579D01*
X9526729Y-9230579D02*
X9536253Y-9268674D01*
X9536253Y-9268674D02*
X9536253Y-9316293D01*
X9536253Y-9316293D02*
X9526729Y-9354389D01*
X9526729Y-9354389D02*
X9517205Y-9373436D01*
X9517205Y-9373436D02*
X9507682Y-9382960D01*
X9507682Y-9382960D02*
X9488634Y-9392484D01*
X9488634Y-9392484D02*
X9469586Y-9392484D01*
X9469586Y-9392484D02*
X9450539Y-9382960D01*
X9450539Y-9382960D02*
X9441015Y-9373436D01*
X9441015Y-9373436D02*
X9431491Y-9354389D01*
X9431491Y-9354389D02*
X9421967Y-9316293D01*
X9421967Y-9316293D02*
X9421967Y-9268674D01*
X9421967Y-9268674D02*
X9431491Y-9230579D01*
X9431491Y-9230579D02*
X9441015Y-9211531D01*
X9441015Y-9211531D02*
X9450539Y-9202008D01*
X9450539Y-9202008D02*
X9469586Y-9192484D01*
X9660063Y-9192484D02*
X9679110Y-9192484D01*
X9679110Y-9192484D02*
X9698158Y-9202008D01*
X9698158Y-9202008D02*
X9707682Y-9211531D01*
X9707682Y-9211531D02*
X9717205Y-9230579D01*
X9717205Y-9230579D02*
X9726729Y-9268674D01*
X9726729Y-9268674D02*
X9726729Y-9316293D01*
X9726729Y-9316293D02*
X9717205Y-9354389D01*
X9717205Y-9354389D02*
X9707682Y-9373436D01*
X9707682Y-9373436D02*
X9698158Y-9382960D01*
X9698158Y-9382960D02*
X9679110Y-9392484D01*
X9679110Y-9392484D02*
X9660063Y-9392484D01*
X9660063Y-9392484D02*
X9641015Y-9382960D01*
X9641015Y-9382960D02*
X9631491Y-9373436D01*
X9631491Y-9373436D02*
X9621967Y-9354389D01*
X9621967Y-9354389D02*
X9612444Y-9316293D01*
X9612444Y-9316293D02*
X9612444Y-9268674D01*
X9612444Y-9268674D02*
X9621967Y-9230579D01*
X9621967Y-9230579D02*
X9631491Y-9211531D01*
X9631491Y-9211531D02*
X9641015Y-9202008D01*
X9641015Y-9202008D02*
X9660063Y-9192484D01*
X9850539Y-9192484D02*
X9869586Y-9192484D01*
X9869586Y-9192484D02*
X9888634Y-9202008D01*
X9888634Y-9202008D02*
X9898158Y-9211531D01*
X9898158Y-9211531D02*
X9907682Y-9230579D01*
X9907682Y-9230579D02*
X9917205Y-9268674D01*
X9917205Y-9268674D02*
X9917205Y-9316293D01*
X9917205Y-9316293D02*
X9907682Y-9354389D01*
X9907682Y-9354389D02*
X9898158Y-9373436D01*
X9898158Y-9373436D02*
X9888634Y-9382960D01*
X9888634Y-9382960D02*
X9869586Y-9392484D01*
X9869586Y-9392484D02*
X9850539Y-9392484D01*
X9850539Y-9392484D02*
X9831491Y-9382960D01*
X9831491Y-9382960D02*
X9821967Y-9373436D01*
X9821967Y-9373436D02*
X9812444Y-9354389D01*
X9812444Y-9354389D02*
X9802920Y-9316293D01*
X9802920Y-9316293D02*
X9802920Y-9268674D01*
X9802920Y-9268674D02*
X9812444Y-9230579D01*
X9812444Y-9230579D02*
X9821967Y-9211531D01*
X9821967Y-9211531D02*
X9831491Y-9202008D01*
X9831491Y-9202008D02*
X9850539Y-9192484D01*
X10002920Y-9392484D02*
X10002920Y-9259150D01*
X10002920Y-9278198D02*
X10012444Y-9268674D01*
X10012444Y-9268674D02*
X10031491Y-9259150D01*
X10031491Y-9259150D02*
X10060063Y-9259150D01*
X10060063Y-9259150D02*
X10079110Y-9268674D01*
X10079110Y-9268674D02*
X10088634Y-9287722D01*
X10088634Y-9287722D02*
X10088634Y-9392484D01*
X10088634Y-9287722D02*
X10098158Y-9268674D01*
X10098158Y-9268674D02*
X10117205Y-9259150D01*
X10117205Y-9259150D02*
X10145777Y-9259150D01*
X10145777Y-9259150D02*
X10164825Y-9268674D01*
X10164825Y-9268674D02*
X10174348Y-9287722D01*
X10174348Y-9287722D02*
X10174348Y-9392484D01*
X10269586Y-9392484D02*
X10269586Y-9259150D01*
X10269586Y-9278198D02*
X10279110Y-9268674D01*
X10279110Y-9268674D02*
X10298158Y-9259150D01*
X10298158Y-9259150D02*
X10326729Y-9259150D01*
X10326729Y-9259150D02*
X10345777Y-9268674D01*
X10345777Y-9268674D02*
X10355301Y-9287722D01*
X10355301Y-9287722D02*
X10355301Y-9392484D01*
X10355301Y-9287722D02*
X10364825Y-9268674D01*
X10364825Y-9268674D02*
X10383872Y-9259150D01*
X10383872Y-9259150D02*
X10412444Y-9259150D01*
X10412444Y-9259150D02*
X10431491Y-9268674D01*
X10431491Y-9268674D02*
X10441015Y-9287722D01*
X10441015Y-9287722D02*
X10441015Y-9392484D01*
X10831491Y-9182960D02*
X10660063Y-9440103D01*
X11088634Y-9192484D02*
X11107682Y-9192484D01*
X11107682Y-9192484D02*
X11126729Y-9202008D01*
X11126729Y-9202008D02*
X11136253Y-9211531D01*
X11136253Y-9211531D02*
X11145777Y-9230579D01*
X11145777Y-9230579D02*
X11155301Y-9268674D01*
X11155301Y-9268674D02*
X11155301Y-9316293D01*
X11155301Y-9316293D02*
X11145777Y-9354389D01*
X11145777Y-9354389D02*
X11136253Y-9373436D01*
X11136253Y-9373436D02*
X11126729Y-9382960D01*
X11126729Y-9382960D02*
X11107682Y-9392484D01*
X11107682Y-9392484D02*
X11088634Y-9392484D01*
X11088634Y-9392484D02*
X11069587Y-9382960D01*
X11069587Y-9382960D02*
X11060063Y-9373436D01*
X11060063Y-9373436D02*
X11050539Y-9354389D01*
X11050539Y-9354389D02*
X11041015Y-9316293D01*
X11041015Y-9316293D02*
X11041015Y-9268674D01*
X11041015Y-9268674D02*
X11050539Y-9230579D01*
X11050539Y-9230579D02*
X11060063Y-9211531D01*
X11060063Y-9211531D02*
X11069587Y-9202008D01*
X11069587Y-9202008D02*
X11088634Y-9192484D01*
X11241015Y-9373436D02*
X11250539Y-9382960D01*
X11250539Y-9382960D02*
X11241015Y-9392484D01*
X11241015Y-9392484D02*
X11231491Y-9382960D01*
X11231491Y-9382960D02*
X11241015Y-9373436D01*
X11241015Y-9373436D02*
X11241015Y-9392484D01*
X11374348Y-9192484D02*
X11393396Y-9192484D01*
X11393396Y-9192484D02*
X11412444Y-9202008D01*
X11412444Y-9202008D02*
X11421967Y-9211531D01*
X11421967Y-9211531D02*
X11431491Y-9230579D01*
X11431491Y-9230579D02*
X11441015Y-9268674D01*
X11441015Y-9268674D02*
X11441015Y-9316293D01*
X11441015Y-9316293D02*
X11431491Y-9354389D01*
X11431491Y-9354389D02*
X11421967Y-9373436D01*
X11421967Y-9373436D02*
X11412444Y-9382960D01*
X11412444Y-9382960D02*
X11393396Y-9392484D01*
X11393396Y-9392484D02*
X11374348Y-9392484D01*
X11374348Y-9392484D02*
X11355301Y-9382960D01*
X11355301Y-9382960D02*
X11345777Y-9373436D01*
X11345777Y-9373436D02*
X11336253Y-9354389D01*
X11336253Y-9354389D02*
X11326729Y-9316293D01*
X11326729Y-9316293D02*
X11326729Y-9268674D01*
X11326729Y-9268674D02*
X11336253Y-9230579D01*
X11336253Y-9230579D02*
X11345777Y-9211531D01*
X11345777Y-9211531D02*
X11355301Y-9202008D01*
X11355301Y-9202008D02*
X11374348Y-9192484D01*
X11507682Y-9192484D02*
X11631491Y-9192484D01*
X11631491Y-9192484D02*
X11564825Y-9268674D01*
X11564825Y-9268674D02*
X11593396Y-9268674D01*
X11593396Y-9268674D02*
X11612444Y-9278198D01*
X11612444Y-9278198D02*
X11621967Y-9287722D01*
X11621967Y-9287722D02*
X11631491Y-9306770D01*
X11631491Y-9306770D02*
X11631491Y-9354389D01*
X11631491Y-9354389D02*
X11621967Y-9373436D01*
X11621967Y-9373436D02*
X11612444Y-9382960D01*
X11612444Y-9382960D02*
X11593396Y-9392484D01*
X11593396Y-9392484D02*
X11536253Y-9392484D01*
X11536253Y-9392484D02*
X11517206Y-9382960D01*
X11517206Y-9382960D02*
X11507682Y-9373436D01*
X11726729Y-9392484D02*
X11764825Y-9392484D01*
X11764825Y-9392484D02*
X11783872Y-9382960D01*
X11783872Y-9382960D02*
X11793396Y-9373436D01*
X11793396Y-9373436D02*
X11812444Y-9344865D01*
X11812444Y-9344865D02*
X11821967Y-9306770D01*
X11821967Y-9306770D02*
X11821967Y-9230579D01*
X11821967Y-9230579D02*
X11812444Y-9211531D01*
X11812444Y-9211531D02*
X11802920Y-9202008D01*
X11802920Y-9202008D02*
X11783872Y-9192484D01*
X11783872Y-9192484D02*
X11745777Y-9192484D01*
X11745777Y-9192484D02*
X11726729Y-9202008D01*
X11726729Y-9202008D02*
X11717206Y-9211531D01*
X11717206Y-9211531D02*
X11707682Y-9230579D01*
X11707682Y-9230579D02*
X11707682Y-9278198D01*
X11707682Y-9278198D02*
X11717206Y-9297246D01*
X11717206Y-9297246D02*
X11726729Y-9306770D01*
X11726729Y-9306770D02*
X11745777Y-9316293D01*
X11745777Y-9316293D02*
X11783872Y-9316293D01*
X11783872Y-9316293D02*
X11802920Y-9306770D01*
X11802920Y-9306770D02*
X11812444Y-9297246D01*
X11812444Y-9297246D02*
X11821967Y-9278198D01*
X11993396Y-9259150D02*
X11993396Y-9392484D01*
X11945777Y-9182960D02*
X11898158Y-9325817D01*
X11898158Y-9325817D02*
X12021967Y-9325817D01*
X12088634Y-9192484D02*
X12088634Y-9230579D01*
X12164825Y-9192484D02*
X12164825Y-9230579D01*
X12460063Y-9468674D02*
X12450539Y-9459150D01*
X12450539Y-9459150D02*
X12431491Y-9430579D01*
X12431491Y-9430579D02*
X12421968Y-9411531D01*
X12421968Y-9411531D02*
X12412444Y-9382960D01*
X12412444Y-9382960D02*
X12402920Y-9335341D01*
X12402920Y-9335341D02*
X12402920Y-9297246D01*
X12402920Y-9297246D02*
X12412444Y-9249627D01*
X12412444Y-9249627D02*
X12421968Y-9221055D01*
X12421968Y-9221055D02*
X12431491Y-9202008D01*
X12431491Y-9202008D02*
X12450539Y-9173436D01*
X12450539Y-9173436D02*
X12460063Y-9163912D01*
X12621968Y-9192484D02*
X12583872Y-9192484D01*
X12583872Y-9192484D02*
X12564825Y-9202008D01*
X12564825Y-9202008D02*
X12555301Y-9211531D01*
X12555301Y-9211531D02*
X12536253Y-9240103D01*
X12536253Y-9240103D02*
X12526729Y-9278198D01*
X12526729Y-9278198D02*
X12526729Y-9354389D01*
X12526729Y-9354389D02*
X12536253Y-9373436D01*
X12536253Y-9373436D02*
X12545777Y-9382960D01*
X12545777Y-9382960D02*
X12564825Y-9392484D01*
X12564825Y-9392484D02*
X12602920Y-9392484D01*
X12602920Y-9392484D02*
X12621968Y-9382960D01*
X12621968Y-9382960D02*
X12631491Y-9373436D01*
X12631491Y-9373436D02*
X12641015Y-9354389D01*
X12641015Y-9354389D02*
X12641015Y-9306770D01*
X12641015Y-9306770D02*
X12631491Y-9287722D01*
X12631491Y-9287722D02*
X12621968Y-9278198D01*
X12621968Y-9278198D02*
X12602920Y-9268674D01*
X12602920Y-9268674D02*
X12564825Y-9268674D01*
X12564825Y-9268674D02*
X12545777Y-9278198D01*
X12545777Y-9278198D02*
X12536253Y-9287722D01*
X12536253Y-9287722D02*
X12526729Y-9306770D01*
X12879110Y-9392484D02*
X12879110Y-9192484D01*
X12964825Y-9392484D02*
X12964825Y-9287722D01*
X12964825Y-9287722D02*
X12955301Y-9268674D01*
X12955301Y-9268674D02*
X12936253Y-9259150D01*
X12936253Y-9259150D02*
X12907682Y-9259150D01*
X12907682Y-9259150D02*
X12888634Y-9268674D01*
X12888634Y-9268674D02*
X12879110Y-9278198D01*
X13088634Y-9392484D02*
X13069587Y-9382960D01*
X13069587Y-9382960D02*
X13060063Y-9373436D01*
X13060063Y-9373436D02*
X13050539Y-9354389D01*
X13050539Y-9354389D02*
X13050539Y-9297246D01*
X13050539Y-9297246D02*
X13060063Y-9278198D01*
X13060063Y-9278198D02*
X13069587Y-9268674D01*
X13069587Y-9268674D02*
X13088634Y-9259150D01*
X13088634Y-9259150D02*
X13117206Y-9259150D01*
X13117206Y-9259150D02*
X13136253Y-9268674D01*
X13136253Y-9268674D02*
X13145777Y-9278198D01*
X13145777Y-9278198D02*
X13155301Y-9297246D01*
X13155301Y-9297246D02*
X13155301Y-9354389D01*
X13155301Y-9354389D02*
X13145777Y-9373436D01*
X13145777Y-9373436D02*
X13136253Y-9382960D01*
X13136253Y-9382960D02*
X13117206Y-9392484D01*
X13117206Y-9392484D02*
X13088634Y-9392484D01*
X13269587Y-9392484D02*
X13250539Y-9382960D01*
X13250539Y-9382960D02*
X13241015Y-9363912D01*
X13241015Y-9363912D02*
X13241015Y-9192484D01*
X13421968Y-9382960D02*
X13402920Y-9392484D01*
X13402920Y-9392484D02*
X13364825Y-9392484D01*
X13364825Y-9392484D02*
X13345777Y-9382960D01*
X13345777Y-9382960D02*
X13336253Y-9363912D01*
X13336253Y-9363912D02*
X13336253Y-9287722D01*
X13336253Y-9287722D02*
X13345777Y-9268674D01*
X13345777Y-9268674D02*
X13364825Y-9259150D01*
X13364825Y-9259150D02*
X13402920Y-9259150D01*
X13402920Y-9259150D02*
X13421968Y-9268674D01*
X13421968Y-9268674D02*
X13431491Y-9287722D01*
X13431491Y-9287722D02*
X13431491Y-9306770D01*
X13431491Y-9306770D02*
X13336253Y-9325817D01*
X13507682Y-9382960D02*
X13526730Y-9392484D01*
X13526730Y-9392484D02*
X13564825Y-9392484D01*
X13564825Y-9392484D02*
X13583872Y-9382960D01*
X13583872Y-9382960D02*
X13593396Y-9363912D01*
X13593396Y-9363912D02*
X13593396Y-9354389D01*
X13593396Y-9354389D02*
X13583872Y-9335341D01*
X13583872Y-9335341D02*
X13564825Y-9325817D01*
X13564825Y-9325817D02*
X13536253Y-9325817D01*
X13536253Y-9325817D02*
X13517206Y-9316293D01*
X13517206Y-9316293D02*
X13507682Y-9297246D01*
X13507682Y-9297246D02*
X13507682Y-9287722D01*
X13507682Y-9287722D02*
X13517206Y-9268674D01*
X13517206Y-9268674D02*
X13536253Y-9259150D01*
X13536253Y-9259150D02*
X13564825Y-9259150D01*
X13564825Y-9259150D02*
X13583872Y-9268674D01*
X13660063Y-9468674D02*
X13669587Y-9459150D01*
X13669587Y-9459150D02*
X13688634Y-9430579D01*
X13688634Y-9430579D02*
X13698158Y-9411531D01*
X13698158Y-9411531D02*
X13707682Y-9382960D01*
X13707682Y-9382960D02*
X13717206Y-9335341D01*
X13717206Y-9335341D02*
X13717206Y-9297246D01*
X13717206Y-9297246D02*
X13707682Y-9249627D01*
X13707682Y-9249627D02*
X13698158Y-9221055D01*
X13698158Y-9221055D02*
X13688634Y-9202008D01*
X13688634Y-9202008D02*
X13669587Y-9173436D01*
X13669587Y-9173436D02*
X13660063Y-9163912D01*
M02*
